<svg width="273" height="104" viewBox="0 0 273 104" fill="none" xmlns="http://www.w3.org/2000/svg">
<path d="M0.629422 83.682H86.9654V66.358H66.6594L64.2454 68.488H28.7454L52.1754 34.976V75.446L50.4714 77.008V102H71.3454V2.59999H57.5714L0.629422 83.682ZM117.795 52.3C117.795 47.2827 118.268 42.7387 119.215 38.668C120.162 34.5027 121.534 30.9527 123.333 28.018C125.132 24.9887 127.262 22.6693 129.723 21.06C132.184 19.4507 134.93 18.646 137.959 18.646C141.083 18.646 143.876 19.4507 146.337 21.06C148.798 22.6693 150.928 24.9887 152.727 28.018C154.526 30.9527 155.898 34.5027 156.845 38.668C157.792 42.7387 158.265 47.2827 158.265 52.3C158.265 57.3173 157.792 61.9087 156.845 66.074C155.898 70.1447 154.526 73.6947 152.727 76.724C150.928 79.6587 148.798 81.9307 146.337 83.54C143.876 85.1493 141.083 85.954 137.959 85.954C134.93 85.954 132.184 85.1493 129.723 83.54C127.262 81.9307 125.132 79.6587 123.333 76.724C121.534 73.6947 120.162 70.1447 119.215 66.074C118.268 61.9087 117.795 57.3173 117.795 52.3ZM98.057 52.3C98.057 62.808 99.7136 71.896 103.027 79.564C106.435 87.232 111.121 93.196 117.085 97.456C123.144 101.621 130.102 103.704 137.959 103.704C146.1 103.704 153.153 101.621 159.117 97.456C165.081 93.196 169.72 87.232 173.033 79.564C176.346 71.896 178.003 62.808 178.003 52.3C178.003 41.792 176.346 32.704 173.033 25.036C169.72 17.368 165.081 11.4513 159.117 7.28599C153.153 3.026 146.1 0.895998 137.959 0.895998C130.102 0.895998 123.144 3.026 117.085 7.28599C111.121 11.4513 106.435 17.368 103.027 25.036C99.7136 32.704 98.057 41.792 98.057 52.3ZM185.895 83.682H272.231V66.358H251.925L249.511 68.488H214.011L237.441 34.976V75.446L235.737 77.008V102H256.611V2.59999H242.837L185.895 83.682Z" fill="#F2F4F7" fill-opacity="0.04"/>
</svg>
