<svg width="258" height="202" viewBox="0 0 258 202" fill="none" xmlns="http://www.w3.org/2000/svg">
<g filter="url(#filter0_d_75_259)">
<rect x="4" width="250" height="194" rx="14" fill="white"/>
<path d="M42.084 44C41.972 44 41.904 43.948 41.88 43.844L41.616 42.908C41.6 42.876 41.58 42.86 41.556 42.86H39.012C38.988 42.86 38.968 42.876 38.952 42.908L38.688 43.844C38.664 43.948 38.596 44 38.484 44H36.432C36.288 44 36.236 43.932 36.276 43.796L38.808 35.744C38.84 35.648 38.908 35.6 39.012 35.6H41.556C41.66 35.6 41.728 35.648 41.76 35.744L44.292 43.796C44.3 43.812 44.304 43.836 44.304 43.868C44.304 43.956 44.248 44 44.136 44H42.084ZM39.48 41.06C39.472 41.108 39.488 41.132 39.528 41.132H41.028C41.076 41.132 41.092 41.108 41.076 41.06L40.308 38.372C40.3 38.348 40.288 38.336 40.272 38.336C40.256 38.336 40.244 38.348 40.236 38.372L39.48 41.06ZM48.6168 44.096C47.9448 44.096 47.3568 43.988 46.8528 43.772C46.3488 43.548 45.9568 43.232 45.6768 42.824C45.4048 42.416 45.2688 41.944 45.2688 41.408V41.24C45.2688 41.184 45.2848 41.14 45.3168 41.108C45.3488 41.076 45.3928 41.06 45.4488 41.06H47.3088C47.3648 41.06 47.4088 41.076 47.4408 41.108C47.4728 41.14 47.4888 41.184 47.4888 41.24V41.312C47.4888 41.536 47.6048 41.736 47.8368 41.912C48.0768 42.08 48.3928 42.164 48.7848 42.164C49.0808 42.164 49.2928 42.104 49.4208 41.984C49.5488 41.856 49.6128 41.716 49.6128 41.564C49.6128 41.388 49.5328 41.256 49.3728 41.168C49.2128 41.08 48.9208 40.972 48.4967 40.844L48.1488 40.748C47.3568 40.508 46.6928 40.188 46.1568 39.788C45.6208 39.388 45.3528 38.808 45.3528 38.048C45.3528 37.544 45.4888 37.1 45.7607 36.716C46.0328 36.324 46.4048 36.024 46.8768 35.816C47.3568 35.608 47.8928 35.504 48.4848 35.504C49.1088 35.504 49.6728 35.62 50.1768 35.852C50.6888 36.084 51.0888 36.412 51.3768 36.836C51.6728 37.26 51.8208 37.744 51.8208 38.288V38.396C51.8208 38.452 51.8048 38.496 51.7728 38.528C51.7408 38.56 51.6968 38.576 51.6408 38.576H49.7808C49.7248 38.576 49.6808 38.56 49.6488 38.528C49.6168 38.496 49.6008 38.452 49.6008 38.396V38.384C49.6008 38.144 49.4928 37.928 49.2768 37.736C49.0608 37.536 48.7688 37.436 48.4008 37.436C48.1448 37.436 47.9408 37.488 47.7888 37.592C47.6448 37.696 47.5728 37.84 47.5728 38.024C47.5728 38.168 47.6248 38.292 47.7288 38.396C47.8408 38.492 48.0088 38.588 48.2328 38.684C48.4568 38.772 48.8008 38.888 49.2648 39.032C49.3288 39.056 49.6088 39.144 50.1048 39.296C50.6088 39.44 51.0288 39.708 51.3648 40.1C51.7008 40.484 51.8688 40.952 51.8688 41.504C51.8688 42.04 51.7328 42.504 51.4608 42.896C51.1888 43.28 50.8088 43.576 50.3208 43.784C49.8328 43.992 49.2648 44.096 48.6168 44.096ZM56.8355 44.096C56.1635 44.096 55.5755 43.988 55.0715 43.772C54.5675 43.548 54.1755 43.232 53.8955 42.824C53.6235 42.416 53.4875 41.944 53.4875 41.408V41.24C53.4875 41.184 53.5035 41.14 53.5355 41.108C53.5675 41.076 53.6115 41.06 53.6675 41.06H55.5275C55.5835 41.06 55.6275 41.076 55.6595 41.108C55.6915 41.14 55.7075 41.184 55.7075 41.24V41.312C55.7075 41.536 55.8235 41.736 56.0555 41.912C56.2955 42.08 56.6115 42.164 57.0035 42.164C57.2995 42.164 57.5115 42.104 57.6395 41.984C57.7675 41.856 57.8315 41.716 57.8315 41.564C57.8315 41.388 57.7515 41.256 57.5915 41.168C57.4315 41.08 57.1395 40.972 56.7155 40.844L56.3675 40.748C55.5755 40.508 54.9115 40.188 54.3755 39.788C53.8395 39.388 53.5715 38.808 53.5715 38.048C53.5715 37.544 53.7075 37.1 53.9795 36.716C54.2515 36.324 54.6235 36.024 55.0955 35.816C55.5755 35.608 56.1115 35.504 56.7035 35.504C57.3275 35.504 57.8915 35.62 58.3955 35.852C58.9075 36.084 59.3075 36.412 59.5955 36.836C59.8915 37.26 60.0395 37.744 60.0395 38.288V38.396C60.0395 38.452 60.0235 38.496 59.9915 38.528C59.9595 38.56 59.9155 38.576 59.8595 38.576H57.9995C57.9435 38.576 57.8995 38.56 57.8675 38.528C57.8355 38.496 57.8195 38.452 57.8195 38.396V38.384C57.8195 38.144 57.7115 37.928 57.4955 37.736C57.2795 37.536 56.9875 37.436 56.6195 37.436C56.3635 37.436 56.1595 37.488 56.0075 37.592C55.8635 37.696 55.7915 37.84 55.7915 38.024C55.7915 38.168 55.8435 38.292 55.9475 38.396C56.0595 38.492 56.2275 38.588 56.4515 38.684C56.6755 38.772 57.0195 38.888 57.4835 39.032C57.5475 39.056 57.8275 39.144 58.3235 39.296C58.8275 39.44 59.2475 39.708 59.5835 40.1C59.9195 40.484 60.0875 40.952 60.0875 41.504C60.0875 42.04 59.9515 42.504 59.6795 42.896C59.4075 43.28 59.0275 43.576 58.5395 43.784C58.0515 43.992 57.4835 44.096 56.8355 44.096ZM62.0543 44C61.9983 44 61.9543 43.984 61.9223 43.952C61.8903 43.92 61.8743 43.876 61.8743 43.82V35.78C61.8743 35.724 61.8903 35.68 61.9223 35.648C61.9543 35.616 61.9983 35.6 62.0543 35.6H63.9503C64.0063 35.6 64.0503 35.616 64.0823 35.648C64.1143 35.68 64.1303 35.724 64.1303 35.78V43.82C64.1303 43.876 64.1143 43.92 64.0823 43.952C64.0503 43.984 64.0063 44 63.9503 44H62.0543ZM69.2658 44.096C68.6098 44.096 68.0298 43.964 67.5258 43.7C67.0298 43.436 66.6418 43.064 66.3618 42.584C66.0898 42.104 65.9538 41.552 65.9538 40.928V38.66C65.9538 38.036 66.0898 37.488 66.3618 37.016C66.6418 36.536 67.0298 36.164 67.5258 35.9C68.0298 35.636 68.6098 35.504 69.2658 35.504C69.9058 35.504 70.4778 35.632 70.9818 35.888C71.4858 36.136 71.8738 36.476 72.1458 36.908C72.4258 37.34 72.5658 37.812 72.5658 38.324V38.336C72.5658 38.392 72.5498 38.436 72.5178 38.468C72.4858 38.5 72.4418 38.516 72.3858 38.516H70.5018C70.3818 38.516 70.3218 38.48 70.3218 38.408C70.3218 38.144 70.2258 37.916 70.0338 37.724C69.8498 37.532 69.5938 37.436 69.2658 37.436C68.9458 37.436 68.6898 37.544 68.4978 37.76C68.3058 37.968 68.2098 38.248 68.2098 38.6V41C68.2098 41.344 68.3178 41.624 68.5338 41.84C68.7578 42.056 69.0338 42.164 69.3618 42.164C69.6578 42.164 69.8978 42.084 70.0818 41.924C70.2738 41.756 70.3698 41.528 70.3698 41.24V41.084C70.3698 41.044 70.3498 41.024 70.3098 41.024H69.2538C69.1978 41.024 69.1538 41.008 69.1217 40.976C69.0898 40.944 69.0738 40.9 69.0738 40.844V39.404C69.0738 39.348 69.0898 39.304 69.1217 39.272C69.1538 39.24 69.1978 39.224 69.2538 39.224H72.3858C72.4418 39.224 72.4858 39.24 72.5178 39.272C72.5498 39.304 72.5658 39.348 72.5658 39.404V41.048C72.5658 41.64 72.4258 42.168 72.1458 42.632C71.8738 43.096 71.4858 43.456 70.9818 43.712C70.4858 43.968 69.9138 44.096 69.2658 44.096ZM79.1017 35.78C79.1017 35.724 79.1177 35.68 79.1497 35.648C79.1817 35.616 79.2257 35.6 79.2817 35.6H81.1777C81.2337 35.6 81.2777 35.616 81.3097 35.648C81.3417 35.68 81.3577 35.724 81.3577 35.78V43.82C81.3577 43.876 81.3417 43.92 81.3097 43.952C81.2777 43.984 81.2337 44 81.1777 44H79.3657C79.2697 44 79.1977 43.96 79.1497 43.88L76.7017 39.8C76.6857 39.776 76.6697 39.768 76.6537 39.776C76.6377 39.776 76.6297 39.792 76.6297 39.824L76.6537 43.82C76.6537 43.876 76.6377 43.92 76.6057 43.952C76.5737 43.984 76.5297 44 76.4737 44H74.5777C74.5217 44 74.4777 43.984 74.4457 43.952C74.4137 43.92 74.3977 43.876 74.3977 43.82V35.78C74.3977 35.724 74.4137 35.68 74.4457 35.648C74.4777 35.616 74.5217 35.6 74.5777 35.6H76.3897C76.4857 35.6 76.5577 35.64 76.6057 35.72L79.0417 39.8C79.0577 39.824 79.0737 39.836 79.0897 39.836C79.1057 39.828 79.1137 39.808 79.1137 39.776L79.1017 35.78ZM89.3801 37.352C89.3801 37.408 89.3641 37.452 89.3321 37.484C89.3001 37.516 89.2561 37.532 89.2001 37.532H85.6121C85.5721 37.532 85.5521 37.552 85.5521 37.592V38.72C85.5521 38.76 85.5721 38.78 85.6121 38.78H87.8321C87.8881 38.78 87.9321 38.796 87.9641 38.828C87.9961 38.86 88.0121 38.904 88.0121 38.96V40.52C88.0121 40.576 87.9961 40.62 87.9641 40.652C87.9321 40.684 87.8881 40.7 87.8321 40.7H85.6121C85.5721 40.7 85.5521 40.72 85.5521 40.76V42.008C85.5521 42.048 85.5721 42.068 85.6121 42.068H89.2001C89.2561 42.068 89.3001 42.084 89.3321 42.116C89.3641 42.148 89.3801 42.192 89.3801 42.248V43.82C89.3801 43.876 89.3641 43.92 89.3321 43.952C89.3001 43.984 89.2561 44 89.2001 44H83.4761C83.4201 44 83.3761 43.984 83.3441 43.952C83.3121 43.92 83.2961 43.876 83.2961 43.82V35.78C83.2961 35.724 83.3121 35.68 83.3441 35.648C83.3761 35.616 83.4201 35.6 83.4761 35.6H89.2001C89.2561 35.6 89.3001 35.616 89.3321 35.648C89.3641 35.68 89.3801 35.724 89.3801 35.78V37.352ZM91.3199 44C91.2639 44 91.2199 43.984 91.1879 43.952C91.1559 43.92 91.1399 43.876 91.1399 43.82V35.78C91.1399 35.724 91.1559 35.68 91.1879 35.648C91.2199 35.616 91.2639 35.6 91.3199 35.6H94.4039C95.0519 35.6 95.6239 35.712 96.1199 35.936C96.6239 36.16 97.0119 36.476 97.2839 36.884C97.5559 37.292 97.6919 37.764 97.6919 38.3V41.3C97.6919 41.836 97.5559 42.308 97.2839 42.716C97.0119 43.124 96.6239 43.44 96.1199 43.664C95.6239 43.888 95.0519 44 94.4039 44H91.3199ZM93.3959 42.008C93.3959 42.048 93.4159 42.068 93.4559 42.068H94.4879C94.7599 42.068 94.9839 41.964 95.1599 41.756C95.3359 41.54 95.4279 41.26 95.4359 40.916V38.684C95.4359 38.34 95.3479 38.064 95.1719 37.856C94.9959 37.64 94.7639 37.532 94.4759 37.532H93.4559C93.4159 37.532 93.3959 37.552 93.3959 37.592V42.008ZM109.236 35.6C109.292 35.6 109.336 35.616 109.368 35.648C109.4 35.68 109.416 35.724 109.416 35.78V37.364C109.416 37.42 109.4 37.464 109.368 37.496C109.336 37.528 109.292 37.544 109.236 37.544H107.22C107.18 37.544 107.16 37.564 107.16 37.604V43.82C107.16 43.876 107.144 43.92 107.112 43.952C107.08 43.984 107.036 44 106.98 44H105.084C105.028 44 104.984 43.984 104.952 43.952C104.92 43.92 104.904 43.876 104.904 43.82V37.604C104.904 37.564 104.884 37.544 104.844 37.544H102.888C102.832 37.544 102.788 37.528 102.756 37.496C102.724 37.464 102.708 37.42 102.708 37.364V35.78C102.708 35.724 102.724 35.68 102.756 35.648C102.788 35.616 102.832 35.6 102.888 35.6H109.236ZM111.277 44C111.221 44 111.177 43.984 111.145 43.952C111.113 43.92 111.097 43.876 111.097 43.82V35.78C111.097 35.724 111.113 35.68 111.145 35.648C111.177 35.616 111.221 35.6 111.277 35.6H113.173C113.229 35.6 113.273 35.616 113.305 35.648C113.337 35.68 113.353 35.724 113.353 35.78V43.82C113.353 43.876 113.337 43.92 113.305 43.952C113.273 43.984 113.229 44 113.173 44H111.277ZM118.488 44.096C117.832 44.096 117.252 43.968 116.748 43.712C116.252 43.456 115.864 43.096 115.584 42.632C115.312 42.16 115.176 41.616 115.176 41V38.576C115.176 37.968 115.312 37.432 115.584 36.968C115.864 36.504 116.252 36.144 116.748 35.888C117.252 35.632 117.832 35.504 118.488 35.504C119.144 35.504 119.72 35.624 120.216 35.864C120.72 36.104 121.108 36.444 121.38 36.884C121.66 37.316 121.8 37.82 121.8 38.396C121.8 38.468 121.74 38.512 121.62 38.528L119.724 38.648H119.688C119.592 38.648 119.544 38.604 119.544 38.516C119.544 38.188 119.448 37.928 119.256 37.736C119.064 37.536 118.808 37.436 118.488 37.436C118.168 37.436 117.912 37.536 117.72 37.736C117.528 37.928 117.432 38.188 117.432 38.516V41.096C117.432 41.416 117.528 41.676 117.72 41.876C117.912 42.068 118.168 42.164 118.488 42.164C118.808 42.164 119.064 42.068 119.256 41.876C119.448 41.676 119.544 41.416 119.544 41.096C119.544 41.048 119.56 41.012 119.592 40.988C119.624 40.964 119.668 40.956 119.724 40.964L121.62 41.06C121.74 41.068 121.8 41.108 121.8 41.18C121.8 41.756 121.66 42.264 121.38 42.704C121.108 43.144 120.72 43.488 120.216 43.736C119.72 43.976 119.144 44.096 118.488 44.096ZM123.777 44C123.721 44 123.677 43.984 123.645 43.952C123.613 43.92 123.597 43.876 123.597 43.82V35.78C123.597 35.724 123.613 35.68 123.645 35.648C123.677 35.616 123.721 35.6 123.777 35.6H125.673C125.729 35.6 125.773 35.616 125.805 35.648C125.837 35.68 125.853 35.724 125.853 35.78V38.648C125.853 38.672 125.861 38.688 125.877 38.696C125.893 38.704 125.909 38.696 125.925 38.672L128.013 35.708C128.061 35.636 128.137 35.6 128.241 35.6H130.389C130.485 35.6 130.533 35.636 130.533 35.708C130.533 35.74 130.521 35.776 130.497 35.816L128.001 39.284C127.985 39.308 127.985 39.336 128.001 39.368L130.581 43.784C130.605 43.816 130.617 43.852 130.617 43.892C130.617 43.964 130.565 44 130.461 44H128.337C128.233 44 128.161 43.96 128.121 43.88L126.465 40.928C126.457 40.904 126.445 40.892 126.429 40.892C126.413 40.892 126.397 40.904 126.381 40.928L125.877 41.696C125.861 41.728 125.853 41.752 125.853 41.768V43.82C125.853 43.876 125.837 43.92 125.805 43.952C125.773 43.984 125.729 44 125.673 44H123.777ZM138.31 37.352C138.31 37.408 138.294 37.452 138.262 37.484C138.23 37.516 138.186 37.532 138.13 37.532H134.542C134.502 37.532 134.482 37.552 134.482 37.592V38.72C134.482 38.76 134.502 38.78 134.542 38.78H136.762C136.818 38.78 136.862 38.796 136.894 38.828C136.926 38.86 136.942 38.904 136.942 38.96V40.52C136.942 40.576 136.926 40.62 136.894 40.652C136.862 40.684 136.818 40.7 136.762 40.7H134.542C134.502 40.7 134.482 40.72 134.482 40.76V42.008C134.482 42.048 134.502 42.068 134.542 42.068H138.13C138.186 42.068 138.23 42.084 138.262 42.116C138.294 42.148 138.31 42.192 138.31 42.248V43.82C138.31 43.876 138.294 43.92 138.262 43.952C138.23 43.984 138.186 44 138.13 44H132.406C132.35 44 132.306 43.984 132.274 43.952C132.242 43.92 132.226 43.876 132.226 43.82V35.78C132.226 35.724 132.242 35.68 132.274 35.648C132.306 35.616 132.35 35.6 132.406 35.6H138.13C138.186 35.6 138.23 35.616 138.262 35.648C138.294 35.68 138.31 35.724 138.31 35.78V37.352ZM146.346 35.6C146.402 35.6 146.446 35.616 146.478 35.648C146.51 35.68 146.526 35.724 146.526 35.78V37.364C146.526 37.42 146.51 37.464 146.478 37.496C146.446 37.528 146.402 37.544 146.346 37.544H144.33C144.29 37.544 144.27 37.564 144.27 37.604V43.82C144.27 43.876 144.254 43.92 144.222 43.952C144.19 43.984 144.146 44 144.09 44H142.194C142.138 44 142.094 43.984 142.062 43.952C142.03 43.92 142.014 43.876 142.014 43.82V37.604C142.014 37.564 141.994 37.544 141.954 37.544H139.998C139.942 37.544 139.898 37.528 139.866 37.496C139.834 37.464 139.818 37.42 139.818 37.364V35.78C139.818 35.724 139.834 35.68 139.866 35.648C139.898 35.616 139.942 35.6 139.998 35.6H146.346ZM151.293 44.096C150.621 44.096 150.033 43.988 149.529 43.772C149.025 43.548 148.633 43.232 148.353 42.824C148.081 42.416 147.945 41.944 147.945 41.408V41.24C147.945 41.184 147.961 41.14 147.993 41.108C148.025 41.076 148.069 41.06 148.125 41.06H149.985C150.041 41.06 150.085 41.076 150.117 41.108C150.149 41.14 150.165 41.184 150.165 41.24V41.312C150.165 41.536 150.281 41.736 150.513 41.912C150.753 42.08 151.069 42.164 151.461 42.164C151.757 42.164 151.969 42.104 152.097 41.984C152.225 41.856 152.289 41.716 152.289 41.564C152.289 41.388 152.209 41.256 152.049 41.168C151.889 41.08 151.597 40.972 151.173 40.844L150.825 40.748C150.033 40.508 149.369 40.188 148.833 39.788C148.297 39.388 148.029 38.808 148.029 38.048C148.029 37.544 148.165 37.1 148.437 36.716C148.709 36.324 149.081 36.024 149.553 35.816C150.033 35.608 150.569 35.504 151.161 35.504C151.785 35.504 152.349 35.62 152.853 35.852C153.365 36.084 153.765 36.412 154.053 36.836C154.349 37.26 154.497 37.744 154.497 38.288V38.396C154.497 38.452 154.481 38.496 154.449 38.528C154.417 38.56 154.373 38.576 154.317 38.576H152.457C152.401 38.576 152.357 38.56 152.325 38.528C152.293 38.496 152.277 38.452 152.277 38.396V38.384C152.277 38.144 152.169 37.928 151.953 37.736C151.737 37.536 151.445 37.436 151.077 37.436C150.821 37.436 150.617 37.488 150.465 37.592C150.321 37.696 150.249 37.84 150.249 38.024C150.249 38.168 150.301 38.292 150.405 38.396C150.517 38.492 150.685 38.588 150.909 38.684C151.133 38.772 151.477 38.888 151.941 39.032C152.005 39.056 152.285 39.144 152.781 39.296C153.285 39.44 153.705 39.708 154.041 40.1C154.377 40.484 154.545 40.952 154.545 41.504C154.545 42.04 154.409 42.504 154.137 42.896C153.865 43.28 153.485 43.576 152.997 43.784C152.509 43.992 151.941 44.096 151.293 44.096Z" fill="#292B4D"/>
<path d="M88.44 74.696C88.568 74.632 88.7067 74.6 88.856 74.6H91.384C91.5973 74.6 91.704 74.7067 91.704 74.92V96.68C91.704 96.8933 91.5973 97 91.384 97H88.952C88.7387 97 88.632 96.8933 88.632 96.68V77.896C88.632 77.8533 88.6107 77.8213 88.568 77.8C88.5467 77.7787 88.5147 77.7787 88.472 77.8L85.112 78.952C85.0693 78.9733 85.016 78.984 84.952 78.984C84.824 78.984 84.7493 78.8987 84.728 78.728L84.6 76.904C84.6 76.6907 84.664 76.5627 84.792 76.52L88.44 74.696ZM108.554 86.376C108.981 87.4213 109.194 88.6267 109.194 89.992C109.194 91.1227 109.023 92.168 108.682 93.128C108.213 94.4507 107.434 95.4747 106.346 96.2C105.258 96.904 103.946 97.256 102.41 97.256C100.874 97.256 99.5407 96.8613 98.41 96.072C97.3007 95.2827 96.522 94.216 96.074 92.872C95.8393 92.2747 95.7007 91.4213 95.658 90.312C95.658 90.0987 95.7647 89.992 95.978 89.992H98.442C98.6553 89.992 98.762 90.0987 98.762 90.312C98.8047 91.08 98.89 91.6453 99.018 92.008C99.2313 92.7973 99.626 93.4267 100.202 93.896C100.799 94.3653 101.535 94.6 102.41 94.6C104.031 94.6 105.119 93.864 105.674 92.392C105.951 91.752 106.09 90.92 106.09 89.896C106.09 88.808 105.919 87.8373 105.578 86.984C104.981 85.6613 103.914 85 102.378 85C102.015 85 101.557 85.16 101.002 85.48C100.917 85.5227 100.853 85.544 100.81 85.544C100.703 85.544 100.618 85.4907 100.554 85.384L99.338 83.72C99.2953 83.6347 99.274 83.56 99.274 83.496C99.274 83.432 99.306 83.3573 99.37 83.272L104.842 77.416C104.906 77.3093 104.885 77.256 104.778 77.256H96.266C96.0527 77.256 95.946 77.1493 95.946 76.936V74.92C95.946 74.7067 96.0527 74.6 96.266 74.6H108.682C108.895 74.6 109.002 74.7067 109.002 74.92V77.224C109.002 77.3307 108.949 77.4587 108.842 77.608L103.978 82.92C103.935 82.9627 103.925 83.0053 103.946 83.048C103.967 83.0693 104.01 83.0907 104.074 83.112C105.162 83.2187 106.079 83.56 106.826 84.136C107.573 84.6907 108.149 85.4373 108.554 86.376Z" fill="#F272AE"/>
<rect x="36" y="69.8723" width="32" height="32" rx="6" fill="#F272AE"/>
<path fill-rule="evenodd" clip-rule="evenodd" d="M57.9967 87.4067C58.5987 86.8037 58.8551 85.9446 58.6819 85.1114C58.5086 84.2781 57.9301 83.5922 57.1381 83.2804L46.5974 79.1335C45.886 78.8551 45.0963 79.0194 44.5577 79.5591C44.0198 80.097 43.8552 80.8872 44.1332 81.5964L48.2796 92.1377C48.5915 92.9299 49.2773 93.5085 50.1106 93.6817C50.2811 93.7172 50.4534 93.7348 50.6264 93.7348C51.2927 93.7348 51.9313 93.4711 52.4058 92.9965L54.2954 91.1069L56.8132 93.6248C57.0558 93.8674 57.382 94 57.7185 94C58.0549 94 58.3811 93.8674 58.6237 93.6248C59.1246 93.1282 59.1259 92.3153 58.6249 91.8143L56.1071 89.2964L57.9967 87.4067ZM53.6529 90.4643L54.2954 91.1069L54.8214 90.5809L57.3399 93.0994C57.1292 92.8888 57.1298 92.5467 57.3414 92.337C57.44 92.2383 57.5771 92.1826 57.7185 92.1826C57.8598 92.1826 57.997 92.2383 58.0983 92.3397L54.2961 88.5373L56.7111 86.1221C56.8803 85.9527 56.9512 85.7152 56.9025 85.4813C56.8541 85.2482 56.6944 85.0589 56.4726 84.9716L45.9336 80.8254C45.8956 80.8105 45.8714 80.8156 45.8435 80.8435C45.816 80.8711 45.8107 80.8962 45.8248 80.9321L49.9708 91.4722C50.0582 91.6942 50.2474 91.8539 50.4805 91.9023C50.5291 91.9124 50.5774 91.9174 50.6264 91.9174C50.8114 91.9174 50.9876 91.8446 51.1208 91.7114L54.2954 88.5367L54.2961 88.5373L54.1795 88.6538L53.537 89.2964L54.7049 90.4643H53.6529ZM54.7049 90.4643H54.938L54.8214 90.5809L54.7049 90.4643Z" fill="white"/>
<path d="M40.172 135.112C39.4533 135.112 38.828 135 38.296 134.776C37.7733 134.552 37.3673 134.235 37.078 133.824C36.798 133.413 36.658 132.933 36.658 132.382V131.976C36.658 131.883 36.7047 131.836 36.798 131.836H37.82C37.9133 131.836 37.96 131.883 37.96 131.976V132.312C37.96 132.788 38.1653 133.18 38.576 133.488C38.9867 133.796 39.5513 133.95 40.27 133.95C40.914 133.95 41.3993 133.815 41.726 133.544C42.0527 133.273 42.216 132.919 42.216 132.48C42.216 132.191 42.132 131.943 41.964 131.738C41.796 131.533 41.5487 131.346 41.222 131.178C40.9047 131.001 40.438 130.791 39.822 130.548C39.1407 130.287 38.5993 130.049 38.198 129.834C37.806 129.619 37.4793 129.339 37.218 128.994C36.9567 128.639 36.826 128.196 36.826 127.664C36.826 126.861 37.1107 126.231 37.68 125.774C38.2587 125.317 39.038 125.088 40.018 125.088C40.7087 125.088 41.3153 125.205 41.838 125.438C42.3607 125.671 42.762 125.998 43.042 126.418C43.3313 126.838 43.476 127.323 43.476 127.874V128.154C43.476 128.247 43.4293 128.294 43.336 128.294H42.286C42.1927 128.294 42.146 128.247 42.146 128.154V127.944C42.146 127.459 41.95 127.057 41.558 126.74C41.1753 126.413 40.6433 126.25 39.962 126.25C39.3833 126.25 38.9353 126.371 38.618 126.614C38.3007 126.847 38.142 127.188 38.142 127.636C38.142 127.944 38.2213 128.196 38.38 128.392C38.5387 128.588 38.772 128.765 39.08 128.924C39.3973 129.073 39.878 129.269 40.522 129.512C41.1847 129.773 41.7213 130.016 42.132 130.24C42.5427 130.455 42.8833 130.744 43.154 131.108C43.4247 131.463 43.56 131.906 43.56 132.438C43.56 133.259 43.2567 133.913 42.65 134.398C42.0527 134.874 41.2267 135.112 40.172 135.112ZM50.9785 130.548C51.0158 130.931 51.0298 131.36 51.0205 131.836C51.0205 131.929 50.9738 131.976 50.8805 131.976H46.4145C46.3771 131.976 46.3585 131.995 46.3585 132.032C46.3585 132.349 46.3865 132.592 46.4425 132.76C46.5451 133.133 46.7505 133.427 47.0585 133.642C47.3758 133.847 47.7725 133.95 48.2485 133.95C48.9391 133.95 49.4711 133.665 49.8445 133.096C49.8911 133.003 49.9518 132.989 50.0265 133.054L50.8245 133.586C50.8898 133.642 50.9038 133.703 50.8665 133.768C50.6051 134.188 50.2318 134.519 49.7465 134.762C49.2705 135.005 48.7291 135.126 48.1225 135.126C47.4411 135.126 46.8671 134.977 46.4005 134.678C45.9338 134.379 45.5838 133.955 45.3505 133.404C45.1265 132.853 45.0145 132.186 45.0145 131.402C45.0145 130.721 45.0658 130.203 45.1685 129.848C45.3365 129.204 45.6725 128.695 46.1765 128.322C46.6805 127.949 47.2918 127.762 48.0105 127.762C48.9531 127.762 49.6578 128 50.1245 128.476C50.5911 128.943 50.8758 129.633 50.9785 130.548ZM48.0105 128.924C47.6091 128.924 47.2778 129.027 47.0165 129.232C46.7551 129.428 46.5778 129.694 46.4845 130.03C46.4191 130.235 46.3771 130.497 46.3585 130.814C46.3585 130.851 46.3771 130.87 46.4145 130.87H49.6205C49.6578 130.87 49.6765 130.851 49.6765 130.814C49.6578 130.506 49.6298 130.277 49.5925 130.128C49.4991 129.764 49.3125 129.475 49.0325 129.26C48.7618 129.036 48.4211 128.924 48.0105 128.924ZM58.4843 130.548C58.5217 130.931 58.5357 131.36 58.5263 131.836C58.5263 131.929 58.4797 131.976 58.3863 131.976H53.9203C53.883 131.976 53.8643 131.995 53.8643 132.032C53.8643 132.349 53.8923 132.592 53.9483 132.76C54.051 133.133 54.2563 133.427 54.5643 133.642C54.8817 133.847 55.2783 133.95 55.7543 133.95C56.445 133.95 56.977 133.665 57.3503 133.096C57.397 133.003 57.4577 132.989 57.5323 133.054L58.3303 133.586C58.3957 133.642 58.4097 133.703 58.3723 133.768C58.111 134.188 57.7377 134.519 57.2523 134.762C56.7763 135.005 56.235 135.126 55.6283 135.126C54.947 135.126 54.373 134.977 53.9063 134.678C53.4397 134.379 53.0897 133.955 52.8563 133.404C52.6323 132.853 52.5203 132.186 52.5203 131.402C52.5203 130.721 52.5717 130.203 52.6743 129.848C52.8423 129.204 53.1783 128.695 53.6823 128.322C54.1863 127.949 54.7977 127.762 55.5163 127.762C56.459 127.762 57.1637 128 57.6303 128.476C58.097 128.943 58.3817 129.633 58.4843 130.548ZM55.5163 128.924C55.115 128.924 54.7837 129.027 54.5223 129.232C54.261 129.428 54.0837 129.694 53.9903 130.03C53.925 130.235 53.883 130.497 53.8643 130.814C53.8643 130.851 53.883 130.87 53.9203 130.87H57.1263C57.1637 130.87 57.1823 130.851 57.1823 130.814C57.1637 130.506 57.1357 130.277 57.0983 130.128C57.005 129.764 56.8183 129.475 56.5383 129.26C56.2677 129.036 55.927 128.924 55.5163 128.924ZM66.5389 128.84C66.5389 128.933 66.4923 128.98 66.3989 128.98H64.8869C64.8496 128.98 64.8309 128.999 64.8309 129.036V132.746C64.8309 133.138 64.9196 133.423 65.0969 133.6C65.2743 133.768 65.5496 133.852 65.9229 133.852H66.3289C66.4223 133.852 66.4689 133.899 66.4689 133.992V134.86C66.4689 134.953 66.4223 135 66.3289 135C66.0303 135.019 65.8156 135.028 65.6849 135.028C64.9756 135.028 64.4389 134.902 64.0749 134.65C63.7203 134.389 63.5429 133.913 63.5429 133.222V129.036C63.5429 128.999 63.5243 128.98 63.4869 128.98H62.6329C62.5396 128.98 62.4929 128.933 62.4929 128.84V128.014C62.4929 127.921 62.5396 127.874 62.6329 127.874H63.4869C63.5243 127.874 63.5429 127.855 63.5429 127.818V126.166C63.5429 126.073 63.5896 126.026 63.6829 126.026H64.6909C64.7843 126.026 64.8309 126.073 64.8309 126.166V127.818C64.8309 127.855 64.8496 127.874 64.8869 127.874H66.3989C66.4923 127.874 66.5389 127.921 66.5389 128.014V128.84ZM69.0049 126.754C68.7436 126.754 68.5289 126.67 68.3609 126.502C68.1929 126.334 68.1089 126.119 68.1089 125.858C68.1089 125.597 68.1929 125.382 68.3609 125.214C68.5289 125.046 68.7436 124.962 69.0049 124.962C69.2662 124.962 69.4809 125.046 69.6489 125.214C69.8169 125.382 69.9009 125.597 69.9009 125.858C69.9009 126.119 69.8169 126.334 69.6489 126.502C69.4809 126.67 69.2662 126.754 69.0049 126.754ZM68.4449 134.986C68.3516 134.986 68.3049 134.939 68.3049 134.846V128.014C68.3049 127.921 68.3516 127.874 68.4449 127.874H69.5089C69.6022 127.874 69.6489 127.921 69.6489 128.014V134.846C69.6489 134.939 69.6022 134.986 69.5089 134.986H68.4449ZM74.6173 135.112C73.9079 135.112 73.3013 134.935 72.7973 134.58C72.2933 134.216 71.9479 133.726 71.7613 133.11C71.6213 132.681 71.5513 132.116 71.5513 131.416C71.5513 130.772 71.6213 130.207 71.7613 129.722C71.9479 129.125 72.2933 128.649 72.7973 128.294C73.3106 127.939 73.9173 127.762 74.6173 127.762C75.3173 127.762 75.9286 127.939 76.4513 128.294C76.9739 128.649 77.3146 129.097 77.4733 129.638C77.5293 129.787 77.5666 129.941 77.5853 130.1C77.5853 130.175 77.5433 130.221 77.4593 130.24L76.4093 130.394H76.3813C76.3159 130.394 76.2693 130.352 76.2413 130.268L76.1993 130.044C76.1246 129.727 75.9426 129.461 75.6533 129.246C75.3639 129.031 75.0139 128.924 74.6033 128.924C74.2019 128.924 73.8613 129.031 73.5813 129.246C73.3013 129.461 73.1193 129.745 73.0353 130.1C72.9513 130.436 72.9093 130.879 72.9093 131.43C72.9093 131.971 72.9513 132.41 73.0353 132.746C73.1286 133.119 73.3106 133.413 73.5813 133.628C73.8613 133.843 74.2019 133.95 74.6033 133.95C75.0139 133.95 75.3639 133.843 75.6533 133.628C75.9519 133.413 76.1386 133.133 76.2133 132.788C76.2226 132.779 76.2226 132.769 76.2133 132.76C76.2133 132.741 76.2179 132.727 76.2273 132.718V132.662C76.2553 132.587 76.3066 132.559 76.3813 132.578L77.4313 132.746C77.5059 132.765 77.5433 132.802 77.5433 132.858V132.914C77.5433 132.998 77.5199 133.101 77.4733 133.222C77.3146 133.791 76.9739 134.249 76.4513 134.594C75.9286 134.939 75.3173 135.112 74.6173 135.112ZM79.2704 135C79.1771 135 79.1304 134.953 79.1304 134.86V125.34C79.1304 125.247 79.1771 125.2 79.2704 125.2H80.3344C80.4277 125.2 80.4744 125.247 80.4744 125.34V130.73C80.4744 130.749 80.4837 130.763 80.5024 130.772C80.5211 130.781 80.5351 130.777 80.5444 130.758L83.1344 127.944C83.1717 127.897 83.2277 127.874 83.3024 127.874H84.5484C84.6044 127.874 84.6371 127.893 84.6464 127.93C84.6651 127.958 84.6557 127.995 84.6184 128.042L82.8124 130.128C82.7937 130.165 82.7891 130.193 82.7984 130.212L84.9404 134.832L84.9544 134.888C84.9544 134.963 84.9124 135 84.8284 135H83.7084C83.6337 135 83.5824 134.963 83.5544 134.888L81.8884 131.08C81.8697 131.033 81.8464 131.029 81.8184 131.066L80.5024 132.522C80.4837 132.559 80.4744 132.583 80.4744 132.592V134.86C80.4744 134.953 80.4277 135 80.3344 135H79.2704ZM91.6523 130.548C91.6896 130.931 91.7036 131.36 91.6943 131.836C91.6943 131.929 91.6476 131.976 91.5543 131.976H87.0883C87.051 131.976 87.0323 131.995 87.0323 132.032C87.0323 132.349 87.0603 132.592 87.1163 132.76C87.219 133.133 87.4243 133.427 87.7323 133.642C88.0496 133.847 88.4463 133.95 88.9223 133.95C89.613 133.95 90.145 133.665 90.5183 133.096C90.565 133.003 90.6256 132.989 90.7003 133.054L91.4983 133.586C91.5636 133.642 91.5776 133.703 91.5403 133.768C91.279 134.188 90.9056 134.519 90.4203 134.762C89.9443 135.005 89.403 135.126 88.7963 135.126C88.115 135.126 87.541 134.977 87.0743 134.678C86.6076 134.379 86.2576 133.955 86.0243 133.404C85.8003 132.853 85.6883 132.186 85.6883 131.402C85.6883 130.721 85.7396 130.203 85.8423 129.848C86.0103 129.204 86.3463 128.695 86.8503 128.322C87.3543 127.949 87.9656 127.762 88.6843 127.762C89.627 127.762 90.3316 128 90.7983 128.476C91.265 128.943 91.5496 129.633 91.6523 130.548ZM88.6843 128.924C88.283 128.924 87.9516 129.027 87.6903 129.232C87.429 129.428 87.2516 129.694 87.1583 130.03C87.093 130.235 87.051 130.497 87.0323 130.814C87.0323 130.851 87.051 130.87 87.0883 130.87H90.2943C90.3316 130.87 90.3503 130.851 90.3503 130.814C90.3316 130.506 90.3036 130.277 90.2663 130.128C90.173 129.764 89.9863 129.475 89.7063 129.26C89.4356 129.036 89.095 128.924 88.6843 128.924ZM96.7948 128.84C96.7948 128.933 96.7481 128.98 96.6548 128.98H95.1428C95.1054 128.98 95.0868 128.999 95.0868 129.036V132.746C95.0868 133.138 95.1754 133.423 95.3528 133.6C95.5301 133.768 95.8054 133.852 96.1788 133.852H96.5848C96.6781 133.852 96.7248 133.899 96.7248 133.992V134.86C96.7248 134.953 96.6781 135 96.5848 135C96.2861 135.019 96.0714 135.028 95.9408 135.028C95.2314 135.028 94.6948 134.902 94.3308 134.65C93.9761 134.389 93.7988 133.913 93.7988 133.222V129.036C93.7988 128.999 93.7801 128.98 93.7428 128.98H92.8888C92.7954 128.98 92.7488 128.933 92.7488 128.84V128.014C92.7488 127.921 92.7954 127.874 92.8888 127.874H93.7428C93.7801 127.874 93.7988 127.855 93.7988 127.818V126.166C93.7988 126.073 93.8454 126.026 93.9388 126.026H94.9468C95.0401 126.026 95.0868 126.073 95.0868 126.166V127.818C95.0868 127.855 95.1054 127.874 95.1428 127.874H96.6548C96.7481 127.874 96.7948 127.921 96.7948 128.014V128.84ZM100.955 135.084C100.395 135.084 99.9001 135 99.4708 134.832C99.0508 134.664 98.7241 134.435 98.4908 134.146C98.2574 133.847 98.1408 133.521 98.1408 133.166V133.012C98.1408 132.919 98.1874 132.872 98.2808 132.872H99.2888C99.3821 132.872 99.4288 132.919 99.4288 133.012V133.082C99.4288 133.343 99.5688 133.572 99.8488 133.768C100.138 133.964 100.502 134.062 100.941 134.062C101.361 134.062 101.701 133.973 101.963 133.796C102.224 133.609 102.355 133.376 102.355 133.096C102.355 132.825 102.233 132.625 101.991 132.494C101.748 132.354 101.356 132.209 100.815 132.06C100.283 131.911 99.8348 131.761 99.4708 131.612C99.1161 131.453 98.8128 131.234 98.5608 130.954C98.3181 130.665 98.1968 130.296 98.1968 129.848C98.1968 129.223 98.4394 128.728 98.9248 128.364C99.4194 127.991 100.073 127.804 100.885 127.804C101.426 127.804 101.902 127.893 102.313 128.07C102.733 128.238 103.055 128.476 103.279 128.784C103.503 129.092 103.615 129.437 103.615 129.82V129.862C103.615 129.955 103.568 130.002 103.475 130.002H102.495C102.401 130.002 102.355 129.955 102.355 129.862V129.82C102.355 129.549 102.219 129.325 101.949 129.148C101.687 128.961 101.328 128.868 100.871 128.868C100.46 128.868 100.124 128.947 99.8628 129.106C99.6108 129.265 99.4848 129.479 99.4848 129.75C99.4848 130.021 99.6061 130.226 99.8488 130.366C100.101 130.506 100.502 130.655 101.053 130.814C101.594 130.963 102.042 131.113 102.397 131.262C102.761 131.402 103.069 131.617 103.321 131.906C103.573 132.186 103.699 132.555 103.699 133.012C103.699 133.647 103.447 134.151 102.943 134.524C102.448 134.897 101.785 135.084 100.955 135.084Z" fill="#79A2F2"/>
<path d="M111.588 128.84C111.588 128.933 111.541 128.98 111.448 128.98H109.936C109.898 128.98 109.88 128.999 109.88 129.036V132.746C109.88 133.138 109.968 133.423 110.146 133.6C110.323 133.768 110.598 133.852 110.972 133.852H111.378C111.471 133.852 111.518 133.899 111.518 133.992V134.86C111.518 134.953 111.471 135 111.378 135C111.079 135.019 110.864 135.028 110.734 135.028C110.024 135.028 109.488 134.902 109.124 134.65C108.769 134.389 108.592 133.913 108.592 133.222V129.036C108.592 128.999 108.573 128.98 108.536 128.98H107.682C107.588 128.98 107.542 128.933 107.542 128.84V128.014C107.542 127.921 107.588 127.874 107.682 127.874H108.536C108.573 127.874 108.592 127.855 108.592 127.818V126.166C108.592 126.073 108.638 126.026 108.732 126.026H109.74C109.833 126.026 109.88 126.073 109.88 126.166V127.818C109.88 127.855 109.898 127.874 109.936 127.874H111.448C111.541 127.874 111.588 127.921 111.588 128.014V128.84ZM116.42 127.776C117.185 127.776 117.792 128 118.24 128.448C118.688 128.887 118.912 129.484 118.912 130.24V134.86C118.912 134.953 118.865 135 118.772 135H117.708C117.614 135 117.568 134.953 117.568 134.86V130.506C117.568 130.039 117.432 129.661 117.162 129.372C116.891 129.083 116.532 128.938 116.084 128.938C115.645 128.938 115.286 129.083 115.006 129.372C114.726 129.661 114.586 130.035 114.586 130.492V134.86C114.586 134.953 114.539 135 114.446 135H113.382C113.288 135 113.242 134.953 113.242 134.86V125.34C113.242 125.247 113.288 125.2 113.382 125.2H114.446C114.539 125.2 114.586 125.247 114.586 125.34V128.518C114.586 128.537 114.59 128.551 114.6 128.56C114.618 128.569 114.632 128.565 114.642 128.546C115.043 128.033 115.636 127.776 116.42 127.776ZM123.434 127.762C124.003 127.762 124.498 127.865 124.918 128.07C125.347 128.266 125.674 128.546 125.898 128.91C126.131 129.265 126.248 129.671 126.248 130.128V134.86C126.248 134.953 126.201 135 126.108 135H125.044C124.95 135 124.904 134.953 124.904 134.86V134.356C124.904 134.309 124.88 134.3 124.834 134.328C124.591 134.58 124.292 134.776 123.938 134.916C123.592 135.047 123.205 135.112 122.776 135.112C122.085 135.112 121.511 134.939 121.054 134.594C120.606 134.239 120.382 133.707 120.382 132.998C120.382 132.27 120.634 131.701 121.138 131.29C121.651 130.87 122.365 130.66 123.28 130.66H124.848C124.885 130.66 124.904 130.641 124.904 130.604V130.226C124.904 129.815 124.782 129.498 124.54 129.274C124.306 129.041 123.947 128.924 123.462 128.924C123.07 128.924 122.748 129.003 122.496 129.162C122.253 129.311 122.104 129.517 122.048 129.778C122.02 129.871 121.964 129.913 121.88 129.904L120.746 129.75C120.652 129.731 120.61 129.694 120.62 129.638C120.694 129.087 120.988 128.639 121.502 128.294C122.015 127.939 122.659 127.762 123.434 127.762ZM123.07 133.978C123.564 133.978 123.994 133.847 124.358 133.586C124.722 133.325 124.904 132.993 124.904 132.592V131.766C124.904 131.729 124.885 131.71 124.848 131.71H123.532C122.981 131.71 122.542 131.817 122.216 132.032C121.889 132.247 121.726 132.545 121.726 132.928C121.726 133.273 121.847 133.535 122.09 133.712C122.342 133.889 122.668 133.978 123.07 133.978ZM131.48 128.84C131.48 128.933 131.434 128.98 131.34 128.98H129.828C129.791 128.98 129.772 128.999 129.772 129.036V132.746C129.772 133.138 129.861 133.423 130.038 133.6C130.216 133.768 130.491 133.852 130.864 133.852H131.27C131.364 133.852 131.41 133.899 131.41 133.992V134.86C131.41 134.953 131.364 135 131.27 135C130.972 135.019 130.757 135.028 130.626 135.028C129.917 135.028 129.38 134.902 129.016 134.65C128.662 134.389 128.484 133.913 128.484 133.222V129.036C128.484 128.999 128.466 128.98 128.428 128.98H127.574C127.481 128.98 127.434 128.933 127.434 128.84V128.014C127.434 127.921 127.481 127.874 127.574 127.874H128.428C128.466 127.874 128.484 127.855 128.484 127.818V126.166C128.484 126.073 128.531 126.026 128.624 126.026H129.632C129.726 126.026 129.772 126.073 129.772 126.166V127.818C129.772 127.855 129.791 127.874 129.828 127.874H131.34C131.434 127.874 131.48 127.921 131.48 128.014V128.84ZM138.541 127.762C139.11 127.762 139.605 127.865 140.025 128.07C140.454 128.266 140.781 128.546 141.005 128.91C141.238 129.265 141.355 129.671 141.355 130.128V134.86C141.355 134.953 141.308 135 141.215 135H140.151C140.058 135 140.011 134.953 140.011 134.86V134.356C140.011 134.309 139.988 134.3 139.941 134.328C139.698 134.58 139.4 134.776 139.045 134.916C138.7 135.047 138.312 135.112 137.883 135.112C137.192 135.112 136.618 134.939 136.161 134.594C135.713 134.239 135.489 133.707 135.489 132.998C135.489 132.27 135.741 131.701 136.245 131.29C136.758 130.87 137.472 130.66 138.387 130.66H139.955C139.992 130.66 140.011 130.641 140.011 130.604V130.226C140.011 129.815 139.89 129.498 139.647 129.274C139.414 129.041 139.054 128.924 138.569 128.924C138.177 128.924 137.855 129.003 137.603 129.162C137.36 129.311 137.211 129.517 137.155 129.778C137.127 129.871 137.071 129.913 136.987 129.904L135.853 129.75C135.76 129.731 135.718 129.694 135.727 129.638C135.802 129.087 136.096 128.639 136.609 128.294C137.122 127.939 137.766 127.762 138.541 127.762ZM138.177 133.978C138.672 133.978 139.101 133.847 139.465 133.586C139.829 133.325 140.011 132.993 140.011 132.592V131.766C140.011 131.729 139.992 131.71 139.955 131.71H138.639C138.088 131.71 137.65 131.817 137.323 132.032C136.996 132.247 136.833 132.545 136.833 132.928C136.833 133.273 136.954 133.535 137.197 133.712C137.449 133.889 137.776 133.978 138.177 133.978ZM146.291 127.804C146.59 127.804 146.861 127.865 147.103 127.986C147.169 128.014 147.192 128.07 147.173 128.154L146.949 129.204C146.94 129.288 146.884 129.316 146.781 129.288C146.623 129.223 146.436 129.19 146.221 129.19L146.025 129.204C145.587 129.223 145.223 129.377 144.933 129.666C144.653 129.946 144.513 130.315 144.513 130.772V134.86C144.513 134.953 144.467 135 144.373 135H143.309C143.216 135 143.169 134.953 143.169 134.86V128.014C143.169 127.921 143.216 127.874 143.309 127.874H144.373C144.467 127.874 144.513 127.921 144.513 128.014V128.756C144.513 128.784 144.518 128.803 144.527 128.812C144.546 128.812 144.56 128.803 144.569 128.784C144.989 128.131 145.563 127.804 146.291 127.804ZM154.023 130.548C154.061 130.931 154.075 131.36 154.065 131.836C154.065 131.929 154.019 131.976 153.925 131.976H149.459C149.422 131.976 149.403 131.995 149.403 132.032C149.403 132.349 149.431 132.592 149.487 132.76C149.59 133.133 149.795 133.427 150.103 133.642C150.421 133.847 150.817 133.95 151.293 133.95C151.984 133.95 152.516 133.665 152.889 133.096C152.936 133.003 152.997 132.989 153.071 133.054L153.869 133.586C153.935 133.642 153.949 133.703 153.911 133.768C153.65 134.188 153.277 134.519 152.791 134.762C152.315 135.005 151.774 135.126 151.167 135.126C150.486 135.126 149.912 134.977 149.445 134.678C148.979 134.379 148.629 133.955 148.395 133.404C148.171 132.853 148.059 132.186 148.059 131.402C148.059 130.721 148.111 130.203 148.213 129.848C148.381 129.204 148.717 128.695 149.221 128.322C149.725 127.949 150.337 127.762 151.055 127.762C151.998 127.762 152.703 128 153.169 128.476C153.636 128.943 153.921 129.633 154.023 130.548ZM151.055 128.924C150.654 128.924 150.323 129.027 150.061 129.232C149.8 129.428 149.623 129.694 149.529 130.03C149.464 130.235 149.422 130.497 149.403 130.814C149.403 130.851 149.422 130.87 149.459 130.87H152.665C152.703 130.87 152.721 130.851 152.721 130.814C152.703 130.506 152.675 130.277 152.637 130.128C152.544 129.764 152.357 129.475 152.077 129.26C151.807 129.036 151.466 128.924 151.055 128.924ZM161.168 127.762C161.737 127.762 162.232 127.865 162.652 128.07C163.081 128.266 163.408 128.546 163.632 128.91C163.865 129.265 163.982 129.671 163.982 130.128V134.86C163.982 134.953 163.935 135 163.842 135H162.778C162.685 135 162.638 134.953 162.638 134.86V134.356C162.638 134.309 162.615 134.3 162.568 134.328C162.325 134.58 162.027 134.776 161.672 134.916C161.327 135.047 160.939 135.112 160.51 135.112C159.819 135.112 159.245 134.939 158.788 134.594C158.34 134.239 158.116 133.707 158.116 132.998C158.116 132.27 158.368 131.701 158.872 131.29C159.385 130.87 160.099 130.66 161.014 130.66H162.582C162.619 130.66 162.638 130.641 162.638 130.604V130.226C162.638 129.815 162.517 129.498 162.274 129.274C162.041 129.041 161.681 128.924 161.196 128.924C160.804 128.924 160.482 129.003 160.23 129.162C159.987 129.311 159.838 129.517 159.782 129.778C159.754 129.871 159.698 129.913 159.614 129.904L158.48 129.75C158.387 129.731 158.345 129.694 158.354 129.638C158.429 129.087 158.723 128.639 159.236 128.294C159.749 127.939 160.393 127.762 161.168 127.762ZM160.804 133.978C161.299 133.978 161.728 133.847 162.092 133.586C162.456 133.325 162.638 132.993 162.638 132.592V131.766C162.638 131.729 162.619 131.71 162.582 131.71H161.266C160.715 131.71 160.277 131.817 159.95 132.032C159.623 132.247 159.46 132.545 159.46 132.928C159.46 133.273 159.581 133.535 159.824 133.712C160.076 133.889 160.403 133.978 160.804 133.978ZM168.302 135.084C167.742 135.084 167.248 135 166.818 134.832C166.398 134.664 166.072 134.435 165.838 134.146C165.605 133.847 165.488 133.521 165.488 133.166V133.012C165.488 132.919 165.535 132.872 165.628 132.872H166.636C166.73 132.872 166.776 132.919 166.776 133.012V133.082C166.776 133.343 166.916 133.572 167.196 133.768C167.486 133.964 167.85 134.062 168.288 134.062C168.708 134.062 169.049 133.973 169.31 133.796C169.572 133.609 169.702 133.376 169.702 133.096C169.702 132.825 169.581 132.625 169.338 132.494C169.096 132.354 168.704 132.209 168.162 132.06C167.63 131.911 167.182 131.761 166.818 131.612C166.464 131.453 166.16 131.234 165.908 130.954C165.666 130.665 165.544 130.296 165.544 129.848C165.544 129.223 165.787 128.728 166.272 128.364C166.767 127.991 167.42 127.804 168.232 127.804C168.774 127.804 169.25 127.893 169.66 128.07C170.08 128.238 170.402 128.476 170.626 128.784C170.85 129.092 170.962 129.437 170.962 129.82V129.862C170.962 129.955 170.916 130.002 170.822 130.002H169.842C169.749 130.002 169.702 129.955 169.702 129.862V129.82C169.702 129.549 169.567 129.325 169.296 129.148C169.035 128.961 168.676 128.868 168.218 128.868C167.808 128.868 167.472 128.947 167.21 129.106C166.958 129.265 166.832 129.479 166.832 129.75C166.832 130.021 166.954 130.226 167.196 130.366C167.448 130.506 167.85 130.655 168.4 130.814C168.942 130.963 169.39 131.113 169.744 131.262C170.108 131.402 170.416 131.617 170.668 131.906C170.92 132.186 171.046 132.555 171.046 133.012C171.046 133.647 170.794 134.151 170.29 134.524C169.796 134.897 169.133 135.084 168.302 135.084ZM174.961 135.084C174.401 135.084 173.906 135 173.477 134.832C173.057 134.664 172.73 134.435 172.497 134.146C172.263 133.847 172.147 133.521 172.147 133.166V133.012C172.147 132.919 172.193 132.872 172.287 132.872H173.295C173.388 132.872 173.435 132.919 173.435 133.012V133.082C173.435 133.343 173.575 133.572 173.855 133.768C174.144 133.964 174.508 134.062 174.947 134.062C175.367 134.062 175.707 133.973 175.969 133.796C176.23 133.609 176.361 133.376 176.361 133.096C176.361 132.825 176.239 132.625 175.997 132.494C175.754 132.354 175.362 132.209 174.821 132.06C174.289 131.911 173.841 131.761 173.477 131.612C173.122 131.453 172.819 131.234 172.567 130.954C172.324 130.665 172.203 130.296 172.203 129.848C172.203 129.223 172.445 128.728 172.931 128.364C173.425 127.991 174.079 127.804 174.891 127.804C175.432 127.804 175.908 127.893 176.319 128.07C176.739 128.238 177.061 128.476 177.285 128.784C177.509 129.092 177.621 129.437 177.621 129.82V129.862C177.621 129.955 177.574 130.002 177.481 130.002H176.501C176.407 130.002 176.361 129.955 176.361 129.862V129.82C176.361 129.549 176.225 129.325 175.955 129.148C175.693 128.961 175.334 128.868 174.877 128.868C174.466 128.868 174.13 128.947 173.869 129.106C173.617 129.265 173.491 129.479 173.491 129.75C173.491 130.021 173.612 130.226 173.855 130.366C174.107 130.506 174.508 130.655 175.059 130.814C175.6 130.963 176.048 131.113 176.403 131.262C176.767 131.402 177.075 131.617 177.327 131.906C177.579 132.186 177.705 132.555 177.705 133.012C177.705 133.647 177.453 134.151 176.949 134.524C176.454 134.897 175.791 135.084 174.961 135.084ZM180.089 126.754C179.828 126.754 179.613 126.67 179.445 126.502C179.277 126.334 179.193 126.119 179.193 125.858C179.193 125.597 179.277 125.382 179.445 125.214C179.613 125.046 179.828 124.962 180.089 124.962C180.35 124.962 180.565 125.046 180.733 125.214C180.901 125.382 180.985 125.597 180.985 125.858C180.985 126.119 180.901 126.334 180.733 126.502C180.565 126.67 180.35 126.754 180.089 126.754ZM179.529 134.986C179.436 134.986 179.389 134.939 179.389 134.846V128.014C179.389 127.921 179.436 127.874 179.529 127.874H180.593C180.686 127.874 180.733 127.921 180.733 128.014V134.846C180.733 134.939 180.686 134.986 180.593 134.986H179.529ZM187.227 128.014C187.227 127.921 187.274 127.874 187.367 127.874H188.431C188.525 127.874 188.571 127.921 188.571 128.014V134.636C188.571 135.765 188.249 136.573 187.605 137.058C186.971 137.543 186.117 137.786 185.043 137.786C184.894 137.786 184.661 137.777 184.343 137.758C184.25 137.749 184.203 137.697 184.203 137.604L184.245 136.638C184.245 136.601 184.259 136.568 184.287 136.54C184.315 136.512 184.353 136.503 184.399 136.512C184.53 136.521 184.721 136.526 184.973 136.526C185.767 136.526 186.341 136.377 186.695 136.078C187.05 135.789 187.227 135.294 187.227 134.594V134.342C187.227 134.323 187.218 134.309 187.199 134.3C187.19 134.291 187.176 134.295 187.157 134.314C186.765 134.771 186.191 135 185.435 135C184.829 135 184.278 134.841 183.783 134.524C183.298 134.207 182.962 133.74 182.775 133.124C182.654 132.713 182.593 132.144 182.593 131.416C182.593 130.641 182.663 130.044 182.803 129.624C182.981 129.064 183.293 128.616 183.741 128.28C184.199 127.935 184.735 127.762 185.351 127.762C186.117 127.762 186.719 127.995 187.157 128.462C187.176 128.481 187.19 128.49 187.199 128.49C187.218 128.481 187.227 128.467 187.227 128.448V128.014ZM187.143 132.718C187.171 132.569 187.19 132.41 187.199 132.242C187.218 132.074 187.227 131.794 187.227 131.402C187.227 131.01 187.218 130.735 187.199 130.576C187.19 130.408 187.167 130.249 187.129 130.1C187.055 129.755 186.887 129.475 186.625 129.26C186.364 129.036 186.037 128.924 185.645 128.924C185.253 128.924 184.927 129.036 184.665 129.26C184.404 129.475 184.217 129.755 184.105 130.1C184.003 130.38 183.951 130.814 183.951 131.402C183.951 132.046 183.998 132.485 184.091 132.718C184.185 133.063 184.367 133.348 184.637 133.572C184.917 133.787 185.253 133.894 185.645 133.894C186.056 133.894 186.387 133.787 186.639 133.572C186.901 133.348 187.069 133.063 187.143 132.718ZM193.625 127.776C194.39 127.776 194.997 128 195.445 128.448C195.893 128.887 196.117 129.484 196.117 130.24V134.86C196.117 134.953 196.07 135 195.977 135H194.913C194.819 135 194.773 134.953 194.773 134.86V130.506C194.773 130.039 194.637 129.661 194.367 129.372C194.096 129.083 193.737 128.938 193.289 128.938C192.85 128.938 192.491 129.083 192.211 129.372C191.931 129.661 191.791 130.035 191.791 130.492V134.86C191.791 134.953 191.744 135 191.651 135H190.587C190.493 135 190.447 134.953 190.447 134.86V128.014C190.447 127.921 190.493 127.874 190.587 127.874H191.651C191.744 127.874 191.791 127.921 191.791 128.014V128.518C191.791 128.537 191.795 128.551 191.805 128.56C191.823 128.569 191.837 128.565 191.847 128.546C192.248 128.033 192.841 127.776 193.625 127.776ZM203.721 130.548C203.758 130.931 203.772 131.36 203.763 131.836C203.763 131.929 203.716 131.976 203.623 131.976H199.157C199.119 131.976 199.101 131.995 199.101 132.032C199.101 132.349 199.129 132.592 199.185 132.76C199.287 133.133 199.493 133.427 199.801 133.642C200.118 133.847 200.515 133.95 200.991 133.95C201.681 133.95 202.213 133.665 202.587 133.096C202.633 133.003 202.694 132.989 202.769 133.054L203.567 133.586C203.632 133.642 203.646 133.703 203.609 133.768C203.347 134.188 202.974 134.519 202.489 134.762C202.013 135.005 201.471 135.126 200.865 135.126C200.183 135.126 199.609 134.977 199.143 134.678C198.676 134.379 198.326 133.955 198.093 133.404C197.869 132.853 197.757 132.186 197.757 131.402C197.757 130.721 197.808 130.203 197.911 129.848C198.079 129.204 198.415 128.695 198.919 128.322C199.423 127.949 200.034 127.762 200.753 127.762C201.695 127.762 202.4 128 202.867 128.476C203.333 128.943 203.618 129.633 203.721 130.548ZM200.753 128.924C200.351 128.924 200.02 129.027 199.759 129.232C199.497 129.428 199.32 129.694 199.227 130.03C199.161 130.235 199.119 130.497 199.101 130.814C199.101 130.851 199.119 130.87 199.157 130.87H202.363C202.4 130.87 202.419 130.851 202.419 130.814C202.4 130.506 202.372 130.277 202.335 130.128C202.241 129.764 202.055 129.475 201.775 129.26C201.504 129.036 201.163 128.924 200.753 128.924ZM209.883 125.34C209.883 125.247 209.929 125.2 210.023 125.2H211.087C211.18 125.2 211.227 125.247 211.227 125.34V134.86C211.227 134.953 211.18 135 211.087 135H210.023C209.929 135 209.883 134.953 209.883 134.86V134.398C209.883 134.379 209.873 134.365 209.855 134.356C209.845 134.347 209.831 134.351 209.813 134.37C209.607 134.603 209.365 134.785 209.085 134.916C208.805 135.047 208.501 135.112 208.175 135.112C207.503 135.112 206.943 134.949 206.495 134.622C206.056 134.286 205.734 133.815 205.529 133.208C205.351 132.713 205.263 132.116 205.263 131.416C205.263 130.763 205.337 130.198 205.487 129.722C205.683 129.106 206.005 128.625 206.453 128.28C206.901 127.935 207.475 127.762 208.175 127.762C208.492 127.762 208.791 127.827 209.071 127.958C209.36 128.079 209.607 128.257 209.813 128.49C209.831 128.509 209.845 128.513 209.855 128.504C209.873 128.495 209.883 128.481 209.883 128.462V125.34ZM209.533 133.194C209.747 132.802 209.855 132.214 209.855 131.43C209.855 130.646 209.738 130.049 209.505 129.638C209.234 129.162 208.837 128.924 208.315 128.924C207.755 128.924 207.339 129.148 207.069 129.596C206.77 130.063 206.621 130.679 206.621 131.444C206.621 132.163 206.737 132.741 206.971 133.18C207.241 133.693 207.685 133.95 208.301 133.95C208.842 133.95 209.253 133.698 209.533 133.194ZM40.494 150.84C40.494 150.933 40.4473 150.98 40.354 150.98H38.842C38.8047 150.98 38.786 150.999 38.786 151.036V154.746C38.786 155.138 38.8747 155.423 39.052 155.6C39.2293 155.768 39.5047 155.852 39.878 155.852H40.284C40.3773 155.852 40.424 155.899 40.424 155.992V156.86C40.424 156.953 40.3773 157 40.284 157C39.9853 157.019 39.7707 157.028 39.64 157.028C38.9307 157.028 38.394 156.902 38.03 156.65C37.6753 156.389 37.498 155.913 37.498 155.222V151.036C37.498 150.999 37.4793 150.98 37.442 150.98H36.588C36.4947 150.98 36.448 150.933 36.448 150.84V150.014C36.448 149.921 36.4947 149.874 36.588 149.874H37.442C37.4793 149.874 37.498 149.855 37.498 149.818V148.166C37.498 148.073 37.5447 148.026 37.638 148.026H38.646C38.7393 148.026 38.786 148.073 38.786 148.166V149.818C38.786 149.855 38.8047 149.874 38.842 149.874H40.354C40.4473 149.874 40.494 149.921 40.494 150.014V150.84ZM44.8959 157.112C44.2052 157.112 43.6032 156.939 43.0899 156.594C42.5766 156.239 42.2172 155.749 42.0119 155.124C41.8439 154.62 41.7599 154.051 41.7599 153.416C41.7599 152.753 41.8392 152.193 41.9979 151.736C42.2032 151.12 42.5626 150.639 43.0759 150.294C43.5892 149.939 44.2006 149.762 44.9099 149.762C45.5819 149.762 46.1652 149.939 46.6599 150.294C47.1639 150.639 47.5232 151.115 47.7379 151.722C47.9059 152.198 47.9899 152.758 47.9899 153.402C47.9899 154.055 47.9059 154.629 47.7379 155.124C47.5326 155.749 47.1779 156.239 46.6739 156.594C46.1699 156.939 45.5772 157.112 44.8959 157.112ZM44.8959 155.95C45.2692 155.95 45.5959 155.847 45.8759 155.642C46.1559 155.427 46.3566 155.129 46.4779 154.746C46.5806 154.391 46.6319 153.953 46.6319 153.43C46.6319 152.907 46.5852 152.473 46.4919 152.128C46.3706 151.745 46.1699 151.451 45.8899 151.246C45.6099 151.031 45.2692 150.924 44.8679 150.924C44.4852 150.924 44.1539 151.031 43.8739 151.246C43.5939 151.451 43.3932 151.745 43.2719 152.128C43.1692 152.455 43.1179 152.889 43.1179 153.43C43.1179 153.971 43.1692 154.41 43.2719 154.746C43.3839 155.129 43.5799 155.427 43.8599 155.642C44.1492 155.847 44.4946 155.95 44.8959 155.95ZM52.3423 159.786C52.2769 159.786 52.2443 159.739 52.2443 159.646V158.82C52.2443 158.727 52.2909 158.68 52.3843 158.68H52.4123C52.7856 158.671 53.0796 158.624 53.2943 158.54C53.5089 158.456 53.6863 158.297 53.8263 158.064C53.9663 157.84 54.1016 157.499 54.2323 157.042C54.2416 157.033 54.2416 157.019 54.2323 157C54.2323 156.972 54.2323 156.958 54.2323 156.958L51.8943 150.028L51.8803 149.972C51.8803 149.907 51.9223 149.874 52.0063 149.874H53.1403C53.2243 149.874 53.2803 149.911 53.3083 149.986L54.8903 155.264C54.8996 155.283 54.9136 155.292 54.9323 155.292C54.9509 155.292 54.9649 155.283 54.9743 155.264L56.5423 149.986C56.5703 149.911 56.6263 149.874 56.7103 149.874H57.8163C57.9189 149.874 57.9563 149.925 57.9283 150.028L55.3803 157.49C55.1656 158.134 54.9509 158.61 54.7363 158.918C54.5216 159.235 54.2416 159.459 53.8963 159.59C53.5509 159.721 53.0656 159.786 52.4403 159.786H52.3423ZM61.808 157.112C61.1173 157.112 60.5153 156.939 60.002 156.594C59.4887 156.239 59.1293 155.749 58.924 155.124C58.756 154.62 58.672 154.051 58.672 153.416C58.672 152.753 58.7513 152.193 58.91 151.736C59.1153 151.12 59.4747 150.639 59.988 150.294C60.5013 149.939 61.1127 149.762 61.822 149.762C62.494 149.762 63.0773 149.939 63.572 150.294C64.076 150.639 64.4353 151.115 64.65 151.722C64.818 152.198 64.902 152.758 64.902 153.402C64.902 154.055 64.818 154.629 64.65 155.124C64.4447 155.749 64.09 156.239 63.586 156.594C63.082 156.939 62.4893 157.112 61.808 157.112ZM61.808 155.95C62.1813 155.95 62.508 155.847 62.788 155.642C63.068 155.427 63.2687 155.129 63.39 154.746C63.4927 154.391 63.544 153.953 63.544 153.43C63.544 152.907 63.4973 152.473 63.404 152.128C63.2827 151.745 63.082 151.451 62.802 151.246C62.522 151.031 62.1813 150.924 61.78 150.924C61.3973 150.924 61.066 151.031 60.786 151.246C60.506 151.451 60.3053 151.745 60.184 152.128C60.0813 152.455 60.03 152.889 60.03 153.43C60.03 153.971 60.0813 154.41 60.184 154.746C60.296 155.129 60.492 155.427 60.772 155.642C61.0613 155.847 61.4067 155.95 61.808 155.95ZM70.9036 150.014C70.9036 149.921 70.9503 149.874 71.0436 149.874H72.0936C72.187 149.874 72.2336 149.921 72.2336 150.014V156.86C72.2336 156.953 72.187 157 72.0936 157H71.0436C70.9503 157 70.9036 156.953 70.9036 156.86V156.342C70.9036 156.323 70.8943 156.314 70.8756 156.314C70.8663 156.305 70.8523 156.309 70.8336 156.328C70.4603 156.841 69.8863 157.098 69.1116 157.098C68.6543 157.098 68.2296 157.009 67.8376 156.832C67.455 156.655 67.147 156.393 66.9136 156.048C66.6803 155.703 66.5636 155.283 66.5636 154.788V150.014C66.5636 149.921 66.6103 149.874 66.7036 149.874H67.7536C67.847 149.874 67.8936 149.921 67.8936 150.014V154.368C67.8936 154.853 68.0196 155.236 68.2716 155.516C68.533 155.796 68.897 155.936 69.3636 155.936C69.8303 155.936 70.2036 155.796 70.4836 155.516C70.7636 155.227 70.9036 154.844 70.9036 154.368V150.014Z" fill="#292B4D" fill-opacity="0.8"/>
</g>
<defs>
<filter id="filter0_d_75_259" x="0" y="0" width="258" height="202" filterUnits="userSpaceOnUse" color-interpolation-filters="sRGB">
<feFlood flood-opacity="0" result="BackgroundImageFix"/>
<feColorMatrix in="SourceAlpha" type="matrix" values="0 0 0 0 0 0 0 0 0 0 0 0 0 0 0 0 0 0 127 0" result="hardAlpha"/>
<feOffset dy="4"/>
<feGaussianBlur stdDeviation="2"/>
<feComposite in2="hardAlpha" operator="out"/>
<feColorMatrix type="matrix" values="0 0 0 0 0 0 0 0 0 0 0 0 0 0 0 0 0 0 0.25 0"/>
<feBlend mode="normal" in2="BackgroundImageFix" result="effect1_dropShadow_75_259"/>
<feBlend mode="normal" in="SourceGraphic" in2="effect1_dropShadow_75_259" result="shape"/>
</filter>
</defs>
</svg>
