<svg width="55" height="55" viewBox="0 0 55 55" fill="none" xmlns="http://www.w3.org/2000/svg">
<path fill-rule="evenodd" clip-rule="evenodd" d="M4.58333 27.4999C4.58333 14.8499 14.85 4.58325 27.5 4.58325C40.15 4.58325 50.4167 14.8499 50.4167 27.4999C50.4167 40.1499 40.15 50.4166 27.5 50.4166C14.85 50.4166 4.58333 40.1499 4.58333 27.4999ZM13.0625 29.1041L21.2896 37.3312C22.1833 38.2249 23.65 38.2249 24.5208 37.3312L41.9146 19.9374C42.8083 19.0437 42.8083 17.5999 41.9146 16.7062C41.0208 15.8124 39.5771 15.8124 38.6833 16.7062L22.9167 32.4728L16.2938 25.8728C15.4 24.9791 13.9563 24.9791 13.0625 25.8728C12.6334 26.301 12.3922 26.8823 12.3922 27.4885C12.3922 28.0946 12.6334 28.6759 13.0625 29.1041Z" fill="#5C64F2"/>
</svg>
