<svg width="241" height="170" viewBox="0 0 241 170" fill="none" xmlns="http://www.w3.org/2000/svg">
<g clip-path="url(#clip0_66_460)">
<rect y="0.567871" width="241" height="168.752" fill="#DAE3EA"/>
<path fill-rule="evenodd" clip-rule="evenodd" d="M134.934 73.7306V95.4052C134.934 97.1082 133.54 98.5015 131.837 98.5015H110.163C108.46 98.5015 107.066 97.1082 107.066 95.4052V73.7306C107.066 72.0276 108.46 70.6343 110.163 70.6343H131.837C133.54 70.6343 134.934 72.0276 134.934 73.7306ZM119.452 91.5502L116.201 87.6333C115.875 87.2462 115.287 87.2617 114.993 87.6642L111.138 92.6184C110.735 93.1293 111.092 93.8724 111.742 93.8724H130.304C130.939 93.8724 131.311 93.1448 130.924 92.6339L125.49 85.3884C125.18 84.9704 124.561 84.9704 124.251 85.3729L119.452 91.5502Z" fill="#94A3B1"/>
</g>
<defs>
<clipPath id="clip0_66_460">
<path d="M0 7.56788C0 3.70189 3.13401 0.567871 7 0.567871H234C237.866 0.567871 241 3.70188 241 7.56787V162.319C241 166.185 237.866 169.319 234 169.319H7C3.13401 169.319 0 166.185 0 162.319V7.56788Z" fill="white"/>
</clipPath>
</defs>
</svg>
