<svg width="64" height="68" viewBox="0 0 64 68" fill="none" xmlns="http://www.w3.org/2000/svg">
<g filter="url(#filter0_d_247_248)">
<path fill-rule="evenodd" clip-rule="evenodd" d="M52.7175 29.3197L29.3197 10.5435C27.7111 9.25263 25.3535 9.52433 24.0626 11.1329L9.96585 28.6695C8.67499 30.2781 8.93495 32.6504 10.5435 33.9412L33.9413 52.7174C35.5499 54.0083 37.9222 53.7483 39.213 52.1397L53.2952 34.5914C54.586 32.9828 54.3261 30.6106 52.7175 29.3197ZM37.4618 48.3304C36.8164 49.1347 35.6303 49.2646 34.826 48.6192L14.3529 32.19C13.5486 31.5446 13.4187 30.3585 14.0641 29.5542L24.6257 16.3929L29.6814 30.8837C30.1508 32.2461 31.35 33.2084 32.7816 33.3716L48.0234 35.1691L37.4618 48.3304ZM26.9727 13.4682L32.804 30.1681L50.3705 32.2444L26.9727 13.4682Z" fill="#F2594B"/>
</g>
<defs>
<filter id="filter0_d_247_248" x="-4" y="0" width="71.261" height="77.2609" filterUnits="userSpaceOnUse" color-interpolation-filters="sRGB">
<feFlood flood-opacity="0" result="BackgroundImageFix"/>
<feColorMatrix in="SourceAlpha" type="matrix" values="0 0 0 0 0 0 0 0 0 0 0 0 0 0 0 0 0 0 127 0" result="hardAlpha"/>
<feOffset dy="10"/>
<feGaussianBlur stdDeviation="2"/>
<feComposite in2="hardAlpha" operator="out"/>
<feColorMatrix type="matrix" values="0 0 0 0 0 0 0 0 0 0 0 0 0 0 0 0 0 0 0.1 0"/>
<feBlend mode="normal" in2="BackgroundImageFix" result="effect1_dropShadow_247_248"/>
<feBlend mode="normal" in="SourceGraphic" in2="effect1_dropShadow_247_248" result="shape"/>
</filter>
</defs>
</svg>
