<svg width="203" height="268" viewBox="0 0 203 268" fill="none" xmlns="http://www.w3.org/2000/svg">
<g filter="url(#filter0_d_69_276)">
<g clip-path="url(#clip0_69_276)">
<g filter="url(#filter1_d_69_276)">
<rect x="4" width="194.19" height="254" rx="10.8746" fill="white"/>
</g>
<path d="M71.9676 210.578C88.1899 210.487 101.88 196.382 101.872 179.921" stroke="#F2CD5E" stroke-width="27.1865"/>
<path d="M69.8909 210.903C60.7647 210.852 52.2986 206.379 46.9048 199.519" stroke="#F2594B" stroke-width="27.1865"/>
<path d="M46.1225 197.98C42.2858 192.824 39.9836 186.468 39.9869 179.714" stroke="#5C64F2" stroke-width="27.1865"/>
<path d="M71.9676 147.22C88.1899 147.311 101.88 161.416 101.872 177.878" stroke="#F272AE" stroke-width="27.1865"/>
<path d="M69.8909 147.584C53.6687 147.675 39.9787 161.78 39.987 178.241" stroke="#79A2F2" stroke-width="27.1865"/>
<circle cx="70.8012" cy="179.431" r="19.419" fill="#F4F7FC"/>
<g clip-path="url(#clip1_69_276)">
<path d="M139.156 142.318L136.636 143.634C136.333 143.793 136.138 143.656 136.202 143.327L136.724 140.619L134.644 138.72C134.394 138.492 134.468 138.272 134.806 138.229L137.653 137.868L138.885 135.382C139.035 135.081 139.276 135.08 139.426 135.382L140.659 137.868L143.506 138.229C143.845 138.272 143.918 138.492 143.668 138.72L141.588 140.619L142.11 143.327C142.173 143.655 141.978 143.793 141.676 143.634L139.156 142.318Z" fill="#F2CD5E"/>
<path d="M154.756 140.919C154.83 141.215 154.867 141.521 154.867 141.838C154.867 142.154 154.827 142.447 154.746 142.716C154.618 143.147 154.373 143.49 154.009 143.746C153.652 143.995 153.225 144.12 152.727 144.12C152.235 144.12 151.815 143.998 151.464 143.756C151.114 143.514 150.869 143.184 150.727 142.767C150.66 142.578 150.623 142.413 150.616 142.272V142.252C150.616 142.198 150.647 142.171 150.707 142.171H151.505C151.565 142.171 151.599 142.201 151.606 142.262C151.613 142.309 151.629 142.379 151.656 142.474C151.73 142.723 151.858 142.921 152.04 143.069C152.229 143.211 152.454 143.282 152.717 143.282C152.993 143.282 153.225 143.207 153.413 143.059C153.609 142.905 153.74 142.692 153.807 142.423C153.854 142.282 153.878 142.087 153.878 141.838C153.878 141.615 153.858 141.41 153.817 141.222C153.77 140.966 153.649 140.771 153.454 140.636C153.265 140.495 153.03 140.424 152.747 140.424C152.484 140.424 152.249 140.484 152.04 140.606C151.831 140.72 151.697 140.875 151.636 141.07C151.616 141.131 151.579 141.161 151.525 141.161H150.717C150.65 141.161 150.616 141.127 150.616 141.06V137.081C150.616 137.014 150.65 136.98 150.717 136.98H154.494C154.561 136.98 154.595 137.014 154.595 137.081V137.718C154.595 137.785 154.561 137.819 154.494 137.819H151.626C151.599 137.819 151.586 137.832 151.586 137.859L151.576 139.969C151.576 140.01 151.592 140.02 151.626 140C151.788 139.858 151.973 139.754 152.181 139.687C152.397 139.613 152.622 139.576 152.858 139.576C153.329 139.576 153.733 139.693 154.07 139.929C154.413 140.165 154.642 140.495 154.756 140.919ZM157.711 144.049C157.637 144.049 157.61 144.012 157.631 143.938L160.004 137.061C160.024 137.007 160.064 136.98 160.125 136.98H160.882C160.956 136.98 160.983 137.017 160.963 137.092L158.59 143.968C158.57 144.022 158.529 144.049 158.469 144.049H157.711Z" fill="black"/>
<path d="M168.172 140.696C168.307 141.026 168.374 141.407 168.374 141.838C168.374 142.194 168.321 142.524 168.213 142.827C168.065 143.244 167.819 143.568 167.476 143.797C167.132 144.019 166.718 144.13 166.234 144.13C165.749 144.13 165.328 144.005 164.971 143.756C164.621 143.507 164.376 143.17 164.234 142.746C164.16 142.558 164.117 142.289 164.103 141.938C164.103 141.871 164.137 141.838 164.204 141.838H164.982C165.049 141.838 165.083 141.871 165.083 141.938C165.096 142.181 165.123 142.359 165.163 142.474C165.231 142.723 165.355 142.921 165.537 143.069C165.725 143.218 165.958 143.292 166.234 143.292C166.745 143.292 167.089 143.059 167.264 142.595C167.351 142.393 167.395 142.13 167.395 141.807C167.395 141.464 167.341 141.158 167.233 140.888C167.045 140.471 166.708 140.262 166.224 140.262C166.109 140.262 165.964 140.313 165.789 140.414C165.762 140.427 165.742 140.434 165.729 140.434C165.695 140.434 165.668 140.417 165.648 140.383L165.264 139.858C165.251 139.831 165.244 139.808 165.244 139.788C165.244 139.767 165.254 139.744 165.274 139.717L167.001 137.869C167.021 137.835 167.015 137.819 166.981 137.819H164.295C164.228 137.819 164.194 137.785 164.194 137.718V137.081C164.194 137.014 164.228 136.98 164.295 136.98H168.213C168.28 136.98 168.314 137.014 168.314 137.081V137.808C168.314 137.842 168.297 137.883 168.263 137.93L166.728 139.606C166.715 139.619 166.712 139.633 166.718 139.646C166.725 139.653 166.739 139.66 166.759 139.666C167.102 139.7 167.392 139.808 167.627 139.99C167.863 140.165 168.045 140.4 168.172 140.696ZM171.802 144.15C171.122 144.15 170.58 143.958 170.176 143.574C169.779 143.184 169.58 142.662 169.58 142.009V139.02C169.58 138.367 169.779 137.849 170.176 137.465C170.58 137.081 171.122 136.89 171.802 136.89C172.482 136.89 173.024 137.081 173.428 137.465C173.838 137.849 174.044 138.367 174.044 139.02V142.009C174.044 142.662 173.838 143.184 173.428 143.574C173.024 143.958 172.482 144.15 171.802 144.15ZM171.802 143.312C172.192 143.312 172.502 143.201 172.731 142.979C172.96 142.75 173.074 142.447 173.074 142.07V138.98C173.074 138.603 172.96 138.303 172.731 138.081C172.502 137.852 172.192 137.738 171.802 137.738C171.425 137.738 171.122 137.852 170.893 138.081C170.664 138.303 170.55 138.603 170.55 138.98V142.07C170.55 142.447 170.664 142.75 170.893 142.979C171.122 143.201 171.425 143.312 171.802 143.312Z" fill="#6D7278"/>
</g>
<g clip-path="url(#clip2_69_276)">
<path d="M139.156 162.514L136.636 163.83C136.333 163.988 136.138 163.852 136.202 163.523L136.724 160.814L134.644 158.916C134.394 158.688 134.468 158.467 134.806 158.425L137.653 158.064L138.885 155.578C139.035 155.277 139.276 155.276 139.426 155.578L140.659 158.064L143.506 158.425C143.845 158.468 143.918 158.688 143.668 158.916L141.588 160.814L142.11 163.523C142.173 163.851 141.978 163.988 141.676 163.83L139.156 162.514Z" fill="#79A2F2"/>
<path d="M155.12 162.255C155.187 162.255 155.221 162.288 155.221 162.356V163.022C155.221 163.089 155.187 163.123 155.12 163.123H154.686C154.659 163.123 154.645 163.137 154.645 163.163V164.921C154.645 164.988 154.612 165.021 154.544 165.021H153.777C153.71 165.021 153.676 164.988 153.676 164.921V163.163C153.676 163.137 153.662 163.123 153.636 163.123H150.566C150.498 163.123 150.465 163.089 150.465 163.022V162.477C150.465 162.443 150.475 162.403 150.495 162.356L152.484 158.024C152.505 157.977 152.542 157.953 152.595 157.953H153.403C153.437 157.953 153.46 157.966 153.474 157.993C153.494 158.014 153.498 158.04 153.484 158.074L151.586 162.204C151.579 162.218 151.579 162.231 151.586 162.245C151.592 162.251 151.602 162.255 151.616 162.255H153.636C153.662 162.255 153.676 162.241 153.676 162.214V160.71C153.676 160.642 153.71 160.609 153.777 160.609H154.544C154.612 160.609 154.645 160.642 154.645 160.71V162.214C154.645 162.241 154.659 162.255 154.686 162.255H155.12ZM158.185 165.021C158.111 165.021 158.084 164.984 158.104 164.91L160.477 158.034C160.497 157.98 160.537 157.953 160.598 157.953H161.355C161.429 157.953 161.456 157.99 161.436 158.064L159.063 164.941C159.043 164.995 159.003 165.021 158.942 165.021H158.185Z" fill="black"/>
<path d="M168.646 161.669C168.78 161.999 168.848 162.379 168.848 162.81C168.848 163.167 168.794 163.497 168.686 163.8C168.538 164.217 168.292 164.54 167.949 164.769C167.606 164.991 167.192 165.102 166.707 165.102C166.222 165.102 165.802 164.978 165.445 164.729C165.095 164.48 164.849 164.143 164.708 163.719C164.634 163.53 164.59 163.261 164.576 162.911C164.576 162.844 164.61 162.81 164.677 162.81H165.455C165.522 162.81 165.556 162.844 165.556 162.911C165.569 163.153 165.596 163.332 165.637 163.446C165.704 163.695 165.829 163.894 166.01 164.042C166.199 164.19 166.431 164.264 166.707 164.264C167.219 164.264 167.562 164.032 167.737 163.567C167.825 163.365 167.868 163.103 167.868 162.78C167.868 162.436 167.814 162.13 167.707 161.861C167.518 161.443 167.182 161.235 166.697 161.235C166.582 161.235 166.438 161.285 166.263 161.386C166.236 161.4 166.216 161.406 166.202 161.406C166.168 161.406 166.142 161.39 166.121 161.356L165.738 160.831C165.724 160.804 165.717 160.78 165.717 160.76C165.717 160.74 165.728 160.716 165.748 160.69L167.474 158.842C167.495 158.808 167.488 158.791 167.454 158.791H164.768C164.701 158.791 164.667 158.757 164.667 158.69V158.054C164.667 157.987 164.701 157.953 164.768 157.953H168.686C168.754 157.953 168.787 157.987 168.787 158.054V158.781C168.787 158.815 168.77 158.855 168.737 158.902L167.202 160.578C167.188 160.592 167.185 160.605 167.192 160.619C167.198 160.626 167.212 160.632 167.232 160.639C167.575 160.673 167.865 160.78 168.101 160.962C168.336 161.137 168.518 161.373 168.646 161.669ZM172.275 165.122C171.595 165.122 171.053 164.931 170.649 164.547C170.252 164.156 170.054 163.635 170.054 162.982V159.993C170.054 159.34 170.252 158.821 170.649 158.438C171.053 158.054 171.595 157.862 172.275 157.862C172.955 157.862 173.497 158.054 173.901 158.438C174.312 158.821 174.517 159.34 174.517 159.993V162.982C174.517 163.635 174.312 164.156 173.901 164.547C173.497 164.931 172.955 165.122 172.275 165.122ZM172.275 164.284C172.666 164.284 172.975 164.173 173.204 163.951C173.433 163.722 173.547 163.419 173.547 163.042V159.952C173.547 159.575 173.433 159.276 173.204 159.054C172.975 158.825 172.666 158.71 172.275 158.71C171.898 158.71 171.595 158.825 171.366 159.054C171.137 159.276 171.023 159.575 171.023 159.952V163.042C171.023 163.419 171.137 163.722 171.366 163.951C171.595 164.173 171.898 164.284 172.275 164.284Z" fill="#6D7278"/>
</g>
<g clip-path="url(#clip3_69_276)">
<path d="M139.156 182.71L136.636 184.026C136.333 184.184 136.138 184.048 136.202 183.718L136.724 181.01L134.644 179.111C134.394 178.883 134.468 178.663 134.806 178.62L137.653 178.26L138.885 175.774C139.035 175.473 139.276 175.471 139.426 175.774L140.659 178.26L143.506 178.62C143.845 178.663 143.918 178.883 143.668 179.111L141.588 181.01L142.11 183.718C142.173 184.046 141.978 184.184 141.676 184.026L139.156 182.71Z" fill="#5C64F2"/>
<path d="M154.544 181.865C154.679 182.194 154.746 182.575 154.746 183.006C154.746 183.362 154.692 183.692 154.585 183.995C154.437 184.413 154.191 184.736 153.848 184.965C153.504 185.187 153.09 185.298 152.606 185.298C152.121 185.298 151.7 185.173 151.343 184.924C150.993 184.675 150.748 184.339 150.606 183.914C150.532 183.726 150.488 183.457 150.475 183.107C150.475 183.039 150.509 183.006 150.576 183.006H151.353C151.421 183.006 151.454 183.039 151.454 183.107C151.468 183.349 151.495 183.527 151.535 183.642C151.602 183.891 151.727 184.089 151.909 184.238C152.097 184.386 152.33 184.46 152.606 184.46C153.117 184.46 153.46 184.227 153.636 183.763C153.723 183.561 153.767 183.298 153.767 182.975C153.767 182.632 153.713 182.326 153.605 182.056C153.417 181.639 153.08 181.43 152.595 181.43C152.481 181.43 152.336 181.481 152.161 181.582C152.134 181.595 152.114 181.602 152.101 181.602C152.067 181.602 152.04 181.585 152.02 181.552L151.636 181.026C151.623 181 151.616 180.976 151.616 180.956C151.616 180.936 151.626 180.912 151.646 180.885L153.373 179.037C153.393 179.003 153.386 178.987 153.353 178.987H150.667C150.599 178.987 150.566 178.953 150.566 178.886V178.25C150.566 178.182 150.599 178.149 150.667 178.149H154.585C154.652 178.149 154.686 178.182 154.686 178.25V178.977C154.686 179.01 154.669 179.051 154.635 179.098L153.1 180.774C153.087 180.787 153.083 180.801 153.09 180.814C153.097 180.821 153.11 180.828 153.131 180.835C153.474 180.868 153.763 180.976 153.999 181.158C154.235 181.333 154.416 181.568 154.544 181.865ZM157.721 185.217C157.647 185.217 157.62 185.18 157.64 185.106L160.013 178.229C160.034 178.175 160.074 178.149 160.135 178.149H160.892C160.966 178.149 160.993 178.186 160.973 178.26L158.6 185.136C158.58 185.19 158.539 185.217 158.479 185.217H157.721Z" fill="black"/>
<path d="M168.182 181.865C168.317 182.194 168.384 182.575 168.384 183.006C168.384 183.362 168.33 183.692 168.223 183.995C168.075 184.413 167.829 184.736 167.486 184.965C167.142 185.187 166.728 185.298 166.244 185.298C165.759 185.298 165.338 185.173 164.981 184.924C164.631 184.675 164.386 184.339 164.244 183.914C164.17 183.726 164.126 183.457 164.113 183.107C164.113 183.039 164.147 183.006 164.214 183.006H164.991C165.059 183.006 165.092 183.039 165.092 183.107C165.106 183.349 165.133 183.527 165.173 183.642C165.241 183.891 165.365 184.089 165.547 184.238C165.735 184.386 165.968 184.46 166.244 184.46C166.755 184.46 167.099 184.227 167.274 183.763C167.361 183.561 167.405 183.298 167.405 182.975C167.405 182.632 167.351 182.326 167.243 182.056C167.055 181.639 166.718 181.43 166.233 181.43C166.119 181.43 165.974 181.481 165.799 181.582C165.772 181.595 165.752 181.602 165.739 181.602C165.705 181.602 165.678 181.585 165.658 181.552L165.274 181.026C165.261 181 165.254 180.976 165.254 180.956C165.254 180.936 165.264 180.912 165.284 180.885L167.011 179.037C167.031 179.003 167.024 178.987 166.991 178.987H164.305C164.237 178.987 164.204 178.953 164.204 178.886V178.25C164.204 178.182 164.237 178.149 164.305 178.149H168.223C168.29 178.149 168.324 178.182 168.324 178.25V178.977C168.324 179.01 168.307 179.051 168.273 179.098L166.738 180.774C166.725 180.787 166.722 180.801 166.728 180.814C166.735 180.821 166.748 180.828 166.769 180.835C167.112 180.868 167.401 180.976 167.637 181.158C167.873 181.333 168.054 181.568 168.182 181.865ZM171.812 185.318C171.132 185.318 170.59 185.126 170.186 184.742C169.789 184.352 169.59 183.83 169.59 183.177V180.188C169.59 179.535 169.789 179.017 170.186 178.633C170.59 178.25 171.132 178.058 171.812 178.058C172.492 178.058 173.034 178.25 173.437 178.633C173.848 179.017 174.053 179.535 174.053 180.188V183.177C174.053 183.83 173.848 184.352 173.437 184.742C173.034 185.126 172.492 185.318 171.812 185.318ZM171.812 184.48C172.202 184.48 172.512 184.369 172.741 184.147C172.97 183.918 173.084 183.615 173.084 183.238V180.148C173.084 179.771 172.97 179.471 172.741 179.249C172.512 179.02 172.202 178.906 171.812 178.906C171.435 178.906 171.132 179.02 170.903 179.249C170.674 179.471 170.56 179.771 170.56 180.148V183.238C170.56 183.615 170.674 183.918 170.903 184.147C171.132 184.369 171.435 184.48 171.812 184.48Z" fill="#6D7278"/>
</g>
<g clip-path="url(#clip4_69_276)">
<path d="M139.156 202.905L136.636 204.222C136.333 204.38 136.138 204.243 136.202 203.914L136.724 201.206L134.644 199.307C134.394 199.079 134.468 198.859 134.806 198.816L137.653 198.456L138.885 195.97C139.035 195.668 139.276 195.667 139.426 195.97L140.659 198.456L143.506 198.816C143.845 198.859 143.918 199.079 143.668 199.307L141.588 201.206L142.11 203.914C142.173 204.242 141.978 204.38 141.676 204.222L139.156 202.905Z" fill="#F272AE"/>
<path d="M151.838 204.524C151.831 204.538 151.831 204.551 151.838 204.565C151.845 204.571 151.855 204.575 151.868 204.575H154.908C154.975 204.575 155.009 204.608 155.009 204.676V205.312C155.009 205.379 154.975 205.413 154.908 205.413H150.677C150.61 205.413 150.576 205.379 150.576 205.312V204.696C150.576 204.649 150.593 204.608 150.626 204.575C150.855 204.312 151.38 203.696 152.202 202.727L152.898 201.889C153.524 201.141 153.837 200.563 153.837 200.152C153.837 199.835 153.73 199.583 153.514 199.395C153.306 199.199 153.026 199.102 152.676 199.102C152.326 199.102 152.047 199.199 151.838 199.395C151.629 199.59 151.528 199.846 151.535 200.162V200.465C151.535 200.532 151.502 200.566 151.434 200.566H150.657C150.589 200.566 150.556 200.532 150.556 200.465V200.031C150.569 199.681 150.667 199.371 150.849 199.102C151.037 198.832 151.289 198.627 151.606 198.486C151.922 198.338 152.279 198.264 152.676 198.264C153.107 198.264 153.484 198.344 153.807 198.506C154.13 198.667 154.379 198.89 154.554 199.172C154.729 199.455 154.817 199.775 154.817 200.132C154.817 200.69 154.514 201.35 153.908 202.111C153.639 202.454 153.319 202.841 152.949 203.272C152.579 203.696 152.208 204.114 151.838 204.524ZM157.918 205.413C157.844 205.413 157.817 205.376 157.838 205.302L160.211 198.425C160.231 198.371 160.271 198.344 160.332 198.344H161.089C161.163 198.344 161.19 198.381 161.17 198.455L158.797 205.332C158.777 205.386 158.736 205.413 158.676 205.413H157.918Z" fill="black"/>
<path d="M168.592 202.283C168.666 202.579 168.703 202.885 168.703 203.201C168.703 203.518 168.662 203.811 168.582 204.08C168.454 204.511 168.208 204.854 167.844 205.11C167.488 205.359 167.06 205.484 166.562 205.484C166.071 205.484 165.65 205.362 165.3 205.12C164.95 204.878 164.704 204.548 164.563 204.13C164.495 203.942 164.458 203.777 164.452 203.636V203.615C164.452 203.562 164.482 203.535 164.542 203.535H165.34C165.401 203.535 165.434 203.565 165.441 203.626C165.448 203.673 165.465 203.743 165.492 203.838C165.566 204.087 165.694 204.285 165.875 204.433C166.064 204.575 166.289 204.645 166.552 204.645C166.828 204.645 167.06 204.571 167.249 204.423C167.444 204.268 167.575 204.056 167.642 203.787C167.69 203.646 167.713 203.45 167.713 203.201C167.713 202.979 167.693 202.774 167.653 202.585C167.605 202.33 167.484 202.134 167.289 202C167.101 201.858 166.865 201.788 166.582 201.788C166.32 201.788 166.084 201.848 165.875 201.969C165.667 202.084 165.532 202.239 165.471 202.434C165.451 202.495 165.414 202.525 165.36 202.525H164.552C164.485 202.525 164.452 202.491 164.452 202.424V198.445C164.452 198.378 164.485 198.344 164.552 198.344H168.329C168.396 198.344 168.43 198.378 168.43 198.445V199.081C168.43 199.149 168.396 199.182 168.329 199.182H165.461C165.434 199.182 165.421 199.196 165.421 199.223L165.411 201.333C165.411 201.374 165.428 201.384 165.461 201.364C165.623 201.222 165.808 201.118 166.017 201.051C166.232 200.977 166.458 200.939 166.693 200.939C167.164 200.939 167.568 201.057 167.905 201.293C168.248 201.529 168.477 201.858 168.592 202.283Z" fill="#6D7278"/>
</g>
<g clip-path="url(#clip5_69_276)">
<path d="M139.156 223.101L136.636 224.417C136.333 224.576 136.138 224.439 136.202 224.11L136.724 221.401L134.644 219.503C134.394 219.275 134.468 219.054 134.806 219.012L137.653 218.651L138.885 216.165C139.035 215.864 139.276 215.863 139.426 216.165L140.659 218.651L143.506 219.012C143.845 219.055 143.918 219.275 143.668 219.503L141.588 221.401L142.11 224.11C142.173 224.438 141.978 224.575 141.676 224.417L139.156 223.101Z" fill="#F2594B"/>
<path d="M151.747 218.57C151.788 218.55 151.831 218.54 151.878 218.54H152.676C152.744 218.54 152.777 218.574 152.777 218.641V225.508C152.777 225.575 152.744 225.609 152.676 225.609H151.909C151.841 225.609 151.808 225.575 151.808 225.508V219.58C151.808 219.567 151.801 219.557 151.788 219.55C151.781 219.543 151.771 219.543 151.757 219.55L150.697 219.913C150.684 219.92 150.667 219.923 150.647 219.923C150.606 219.923 150.583 219.897 150.576 219.843L150.535 219.267C150.535 219.2 150.556 219.159 150.596 219.146L151.747 218.57ZM155.976 225.609C155.902 225.609 155.875 225.572 155.895 225.498L158.268 218.621C158.288 218.567 158.329 218.54 158.389 218.54H159.147C159.221 218.54 159.247 218.577 159.227 218.651L156.854 225.528C156.834 225.582 156.794 225.609 156.733 225.609H155.976Z" fill="black"/>
<path d="M166.649 222.478C166.723 222.774 166.76 223.081 166.76 223.397C166.76 223.714 166.72 224.006 166.639 224.276C166.511 224.707 166.265 225.05 165.902 225.306C165.545 225.555 165.117 225.679 164.619 225.679C164.128 225.679 163.707 225.558 163.357 225.316C163.007 225.073 162.761 224.744 162.62 224.326C162.553 224.138 162.516 223.973 162.509 223.831V223.811C162.509 223.757 162.539 223.73 162.6 223.73H163.397C163.458 223.73 163.492 223.761 163.498 223.821C163.505 223.868 163.522 223.939 163.549 224.033C163.623 224.282 163.751 224.481 163.933 224.629C164.121 224.77 164.347 224.841 164.609 224.841C164.885 224.841 165.117 224.767 165.306 224.619C165.501 224.464 165.632 224.252 165.7 223.983C165.747 223.841 165.77 223.646 165.77 223.397C165.77 223.175 165.75 222.97 165.71 222.781C165.663 222.525 165.542 222.33 165.346 222.196C165.158 222.054 164.922 221.983 164.639 221.983C164.377 221.983 164.141 222.044 163.933 222.165C163.724 222.28 163.589 222.434 163.529 222.63C163.509 222.69 163.472 222.721 163.418 222.721H162.61C162.543 222.721 162.509 222.687 162.509 222.62V218.641C162.509 218.574 162.543 218.54 162.61 218.54H166.386C166.454 218.54 166.487 218.574 166.487 218.641V219.277C166.487 219.345 166.454 219.378 166.386 219.378H163.519C163.492 219.378 163.478 219.392 163.478 219.419L163.468 221.529C163.468 221.569 163.485 221.58 163.519 221.559C163.68 221.418 163.865 221.314 164.074 221.246C164.289 221.172 164.515 221.135 164.751 221.135C165.222 221.135 165.626 221.253 165.962 221.489C166.306 221.724 166.535 222.054 166.649 222.478Z" fill="#6D7278"/>
</g>
<path d="M31.7458 33.9681C31.23 33.9681 30.7733 33.8656 30.3756 33.6605C29.9841 33.4492 29.6796 33.1572 29.4621 32.7843C29.2446 32.4053 29.1359 31.9672 29.1359 31.4701V29.7177C29.1359 29.233 29.2446 28.8042 29.4621 28.4314C29.6796 28.0585 29.9841 27.7696 30.3756 27.5645C30.7733 27.3595 31.23 27.2569 31.7458 27.2569C32.2678 27.2569 32.7245 27.3595 33.116 27.5645C33.5137 27.7696 33.8213 28.0585 34.0388 28.4314C34.2563 28.8042 34.365 29.233 34.365 29.7177V31.4701C34.365 31.9672 34.2563 32.4053 34.0388 32.7843C33.8213 33.1572 33.5137 33.4492 33.116 33.6605C32.7245 33.8656 32.2678 33.9681 31.7458 33.9681ZM31.7458 32.4674C32.0068 32.4674 32.215 32.3835 32.3703 32.2157C32.5319 32.0418 32.6127 31.8118 32.6127 31.526V29.6991C32.6127 29.4132 32.5319 29.1864 32.3703 29.0186C32.215 28.8446 32.0068 28.7576 31.7458 28.7576C31.491 28.7576 31.2829 28.8446 31.1213 29.0186C30.9659 29.1864 30.8883 29.4132 30.8883 29.6991V31.526C30.8883 31.8118 30.9659 32.0418 31.1213 32.2157C31.2829 32.3835 31.491 32.4674 31.7458 32.4674ZM37.4493 33.8563C37.4121 33.8563 37.3779 33.8469 37.3468 33.8283C37.3157 33.8034 37.2971 33.7724 37.2909 33.7351L35.4546 27.4899C35.4484 27.4775 35.4453 27.462 35.4453 27.4433C35.4453 27.3688 35.4888 27.3315 35.5758 27.3315H37.1697C37.2505 27.3315 37.3002 27.3719 37.3189 27.4527L38.251 31.3862C38.2572 31.411 38.2665 31.4235 38.2789 31.4235C38.2914 31.4235 38.3007 31.411 38.3069 31.3862L39.211 27.4527C39.2297 27.3719 39.2794 27.3315 39.3602 27.3315H40.9168C40.9665 27.3315 41.0007 27.347 41.0193 27.3781C41.0442 27.403 41.0504 27.4402 41.038 27.4899L39.1831 33.7351C39.1769 33.7724 39.1582 33.8034 39.1271 33.8283C39.0961 33.8469 39.0619 33.8563 39.0246 33.8563H37.4493ZM47.1141 28.6924C47.1141 28.7359 47.1016 28.77 47.0768 28.7949C47.0519 28.8198 47.0177 28.8322 46.9742 28.8322H44.1872C44.1562 28.8322 44.1406 28.8477 44.1406 28.8788V29.755C44.1406 29.786 44.1562 29.8016 44.1872 29.8016H45.9116C45.9551 29.8016 45.9893 29.814 46.0142 29.8389C46.039 29.8637 46.0515 29.8979 46.0515 29.9414V31.1531C46.0515 31.1966 46.039 31.2308 46.0142 31.2557C45.9893 31.2805 45.9551 31.293 45.9116 31.293H44.1872C44.1562 31.293 44.1406 31.3085 44.1406 31.3396V32.309C44.1406 32.34 44.1562 32.3556 44.1872 32.3556H46.9742C47.0177 32.3556 47.0519 32.368 47.0768 32.3928C47.1016 32.4177 47.1141 32.4519 47.1141 32.4954V33.7164C47.1141 33.7599 47.1016 33.7941 47.0768 33.819C47.0519 33.8438 47.0177 33.8563 46.9742 33.8563H42.5281C42.4846 33.8563 42.4504 33.8438 42.4256 33.819C42.4007 33.7941 42.3883 33.7599 42.3883 33.7164V27.4713C42.3883 27.4278 42.4007 27.3936 42.4256 27.3688C42.4504 27.3439 42.4846 27.3315 42.5281 27.3315H46.9742C47.0177 27.3315 47.0519 27.3439 47.0768 27.3688C47.1016 27.3936 47.1141 27.4278 47.1141 27.4713V28.6924ZM51.9111 33.8563C51.8303 33.8563 51.7775 33.8221 51.7527 33.7537L50.7274 31.3862C50.7149 31.3613 50.6963 31.3489 50.6714 31.3489H50.2799C50.2489 31.3489 50.2333 31.3644 50.2333 31.3955V33.7164C50.2333 33.7599 50.2209 33.7941 50.196 33.819C50.1712 33.8438 50.137 33.8563 50.0935 33.8563H48.6208C48.5773 33.8563 48.5431 33.8438 48.5183 33.819C48.4934 33.7941 48.481 33.7599 48.481 33.7164V27.4713C48.481 27.4278 48.4934 27.3936 48.5183 27.3688C48.5431 27.3439 48.5773 27.3315 48.6208 27.3315H51.4451C51.8676 27.3315 52.2374 27.4185 52.5543 27.5925C52.8774 27.7665 53.126 28.0119 53.3 28.3288C53.4802 28.6396 53.5703 29 53.5703 29.4101C53.5703 29.8202 53.4678 30.1806 53.2627 30.4913C53.0638 30.7958 52.7873 31.0195 52.4331 31.1625C52.402 31.1749 52.3927 31.1966 52.4051 31.2277L53.5889 33.6885C53.6014 33.7258 53.6076 33.7475 53.6076 33.7537C53.6076 33.7848 53.5951 33.8097 53.5703 33.8283C53.5454 33.8469 53.5144 33.8563 53.4771 33.8563H51.9111ZM50.2799 28.8322C50.2489 28.8322 50.2333 28.8477 50.2333 28.8788V29.9694C50.2333 30.0004 50.2489 30.016 50.2799 30.016H51.1561C51.355 30.016 51.5165 29.9631 51.6408 29.8575C51.7651 29.7457 51.8272 29.6027 51.8272 29.4287C51.8272 29.2485 51.7651 29.1056 51.6408 29C51.5165 28.8881 51.355 28.8322 51.1561 28.8322H50.2799ZM59.3547 33.8563C59.2677 33.8563 59.2148 33.8159 59.1962 33.7351L58.9911 33.008C58.9787 32.9832 58.9632 32.9708 58.9445 32.9708H56.9685C56.9498 32.9708 56.9343 32.9832 56.9219 33.008L56.7168 33.7351C56.6981 33.8159 56.6453 33.8563 56.5583 33.8563H54.9644C54.8526 33.8563 54.8122 33.8034 54.8432 33.6978L56.81 27.4433C56.8349 27.3688 56.8877 27.3315 56.9685 27.3315H58.9445C59.0253 27.3315 59.0781 27.3688 59.103 27.4433L61.0697 33.6978C61.076 33.7102 61.0791 33.7289 61.0791 33.7537C61.0791 33.8221 61.0356 33.8563 60.9486 33.8563H59.3547ZM57.332 31.5726C57.3258 31.6099 57.3382 31.6285 57.3693 31.6285H58.5344C58.5717 31.6285 58.5841 31.6099 58.5717 31.5726L57.9751 29.4847C57.9689 29.466 57.9596 29.4567 57.9472 29.4567C57.9347 29.4567 57.9254 29.466 57.9192 29.4847L57.332 31.5726ZM62.563 33.8563C62.5195 33.8563 62.4853 33.8438 62.4605 33.819C62.4356 33.7941 62.4232 33.7599 62.4232 33.7164V27.4713C62.4232 27.4278 62.4356 27.3936 62.4605 27.3688C62.4853 27.3439 62.5195 27.3315 62.563 27.3315H64.0357C64.0792 27.3315 64.1134 27.3439 64.1383 27.3688C64.1631 27.3936 64.1755 27.4278 64.1755 27.4713V32.309C64.1755 32.34 64.1911 32.3556 64.2221 32.3556H67.1024C67.1459 32.3556 67.18 32.368 67.2049 32.3928C67.2298 32.4177 67.2422 32.4519 67.2422 32.4954V33.7164C67.2422 33.7599 67.2298 33.7941 67.2049 33.819C67.18 33.8438 67.1459 33.8563 67.1024 33.8563H62.563ZM73.6652 33.9308C73.1432 33.9308 72.6865 33.8469 72.295 33.6792C71.9035 33.5052 71.599 33.2597 71.3815 32.9428C71.1702 32.6259 71.0646 32.2592 71.0646 31.8429V31.7124C71.0646 31.6689 71.077 31.6347 71.1019 31.6099C71.1267 31.585 71.1609 31.5726 71.2044 31.5726H72.6492C72.6927 31.5726 72.7268 31.585 72.7517 31.6099C72.7766 31.6347 72.789 31.6689 72.789 31.7124V31.7683C72.789 31.9423 72.8791 32.0977 73.0593 32.2344C73.2457 32.3649 73.4912 32.4301 73.7957 32.4301C74.0256 32.4301 74.1903 32.3835 74.2897 32.2903C74.3891 32.1909 74.4388 32.0821 74.4388 31.9641C74.4388 31.8274 74.3767 31.7248 74.2524 31.6565C74.1281 31.5881 73.9013 31.5042 73.572 31.4048L73.3017 31.3302C72.6865 31.1438 72.1707 30.8953 71.7543 30.5846C71.338 30.2739 71.1298 29.8233 71.1298 29.233C71.1298 28.8415 71.2355 28.4966 71.4468 28.1984C71.658 27.8939 71.947 27.6608 72.3136 27.4993C72.6865 27.3377 73.1028 27.2569 73.5626 27.2569C74.0473 27.2569 74.4854 27.347 74.8769 27.5272C75.2746 27.7074 75.5853 27.9622 75.809 28.2916C76.0389 28.6209 76.1539 28.9969 76.1539 29.4194V29.5033C76.1539 29.5468 76.1415 29.581 76.1166 29.6058C76.0918 29.6307 76.0576 29.6431 76.0141 29.6431H74.5693C74.5258 29.6431 74.4916 29.6307 74.4668 29.6058C74.4419 29.581 74.4295 29.5468 74.4295 29.5033V29.494C74.4295 29.3076 74.3456 29.1398 74.1778 28.9906C74.0101 28.8353 73.7832 28.7576 73.4974 28.7576C73.2985 28.7576 73.1401 28.798 73.022 28.8788C72.9102 28.9596 72.8542 29.0714 72.8542 29.2144C72.8542 29.3262 72.8946 29.4225 72.9754 29.5033C73.0624 29.5779 73.1929 29.6524 73.3669 29.727C73.5409 29.7954 73.8081 29.8855 74.1685 29.9973C74.2182 30.016 74.4357 30.0843 74.821 30.2024C75.2125 30.3142 75.5387 30.5224 75.7997 30.8269C76.0607 31.1252 76.1912 31.4887 76.1912 31.9175C76.1912 32.3338 76.0856 32.6942 75.8743 32.9987C75.663 33.297 75.3678 33.5269 74.9888 33.6885C74.6097 33.85 74.1685 33.9308 73.6652 33.9308ZM82.454 27.3315C82.4975 27.3315 82.5317 27.3439 82.5565 27.3688C82.5814 27.3936 82.5938 27.4278 82.5938 27.4713V28.7017C82.5938 28.7452 82.5814 28.7794 82.5565 28.8042C82.5317 28.8291 82.4975 28.8415 82.454 28.8415H80.8881C80.857 28.8415 80.8415 28.857 80.8415 28.8881V33.7164C80.8415 33.7599 80.829 33.7941 80.8042 33.819C80.7793 33.8438 80.7451 33.8563 80.7016 33.8563H79.2289C79.1854 33.8563 79.1512 33.8438 79.1264 33.819C79.1015 33.7941 79.0891 33.7599 79.0891 33.7164V28.8881C79.0891 28.857 79.0735 28.8415 79.0425 28.8415H77.5231C77.4796 28.8415 77.4455 28.8291 77.4206 28.8042C77.3957 28.7794 77.3833 28.7452 77.3833 28.7017V27.4713C77.3833 27.4278 77.3957 27.3936 77.4206 27.3688C77.4455 27.3439 77.4796 27.3315 77.5231 27.3315H82.454ZM87.6062 33.8563C87.5192 33.8563 87.4664 33.8159 87.4478 33.7351L87.2427 33.008C87.2303 32.9832 87.2147 32.9708 87.1961 32.9708H85.22C85.2014 32.9708 85.1858 32.9832 85.1734 33.008L84.9683 33.7351C84.9497 33.8159 84.8969 33.8563 84.8099 33.8563H83.216C83.1041 33.8563 83.0637 33.8034 83.0948 33.6978L85.0616 27.4433C85.0864 27.3688 85.1392 27.3315 85.22 27.3315H87.1961C87.2769 27.3315 87.3297 27.3688 87.3545 27.4433L89.3213 33.6978C89.3275 33.7102 89.3306 33.7289 89.3306 33.7537C89.3306 33.8221 89.2871 33.8563 89.2001 33.8563H87.6062ZM85.5835 31.5726C85.5773 31.6099 85.5898 31.6285 85.6208 31.6285H86.786C86.8232 31.6285 86.8357 31.6099 86.8232 31.5726L86.2267 29.4847C86.2205 29.466 86.2112 29.4567 86.1987 29.4567C86.1863 29.4567 86.177 29.466 86.1708 29.4847L85.5835 31.5726ZM94.6212 27.3315C94.6647 27.3315 94.6989 27.3439 94.7237 27.3688C94.7486 27.3936 94.761 27.4278 94.761 27.4713V28.7017C94.761 28.7452 94.7486 28.7794 94.7237 28.8042C94.6989 28.8291 94.6647 28.8415 94.6212 28.8415H93.0553C93.0242 28.8415 93.0086 28.857 93.0086 28.8881V33.7164C93.0086 33.7599 92.9962 33.7941 92.9714 33.819C92.9465 33.8438 92.9123 33.8563 92.8688 33.8563H91.3961C91.3526 33.8563 91.3184 33.8438 91.2936 33.819C91.2687 33.7941 91.2563 33.7599 91.2563 33.7164V28.8881C91.2563 28.857 91.2407 28.8415 91.2097 28.8415H89.6903C89.6468 28.8415 89.6127 28.8291 89.5878 28.8042C89.5629 28.7794 89.5505 28.7452 89.5505 28.7017V27.4713C89.5505 27.4278 89.5629 27.3936 89.5878 27.3688C89.6127 27.3439 89.6468 27.3315 89.6903 27.3315H94.6212ZM96.2063 33.8563C96.1628 33.8563 96.1287 33.8438 96.1038 33.819C96.079 33.7941 96.0665 33.7599 96.0665 33.7164V27.4713C96.0665 27.4278 96.079 27.3936 96.1038 27.3688C96.1287 27.3439 96.1628 27.3315 96.2063 27.3315H97.6791C97.7226 27.3315 97.7568 27.3439 97.7816 27.3688C97.8065 27.3936 97.8189 27.4278 97.8189 27.4713V33.7164C97.8189 33.7599 97.8065 33.7941 97.7816 33.819C97.7568 33.8438 97.7226 33.8563 97.6791 33.8563H96.2063ZM101.789 33.9308C101.267 33.9308 100.811 33.8469 100.419 33.6792C100.028 33.5052 99.7231 33.2597 99.5056 32.9428C99.2943 32.6259 99.1887 32.2592 99.1887 31.8429V31.7124C99.1887 31.6689 99.2011 31.6347 99.226 31.6099C99.2508 31.585 99.285 31.5726 99.3285 31.5726H100.773C100.817 31.5726 100.851 31.585 100.876 31.6099C100.901 31.6347 100.913 31.6689 100.913 31.7124V31.7683C100.913 31.9423 101.003 32.0977 101.183 32.2344C101.37 32.3649 101.615 32.4301 101.92 32.4301C102.15 32.4301 102.314 32.3835 102.414 32.2903C102.513 32.1909 102.563 32.0821 102.563 31.9641C102.563 31.8274 102.501 31.7248 102.377 31.6565C102.252 31.5881 102.025 31.5042 101.696 31.4048L101.426 31.3302C100.811 31.1438 100.295 30.8953 99.8785 30.5846C99.4621 30.2739 99.2539 29.8233 99.2539 29.233C99.2539 28.8415 99.3596 28.4966 99.5709 28.1984C99.7821 27.8939 100.071 27.6608 100.438 27.4993C100.811 27.3377 101.227 27.2569 101.687 27.2569C102.171 27.2569 102.61 27.347 103.001 27.5272C103.399 27.7074 103.709 27.9622 103.933 28.2916C104.163 28.6209 104.278 28.9969 104.278 29.4194V29.5033C104.278 29.5468 104.266 29.581 104.241 29.6058C104.216 29.6307 104.182 29.6431 104.138 29.6431H102.693C102.65 29.6431 102.616 29.6307 102.591 29.6058C102.566 29.581 102.554 29.5468 102.554 29.5033V29.494C102.554 29.3076 102.47 29.1398 102.302 28.9906C102.134 28.8353 101.907 28.7576 101.622 28.7576C101.423 28.7576 101.264 28.798 101.146 28.8788C101.034 28.9596 100.978 29.0714 100.978 29.2144C100.978 29.3262 101.019 29.4225 101.1 29.5033C101.187 29.5779 101.317 29.6524 101.491 29.727C101.665 29.7954 101.932 29.8855 102.293 29.9973C102.342 30.016 102.56 30.0843 102.945 30.2024C103.337 30.3142 103.663 30.5224 103.924 30.8269C104.185 31.1252 104.315 31.4887 104.315 31.9175C104.315 32.3338 104.21 32.6942 103.998 32.9987C103.787 33.297 103.492 33.5269 103.113 33.6885C102.734 33.85 102.293 33.9308 101.789 33.9308ZM110.578 27.3315C110.622 27.3315 110.656 27.3439 110.681 27.3688C110.706 27.3936 110.718 27.4278 110.718 27.4713V28.7017C110.718 28.7452 110.706 28.7794 110.681 28.8042C110.656 28.8291 110.622 28.8415 110.578 28.8415H109.012C108.981 28.8415 108.966 28.857 108.966 28.8881V33.7164C108.966 33.7599 108.953 33.7941 108.928 33.819C108.903 33.8438 108.869 33.8563 108.826 33.8563H107.353C107.31 33.8563 107.275 33.8438 107.25 33.819C107.226 33.7941 107.213 33.7599 107.213 33.7164V28.8881C107.213 28.857 107.198 28.8415 107.167 28.8415H105.647C105.604 28.8415 105.57 28.8291 105.545 28.8042C105.52 28.7794 105.507 28.7452 105.507 28.7017V27.4713C105.507 27.4278 105.52 27.3936 105.545 27.3688C105.57 27.3439 105.604 27.3315 105.647 27.3315H110.578ZM112.163 33.8563C112.12 33.8563 112.086 33.8438 112.061 33.819C112.036 33.7941 112.023 33.7599 112.023 33.7164V27.4713C112.023 27.4278 112.036 27.3936 112.061 27.3688C112.086 27.3439 112.12 27.3315 112.163 27.3315H113.636C113.679 27.3315 113.714 27.3439 113.739 27.3688C113.763 27.3936 113.776 27.4278 113.776 27.4713V33.7164C113.776 33.7599 113.763 33.7941 113.739 33.819C113.714 33.8438 113.679 33.8563 113.636 33.8563H112.163ZM117.765 33.9308C117.255 33.9308 116.805 33.8314 116.413 33.6326C116.028 33.4337 115.727 33.1541 115.509 32.7937C115.298 32.427 115.192 32.0045 115.192 31.526V29.6431C115.192 29.1709 115.298 28.7545 115.509 28.3941C115.727 28.0337 116.028 27.754 116.413 27.5552C116.805 27.3563 117.255 27.2569 117.765 27.2569C118.274 27.2569 118.722 27.3501 119.107 27.5366C119.499 27.723 119.8 27.9871 120.011 28.3288C120.229 28.6644 120.337 29.0559 120.337 29.5033C120.337 29.5592 120.291 29.5934 120.198 29.6058L118.725 29.6991H118.697C118.622 29.6991 118.585 29.6649 118.585 29.5965C118.585 29.3417 118.511 29.1398 118.361 28.9906C118.212 28.8353 118.013 28.7576 117.765 28.7576C117.516 28.7576 117.317 28.8353 117.168 28.9906C117.019 29.1398 116.945 29.3417 116.945 29.5965V31.6006C116.945 31.8491 117.019 32.0511 117.168 32.2064C117.317 32.3556 117.516 32.4301 117.765 32.4301C118.013 32.4301 118.212 32.3556 118.361 32.2064C118.511 32.0511 118.585 31.8491 118.585 31.6006C118.585 31.5633 118.598 31.5353 118.622 31.5167C118.647 31.498 118.681 31.4918 118.725 31.498L120.198 31.5726C120.291 31.5788 120.337 31.6099 120.337 31.6658C120.337 32.1132 120.229 32.5078 120.011 32.8496C119.8 33.1914 119.499 33.4586 119.107 33.6512C118.722 33.8376 118.274 33.9308 117.765 33.9308ZM124.203 33.9308C123.681 33.9308 123.224 33.8469 122.833 33.6792C122.441 33.5052 122.137 33.2597 121.919 32.9428C121.708 32.6259 121.602 32.2592 121.602 31.8429V31.7124C121.602 31.6689 121.615 31.6347 121.64 31.6099C121.665 31.585 121.699 31.5726 121.742 31.5726H123.187C123.231 31.5726 123.265 31.585 123.29 31.6099C123.314 31.6347 123.327 31.6689 123.327 31.7124V31.7683C123.327 31.9423 123.417 32.0977 123.597 32.2344C123.784 32.3649 124.029 32.4301 124.334 32.4301C124.563 32.4301 124.728 32.3835 124.828 32.2903C124.927 32.1909 124.977 32.0821 124.977 31.9641C124.977 31.8274 124.915 31.7248 124.79 31.6565C124.666 31.5881 124.439 31.5042 124.11 31.4048L123.839 31.3302C123.224 31.1438 122.709 30.8953 122.292 30.5846C121.876 30.2739 121.668 29.8233 121.668 29.233C121.668 28.8415 121.773 28.4966 121.985 28.1984C122.196 27.8939 122.485 27.6608 122.851 27.4993C123.224 27.3377 123.641 27.2569 124.1 27.2569C124.585 27.2569 125.023 27.347 125.415 27.5272C125.812 27.7074 126.123 27.9622 126.347 28.2916C126.577 28.6209 126.692 28.9969 126.692 29.4194V29.5033C126.692 29.5468 126.679 29.581 126.654 29.6058C126.63 29.6307 126.595 29.6431 126.552 29.6431H125.107C125.064 29.6431 125.029 29.6307 125.005 29.6058C124.98 29.581 124.967 29.5468 124.967 29.5033V29.494C124.967 29.3076 124.883 29.1398 124.716 28.9906C124.548 28.8353 124.321 28.7576 124.035 28.7576C123.836 28.7576 123.678 28.798 123.56 28.8788C123.448 28.9596 123.392 29.0714 123.392 29.2144C123.392 29.3262 123.432 29.4225 123.513 29.5033C123.6 29.5779 123.731 29.6524 123.905 29.727C124.079 29.7954 124.346 29.8855 124.706 29.9973C124.756 30.016 124.974 30.0843 125.359 30.2024C125.75 30.3142 126.077 30.5224 126.338 30.8269C126.599 31.1252 126.729 31.4887 126.729 31.9175C126.729 32.3338 126.623 32.6942 126.412 32.9987C126.201 33.297 125.906 33.5269 125.527 33.6885C125.148 33.85 124.706 33.9308 124.203 33.9308Z" fill="#292B4D"/>
<g clip-path="url(#clip6_69_276)">
<path d="M40.489 73.2212C40.6713 73.9503 40.7624 74.7043 40.7624 75.4831C40.7624 76.2619 40.663 76.9828 40.4641 77.6456C40.1493 78.7061 39.5445 79.5513 38.6496 80.1809C37.7714 80.7941 36.7191 81.1006 35.4929 81.1006C34.2832 81.1006 33.2475 80.8024 32.3859 80.2058C31.5242 79.6093 30.9193 78.7973 30.5713 77.7699C30.4056 77.3059 30.3145 76.8999 30.2979 76.5519V76.5022C30.2979 76.3697 30.3725 76.3034 30.5216 76.3034H32.4853C32.6344 76.3034 32.7173 76.3779 32.7338 76.5271C32.7504 76.6431 32.7918 76.8171 32.8581 77.0491C33.0404 77.6622 33.3552 78.151 33.8027 78.5156C34.2666 78.8636 34.8218 79.0376 35.468 79.0376C36.1474 79.0376 36.7191 78.8553 37.1831 78.4907C37.6637 78.1096 37.9868 77.5876 38.1525 76.9248C38.2685 76.5768 38.3265 76.0962 38.3265 75.4831C38.3265 74.9363 38.2768 74.4309 38.1774 73.9669C38.0614 73.3372 37.7631 72.8566 37.2825 72.5252C36.8186 72.1772 36.2386 72.0032 35.5426 72.0032C34.8963 72.0032 34.3164 72.1524 33.8027 72.4506C33.289 72.7324 32.9575 73.1135 32.8084 73.594C32.7587 73.7432 32.6676 73.8177 32.535 73.8177H30.5465C30.3808 73.8177 30.2979 73.7349 30.2979 73.5692V63.7758C30.2979 63.6101 30.3808 63.5272 30.5465 63.5272H39.8427C40.0084 63.5272 40.0913 63.6101 40.0913 63.7758V65.3418C40.0913 65.5075 40.0084 65.5903 39.8427 65.5903H32.7836C32.7173 65.5903 32.6841 65.6235 32.6841 65.6897L32.6593 70.8847C32.6593 70.9841 32.7007 71.009 32.7836 70.9593C33.1813 70.6113 33.637 70.3544 34.1506 70.1887C34.6809 70.0064 35.236 69.9153 35.816 69.9153C36.976 69.9153 37.9702 70.2053 38.7988 70.7853C39.6439 71.3653 40.2073 72.1772 40.489 73.2212ZM45.2226 80.9266C44.7586 80.9266 44.3774 80.7775 44.0792 80.4792C43.7809 80.1809 43.6318 79.7998 43.6318 79.3358C43.6318 78.8719 43.7809 78.4907 44.0792 78.1924C44.3774 77.8942 44.7586 77.745 45.2226 77.745C45.6865 77.745 46.0677 77.8942 46.366 78.1924C46.6642 78.4907 46.8134 78.8719 46.8134 79.3358C46.8134 79.7998 46.6642 80.1809 46.366 80.4792C46.0677 80.7775 45.6865 80.9266 45.2226 80.9266ZM54.9449 81.1752C53.2712 81.1752 51.9373 80.7029 50.943 79.7584C49.9653 78.7973 49.4765 77.513 49.4765 75.9057V68.5482C49.4765 66.9408 49.9653 65.6649 50.943 64.7203C51.9373 63.7758 53.2712 63.3035 54.9449 63.3035C56.6185 63.3035 57.9525 63.7758 58.9467 64.7203C59.9575 65.6649 60.463 66.9408 60.463 68.5482V75.9057C60.463 77.513 59.9575 78.7973 58.9467 79.7584C57.9525 80.7029 56.6185 81.1752 54.9449 81.1752ZM54.9449 79.1121C55.906 79.1121 56.6682 78.8387 57.2316 78.2919C57.795 77.7285 58.0767 76.9828 58.0767 76.0548V68.4488C58.0767 67.5208 57.795 66.7834 57.2316 66.2366C56.6682 65.6732 55.906 65.3915 54.9449 65.3915C54.0169 65.3915 53.2712 65.6732 52.7078 66.2366C52.1444 66.7834 51.8627 67.5208 51.8627 68.4488V76.0548C51.8627 76.9828 52.1444 77.7285 52.7078 78.2919C53.2712 78.8387 54.0169 79.1121 54.9449 79.1121Z" fill="#292B4D"/>
<path d="M34.087 103.104C34.029 103.104 33.9891 103.079 33.9673 103.028L32.4449 99.7764C32.4376 99.7546 32.4231 99.7437 32.4014 99.7437H30.8354C30.8064 99.7437 30.7919 99.7582 30.7919 99.7872V102.995C30.7919 103.068 30.7557 103.104 30.6832 103.104H29.8567C29.7842 103.104 29.748 103.068 29.748 102.995V95.6005C29.748 95.528 29.7842 95.4918 29.8567 95.4918H32.782C33.217 95.4918 33.5976 95.5824 33.9238 95.7636C34.2573 95.9449 34.5147 96.1986 34.6959 96.5249C34.8772 96.8511 34.9678 97.2281 34.9678 97.6558C34.9678 98.1633 34.8337 98.5947 34.5654 98.9499C34.3044 99.2979 33.9383 99.5335 33.4671 99.6567C33.4381 99.6712 33.4309 99.6894 33.4454 99.7111L35.0222 102.974C35.0294 102.988 35.033 103.006 35.033 103.028C35.033 103.079 35.004 103.104 34.946 103.104H34.087ZM30.8354 96.3944C30.8064 96.3944 30.7919 96.4089 30.7919 96.4379V98.8738C30.7919 98.9028 30.8064 98.9173 30.8354 98.9173H32.6515C33.0357 98.9173 33.3439 98.8049 33.5758 98.5802C33.8078 98.3482 33.9238 98.0437 33.9238 97.6667C33.9238 97.2825 33.8078 96.9743 33.5758 96.7424C33.3439 96.5104 33.0357 96.3944 32.6515 96.3944H30.8354ZM38.3094 97.4818C38.7516 97.4818 39.1358 97.5616 39.4621 97.7211C39.7956 97.8733 40.0493 98.0908 40.2233 98.3735C40.4045 98.649 40.4952 98.9644 40.4952 99.3196V102.995C40.4952 103.068 40.4589 103.104 40.3864 103.104H39.5599C39.4874 103.104 39.4512 103.068 39.4512 102.995V102.604C39.4512 102.568 39.4331 102.56 39.3968 102.582C39.2083 102.778 38.9763 102.93 38.7009 103.039C38.4326 103.14 38.1317 103.191 37.7983 103.191C37.2618 103.191 36.8159 103.057 36.4607 102.789C36.1127 102.513 35.9387 102.1 35.9387 101.549C35.9387 100.983 36.1344 100.541 36.5259 100.222C36.9247 99.896 37.4793 99.7329 38.1897 99.7329H39.4077C39.4367 99.7329 39.4512 99.7184 39.4512 99.6894V99.3958C39.4512 99.0768 39.357 98.8303 39.1685 98.6563C38.9872 98.475 38.7081 98.3844 38.3311 98.3844C38.0266 98.3844 37.7765 98.446 37.5808 98.5693C37.3923 98.6853 37.2763 98.8448 37.2328 99.0478C37.211 99.1203 37.1675 99.1529 37.1023 99.1456L36.2214 99.026C36.1489 99.0115 36.1163 98.9825 36.1236 98.939C36.1816 98.5113 36.4099 98.1633 36.8087 97.8951C37.2074 97.6196 37.7076 97.4818 38.3094 97.4818ZM38.0266 102.31C38.4109 102.31 38.7443 102.209 39.0271 102.006C39.3098 101.803 39.4512 101.545 39.4512 101.234V100.592C39.4512 100.563 39.4367 100.548 39.4077 100.548H38.3855C37.9578 100.548 37.617 100.632 37.3633 100.799C37.1095 100.965 36.9827 101.197 36.9827 101.495C36.9827 101.763 37.0769 101.966 37.2654 102.104C37.4611 102.241 37.7149 102.31 38.0266 102.31ZM44.5597 98.3192C44.5597 98.3917 44.5235 98.4279 44.451 98.4279H43.2765C43.2475 98.4279 43.233 98.4424 43.233 98.4714V101.353C43.233 101.658 43.3019 101.879 43.4396 102.017C43.5774 102.147 43.7912 102.212 44.0812 102.212H44.3966C44.4691 102.212 44.5053 102.249 44.5053 102.321V102.995C44.5053 103.068 44.4691 103.104 44.3966 103.104C44.1646 103.119 43.9979 103.126 43.8964 103.126C43.3454 103.126 42.9285 103.028 42.6458 102.832C42.3703 102.629 42.2326 102.259 42.2326 101.723V98.4714C42.2326 98.4424 42.2181 98.4279 42.1891 98.4279H41.5257C41.4532 98.4279 41.417 98.3917 41.417 98.3192V97.6776C41.417 97.6051 41.4532 97.5688 41.5257 97.5688H42.1891C42.2181 97.5688 42.2326 97.5543 42.2326 97.5253V96.2421C42.2326 96.1696 42.2688 96.1334 42.3413 96.1334H43.1243C43.1968 96.1334 43.233 96.1696 43.233 96.2421V97.5253C43.233 97.5543 43.2475 97.5688 43.2765 97.5688H44.451C44.5235 97.5688 44.5597 97.6051 44.5597 97.6776V98.3192ZM46.4752 96.6989C46.2722 96.6989 46.1054 96.6336 45.975 96.5031C45.8445 96.3726 45.7792 96.2059 45.7792 96.0029C45.7792 95.7999 45.8445 95.6331 45.975 95.5026C46.1054 95.3721 46.2722 95.3069 46.4752 95.3069C46.6782 95.3069 46.8449 95.3721 46.9754 95.5026C47.1059 95.6331 47.1712 95.7999 47.1712 96.0029C47.1712 96.2059 47.1059 96.3726 46.9754 96.5031C46.8449 96.6336 46.6782 96.6989 46.4752 96.6989ZM46.0402 103.093C45.9677 103.093 45.9315 103.057 45.9315 102.984V97.6776C45.9315 97.6051 45.9677 97.5688 46.0402 97.5688H46.8667C46.9392 97.5688 46.9754 97.6051 46.9754 97.6776V102.984C46.9754 103.057 46.9392 103.093 46.8667 103.093H46.0402ZM51.0847 97.4927C51.6792 97.4927 52.1505 97.6667 52.4984 98.0147C52.8464 98.3554 53.0204 98.8194 53.0204 99.4066V102.995C53.0204 103.068 52.9842 103.104 52.9117 103.104H52.0852C52.0127 103.104 51.9765 103.068 51.9765 102.995V99.6133C51.9765 99.2508 51.8713 98.9571 51.6611 98.7324C51.4509 98.5077 51.1717 98.3953 50.8238 98.3953C50.483 98.3953 50.2039 98.5077 49.9864 98.7324C49.7689 98.9571 49.6602 99.2471 49.6602 99.6024V102.995C49.6602 103.068 49.6239 103.104 49.5514 103.104H48.725C48.6525 103.104 48.6162 103.068 48.6162 102.995V97.6776C48.6162 97.6051 48.6525 97.5688 48.725 97.5688H49.5514C49.6239 97.5688 49.6602 97.6051 49.6602 97.6776V98.0691C49.6602 98.0836 49.6638 98.0944 49.671 98.1017C49.6855 98.1089 49.6964 98.1053 49.7037 98.0908C50.0154 97.6921 50.4758 97.4927 51.0847 97.4927ZM57.9139 97.6776C57.9139 97.6051 57.9502 97.5688 58.0227 97.5688H58.8491C58.9216 97.5688 58.9579 97.6051 58.9579 97.6776V102.821C58.9579 103.698 58.7078 104.326 58.2075 104.703C57.7146 105.08 57.0512 105.268 56.2175 105.268C56.1015 105.268 55.9202 105.261 55.6738 105.246C55.6013 105.239 55.565 105.199 55.565 105.127L55.5976 104.376C55.5976 104.347 55.6085 104.322 55.6303 104.3C55.652 104.278 55.681 104.271 55.7172 104.278C55.8187 104.286 55.9674 104.289 56.1631 104.289C56.7793 104.289 57.2252 104.173 57.5007 103.941C57.7762 103.717 57.9139 103.332 57.9139 102.789V102.593C57.9139 102.578 57.9067 102.568 57.8922 102.56C57.8849 102.553 57.874 102.557 57.8595 102.571C57.5551 102.926 57.1092 103.104 56.522 103.104C56.0507 103.104 55.623 102.981 55.2388 102.734C54.8618 102.488 54.6008 102.125 54.4558 101.647C54.3615 101.328 54.3144 100.886 54.3144 100.32C54.3144 99.7184 54.3688 99.2544 54.4775 98.9282C54.6153 98.4932 54.8582 98.1452 55.2061 97.8842C55.5614 97.6159 55.9782 97.4818 56.4567 97.4818C57.0512 97.4818 57.5188 97.6631 57.8595 98.0256C57.874 98.0401 57.8849 98.0473 57.8922 98.0473C57.9067 98.0401 57.9139 98.0292 57.9139 98.0147V97.6776ZM57.8487 101.331C57.8704 101.215 57.8849 101.092 57.8922 100.962C57.9067 100.831 57.9139 100.614 57.9139 100.309C57.9139 100.005 57.9067 99.7909 57.8922 99.6676C57.8849 99.5371 57.8668 99.4139 57.8378 99.2979C57.7798 99.0296 57.6493 98.8122 57.4463 98.6454C57.2433 98.4714 56.9896 98.3844 56.6851 98.3844C56.3806 98.3844 56.1269 98.4714 55.9239 98.6454C55.7209 98.8122 55.5759 99.0296 55.4889 99.2979C55.4091 99.5154 55.3693 99.8525 55.3693 100.309C55.3693 100.809 55.4055 101.15 55.478 101.331C55.5505 101.6 55.6919 101.821 55.9021 101.995C56.1196 102.162 56.3806 102.245 56.6851 102.245C57.0041 102.245 57.2614 102.162 57.4572 101.995C57.6602 101.821 57.7907 101.6 57.8487 101.331Z" fill="#292B4D" fill-opacity="0.8"/>
</g>
<g clip-path="url(#clip7_69_276)">
<path d="M137.199 80.9266C137.116 80.9266 137.049 80.9018 137 80.8521C136.967 80.7858 136.967 80.7112 137 80.6284L142.642 65.7146C142.659 65.6815 142.659 65.6566 142.642 65.64C142.625 65.6069 142.601 65.5903 142.567 65.5903H136.577C136.511 65.5903 136.478 65.6235 136.478 65.6897V66.858C136.478 67.0237 136.395 67.1065 136.229 67.1065H134.738C134.572 67.1065 134.489 67.0237 134.489 66.858V63.7758C134.489 63.6101 134.572 63.5272 134.738 63.5272H144.954C145.119 63.5272 145.202 63.6101 145.202 63.7758V65.4412C145.202 65.5075 145.186 65.6069 145.153 65.7395L139.535 80.7278C139.485 80.8604 139.394 80.9266 139.262 80.9266H137.199ZM152.695 81.1752C151.021 81.1752 149.687 80.7029 148.693 79.7584C147.716 78.7973 147.227 77.513 147.227 75.9057V68.5482C147.227 66.9408 147.716 65.6649 148.693 64.7203C149.687 63.7758 151.021 63.3035 152.695 63.3035C154.369 63.3035 155.703 63.7758 156.697 64.7203C157.708 65.6649 158.213 66.9408 158.213 68.5482V75.9057C158.213 77.513 157.708 78.7973 156.697 79.7584C155.703 80.7029 154.369 81.1752 152.695 81.1752ZM152.695 79.1121C153.656 79.1121 154.418 78.8387 154.982 78.2919C155.545 77.7285 155.827 76.9828 155.827 76.0548V68.4488C155.827 67.5208 155.545 66.7834 154.982 66.2366C154.418 65.6732 153.656 65.3915 152.695 65.3915C151.767 65.3915 151.021 65.6732 150.458 66.2366C149.895 66.7834 149.613 67.5208 149.613 68.4488V76.0548C149.613 76.9828 149.895 77.7285 150.458 78.2919C151.021 78.8387 151.767 79.1121 152.695 79.1121Z" fill="#292B4D"/>
<path d="M139.45 95.4918C139.522 95.4918 139.558 95.528 139.558 95.6005V96.2965C139.558 96.369 139.522 96.4052 139.45 96.4052H137.362C137.333 96.4052 137.318 96.4197 137.318 96.4487V102.995C137.318 103.068 137.282 103.104 137.209 103.104H136.383C136.31 103.104 136.274 103.068 136.274 102.995V96.4487C136.274 96.4197 136.26 96.4052 136.231 96.4052H134.241C134.168 96.4052 134.132 96.369 134.132 96.2965V95.6005C134.132 95.528 134.168 95.4918 134.241 95.4918H139.45ZM141.238 96.6989C141.035 96.6989 140.868 96.6336 140.738 96.5031C140.607 96.3726 140.542 96.2059 140.542 96.0029C140.542 95.7999 140.607 95.6331 140.738 95.5026C140.868 95.3721 141.035 95.3069 141.238 95.3069C141.441 95.3069 141.608 95.3721 141.738 95.5026C141.869 95.6331 141.934 95.7999 141.934 96.0029C141.934 96.2059 141.869 96.3726 141.738 96.5031C141.608 96.6336 141.441 96.6989 141.238 96.6989ZM140.803 103.093C140.731 103.093 140.694 103.057 140.694 102.984V97.6776C140.694 97.6051 140.731 97.5688 140.803 97.5688H141.63C141.702 97.5688 141.738 97.6051 141.738 97.6776V102.984C141.738 103.057 141.702 103.093 141.63 103.093H140.803ZM145.598 103.191C145.047 103.191 144.575 103.053 144.184 102.778C143.792 102.495 143.524 102.114 143.379 101.636C143.27 101.302 143.216 100.864 143.216 100.32C143.216 99.8199 143.27 99.3813 143.379 99.0043C143.524 98.5403 143.792 98.1706 144.184 97.8951C144.583 97.6196 145.054 97.4818 145.598 97.4818C146.141 97.4818 146.616 97.6196 147.022 97.8951C147.428 98.1706 147.693 98.5185 147.816 98.939C147.86 99.055 147.889 99.1746 147.903 99.2979C147.903 99.3559 147.87 99.3921 147.805 99.4066L146.99 99.5263H146.968C146.917 99.5263 146.881 99.4936 146.859 99.4284L146.826 99.2544C146.768 99.0079 146.627 98.8013 146.402 98.6345C146.178 98.4678 145.906 98.3844 145.587 98.3844C145.275 98.3844 145.01 98.4678 144.793 98.6345C144.575 98.8013 144.434 99.0224 144.369 99.2979C144.304 99.5589 144.271 99.9032 144.271 100.331C144.271 100.751 144.304 101.092 144.369 101.353C144.441 101.643 144.583 101.872 144.793 102.038C145.01 102.205 145.275 102.288 145.587 102.288C145.906 102.288 146.178 102.205 146.402 102.038C146.634 101.872 146.779 101.654 146.837 101.386C146.845 101.379 146.845 101.371 146.837 101.364C146.837 101.35 146.841 101.339 146.848 101.331V101.288C146.87 101.23 146.91 101.208 146.968 101.223L147.783 101.353C147.841 101.368 147.87 101.397 147.87 101.44V101.484C147.87 101.549 147.852 101.629 147.816 101.723C147.693 102.165 147.428 102.52 147.022 102.789C146.616 103.057 146.141 103.191 145.598 103.191ZM149.212 103.104C149.14 103.104 149.103 103.068 149.103 102.995V95.6005C149.103 95.528 149.14 95.4918 149.212 95.4918H150.038C150.111 95.4918 150.147 95.528 150.147 95.6005V99.7872C150.147 99.8017 150.154 99.8126 150.169 99.8199C150.183 99.8271 150.194 99.8235 150.202 99.809L152.213 97.6232C152.242 97.5869 152.286 97.5688 152.344 97.5688H153.312C153.355 97.5688 153.381 97.5833 153.388 97.6123C153.402 97.6341 153.395 97.6631 153.366 97.6993L151.963 99.3196C151.949 99.3486 151.945 99.3704 151.952 99.3849L153.616 102.974L153.627 103.017C153.627 103.075 153.594 103.104 153.529 103.104H152.659C152.601 103.104 152.561 103.075 152.54 103.017L151.246 100.059C151.231 100.023 151.213 100.019 151.191 100.048L150.169 101.179C150.154 101.208 150.147 101.226 150.147 101.234V102.995C150.147 103.068 150.111 103.104 150.038 103.104H149.212ZM158.83 99.6459C158.859 99.9431 158.87 100.277 158.862 100.646C158.862 100.719 158.826 100.755 158.754 100.755H155.285C155.256 100.755 155.241 100.77 155.241 100.799C155.241 101.045 155.263 101.234 155.306 101.364C155.386 101.654 155.546 101.882 155.785 102.049C156.031 102.209 156.339 102.288 156.709 102.288C157.246 102.288 157.659 102.067 157.949 101.625C157.985 101.553 158.032 101.542 158.09 101.592L158.71 102.006C158.761 102.049 158.772 102.096 158.743 102.147C158.54 102.473 158.25 102.731 157.873 102.919C157.503 103.108 157.083 103.202 156.611 103.202C156.082 103.202 155.636 103.086 155.274 102.854C154.911 102.622 154.639 102.292 154.458 101.864C154.284 101.437 154.197 100.918 154.197 100.309C154.197 99.78 154.237 99.3776 154.317 99.1021C154.447 98.6019 154.708 98.2068 155.1 97.9168C155.491 97.6268 155.966 97.4818 156.524 97.4818C157.257 97.4818 157.804 97.6667 158.166 98.0364C158.529 98.3989 158.75 98.9354 158.83 99.6459ZM156.524 98.3844C156.213 98.3844 155.955 98.4642 155.752 98.6237C155.549 98.7759 155.412 98.9825 155.339 99.2435C155.288 99.403 155.256 99.606 155.241 99.8525C155.241 99.8815 155.256 99.896 155.285 99.896H157.775C157.804 99.896 157.818 99.8815 157.818 99.8525C157.804 99.6133 157.782 99.4356 157.753 99.3196C157.681 99.0369 157.536 98.8122 157.318 98.6454C157.108 98.4714 156.843 98.3844 156.524 98.3844ZM162.824 98.3192C162.824 98.3917 162.788 98.4279 162.715 98.4279H161.541C161.512 98.4279 161.498 98.4424 161.498 98.4714V101.353C161.498 101.658 161.566 101.879 161.704 102.017C161.842 102.147 162.056 102.212 162.346 102.212H162.661C162.734 102.212 162.77 102.249 162.77 102.321V102.995C162.77 103.068 162.734 103.104 162.661 103.104C162.429 103.119 162.262 103.126 162.161 103.126C161.61 103.126 161.193 103.028 160.91 102.832C160.635 102.629 160.497 102.259 160.497 101.723V98.4714C160.497 98.4424 160.483 98.4279 160.454 98.4279H159.79C159.718 98.4279 159.681 98.3917 159.681 98.3192V97.6776C159.681 97.6051 159.718 97.5688 159.79 97.5688H160.454C160.483 97.5688 160.497 97.5543 160.497 97.5253V96.2421C160.497 96.1696 160.533 96.1334 160.606 96.1334H161.389C161.461 96.1334 161.498 96.1696 161.498 96.2421V97.5253C161.498 97.5543 161.512 97.5688 161.541 97.5688H162.715C162.788 97.5688 162.824 97.6051 162.824 97.6776V98.3192ZM166.056 103.169C165.621 103.169 165.236 103.104 164.903 102.974C164.577 102.843 164.323 102.665 164.142 102.441C163.96 102.209 163.87 101.955 163.87 101.679V101.56C163.87 101.487 163.906 101.451 163.978 101.451H164.761C164.834 101.451 164.87 101.487 164.87 101.56V101.614C164.87 101.817 164.979 101.995 165.196 102.147C165.421 102.299 165.704 102.375 166.045 102.375C166.371 102.375 166.636 102.307 166.838 102.169C167.041 102.024 167.143 101.843 167.143 101.625C167.143 101.415 167.049 101.259 166.86 101.157C166.672 101.049 166.367 100.936 165.947 100.82C165.534 100.704 165.186 100.588 164.903 100.472C164.627 100.349 164.392 100.179 164.196 99.9612C164.007 99.7365 163.913 99.4501 163.913 99.1021C163.913 98.6164 164.102 98.2322 164.479 97.9494C164.863 97.6594 165.37 97.5144 166.001 97.5144C166.422 97.5144 166.791 97.5833 167.11 97.7211C167.437 97.8516 167.687 98.0364 167.861 98.2757C168.035 98.5149 168.122 98.7832 168.122 99.0804V99.113C168.122 99.1855 168.085 99.2218 168.013 99.2218H167.252C167.179 99.2218 167.143 99.1855 167.143 99.113V99.0804C167.143 98.8702 167.038 98.6962 166.828 98.5584C166.625 98.4134 166.346 98.3409 165.99 98.3409C165.671 98.3409 165.41 98.4025 165.207 98.5258C165.012 98.649 164.914 98.8158 164.914 99.026C164.914 99.2363 165.008 99.3958 165.196 99.5045C165.392 99.6133 165.704 99.7292 166.132 99.8525C166.552 99.9685 166.9 100.084 167.176 100.2C167.458 100.309 167.698 100.476 167.893 100.701C168.089 100.918 168.187 101.205 168.187 101.56C168.187 102.053 167.991 102.444 167.6 102.734C167.215 103.024 166.701 103.169 166.056 103.169Z" fill="#292B4D" fill-opacity="0.8"/>
</g>
</g>
</g>
<defs>
<filter id="filter0_d_69_276" x="0" y="0" width="202.19" height="268" filterUnits="userSpaceOnUse" color-interpolation-filters="sRGB">
<feFlood flood-opacity="0" result="BackgroundImageFix"/>
<feColorMatrix in="SourceAlpha" type="matrix" values="0 0 0 0 0 0 0 0 0 0 0 0 0 0 0 0 0 0 127 0" result="hardAlpha"/>
<feOffset dy="10"/>
<feGaussianBlur stdDeviation="2"/>
<feComposite in2="hardAlpha" operator="out"/>
<feColorMatrix type="matrix" values="0 0 0 0 0 0 0 0 0 0 0 0 0 0 0 0 0 0 0.1 0"/>
<feBlend mode="normal" in2="BackgroundImageFix" result="effect1_dropShadow_69_276"/>
<feBlend mode="normal" in="SourceGraphic" in2="effect1_dropShadow_69_276" result="shape"/>
</filter>
<filter id="filter1_d_69_276" x="-42.6055" y="-46.6055" width="287.401" height="347.211" filterUnits="userSpaceOnUse" color-interpolation-filters="sRGB">
<feFlood flood-opacity="0" result="BackgroundImageFix"/>
<feColorMatrix in="SourceAlpha" type="matrix" values="0 0 0 0 0 0 0 0 0 0 0 0 0 0 0 0 0 0 127 0" result="hardAlpha"/>
<feOffset/>
<feGaussianBlur stdDeviation="23.3028"/>
<feColorMatrix type="matrix" values="0 0 0 0 0 0 0 0 0 0 0 0 0 0 0 0 0 0 0.04 0"/>
<feBlend mode="normal" in2="BackgroundImageFix" result="effect1_dropShadow_69_276"/>
<feBlend mode="normal" in="SourceGraphic" in2="effect1_dropShadow_69_276" result="shape"/>
</filter>
<clipPath id="clip0_69_276">
<rect x="4" width="194.19" height="254" rx="14" fill="white"/>
</clipPath>
<clipPath id="clip1_69_276">
<rect width="42.7217" height="15.5352" fill="white" transform="translate(134.495 132.049)"/>
</clipPath>
<clipPath id="clip2_69_276">
<rect width="42.7217" height="15.5352" fill="white" transform="translate(134.495 153.021)"/>
</clipPath>
<clipPath id="clip3_69_276">
<rect width="42.7217" height="15.5352" fill="white" transform="translate(134.495 173.217)"/>
</clipPath>
<clipPath id="clip4_69_276">
<rect width="36.5076" height="15.5352" fill="white" transform="translate(134.495 193.413)"/>
</clipPath>
<clipPath id="clip5_69_276">
<rect width="36.5076" height="15.5352" fill="white" transform="translate(134.495 213.609)"/>
</clipPath>
<clipPath id="clip6_69_276">
<rect width="36.5076" height="51.2661" fill="white" transform="translate(28.8563 55.9266)"/>
</clipPath>
<clipPath id="clip7_69_276">
<rect width="41.1682" height="51.2661" fill="white" transform="translate(133.719 55.9266)"/>
</clipPath>
</defs>
</svg>
