<svg width="125" height="150" viewBox="0 0 125 150" fill="none" xmlns="http://www.w3.org/2000/svg">
<g clip-path="url(#clip0_122_414)">
<g filter="url(#filter0_d_122_414)">
<rect width="125" height="150" rx="5.74705" fill="white"/>
</g>
<path d="M43.751 124.357C54.1933 124.304 63.0056 115.974 63.0002 106.253" stroke="#F2CD5E" stroke-width="14.3676"/>
<path d="M42.4144 124.549C36.5398 124.519 31.0902 121.877 27.6182 117.826" stroke="#F2594B" stroke-width="14.3676"/>
<path d="M27.1145 116.917C24.6448 113.873 23.1629 110.119 23.165 106.13" stroke="#5C64F2" stroke-width="14.3676"/>
<path d="M43.751 86.9413C54.1933 86.995 63.0056 95.3247 63.0002 105.046" stroke="#F272AE" stroke-width="14.3676"/>
<path d="M42.4142 87.156C31.972 87.2097 23.1597 95.5394 23.165 105.261" stroke="#79A2F2" stroke-width="14.3676"/>
<ellipse cx="43.0005" cy="105.963" rx="12.5" ry="11.4679" fill="#F4F7FC"/>
<g clip-path="url(#clip1_122_414)">
<path d="M81.5452 78.7784L79.6029 79.7092C79.3694 79.8211 79.2194 79.7246 79.2683 79.4916L79.6707 77.5765L78.0673 76.2339C77.8746 76.0725 77.9322 75.9168 78.1923 75.8866L80.3867 75.6318L81.3368 73.8737C81.4519 73.6607 81.6381 73.6598 81.7537 73.8737L82.7038 75.6318L84.8982 75.8866C85.16 75.917 85.2157 76.0727 85.0232 76.2339L83.4198 77.5765L83.8222 79.4916C83.8709 79.7237 83.7209 79.821 83.4876 79.7092L81.5452 78.7784V78.7784Z" fill="#F2CD5E"/>
<path d="M92.4266 76.8612C92.4658 77.0178 92.4854 77.1798 92.4854 77.3471C92.4854 77.5145 92.464 77.6693 92.4213 77.8117C92.3536 78.0396 92.2237 78.2211 92.0315 78.3564C91.8428 78.4881 91.6167 78.554 91.3533 78.554C91.0934 78.554 90.8709 78.4899 90.6858 78.3617C90.5007 78.2336 90.3707 78.0591 90.296 77.8384C90.2604 77.7387 90.2408 77.6515 90.2372 77.5768V77.5661C90.2372 77.5376 90.2532 77.5234 90.2853 77.5234H90.7071C90.7392 77.5234 90.757 77.5394 90.7605 77.5714C90.7641 77.5963 90.773 77.6337 90.7872 77.6836C90.8264 77.8153 90.894 77.9203 90.9902 77.9986C91.0898 78.0734 91.2091 78.1108 91.3479 78.1108C91.4939 78.1108 91.6167 78.0716 91.7164 77.9933C91.8196 77.9114 91.8891 77.7993 91.9247 77.6569C91.9496 77.5821 91.962 77.4789 91.962 77.3471C91.962 77.2297 91.9514 77.1211 91.93 77.0214C91.9051 76.8861 91.841 76.7829 91.7378 76.7117C91.6381 76.6369 91.5135 76.5995 91.364 76.5995C91.2251 76.5995 91.1005 76.6316 90.9902 76.6957C90.8798 76.7562 90.8086 76.8381 90.7766 76.9413C90.7659 76.9733 90.7463 76.9894 90.7178 76.9894H90.2906C90.255 76.9894 90.2372 76.9716 90.2372 76.936V74.832C90.2372 74.7964 90.255 74.7786 90.2906 74.7786H92.2878C92.3234 74.7786 92.3412 74.7964 92.3412 74.832V75.1684C92.3412 75.204 92.3234 75.2218 92.2878 75.2218H90.7712C90.757 75.2218 90.7499 75.2289 90.7499 75.2432L90.7445 76.3592C90.7445 76.3806 90.7534 76.3859 90.7712 76.3753C90.8567 76.3005 90.9546 76.2453 91.0649 76.2097C91.1788 76.1706 91.2981 76.151 91.4227 76.151C91.6719 76.151 91.8855 76.2133 92.0635 76.3379C92.2451 76.4625 92.3661 76.6369 92.4266 76.8612ZM93.9893 78.5166C93.9501 78.5166 93.9359 78.497 93.9465 78.4579L95.2014 74.8213C95.2121 74.7928 95.2335 74.7786 95.2655 74.7786H95.666C95.7052 74.7786 95.7194 74.7982 95.7087 74.8373L94.4538 78.4739C94.4432 78.5024 94.4218 78.5166 94.3898 78.5166H93.9893Z" fill="black"/>
<path d="M99.5214 76.7437C99.5926 76.9182 99.6282 77.1193 99.6282 77.3471C99.6282 77.5358 99.5997 77.7103 99.5427 77.8705C99.4644 78.0912 99.3345 78.2621 99.1529 78.3831C98.9714 78.5006 98.7524 78.5593 98.4961 78.5593C98.2398 78.5593 98.0173 78.4935 97.8286 78.3617C97.6435 78.23 97.5135 78.052 97.4388 77.8277C97.3996 77.7281 97.3765 77.5857 97.3694 77.4005C97.3694 77.3649 97.3872 77.3471 97.4228 77.3471H97.8339C97.8695 77.3471 97.8873 77.3649 97.8873 77.4005C97.8945 77.5287 97.9087 77.623 97.9301 77.6836C97.9657 77.8153 98.0315 77.9203 98.1276 77.9986C98.2273 78.0769 98.3501 78.1161 98.4961 78.1161C98.7667 78.1161 98.9482 77.9933 99.0408 77.7476C99.0871 77.6408 99.1102 77.502 99.1102 77.3311C99.1102 77.1496 99.0817 76.9876 99.0248 76.8452C98.9251 76.6245 98.7471 76.5141 98.4908 76.5141C98.4302 76.5141 98.3537 76.5408 98.2611 76.5942C98.2469 76.6013 98.2362 76.6049 98.2291 76.6049C98.2113 76.6049 98.1971 76.596 98.1864 76.5782L97.9835 76.3005C97.9763 76.2863 97.9728 76.2738 97.9728 76.2631C97.9728 76.2524 97.9781 76.24 97.9888 76.2257L98.9019 75.2485C98.9126 75.2307 98.9091 75.2218 98.8913 75.2218H97.4708C97.4352 75.2218 97.4174 75.204 97.4174 75.1684V74.832C97.4174 74.7964 97.4352 74.7786 97.4708 74.7786H99.5427C99.5783 74.7786 99.5961 74.7964 99.5961 74.832V75.2165C99.5961 75.2343 99.5872 75.2556 99.5694 75.2806L98.7578 76.167C98.7506 76.1741 98.7489 76.1812 98.7524 76.1884C98.756 76.1919 98.7631 76.1955 98.7738 76.199C98.9553 76.2168 99.1084 76.2738 99.233 76.3699C99.3576 76.4625 99.4537 76.5871 99.5214 76.7437ZM101.441 78.57C101.081 78.57 100.795 78.4685 100.581 78.2656C100.371 78.0591 100.266 77.7832 100.266 77.4379V75.8573C100.266 75.512 100.371 75.2378 100.581 75.0349C100.795 74.832 101.081 74.7305 101.441 74.7305C101.8 74.7305 102.087 74.832 102.3 75.0349C102.518 75.2378 102.626 75.512 102.626 75.8573V77.4379C102.626 77.7832 102.518 78.0591 102.3 78.2656C102.087 78.4685 101.8 78.57 101.441 78.57ZM101.441 78.1268C101.647 78.1268 101.811 78.068 101.932 77.9506C102.053 77.8295 102.113 77.6693 102.113 77.47V75.8359C102.113 75.6366 102.053 75.4781 101.932 75.3607C101.811 75.2396 101.647 75.1791 101.441 75.1791C101.241 75.1791 101.081 75.2396 100.96 75.3607C100.839 75.4781 100.778 75.6366 100.778 75.8359V77.47C100.778 77.6693 100.839 77.8295 100.96 77.9506C101.081 78.068 101.241 78.1268 101.441 78.1268Z" fill="#6D7278"/>
</g>
<g clip-path="url(#clip2_122_414)">
<path d="M81.5452 93.06L79.6029 93.9908C79.3694 94.1027 79.2194 94.0063 79.2683 93.7732L79.6707 91.8581L78.0673 90.5156C77.8746 90.3541 77.9322 90.1984 78.1923 90.1682L80.3867 89.9134L81.3368 88.1554C81.4519 87.9423 81.6381 87.9414 81.7537 88.1554L82.7038 89.9134L84.8982 90.1682C85.16 90.1986 85.2157 90.3543 85.0232 90.5156L83.4198 91.8581L83.8222 93.7732C83.8709 94.0053 83.7209 94.1026 83.4876 93.9908L81.5452 93.06V93.06Z" fill="#79A2F2"/>
<path d="M92.6171 91.8851C92.6527 91.8851 92.6705 91.9029 92.6705 91.9384V92.2907C92.6705 92.3262 92.6527 92.344 92.6171 92.344H92.3876C92.3734 92.344 92.3663 92.3511 92.3663 92.3654V93.2939C92.3663 93.3295 92.3485 93.3473 92.3129 93.3473H91.9073C91.8718 93.3473 91.854 93.3295 91.854 93.2939V92.3654C91.854 92.3511 91.8469 92.344 91.8326 92.344H90.2103C90.1748 92.344 90.157 92.3262 90.157 92.2907V92.0025C90.157 91.9847 90.1623 91.9633 90.173 91.9384L91.2243 89.6491C91.2349 89.6242 91.2545 89.6117 91.283 89.6117H91.7099C91.7277 89.6117 91.7401 89.6188 91.7473 89.6331C91.7579 89.6437 91.7597 89.658 91.7526 89.6757L90.7493 91.8584C90.7458 91.8655 90.7458 91.8726 90.7493 91.8797C90.7529 91.8833 90.7582 91.8851 90.7653 91.8851H91.8326C91.8469 91.8851 91.854 91.878 91.854 91.8637V91.0686C91.854 91.033 91.8718 91.0152 91.9073 91.0152H92.3129C92.3485 91.0152 92.3663 91.033 92.3663 91.0686V91.8637C92.3663 91.878 92.3734 91.8851 92.3876 91.8851H92.6171ZM94.2368 93.3473C94.1977 93.3473 94.1834 93.3277 94.1941 93.2886L95.4482 89.6544C95.4589 89.6259 95.4802 89.6117 95.5122 89.6117H95.9125C95.9516 89.6117 95.9658 89.6313 95.9552 89.6704L94.7011 93.3046C94.6904 93.3331 94.669 93.3473 94.637 93.3473H94.2368Z" fill="black"/>
<path d="M99.7653 91.5756C99.8365 91.7499 99.8721 91.9509 99.8721 92.1786C99.8721 92.3671 99.8436 92.5415 99.7867 92.7016C99.7084 92.9221 99.5785 93.0929 99.3971 93.2139C99.2157 93.3313 98.9969 93.39 98.7407 93.39C98.4846 93.39 98.2622 93.3242 98.0736 93.1925C97.8886 93.0609 97.7588 92.883 97.6841 92.6589C97.6449 92.5593 97.6218 92.417 97.6147 92.232C97.6147 92.1964 97.6325 92.1786 97.6681 92.1786H98.079C98.1146 92.1786 98.1323 92.1964 98.1323 92.232C98.1395 92.36 98.1537 92.4543 98.175 92.5148C98.2106 92.6464 98.2764 92.7514 98.3725 92.8296C98.4721 92.9079 98.5948 92.947 98.7407 92.947C99.0111 92.947 99.1925 92.8243 99.285 92.5788C99.3313 92.4721 99.3544 92.3333 99.3544 92.1626C99.3544 91.9811 99.3259 91.8193 99.269 91.677C99.1694 91.4564 98.9915 91.3461 98.7354 91.3461C98.6749 91.3461 98.5984 91.3728 98.5059 91.4261C98.4917 91.4333 98.481 91.4368 98.4739 91.4368C98.4561 91.4368 98.4419 91.4279 98.4312 91.4101L98.2284 91.1326C98.2213 91.1184 98.2177 91.1059 98.2177 91.0953C98.2177 91.0846 98.2231 91.0721 98.2337 91.0579L99.1463 90.0813C99.157 90.0635 99.1534 90.0546 99.1356 90.0546H97.7161C97.6805 90.0546 97.6627 90.0369 97.6627 90.0013V89.6651C97.6627 89.6295 97.6805 89.6117 97.7161 89.6117H99.7867C99.8222 89.6117 99.84 89.6295 99.84 89.6651V90.0493C99.84 90.0671 99.8311 90.0884 99.8134 90.1133L99.0022 90.9992C98.9951 91.0063 98.9933 91.0134 98.9969 91.0206C99.0004 91.0241 99.0075 91.0277 99.0182 91.0312C99.1996 91.049 99.3526 91.1059 99.4771 91.202C99.6017 91.2945 99.6977 91.419 99.7653 91.5756ZM101.683 93.4007C101.324 93.4007 101.038 93.2993 100.824 93.0965C100.614 92.8901 100.509 92.6144 100.509 92.2693V90.6897C100.509 90.3446 100.614 90.0707 100.824 89.8679C101.038 89.6651 101.324 89.5637 101.683 89.5637C102.043 89.5637 102.329 89.6651 102.543 89.8679C102.76 90.0707 102.868 90.3446 102.868 90.6897V92.2693C102.868 92.6144 102.76 92.8901 102.543 93.0965C102.329 93.2993 102.043 93.4007 101.683 93.4007ZM101.683 92.9577C101.89 92.9577 102.053 92.899 102.174 92.7816C102.295 92.6607 102.356 92.5006 102.356 92.3013V90.6683C102.356 90.4691 102.295 90.3108 102.174 90.1934C102.053 90.0724 101.89 90.012 101.683 90.012C101.484 90.012 101.324 90.0724 101.203 90.1934C101.082 90.3108 101.022 90.4691 101.022 90.6683V92.3013C101.022 92.5006 101.082 92.6607 101.203 92.7816C101.324 92.899 101.484 92.9577 101.683 92.9577Z" fill="#6D7278"/>
</g>
<g clip-path="url(#clip3_122_414)">
<path d="M81.5452 107.341L79.6029 108.272C79.3694 108.384 79.2194 108.287 79.2683 108.054L79.6707 106.139L78.0673 104.797C77.8746 104.635 77.9322 104.48 78.1923 104.449L80.3867 104.195L81.3368 102.436C81.4519 102.223 81.6381 102.223 81.7537 102.436L82.7038 104.195L84.8982 104.449C85.16 104.48 85.2157 104.635 85.0232 104.797L83.4198 106.139L83.8222 108.054C83.8709 108.286 83.7209 108.384 83.4876 108.272L81.5452 107.341V107.341Z" fill="#5C64F2"/>
<path d="M92.3129 105.857C92.3841 106.031 92.4197 106.232 92.4197 106.46C92.4197 106.648 92.3912 106.823 92.3343 106.983C92.256 107.203 92.1261 107.374 91.9447 107.495C91.7633 107.613 91.5445 107.671 91.2883 107.671C91.0322 107.671 90.8098 107.605 90.6212 107.474C90.4362 107.342 90.3064 107.164 90.2317 106.94C90.1925 106.841 90.1694 106.698 90.1623 106.513C90.1623 106.478 90.1801 106.46 90.2157 106.46H90.6266C90.6622 106.46 90.6799 106.478 90.6799 106.513C90.6871 106.641 90.7013 106.736 90.7226 106.796C90.7582 106.928 90.824 107.033 90.9201 107.111C91.0197 107.189 91.1424 107.228 91.2883 107.228C91.5587 107.228 91.7401 107.106 91.8326 106.86C91.8789 106.753 91.902 106.615 91.902 106.444C91.902 106.262 91.8735 106.101 91.8166 105.958C91.717 105.738 91.5391 105.627 91.283 105.627C91.2225 105.627 91.146 105.654 91.0535 105.707C91.0393 105.715 91.0286 105.718 91.0215 105.718C91.0037 105.718 90.9895 105.709 90.9788 105.691L90.776 105.414C90.7689 105.4 90.7653 105.387 90.7653 105.377C90.7653 105.366 90.7707 105.353 90.7813 105.339L91.6939 104.363C91.7046 104.345 91.701 104.336 91.6832 104.336H90.2637C90.2281 104.336 90.2103 104.318 90.2103 104.283V103.946C90.2103 103.911 90.2281 103.893 90.2637 103.893H92.3343C92.3698 103.893 92.3876 103.911 92.3876 103.946V104.331C92.3876 104.348 92.3787 104.37 92.361 104.395L91.5498 105.28C91.5427 105.288 91.5409 105.295 91.5445 105.302C91.548 105.305 91.5551 105.309 91.5658 105.312C91.7473 105.33 91.9002 105.387 92.0248 105.483C92.1493 105.576 92.2453 105.7 92.3129 105.857ZM93.9919 107.629C93.9527 107.629 93.9385 107.609 93.9492 107.57L95.2032 103.936C95.2139 103.907 95.2353 103.893 95.2673 103.893H95.6675C95.7067 103.893 95.7209 103.913 95.7102 103.952L94.4561 107.586C94.4455 107.614 94.4241 107.629 94.3921 107.629H93.9919Z" fill="black"/>
<path d="M99.5204 105.857C99.5915 106.031 99.6271 106.232 99.6271 106.46C99.6271 106.648 99.5987 106.823 99.5417 106.983C99.4635 107.203 99.3336 107.374 99.1522 107.495C98.9707 107.613 98.7519 107.671 98.4958 107.671C98.2396 107.671 98.0173 107.605 97.8287 107.474C97.6437 107.342 97.5138 107.164 97.4391 106.94C97.4 106.841 97.3769 106.698 97.3698 106.513C97.3698 106.478 97.3875 106.46 97.4231 106.46H97.834C97.8696 106.46 97.8874 106.478 97.8874 106.513C97.8945 106.641 97.9087 106.736 97.9301 106.796C97.9657 106.928 98.0315 107.033 98.1275 107.111C98.2272 107.189 98.3499 107.228 98.4958 107.228C98.7662 107.228 98.9476 107.106 99.0401 106.86C99.0863 106.753 99.1095 106.615 99.1095 106.444C99.1095 106.262 99.081 106.101 99.0241 105.958C98.9245 105.738 98.7466 105.627 98.4904 105.627C98.4299 105.627 98.3535 105.654 98.261 105.707C98.2467 105.715 98.2361 105.718 98.2289 105.718C98.2112 105.718 98.1969 105.709 98.1862 105.691L97.9835 105.414C97.9763 105.4 97.9728 105.387 97.9728 105.377C97.9728 105.366 97.9781 105.353 97.9888 105.339L98.9013 104.363C98.912 104.345 98.9085 104.336 98.8907 104.336H97.4712C97.4356 104.336 97.4178 104.318 97.4178 104.283V103.946C97.4178 103.911 97.4356 103.893 97.4712 103.893H99.5417C99.5773 103.893 99.5951 103.911 99.5951 103.946V104.331C99.5951 104.348 99.5862 104.37 99.5684 104.395L98.7573 105.28C98.7501 105.288 98.7484 105.295 98.7519 105.302C98.7555 105.305 98.7626 105.309 98.7733 105.312C98.9547 105.33 99.1077 105.387 99.2322 105.483C99.3567 105.576 99.4528 105.7 99.5204 105.857ZM101.438 107.682C101.079 107.682 100.793 107.581 100.579 107.378C100.369 107.171 100.264 106.896 100.264 106.551V104.971C100.264 104.626 100.369 104.352 100.579 104.149C100.793 103.946 101.079 103.845 101.438 103.845C101.798 103.845 102.084 103.946 102.298 104.149C102.515 104.352 102.623 104.626 102.623 104.971V106.551C102.623 106.896 102.515 107.171 102.298 107.378C102.084 107.581 101.798 107.682 101.438 107.682ZM101.438 107.239C101.645 107.239 101.808 107.18 101.929 107.063C102.05 106.942 102.111 106.782 102.111 106.583V104.95C102.111 104.75 102.05 104.592 101.929 104.475C101.808 104.354 101.645 104.293 101.438 104.293C101.239 104.293 101.079 104.354 100.958 104.475C100.837 104.592 100.777 104.75 100.777 104.95V106.583C100.777 106.782 100.837 106.942 100.958 107.063C101.079 107.18 101.239 107.239 101.438 107.239Z" fill="#6D7278"/>
</g>
<g clip-path="url(#clip4_122_414)">
<path d="M81.5452 121.622L79.6029 122.553C79.3694 122.665 79.2194 122.569 79.2683 122.336L79.6707 120.421L78.0673 119.078C77.8746 118.917 77.9322 118.761 78.1923 118.731L80.3867 118.476L81.3368 116.718C81.4519 116.505 81.6381 116.504 81.7537 116.718L82.7038 118.476L84.8982 118.731C85.16 118.761 85.2157 118.917 85.0232 119.078L83.4198 120.421L83.8222 122.336C83.8709 122.568 83.7209 122.665 83.4876 122.553L81.5452 121.622V121.622Z" fill="#F272AE"/>
<path d="M90.8827 121.44C90.8792 121.447 90.8792 121.455 90.8827 121.462C90.8863 121.465 90.8916 121.467 90.8987 121.467H92.505C92.5406 121.467 92.5584 121.485 92.5584 121.52V121.857C92.5584 121.892 92.5406 121.91 92.505 121.91H90.269C90.2335 121.91 90.2157 121.892 90.2157 121.857V121.531C90.2157 121.506 90.2246 121.485 90.2423 121.467C90.3633 121.328 90.6408 121.003 91.0748 120.49L91.4431 120.047C91.7739 119.653 91.9394 119.347 91.9394 119.13C91.9394 118.962 91.8824 118.829 91.7686 118.729C91.6583 118.626 91.5107 118.575 91.3257 118.575C91.1407 118.575 90.993 118.626 90.8827 118.729C90.7724 118.833 90.7191 118.968 90.7226 119.135V119.295C90.7226 119.331 90.7048 119.348 90.6693 119.348H90.2584C90.2228 119.348 90.205 119.331 90.205 119.295V119.066C90.2121 118.881 90.2637 118.717 90.3598 118.575C90.4594 118.432 90.5928 118.324 90.76 118.249C90.9272 118.171 91.1158 118.132 91.3257 118.132C91.5534 118.132 91.7526 118.174 91.9234 118.26C92.0941 118.345 92.2258 118.463 92.3183 118.612C92.4108 118.761 92.457 118.93 92.457 119.119C92.457 119.414 92.2969 119.763 91.9767 120.165C91.8344 120.346 91.6654 120.551 91.4698 120.779C91.2741 121.003 91.0784 121.223 90.8827 121.44ZM94.0961 121.91C94.0569 121.91 94.0427 121.89 94.0534 121.851L95.3075 118.217C95.3181 118.189 95.3395 118.174 95.3715 118.174H95.7718C95.8109 118.174 95.8251 118.194 95.8144 118.233L94.5604 121.867C94.5497 121.896 94.5283 121.91 94.4963 121.91H94.0961Z" fill="black"/>
<path d="M99.7367 120.256C99.7758 120.412 99.7954 120.574 99.7954 120.741C99.7954 120.908 99.774 121.063 99.7313 121.205C99.6637 121.433 99.5339 121.615 99.3418 121.75C99.1532 121.881 98.9273 121.947 98.664 121.947C98.4043 121.947 98.182 121.883 97.997 121.755C97.812 121.627 97.6821 121.453 97.6074 121.232C97.5718 121.133 97.5523 121.045 97.5487 120.971V120.96C97.5487 120.932 97.5647 120.917 97.5967 120.917H98.0183C98.0503 120.917 98.0681 120.933 98.0717 120.965C98.0752 120.99 98.0841 121.028 98.0984 121.077C98.1375 121.209 98.2051 121.314 98.3011 121.392C98.4008 121.467 98.5199 121.504 98.6587 121.504C98.8046 121.504 98.9273 121.465 99.0269 121.387C99.1301 121.305 99.1995 121.193 99.235 121.051C99.2599 120.976 99.2724 120.873 99.2724 120.741C99.2724 120.624 99.2617 120.515 99.2404 120.416C99.2155 120.28 99.1514 120.177 99.0483 120.106C98.9486 120.031 98.8241 119.994 98.6747 119.994C98.536 119.994 98.4114 120.026 98.3011 120.09C98.1909 120.151 98.1197 120.232 98.0877 120.336C98.077 120.368 98.0574 120.384 98.029 120.384H97.6021C97.5665 120.384 97.5487 120.366 97.5487 120.33V118.228C97.5487 118.192 97.5665 118.174 97.6021 118.174H99.5979C99.6335 118.174 99.6513 118.192 99.6513 118.228V118.564C99.6513 118.599 99.6335 118.617 99.5979 118.617H98.0824C98.0681 118.617 98.061 118.624 98.061 118.639L98.0557 119.754C98.0557 119.775 98.0646 119.781 98.0824 119.77C98.1677 119.695 98.2656 119.64 98.3759 119.605C98.4897 119.565 98.6089 119.546 98.7334 119.546C98.9824 119.546 99.1959 119.608 99.3738 119.733C99.5552 119.857 99.6762 120.031 99.7367 120.256Z" fill="#6D7278"/>
</g>
<g clip-path="url(#clip5_122_414)">
<path d="M81.5452 135.904L79.6029 136.835C79.3694 136.947 79.2194 136.85 79.2683 136.617L79.6707 134.702L78.0673 133.359C77.8746 133.198 77.9322 133.042 78.1923 133.012L80.3867 132.757L81.3368 130.999C81.4519 130.786 81.6381 130.785 81.7537 130.999L82.7038 132.757L84.8982 133.012C85.16 133.043 85.2157 133.198 85.0232 133.359L83.4198 134.702L83.8222 136.617C83.8709 136.849 83.7209 136.946 83.4876 136.835L81.5452 135.904V135.904Z" fill="#F2594B"/>
<path d="M90.8347 132.472C90.856 132.461 90.8792 132.456 90.9041 132.456H91.3257C91.3612 132.456 91.379 132.473 91.379 132.509V136.138C91.379 136.173 91.3612 136.191 91.3257 136.191H90.9201C90.8845 136.191 90.8667 136.173 90.8667 136.138V133.005C90.8667 132.998 90.8632 132.993 90.856 132.989C90.8525 132.986 90.8472 132.986 90.84 132.989L90.2797 133.181C90.2726 133.185 90.2637 133.187 90.253 133.187C90.2317 133.187 90.2192 133.173 90.2157 133.144L90.1943 132.84C90.1943 132.804 90.205 132.783 90.2263 132.776L90.8347 132.472ZM93.0694 136.191C93.0303 136.191 93.0161 136.172 93.0267 136.133L94.2808 132.498C94.2915 132.47 94.3128 132.456 94.3449 132.456H94.7451C94.7842 132.456 94.7985 132.475 94.7878 132.514L93.5337 136.149C93.523 136.177 93.5017 136.191 93.4697 136.191H93.0694Z" fill="black"/>
<path d="M98.71 134.537C98.7492 134.693 98.7687 134.855 98.7687 135.023C98.7687 135.19 98.7474 135.345 98.7047 135.487C98.6371 135.715 98.5072 135.896 98.3151 136.031C98.1266 136.163 97.9006 136.229 97.6374 136.229C97.3777 136.229 97.1553 136.165 96.9703 136.037C96.7853 135.908 96.6555 135.734 96.5807 135.514C96.5452 135.414 96.5256 135.327 96.522 135.252V135.241C96.522 135.213 96.538 135.199 96.5701 135.199H96.9917C97.0237 135.199 97.0415 135.215 97.045 135.247C97.0486 135.272 97.0575 135.309 97.0717 135.359C97.1108 135.49 97.1784 135.595 97.2745 135.674C97.3741 135.748 97.4933 135.786 97.632 135.786C97.7779 135.786 97.9006 135.747 98.0003 135.668C98.1034 135.586 98.1728 135.474 98.2084 135.332C98.2333 135.257 98.2457 135.154 98.2457 135.023C98.2457 134.905 98.2351 134.797 98.2137 134.697C98.1888 134.562 98.1248 134.459 98.0216 134.388C97.922 134.313 97.7975 134.275 97.648 134.275C97.5093 134.275 97.3848 134.307 97.2745 134.372C97.1642 134.432 97.093 134.514 97.061 134.617C97.0504 134.649 97.0308 134.665 97.0023 134.665H96.5754C96.5398 134.665 96.522 134.647 96.522 134.612V132.509C96.522 132.473 96.5398 132.456 96.5754 132.456H98.5713C98.6068 132.456 98.6246 132.473 98.6246 132.509V132.845C98.6246 132.881 98.6068 132.899 98.5713 132.899H97.0557C97.0415 132.899 97.0343 132.906 97.0343 132.92L97.029 134.035C97.029 134.057 97.0379 134.062 97.0557 134.051C97.1411 133.977 97.2389 133.921 97.3492 133.886C97.463 133.847 97.5822 133.827 97.7068 133.827C97.9558 133.827 98.1693 133.889 98.3471 134.014C98.5286 134.138 98.6495 134.313 98.71 134.537Z" fill="#6D7278"/>
</g>
<path d="M18.1698 28.2202C17.7824 28.2202 17.4394 28.1432 17.1408 27.9892C16.8468 27.8306 16.6181 27.6112 16.4548 27.3312C16.2914 27.0466 16.2098 26.7176 16.2098 26.3442V25.0282C16.2098 24.6642 16.2914 24.3422 16.4548 24.0622C16.6181 23.7822 16.8468 23.5652 17.1408 23.4112C17.4394 23.2572 17.7824 23.1802 18.1698 23.1802C18.5618 23.1802 18.9048 23.2572 19.1988 23.4112C19.4974 23.5652 19.7284 23.7822 19.8918 24.0622C20.0551 24.3422 20.1368 24.6642 20.1368 25.0282V26.3442C20.1368 26.7176 20.0551 27.0466 19.8918 27.3312C19.7284 27.6112 19.4974 27.8306 19.1988 27.9892C18.9048 28.1432 18.5618 28.2202 18.1698 28.2202ZM18.1698 27.0932C18.3658 27.0932 18.5221 27.0302 18.6388 26.9042C18.7601 26.7736 18.8208 26.6009 18.8208 26.3862V25.0142C18.8208 24.7996 18.7601 24.6292 18.6388 24.5032C18.5221 24.3726 18.3658 24.3072 18.1698 24.3072C17.9784 24.3072 17.8221 24.3726 17.7008 24.5032C17.5841 24.6292 17.5258 24.7996 17.5258 25.0142V26.3862C17.5258 26.6009 17.5841 26.7736 17.7008 26.9042C17.8221 27.0302 17.9784 27.0932 18.1698 27.0932ZM22.2802 28.1362C22.2522 28.1362 22.2265 28.1292 22.2032 28.1152C22.1799 28.0966 22.1659 28.0732 22.1612 28.0452L20.7822 23.3552C20.7775 23.3459 20.7752 23.3342 20.7752 23.3202C20.7752 23.2642 20.8079 23.2362 20.8732 23.2362H22.0702C22.1309 23.2362 22.1682 23.2666 22.1822 23.3272L22.8822 26.2812C22.8869 26.2999 22.8939 26.3092 22.9032 26.3092C22.9125 26.3092 22.9195 26.2999 22.9242 26.2812L23.6032 23.3272C23.6172 23.2666 23.6545 23.2362 23.7152 23.2362H24.8842C24.9215 23.2362 24.9472 23.2479 24.9612 23.2712C24.9799 23.2899 24.9845 23.3179 24.9752 23.3552L23.5822 28.0452C23.5775 28.0732 23.5635 28.0966 23.5402 28.1152C23.5169 28.1292 23.4912 28.1362 23.4632 28.1362H22.2802ZM29.3654 24.2582C29.3654 24.2909 29.3561 24.3166 29.3374 24.3352C29.3188 24.3539 29.2931 24.3632 29.2604 24.3632H27.1674C27.1441 24.3632 27.1324 24.3749 27.1324 24.3982V25.0562C27.1324 25.0796 27.1441 25.0912 27.1674 25.0912H28.4624C28.4951 25.0912 28.5208 25.1006 28.5394 25.1192C28.5581 25.1379 28.5674 25.1636 28.5674 25.1962V26.1062C28.5674 26.1389 28.5581 26.1646 28.5394 26.1832C28.5208 26.2019 28.4951 26.2112 28.4624 26.2112H27.1674C27.1441 26.2112 27.1324 26.2229 27.1324 26.2462V26.9742C27.1324 26.9976 27.1441 27.0092 27.1674 27.0092H29.2604C29.2931 27.0092 29.3188 27.0186 29.3374 27.0372C29.3561 27.0559 29.3654 27.0816 29.3654 27.1142V28.0312C29.3654 28.0639 29.3561 28.0896 29.3374 28.1082C29.3188 28.1269 29.2931 28.1362 29.2604 28.1362H25.9214C25.8888 28.1362 25.8631 28.1269 25.8444 28.1082C25.8258 28.0896 25.8164 28.0639 25.8164 28.0312V23.3412C25.8164 23.3086 25.8258 23.2829 25.8444 23.2642C25.8631 23.2456 25.8888 23.2362 25.9214 23.2362H29.2604C29.2931 23.2362 29.3188 23.2456 29.3374 23.2642C29.3561 23.2829 29.3654 23.3086 29.3654 23.3412V24.2582ZM32.7951 28.1362C32.7344 28.1362 32.6948 28.1106 32.6761 28.0592L31.9061 26.2812C31.8968 26.2626 31.8828 26.2532 31.8641 26.2532H31.5701C31.5468 26.2532 31.5351 26.2649 31.5351 26.2882V28.0312C31.5351 28.0639 31.5258 28.0896 31.5071 28.1082C31.4884 28.1269 31.4628 28.1362 31.4301 28.1362H30.3241C30.2914 28.1362 30.2658 28.1269 30.2471 28.1082C30.2284 28.0896 30.2191 28.0639 30.2191 28.0312V23.3412C30.2191 23.3086 30.2284 23.2829 30.2471 23.2642C30.2658 23.2456 30.2914 23.2362 30.3241 23.2362H32.4451C32.7624 23.2362 33.0401 23.3016 33.2781 23.4322C33.5208 23.5629 33.7074 23.7472 33.8381 23.9852C33.9734 24.2186 34.0411 24.4892 34.0411 24.7972C34.0411 25.1052 33.9641 25.3759 33.8101 25.6092C33.6608 25.8379 33.4531 26.0059 33.1871 26.1132C33.1638 26.1226 33.1568 26.1389 33.1661 26.1622L34.0551 28.0102C34.0644 28.0382 34.0691 28.0546 34.0691 28.0592C34.0691 28.0826 34.0598 28.1012 34.0411 28.1152C34.0224 28.1292 33.9991 28.1362 33.9711 28.1362H32.7951ZM31.5701 24.3632C31.5468 24.3632 31.5351 24.3749 31.5351 24.3982V25.2172C31.5351 25.2406 31.5468 25.2522 31.5701 25.2522H32.2281C32.3774 25.2522 32.4988 25.2126 32.5921 25.1332C32.6854 25.0492 32.7321 24.9419 32.7321 24.8112C32.7321 24.6759 32.6854 24.5686 32.5921 24.4892C32.4988 24.4052 32.3774 24.3632 32.2281 24.3632H31.5701ZM38.2123 28.1362C38.1469 28.1362 38.1073 28.1059 38.0933 28.0452L37.9393 27.4992C37.9299 27.4806 37.9183 27.4712 37.9043 27.4712H36.4203C36.4063 27.4712 36.3946 27.4806 36.3853 27.4992L36.2313 28.0452C36.2173 28.1059 36.1776 28.1362 36.1123 28.1362H34.9153C34.8313 28.1362 34.8009 28.0966 34.8243 28.0172L36.3013 23.3202C36.3199 23.2642 36.3596 23.2362 36.4203 23.2362H37.9043C37.9649 23.2362 38.0046 23.2642 38.0233 23.3202L39.5003 28.0172C39.5049 28.0266 39.5073 28.0406 39.5073 28.0592C39.5073 28.1106 39.4746 28.1362 39.4093 28.1362H38.2123ZM36.6933 26.4212C36.6886 26.4492 36.6979 26.4632 36.7213 26.4632H37.5963C37.6243 26.4632 37.6336 26.4492 37.6243 26.4212L37.1763 24.8532C37.1716 24.8392 37.1646 24.8322 37.1553 24.8322C37.1459 24.8322 37.1389 24.8392 37.1343 24.8532L36.6933 26.4212ZM40.4488 28.1362C40.4162 28.1362 40.3905 28.1269 40.3718 28.1082C40.3532 28.0896 40.3438 28.0639 40.3438 28.0312V23.3412C40.3438 23.3086 40.3532 23.2829 40.3718 23.2642C40.3905 23.2456 40.4162 23.2362 40.4488 23.2362H41.5548C41.5875 23.2362 41.6132 23.2456 41.6318 23.2642C41.6505 23.2829 41.6598 23.3086 41.6598 23.3412V26.9742C41.6598 26.9976 41.6715 27.0092 41.6948 27.0092H43.8578C43.8905 27.0092 43.9162 27.0186 43.9348 27.0372C43.9535 27.0559 43.9628 27.0816 43.9628 27.1142V28.0312C43.9628 28.0639 43.9535 28.0896 43.9348 28.1082C43.9162 28.1269 43.8905 28.1362 43.8578 28.1362H40.4488ZM44.8789 28.1362C44.8462 28.1362 44.8205 28.1269 44.8019 28.1082C44.7832 28.0896 44.7739 28.0639 44.7739 28.0312V23.3412C44.7739 23.3086 44.7832 23.2829 44.8019 23.2642C44.8205 23.2456 44.8462 23.2362 44.8789 23.2362H45.9849C46.0175 23.2362 46.0432 23.2456 46.0619 23.2642C46.0805 23.2829 46.0899 23.3086 46.0899 23.3412V26.9742C46.0899 26.9976 46.1015 27.0092 46.1249 27.0092H48.2879C48.3205 27.0092 48.3462 27.0186 48.3649 27.0372C48.3835 27.0559 48.3929 27.0816 48.3929 27.1142V28.0312C48.3929 28.0639 48.3835 28.0896 48.3649 28.1082C48.3462 28.1269 48.3205 28.1362 48.2879 28.1362H44.8789ZM52.8708 28.1922C52.4788 28.1922 52.1358 28.1292 51.8418 28.0032C51.5478 27.8726 51.3191 27.6882 51.1558 27.4502C50.9971 27.2122 50.9178 26.9369 50.9178 26.6242V26.5262C50.9178 26.4936 50.9271 26.4679 50.9458 26.4492C50.9644 26.4306 50.9901 26.4212 51.0228 26.4212H52.1078C52.1404 26.4212 52.1661 26.4306 52.1848 26.4492C52.2034 26.4679 52.2128 26.4936 52.2128 26.5262V26.5682C52.2128 26.6989 52.2804 26.8156 52.4158 26.9182C52.5558 27.0162 52.7401 27.0652 52.9688 27.0652C53.1414 27.0652 53.2651 27.0302 53.3398 26.9602C53.4144 26.8856 53.4518 26.8039 53.4518 26.7152C53.4518 26.6126 53.4051 26.5356 53.3118 26.4842C53.2184 26.4329 53.0481 26.3699 52.8008 26.2952L52.5978 26.2392C52.1358 26.0992 51.7484 25.9126 51.4358 25.6792C51.1231 25.4459 50.9668 25.1076 50.9668 24.6642C50.9668 24.3702 51.0461 24.1112 51.2048 23.8872C51.3634 23.6586 51.5804 23.4836 51.8558 23.3622C52.1358 23.2409 52.4484 23.1802 52.7938 23.1802C53.1578 23.1802 53.4868 23.2479 53.7808 23.3832C54.0794 23.5186 54.3128 23.7099 54.4808 23.9572C54.6534 24.2046 54.7398 24.4869 54.7398 24.8042V24.8672C54.7398 24.8999 54.7304 24.9256 54.7118 24.9442C54.6931 24.9629 54.6674 24.9722 54.6348 24.9722H53.5498C53.5171 24.9722 53.4914 24.9629 53.4728 24.9442C53.4541 24.9256 53.4448 24.8999 53.4448 24.8672V24.8602C53.4448 24.7202 53.3818 24.5942 53.2558 24.4822C53.1298 24.3656 52.9594 24.3072 52.7448 24.3072C52.5954 24.3072 52.4764 24.3376 52.3878 24.3982C52.3038 24.4589 52.2618 24.5429 52.2618 24.6502C52.2618 24.7342 52.2921 24.8066 52.3528 24.8672C52.4181 24.9232 52.5161 24.9792 52.6468 25.0352C52.7774 25.0866 52.9781 25.1542 53.2488 25.2382C53.2861 25.2522 53.4494 25.3036 53.7388 25.3922C54.0328 25.4762 54.2778 25.6326 54.4738 25.8612C54.6698 26.0852 54.7678 26.3582 54.7678 26.6802C54.7678 26.9929 54.6884 27.2636 54.5298 27.4922C54.3711 27.7162 54.1494 27.8889 53.8648 28.0102C53.5801 28.1316 53.2488 28.1922 52.8708 28.1922ZM59.2982 23.2362C59.3309 23.2362 59.3565 23.2456 59.3752 23.2642C59.3939 23.2829 59.4032 23.3086 59.4032 23.3412V24.2652C59.4032 24.2979 59.3939 24.3236 59.3752 24.3422C59.3565 24.3609 59.3309 24.3702 59.2982 24.3702H58.1222C58.0989 24.3702 58.0872 24.3819 58.0872 24.4052V28.0312C58.0872 28.0639 58.0779 28.0896 58.0592 28.1082C58.0405 28.1269 58.0149 28.1362 57.9822 28.1362H56.8762C56.8435 28.1362 56.8179 28.1269 56.7992 28.1082C56.7805 28.0896 56.7712 28.0639 56.7712 28.0312V24.4052C56.7712 24.3819 56.7595 24.3702 56.7362 24.3702H55.5952C55.5625 24.3702 55.5369 24.3609 55.5182 24.3422C55.4995 24.3236 55.4902 24.2979 55.4902 24.2652V23.3412C55.4902 23.3086 55.4995 23.2829 55.5182 23.2642C55.5369 23.2456 55.5625 23.2362 55.5952 23.2362H59.2982ZM62.9946 28.1362C62.9293 28.1362 62.8896 28.1059 62.8756 28.0452L62.7216 27.4992C62.7123 27.4806 62.7006 27.4712 62.6866 27.4712H61.2026C61.1886 27.4712 61.1769 27.4806 61.1676 27.4992L61.0136 28.0452C60.9996 28.1059 60.9599 28.1362 60.8946 28.1362H59.6976C59.6136 28.1362 59.5833 28.0966 59.6066 28.0172L61.0836 23.3202C61.1023 23.2642 61.1419 23.2362 61.2026 23.2362H62.6866C62.7473 23.2362 62.7869 23.2642 62.8056 23.3202L64.2826 28.0172C64.2873 28.0266 64.2896 28.0406 64.2896 28.0592C64.2896 28.1106 64.2569 28.1362 64.1916 28.1362H62.9946ZM61.4756 26.4212C61.4709 26.4492 61.4803 26.4632 61.5036 26.4632H62.3786C62.4066 26.4632 62.4159 26.4492 62.4066 26.4212L61.9586 24.8532C61.9539 24.8392 61.9469 24.8322 61.9376 24.8322C61.9283 24.8322 61.9213 24.8392 61.9166 24.8532L61.4756 26.4212ZM68.0899 23.2362C68.1226 23.2362 68.1483 23.2456 68.1669 23.2642C68.1856 23.2829 68.1949 23.3086 68.1949 23.3412V24.2652C68.1949 24.2979 68.1856 24.3236 68.1669 24.3422C68.1483 24.3609 68.1226 24.3702 68.0899 24.3702H66.9139C66.8906 24.3702 66.8789 24.3819 66.8789 24.4052V28.0312C66.8789 28.0639 66.8696 28.0896 66.8509 28.1082C66.8323 28.1269 66.8066 28.1362 66.7739 28.1362H65.6679C65.6353 28.1362 65.6096 28.1269 65.5909 28.1082C65.5723 28.0896 65.5629 28.0639 65.5629 28.0312V24.4052C65.5629 24.3819 65.5513 24.3702 65.5279 24.3702H64.3869C64.3543 24.3702 64.3286 24.3609 64.3099 24.3422C64.2913 24.3236 64.2819 24.2979 64.2819 24.2652V23.3412C64.2819 23.3086 64.2913 23.2829 64.3099 23.2642C64.3286 23.2456 64.3543 23.2362 64.3869 23.2362H68.0899ZM69.1075 28.1362C69.0748 28.1362 69.0492 28.1269 69.0305 28.1082C69.0118 28.0896 69.0025 28.0639 69.0025 28.0312V23.3412C69.0025 23.3086 69.0118 23.2829 69.0305 23.2642C69.0492 23.2456 69.0748 23.2362 69.1075 23.2362H70.2135C70.2462 23.2362 70.2718 23.2456 70.2905 23.2642C70.3092 23.2829 70.3185 23.3086 70.3185 23.3412V28.0312C70.3185 28.0639 70.3092 28.0896 70.2905 28.1082C70.2718 28.1269 70.2462 28.1362 70.2135 28.1362H69.1075ZM73.1274 28.1922C72.7354 28.1922 72.3924 28.1292 72.0984 28.0032C71.8044 27.8726 71.5757 27.6882 71.4124 27.4502C71.2537 27.2122 71.1744 26.9369 71.1744 26.6242V26.5262C71.1744 26.4936 71.1837 26.4679 71.2024 26.4492C71.221 26.4306 71.2467 26.4212 71.2794 26.4212H72.3644C72.397 26.4212 72.4227 26.4306 72.4414 26.4492C72.46 26.4679 72.4694 26.4936 72.4694 26.5262V26.5682C72.4694 26.6989 72.537 26.8156 72.6724 26.9182C72.8124 27.0162 72.9967 27.0652 73.2254 27.0652C73.398 27.0652 73.5217 27.0302 73.5964 26.9602C73.671 26.8856 73.7084 26.8039 73.7084 26.7152C73.7084 26.6126 73.6617 26.5356 73.5684 26.4842C73.475 26.4329 73.3047 26.3699 73.0574 26.2952L72.8544 26.2392C72.3924 26.0992 72.005 25.9126 71.6924 25.6792C71.3797 25.4459 71.2234 25.1076 71.2234 24.6642C71.2234 24.3702 71.3027 24.1112 71.4614 23.8872C71.62 23.6586 71.837 23.4836 72.1124 23.3622C72.3924 23.2409 72.705 23.1802 73.0504 23.1802C73.4144 23.1802 73.7434 23.2479 74.0374 23.3832C74.336 23.5186 74.5694 23.7099 74.7374 23.9572C74.91 24.2046 74.9964 24.4869 74.9964 24.8042V24.8672C74.9964 24.8999 74.987 24.9256 74.9684 24.9442C74.9497 24.9629 74.924 24.9722 74.8914 24.9722H73.8064C73.7737 24.9722 73.748 24.9629 73.7294 24.9442C73.7107 24.9256 73.7014 24.8999 73.7014 24.8672V24.8602C73.7014 24.7202 73.6384 24.5942 73.5124 24.4822C73.3864 24.3656 73.216 24.3072 73.0014 24.3072C72.852 24.3072 72.733 24.3376 72.6444 24.3982C72.5604 24.4589 72.5184 24.5429 72.5184 24.6502C72.5184 24.7342 72.5487 24.8066 72.6094 24.8672C72.6747 24.9232 72.7727 24.9792 72.9034 25.0352C73.034 25.0866 73.2347 25.1542 73.5054 25.2382C73.5427 25.2522 73.706 25.3036 73.9954 25.3922C74.2894 25.4762 74.5344 25.6326 74.7304 25.8612C74.9264 26.0852 75.0244 26.3582 75.0244 26.6802C75.0244 26.9929 74.945 27.2636 74.7864 27.4922C74.6277 27.7162 74.406 27.8889 74.1214 28.0102C73.8367 28.1316 73.5054 28.1922 73.1274 28.1922ZM79.5548 23.2362C79.5875 23.2362 79.6132 23.2456 79.6318 23.2642C79.6505 23.2829 79.6598 23.3086 79.6598 23.3412V24.2652C79.6598 24.2979 79.6505 24.3236 79.6318 24.3422C79.6132 24.3609 79.5875 24.3702 79.5548 24.3702H78.3788C78.3555 24.3702 78.3438 24.3819 78.3438 24.4052V28.0312C78.3438 28.0639 78.3345 28.0896 78.3158 28.1082C78.2972 28.1269 78.2715 28.1362 78.2388 28.1362H77.1328C77.1002 28.1362 77.0745 28.1269 77.0558 28.1082C77.0372 28.0896 77.0278 28.0639 77.0278 28.0312V24.4052C77.0278 24.3819 77.0162 24.3702 76.9928 24.3702H75.8518C75.8192 24.3702 75.7935 24.3609 75.7748 24.3422C75.7562 24.3236 75.7468 24.2979 75.7468 24.2652V23.3412C75.7468 23.3086 75.7562 23.2829 75.7748 23.2642C75.7935 23.2456 75.8192 23.2362 75.8518 23.2362H79.5548ZM80.5724 28.1362C80.5397 28.1362 80.5141 28.1269 80.4954 28.1082C80.4767 28.0896 80.4674 28.0639 80.4674 28.0312V23.3412C80.4674 23.3086 80.4767 23.2829 80.4954 23.2642C80.5141 23.2456 80.5397 23.2362 80.5724 23.2362H81.6784C81.7111 23.2362 81.7367 23.2456 81.7554 23.2642C81.7741 23.2829 81.7834 23.3086 81.7834 23.3412V28.0312C81.7834 28.0639 81.7741 28.0896 81.7554 28.1082C81.7367 28.1269 81.7111 28.1362 81.6784 28.1362H80.5724ZM84.6063 28.1922C84.2236 28.1922 83.8853 28.1176 83.5913 27.9682C83.302 27.8189 83.0756 27.6089 82.9123 27.3382C82.7536 27.0629 82.6743 26.7456 82.6743 26.3862V24.9722C82.6743 24.6176 82.7536 24.3049 82.9123 24.0342C83.0756 23.7636 83.302 23.5536 83.5913 23.4042C83.8853 23.2549 84.2236 23.1802 84.6063 23.1802C84.989 23.1802 85.325 23.2502 85.6143 23.3902C85.9083 23.5302 86.1346 23.7286 86.2933 23.9852C86.4566 24.2372 86.5383 24.5312 86.5383 24.8672C86.5383 24.9092 86.5033 24.9349 86.4333 24.9442L85.3273 25.0142H85.3063C85.2503 25.0142 85.2223 24.9886 85.2223 24.9372C85.2223 24.7459 85.1663 24.5942 85.0543 24.4822C84.9423 24.3656 84.793 24.3072 84.6063 24.3072C84.4196 24.3072 84.2703 24.3656 84.1583 24.4822C84.0463 24.5942 83.9903 24.7459 83.9903 24.9372V26.4422C83.9903 26.6289 84.0463 26.7806 84.1583 26.8972C84.2703 27.0092 84.4196 27.0652 84.6063 27.0652C84.793 27.0652 84.9423 27.0092 85.0543 26.8972C85.1663 26.7806 85.2223 26.6289 85.2223 26.4422C85.2223 26.4142 85.2316 26.3932 85.2503 26.3792C85.269 26.3652 85.2946 26.3606 85.3273 26.3652L86.4333 26.4212C86.5033 26.4259 86.5383 26.4492 86.5383 26.4912C86.5383 26.8272 86.4566 27.1236 86.2933 27.3802C86.1346 27.6369 85.9083 27.8376 85.6143 27.9822C85.325 28.1222 84.989 28.1922 84.6063 28.1922ZM89.2684 28.1922C88.8764 28.1922 88.5334 28.1292 88.2394 28.0032C87.9454 27.8726 87.7168 27.6882 87.5534 27.4502C87.3948 27.2122 87.3154 26.9369 87.3154 26.6242V26.5262C87.3154 26.4936 87.3248 26.4679 87.3434 26.4492C87.3621 26.4306 87.3878 26.4212 87.4204 26.4212H88.5054C88.5381 26.4212 88.5638 26.4306 88.5824 26.4492C88.6011 26.4679 88.6104 26.4936 88.6104 26.5262V26.5682C88.6104 26.6989 88.6781 26.8156 88.8134 26.9182C88.9534 27.0162 89.1378 27.0652 89.3664 27.0652C89.5391 27.0652 89.6628 27.0302 89.7374 26.9602C89.8121 26.8856 89.8494 26.8039 89.8494 26.7152C89.8494 26.6126 89.8028 26.5356 89.7094 26.4842C89.6161 26.4329 89.4458 26.3699 89.1984 26.2952L88.9954 26.2392C88.5334 26.0992 88.1461 25.9126 87.8334 25.6792C87.5208 25.4459 87.3644 25.1076 87.3644 24.6642C87.3644 24.3702 87.4438 24.1112 87.6024 23.8872C87.7611 23.6586 87.9781 23.4836 88.2534 23.3622C88.5334 23.2409 88.8461 23.1802 89.1914 23.1802C89.5554 23.1802 89.8844 23.2479 90.1784 23.3832C90.4771 23.5186 90.7104 23.7099 90.8784 23.9572C91.0511 24.2046 91.1374 24.4869 91.1374 24.8042V24.8672C91.1374 24.8999 91.1281 24.9256 91.1094 24.9442C91.0908 24.9629 91.0651 24.9722 91.0324 24.9722H89.9474C89.9148 24.9722 89.8891 24.9629 89.8704 24.9442C89.8518 24.9256 89.8424 24.8999 89.8424 24.8672V24.8602C89.8424 24.7202 89.7794 24.5942 89.6534 24.4822C89.5274 24.3656 89.3571 24.3072 89.1424 24.3072C88.9931 24.3072 88.8741 24.3376 88.7854 24.3982C88.7014 24.4589 88.6594 24.5429 88.6594 24.6502C88.6594 24.7342 88.6898 24.8066 88.7504 24.8672C88.8158 24.9232 88.9138 24.9792 89.0444 25.0352C89.1751 25.0866 89.3758 25.1542 89.6464 25.2382C89.6838 25.2522 89.8471 25.3036 90.1364 25.3922C90.4304 25.4762 90.6754 25.6326 90.8714 25.8612C91.0674 26.0852 91.1654 26.3582 91.1654 26.6802C91.1654 26.9929 91.0861 27.2636 90.9274 27.4922C90.7688 27.7162 90.5471 27.8889 90.2624 28.0102C89.9778 28.1316 89.6464 28.1922 89.2684 28.1922Z" fill="#292B4D"/>
<g clip-path="url(#clip6_122_414)">
<path d="M30.8336 42.2164C30.93 42.6017 30.9781 43.0002 30.9781 43.4118C30.9781 43.8234 30.9256 44.2043 30.8205 44.5546C30.6541 45.1151 30.3345 45.5617 29.8616 45.8945C29.3974 46.2185 28.8413 46.3805 28.1933 46.3805C27.554 46.3805 27.0067 46.2229 26.5513 45.9076C26.0959 45.5924 25.7762 45.1632 25.5923 44.6203C25.5048 44.3751 25.4566 44.1605 25.4478 43.9766V43.9503C25.4478 43.8803 25.4873 43.8453 25.5661 43.8453H26.6038C26.6826 43.8453 26.7264 43.8847 26.7352 43.9635C26.7439 44.0248 26.7658 44.1167 26.8009 44.2393C26.8972 44.5634 27.0636 44.8217 27.3 45.0144C27.5452 45.1983 27.8386 45.2902 28.1802 45.2902C28.5392 45.2902 28.8413 45.1939 29.0865 45.0012C29.3405 44.7998 29.5113 44.524 29.5989 44.1737C29.6602 43.9898 29.6908 43.7358 29.6908 43.4118C29.6908 43.1228 29.6645 42.8557 29.612 42.6105C29.5507 42.2777 29.3931 42.0237 29.1391 41.8486C28.8939 41.6647 28.5874 41.5727 28.2196 41.5727C27.878 41.5727 27.5715 41.6515 27.3 41.8092C27.0286 41.958 26.8534 42.1595 26.7746 42.4134C26.7483 42.4922 26.7002 42.5316 26.6301 42.5316H25.5792C25.4916 42.5316 25.4478 42.4879 25.4478 42.4003V37.2247C25.4478 37.1371 25.4916 37.0933 25.5792 37.0933H30.4921C30.5797 37.0933 30.6235 37.1371 30.6235 37.2247V38.0522C30.6235 38.1398 30.5797 38.1836 30.4921 38.1836H26.7615C26.7264 38.1836 26.7089 38.2011 26.7089 38.2361L26.6958 40.9816C26.6958 41.0341 26.7177 41.0473 26.7615 41.021C26.9716 40.8371 27.2125 40.7014 27.4839 40.6138C27.7642 40.5174 28.0576 40.4693 28.3641 40.4693C28.9771 40.4693 29.5025 40.6225 29.9404 40.929C30.387 41.2356 30.6848 41.6647 30.8336 42.2164ZM33.3353 46.2886C33.09 46.2886 32.8886 46.2098 32.731 46.0521C32.5734 45.8945 32.4945 45.6931 32.4945 45.4479C32.4945 45.2027 32.5734 45.0012 32.731 44.8436C32.8886 44.686 33.09 44.6072 33.3353 44.6072C33.5805 44.6072 33.7819 44.686 33.9395 44.8436C34.0971 45.0012 34.176 45.2027 34.176 45.4479C34.176 45.6931 34.0971 45.8945 33.9395 46.0521C33.7819 46.2098 33.5805 46.2886 33.3353 46.2886ZM38.4733 46.4199C37.5888 46.4199 36.8838 46.1703 36.3584 45.6712C35.8417 45.1632 35.5834 44.4845 35.5834 43.6351V39.7468C35.5834 38.8973 35.8417 38.223 36.3584 37.7238C36.8838 37.2247 37.5888 36.9751 38.4733 36.9751C39.3578 36.9751 40.0628 37.2247 40.5882 37.7238C41.1224 38.223 41.3895 38.8973 41.3895 39.7468V43.6351C41.3895 44.4845 41.1224 45.1632 40.5882 45.6712C40.0628 46.1703 39.3578 46.4199 38.4733 46.4199ZM38.4733 45.3296C38.9812 45.3296 39.3841 45.1851 39.6818 44.8961C39.9796 44.5984 40.1285 44.2043 40.1285 43.7139V39.6942C40.1285 39.2038 39.9796 38.8141 39.6818 38.5251C39.3841 38.2274 38.9812 38.0785 38.4733 38.0785C37.9829 38.0785 37.5888 38.2274 37.2911 38.5251C36.9933 38.8141 36.8444 39.2038 36.8444 39.6942V43.7139C36.8444 44.2043 36.9933 44.5984 37.2911 44.8961C37.5888 45.1851 37.9829 45.3296 38.4733 45.3296Z" fill="#292B4D"/>
<path d="M25.4063 57.2886C25.3637 57.2886 25.3343 57.2699 25.3183 57.2326L24.1983 54.8406C24.193 54.8246 24.1823 54.8166 24.1663 54.8166H23.0143C22.993 54.8166 22.9823 54.8272 22.9823 54.8486V57.2086C22.9823 57.2619 22.9557 57.2886 22.9023 57.2886H22.2943C22.241 57.2886 22.2143 57.2619 22.2143 57.2086V51.7686C22.2143 51.7152 22.241 51.6886 22.2943 51.6886H24.4463C24.7663 51.6886 25.0463 51.7552 25.2863 51.8886C25.5317 52.0219 25.721 52.2086 25.8543 52.4486C25.9877 52.6886 26.0543 52.9659 26.0543 53.2806C26.0543 53.6539 25.9557 53.9712 25.7583 54.2326C25.5663 54.4886 25.297 54.6619 24.9503 54.7526C24.929 54.7632 24.9237 54.7766 24.9343 54.7926L26.0943 57.1926C26.0997 57.2032 26.1023 57.2166 26.1023 57.2326C26.1023 57.2699 26.081 57.2886 26.0383 57.2886H25.4063ZM23.0143 52.3526C22.993 52.3526 22.9823 52.3632 22.9823 52.3846V54.1766C22.9823 54.1979 22.993 54.2086 23.0143 54.2086H24.3503C24.633 54.2086 24.8597 54.1259 25.0303 53.9606C25.201 53.7899 25.2863 53.5659 25.2863 53.2886C25.2863 53.0059 25.201 52.7792 25.0303 52.6086C24.8597 52.4379 24.633 52.3526 24.3503 52.3526H23.0143ZM28.5126 53.1526C28.8379 53.1526 29.1206 53.2112 29.3606 53.3286C29.6059 53.4406 29.7926 53.6006 29.9206 53.8086C30.0539 54.0112 30.1206 54.2432 30.1206 54.5046V57.2086C30.1206 57.2619 30.0939 57.2886 30.0406 57.2886H29.4326C29.3793 57.2886 29.3526 57.2619 29.3526 57.2086V56.9206C29.3526 56.8939 29.3393 56.8886 29.3126 56.9046C29.1739 57.0486 29.0033 57.1606 28.8006 57.2406C28.6033 57.3152 28.3819 57.3526 28.1366 57.3526C27.7419 57.3526 27.4139 57.2539 27.1526 57.0566C26.8966 56.8539 26.7686 56.5499 26.7686 56.1446C26.7686 55.7286 26.9126 55.4032 27.2006 55.1686C27.4939 54.9286 27.9019 54.8086 28.4246 54.8086H29.3206C29.3419 54.8086 29.3526 54.7979 29.3526 54.7766V54.5606C29.3526 54.3259 29.2833 54.1446 29.1446 54.0166C29.0113 53.8832 28.8059 53.8166 28.5286 53.8166C28.3046 53.8166 28.1206 53.8619 27.9766 53.9526C27.8379 54.0379 27.7526 54.1552 27.7206 54.3046C27.7046 54.3579 27.6726 54.3819 27.6246 54.3766L26.9766 54.2886C26.9233 54.2779 26.8993 54.2566 26.9046 54.2246C26.9473 53.9099 27.1153 53.6539 27.4086 53.4566C27.7019 53.2539 28.0699 53.1526 28.5126 53.1526ZM28.3046 56.7046C28.5873 56.7046 28.8326 56.6299 29.0406 56.4806C29.2486 56.3312 29.3526 56.1419 29.3526 55.9126V55.4406C29.3526 55.4192 29.3419 55.4086 29.3206 55.4086H28.5686C28.2539 55.4086 28.0033 55.4699 27.8166 55.5926C27.6299 55.7152 27.5366 55.8859 27.5366 56.1046C27.5366 56.3019 27.6059 56.4512 27.7446 56.5526C27.8886 56.6539 28.0753 56.7046 28.3046 56.7046ZM33.1107 53.7686C33.1107 53.8219 33.0841 53.8486 33.0307 53.8486H32.1667C32.1454 53.8486 32.1347 53.8592 32.1347 53.8806V56.0006C32.1347 56.2246 32.1854 56.3872 32.2867 56.4886C32.3881 56.5846 32.5454 56.6326 32.7587 56.6326H32.9907C33.0441 56.6326 33.0707 56.6592 33.0707 56.7126V57.2086C33.0707 57.2619 33.0441 57.2886 32.9907 57.2886C32.8201 57.2992 32.6974 57.3046 32.6227 57.3046C32.2174 57.3046 31.9107 57.2326 31.7027 57.0886C31.5001 56.9392 31.3987 56.6672 31.3987 56.2726V53.8806C31.3987 53.8592 31.3881 53.8486 31.3667 53.8486H30.8787C30.8254 53.8486 30.7987 53.8219 30.7987 53.7686V53.2966C30.7987 53.2432 30.8254 53.2166 30.8787 53.2166H31.3667C31.3881 53.2166 31.3987 53.2059 31.3987 53.1846V52.2406C31.3987 52.1872 31.4254 52.1606 31.4787 52.1606H32.0547C32.1081 52.1606 32.1347 52.1872 32.1347 52.2406V53.1846C32.1347 53.2059 32.1454 53.2166 32.1667 53.2166H33.0307C33.0841 53.2166 33.1107 53.2432 33.1107 53.2966V53.7686ZM34.5198 52.5766C34.3705 52.5766 34.2478 52.5286 34.1518 52.4326C34.0558 52.3366 34.0078 52.2139 34.0078 52.0646C34.0078 51.9152 34.0558 51.7926 34.1518 51.6966C34.2478 51.6006 34.3705 51.5526 34.5198 51.5526C34.6692 51.5526 34.7918 51.6006 34.8878 51.6966C34.9838 51.7926 35.0318 51.9152 35.0318 52.0646C35.0318 52.2139 34.9838 52.3366 34.8878 52.4326C34.7918 52.5286 34.6692 52.5766 34.5198 52.5766ZM34.1998 57.2806C34.1465 57.2806 34.1198 57.2539 34.1198 57.2006V53.2966C34.1198 53.2432 34.1465 53.2166 34.1998 53.2166H34.8078C34.8612 53.2166 34.8878 53.2432 34.8878 53.2966V57.2006C34.8878 57.2539 34.8612 57.2806 34.8078 57.2806H34.1998ZM37.9109 53.1606C38.3482 53.1606 38.6949 53.2886 38.9509 53.5446C39.2069 53.7952 39.3349 54.1366 39.3349 54.5686V57.2086C39.3349 57.2619 39.3082 57.2886 39.2549 57.2886H38.6469C38.5936 57.2886 38.5669 57.2619 38.5669 57.2086V54.7206C38.5669 54.4539 38.4896 54.2379 38.3349 54.0726C38.1802 53.9072 37.9749 53.8246 37.7189 53.8246C37.4682 53.8246 37.2629 53.9072 37.1029 54.0726C36.9429 54.2379 36.8629 54.4512 36.8629 54.7126V57.2086C36.8629 57.2619 36.8362 57.2886 36.7829 57.2886H36.1749C36.1216 57.2886 36.0949 57.2619 36.0949 57.2086V53.2966C36.0949 53.2432 36.1216 53.2166 36.1749 53.2166H36.7829C36.8362 53.2166 36.8629 53.2432 36.8629 53.2966V53.5846C36.8629 53.5952 36.8656 53.6032 36.8709 53.6086C36.8816 53.6139 36.8896 53.6112 36.8949 53.6006C37.1242 53.3072 37.4629 53.1606 37.9109 53.1606ZM42.9348 53.2966C42.9348 53.2432 42.9615 53.2166 43.0148 53.2166H43.6228C43.6762 53.2166 43.7028 53.2432 43.7028 53.2966V57.0806C43.7028 57.7259 43.5188 58.1872 43.1508 58.4646C42.7882 58.7419 42.3002 58.8806 41.6868 58.8806C41.6015 58.8806 41.4682 58.8752 41.2868 58.8646C41.2335 58.8592 41.2068 58.8299 41.2068 58.7766L41.2308 58.2246C41.2308 58.2032 41.2388 58.1846 41.2548 58.1686C41.2708 58.1526 41.2922 58.1472 41.3188 58.1526C41.3935 58.1579 41.5028 58.1606 41.6468 58.1606C42.1002 58.1606 42.4282 58.0752 42.6308 57.9046C42.8335 57.7392 42.9348 57.4566 42.9348 57.0566V56.9126C42.9348 56.9019 42.9295 56.8939 42.9188 56.8886C42.9135 56.8832 42.9055 56.8859 42.8948 56.8966C42.6708 57.1579 42.3428 57.2886 41.9108 57.2886C41.5642 57.2886 41.2495 57.1979 40.9668 57.0166C40.6895 56.8352 40.4975 56.5686 40.3908 56.2166C40.3215 55.9819 40.2868 55.6566 40.2868 55.2406C40.2868 54.7979 40.3268 54.4566 40.4068 54.2166C40.5082 53.8966 40.6868 53.6406 40.9428 53.4486C41.2042 53.2512 41.5108 53.1526 41.8628 53.1526C42.3002 53.1526 42.6442 53.2859 42.8948 53.5526C42.9055 53.5632 42.9135 53.5686 42.9188 53.5686C42.9295 53.5632 42.9348 53.5552 42.9348 53.5446V53.2966ZM42.8868 55.9846C42.9028 55.8992 42.9135 55.8086 42.9188 55.7126C42.9295 55.6166 42.9348 55.4566 42.9348 55.2326C42.9348 55.0086 42.9295 54.8512 42.9188 54.7606C42.9135 54.6646 42.9002 54.5739 42.8788 54.4886C42.8362 54.2912 42.7402 54.1312 42.5908 54.0086C42.4415 53.8806 42.2548 53.8166 42.0308 53.8166C41.8068 53.8166 41.6202 53.8806 41.4708 54.0086C41.3215 54.1312 41.2148 54.2912 41.1508 54.4886C41.0922 54.6486 41.0628 54.8966 41.0628 55.2326C41.0628 55.6006 41.0895 55.8512 41.1428 55.9846C41.1962 56.1819 41.3002 56.3446 41.4548 56.4726C41.6148 56.5952 41.8068 56.6566 42.0308 56.6566C42.2655 56.6566 42.4548 56.5952 42.5988 56.4726C42.7482 56.3446 42.8442 56.1819 42.8868 55.9846Z" fill="#292B4D" fill-opacity="0.8"/>
</g>
<g clip-path="url(#clip7_122_414)">
<path d="M89.1889 46.406C89.1452 46.406 89.1101 46.3929 89.0839 46.3666C89.0663 46.3316 89.0663 46.2922 89.0839 46.2484L92.0657 38.3667C92.0745 38.3492 92.0745 38.3361 92.0657 38.3273C92.057 38.3098 92.0439 38.301 92.0263 38.301H88.8605C88.8255 38.301 88.808 38.3185 88.808 38.3536V38.971C88.808 39.0585 88.7642 39.1023 88.6766 39.1023H87.8885C87.8009 39.1023 87.7571 39.0585 87.7571 38.971V37.3421C87.7571 37.2545 87.8009 37.2107 87.8885 37.2107H93.2874C93.375 37.2107 93.4188 37.2545 93.4188 37.3421V38.2222C93.4188 38.2572 93.41 38.3098 93.3925 38.3798L90.4237 46.3009C90.3975 46.371 90.3493 46.406 90.2792 46.406H89.1889ZM97.3786 46.5374C96.4941 46.5374 95.7891 46.2878 95.2637 45.7886C94.747 45.2807 94.4886 44.602 94.4886 43.7525V39.8642C94.4886 39.0148 94.747 38.3404 95.2637 37.8413C95.7891 37.3421 96.4941 37.0925 97.3786 37.0925C98.2631 37.0925 98.9681 37.3421 99.4935 37.8413C100.028 38.3404 100.295 39.0148 100.295 39.8642V43.7525C100.295 44.602 100.028 45.2807 99.4935 45.7886C98.9681 46.2878 98.2631 46.5374 97.3786 46.5374ZM97.3786 45.4471C97.8865 45.4471 98.2894 45.3026 98.5871 45.0136C98.8849 44.7158 99.0337 44.3217 99.0337 43.8313V39.8117C99.0337 39.3213 98.8849 38.9316 98.5871 38.6426C98.2894 38.3448 97.8865 38.1959 97.3786 38.1959C96.8882 38.1959 96.4941 38.3448 96.1963 38.6426C95.8986 38.9316 95.7497 39.3213 95.7497 39.8117V43.8313C95.7497 44.3217 95.8986 44.7158 96.1963 45.0136C96.4941 45.3026 96.8882 45.4471 97.3786 45.4471Z" fill="#292B4D"/>
<path d="M85.7928 52.806C85.8461 52.806 85.8728 52.8327 85.8728 52.886V53.398C85.8728 53.4513 85.8461 53.478 85.7928 53.478H84.2568C84.2354 53.478 84.2248 53.4887 84.2248 53.51V58.326C84.2248 58.3793 84.1981 58.406 84.1448 58.406H83.5368C83.4834 58.406 83.4568 58.3793 83.4568 58.326V53.51C83.4568 53.4887 83.4461 53.478 83.4248 53.478H81.9608C81.9074 53.478 81.8808 53.4513 81.8808 53.398V52.886C81.8808 52.8327 81.9074 52.806 81.9608 52.806H85.7928ZM87.1086 53.694C86.9593 53.694 86.8366 53.646 86.7406 53.55C86.6446 53.454 86.5966 53.3313 86.5966 53.182C86.5966 53.0327 86.6446 52.91 86.7406 52.814C86.8366 52.718 86.9593 52.67 87.1086 52.67C87.2579 52.67 87.3806 52.718 87.4766 52.814C87.5726 52.91 87.6206 53.0327 87.6206 53.182C87.6206 53.3313 87.5726 53.454 87.4766 53.55C87.3806 53.646 87.2579 53.694 87.1086 53.694ZM86.7886 58.398C86.7353 58.398 86.7086 58.3713 86.7086 58.318V54.414C86.7086 54.3607 86.7353 54.334 86.7886 54.334H87.3966C87.4499 54.334 87.4766 54.3607 87.4766 54.414V58.318C87.4766 58.3713 87.4499 58.398 87.3966 58.398H86.7886ZM90.3157 58.47C89.9103 58.47 89.5637 58.3687 89.2757 58.166C88.9877 57.958 88.7903 57.678 88.6837 57.326C88.6037 57.0807 88.5637 56.758 88.5637 56.358C88.5637 55.99 88.6037 55.6673 88.6837 55.39C88.7903 55.0487 88.9877 54.7767 89.2757 54.574C89.569 54.3713 89.9157 54.27 90.3157 54.27C90.7157 54.27 91.065 54.3713 91.3637 54.574C91.6623 54.7767 91.857 55.0327 91.9477 55.342C91.9797 55.4273 92.001 55.5153 92.0117 55.606C92.0117 55.6487 91.9877 55.6753 91.9397 55.686L91.3397 55.774H91.3237C91.2863 55.774 91.2597 55.75 91.2437 55.702L91.2197 55.574C91.177 55.3927 91.073 55.2407 90.9077 55.118C90.7423 54.9953 90.5423 54.934 90.3077 54.934C90.0783 54.934 89.8837 54.9953 89.7237 55.118C89.5637 55.2407 89.4597 55.4033 89.4117 55.606C89.3637 55.798 89.3397 56.0513 89.3397 56.366C89.3397 56.6753 89.3637 56.926 89.4117 57.118C89.465 57.3313 89.569 57.4993 89.7237 57.622C89.8837 57.7447 90.0783 57.806 90.3077 57.806C90.5423 57.806 90.7423 57.7447 90.9077 57.622C91.0783 57.4993 91.185 57.3393 91.2277 57.142C91.233 57.1367 91.233 57.1313 91.2277 57.126C91.2277 57.1153 91.2303 57.1073 91.2357 57.102V57.07C91.2517 57.0273 91.281 57.0113 91.3237 57.022L91.9237 57.118C91.9663 57.1287 91.9877 57.15 91.9877 57.182V57.214C91.9877 57.262 91.9743 57.3207 91.9477 57.39C91.857 57.7153 91.6623 57.9767 91.3637 58.174C91.065 58.3713 90.7157 58.47 90.3157 58.47ZM92.9746 58.406C92.9213 58.406 92.8946 58.3793 92.8946 58.326V52.886C92.8946 52.8327 92.9213 52.806 92.9746 52.806H93.5826C93.6359 52.806 93.6626 52.8327 93.6626 52.886V55.966C93.6626 55.9767 93.6679 55.9847 93.6786 55.99C93.6893 55.9953 93.6973 55.9927 93.7026 55.982L95.1826 54.374C95.2039 54.3473 95.2359 54.334 95.2786 54.334H95.9906C96.0226 54.334 96.0413 54.3447 96.0466 54.366C96.0573 54.382 96.0519 54.4033 96.0306 54.43L94.9986 55.622C94.9879 55.6433 94.9853 55.6593 94.9906 55.67L96.2146 58.31L96.2226 58.342C96.2226 58.3847 96.1986 58.406 96.1506 58.406H95.5106C95.4679 58.406 95.4386 58.3847 95.4226 58.342L94.4706 56.166C94.4599 56.1393 94.4466 56.1367 94.4306 56.158L93.6786 56.99C93.6679 57.0113 93.6626 57.0247 93.6626 57.03V58.326C93.6626 58.3793 93.6359 58.406 93.5826 58.406H92.9746ZM100.05 55.862C100.071 56.0807 100.079 56.326 100.074 56.598C100.074 56.6513 100.047 56.678 99.994 56.678H97.442C97.4206 56.678 97.41 56.6887 97.41 56.71C97.41 56.8913 97.426 57.03 97.458 57.126C97.5166 57.3393 97.634 57.5073 97.81 57.63C97.9913 57.7473 98.218 57.806 98.49 57.806C98.8846 57.806 99.1886 57.6433 99.402 57.318C99.4286 57.2647 99.4633 57.2567 99.506 57.294L99.962 57.598C99.9993 57.63 100.007 57.6647 99.986 57.702C99.8366 57.942 99.6233 58.1313 99.346 58.27C99.074 58.4087 98.7646 58.478 98.418 58.478C98.0286 58.478 97.7006 58.3927 97.434 58.222C97.1673 58.0513 96.9673 57.8087 96.834 57.494C96.706 57.1793 96.642 56.798 96.642 56.35C96.642 55.9607 96.6713 55.6647 96.73 55.462C96.826 55.094 97.018 54.8033 97.306 54.59C97.594 54.3767 97.9433 54.27 98.354 54.27C98.8926 54.27 99.2953 54.406 99.562 54.678C99.8286 54.9447 99.9913 55.3393 100.05 55.862ZM98.354 54.934C98.1246 54.934 97.9353 54.9927 97.786 55.11C97.6366 55.222 97.5353 55.374 97.482 55.566C97.4446 55.6833 97.4206 55.8327 97.41 56.014C97.41 56.0353 97.4206 56.046 97.442 56.046H99.274C99.2953 56.046 99.306 56.0353 99.306 56.014C99.2953 55.838 99.2793 55.7073 99.258 55.622C99.2046 55.414 99.098 55.2487 98.938 55.126C98.7833 54.998 98.5886 54.934 98.354 54.934ZM102.989 54.886C102.989 54.9393 102.962 54.966 102.909 54.966H102.045C102.023 54.966 102.013 54.9767 102.013 54.998V57.118C102.013 57.342 102.063 57.5047 102.165 57.606C102.266 57.702 102.423 57.75 102.637 57.75H102.869C102.922 57.75 102.949 57.7767 102.949 57.83V58.326C102.949 58.3793 102.922 58.406 102.869 58.406C102.698 58.4167 102.575 58.422 102.501 58.422C102.095 58.422 101.789 58.35 101.581 58.206C101.378 58.0567 101.277 57.7847 101.277 57.39V54.998C101.277 54.9767 101.266 54.966 101.245 54.966H100.757C100.703 54.966 100.677 54.9393 100.677 54.886V54.414C100.677 54.3607 100.703 54.334 100.757 54.334H101.245C101.266 54.334 101.277 54.3233 101.277 54.302V53.358C101.277 53.3047 101.303 53.278 101.357 53.278H101.933C101.986 53.278 102.013 53.3047 102.013 53.358V54.302C102.013 54.3233 102.023 54.334 102.045 54.334H102.909C102.962 54.334 102.989 54.3607 102.989 54.414V54.886ZM105.366 58.454C105.046 58.454 104.763 58.406 104.518 58.31C104.278 58.214 104.091 58.0833 103.958 57.918C103.824 57.7473 103.758 57.5607 103.758 57.358V57.27C103.758 57.2167 103.784 57.19 103.838 57.19H104.414C104.467 57.19 104.494 57.2167 104.494 57.27V57.31C104.494 57.4593 104.574 57.59 104.734 57.702C104.899 57.814 105.107 57.87 105.358 57.87C105.598 57.87 105.792 57.8193 105.942 57.718C106.091 57.6113 106.166 57.478 106.166 57.318C106.166 57.1633 106.096 57.0487 105.958 56.974C105.819 56.894 105.595 56.8113 105.286 56.726C104.982 56.6407 104.726 56.5553 104.518 56.47C104.315 56.3793 104.142 56.254 103.998 56.094C103.859 55.9287 103.79 55.718 103.79 55.462C103.79 55.1047 103.928 54.822 104.206 54.614C104.488 54.4007 104.862 54.294 105.326 54.294C105.635 54.294 105.907 54.3447 106.142 54.446C106.382 54.542 106.566 54.678 106.694 54.854C106.822 55.03 106.886 55.2273 106.886 55.446V55.47C106.886 55.5233 106.859 55.55 106.806 55.55H106.246C106.192 55.55 106.166 55.5233 106.166 55.47V55.446C106.166 55.2913 106.088 55.1633 105.934 55.062C105.784 54.9553 105.579 54.902 105.318 54.902C105.083 54.902 104.891 54.9473 104.742 55.038C104.598 55.1287 104.526 55.2513 104.526 55.406C104.526 55.5607 104.595 55.678 104.734 55.758C104.878 55.838 105.107 55.9233 105.422 56.014C105.731 56.0993 105.987 56.1847 106.19 56.27C106.398 56.35 106.574 56.4727 106.718 56.638C106.862 56.798 106.934 57.0087 106.934 57.27C106.934 57.6327 106.79 57.9207 106.502 58.134C106.219 58.3473 105.84 58.454 105.366 58.454Z" fill="#292B4D" fill-opacity="0.8"/>
</g>
</g>
<defs>
<filter id="filter0_d_122_414" x="-24.6302" y="-24.6302" width="174.26" height="199.26" filterUnits="userSpaceOnUse" color-interpolation-filters="sRGB">
<feFlood flood-opacity="0" result="BackgroundImageFix"/>
<feColorMatrix in="SourceAlpha" type="matrix" values="0 0 0 0 0 0 0 0 0 0 0 0 0 0 0 0 0 0 127 0" result="hardAlpha"/>
<feOffset/>
<feGaussianBlur stdDeviation="12.3151"/>
<feColorMatrix type="matrix" values="0 0 0 0 0 0 0 0 0 0 0 0 0 0 0 0 0 0 0.04 0"/>
<feBlend mode="normal" in2="BackgroundImageFix" result="effect1_dropShadow_122_414"/>
<feBlend mode="normal" in="SourceGraphic" in2="effect1_dropShadow_122_414" result="shape"/>
</filter>
<clipPath id="clip0_122_414">
<rect width="125" height="150" rx="7.39876" fill="white"/>
</clipPath>
<clipPath id="clip1_122_414">
<rect width="32.9296" height="10.9857" fill="white" transform="translate(77.9531 71.5166)"/>
</clipPath>
<clipPath id="clip2_122_414">
<rect width="32.9296" height="10.9857" fill="white" transform="translate(77.9531 86.3473)"/>
</clipPath>
<clipPath id="clip3_122_414">
<rect width="32.9296" height="10.9857" fill="white" transform="translate(77.9531 100.629)"/>
</clipPath>
<clipPath id="clip4_122_414">
<rect width="28.1398" height="10.9857" fill="white" transform="translate(77.9531 114.91)"/>
</clipPath>
<clipPath id="clip5_122_414">
<rect width="28.1398" height="10.9857" fill="white" transform="translate(77.9531 129.191)"/>
</clipPath>
<clipPath id="clip6_122_414">
<rect width="37.7585" height="32.406" fill="white" transform="translate(15.8342 31.2886)"/>
</clipPath>
<clipPath id="clip7_122_414">
<rect width="31.6684" height="30.1711" fill="white" transform="translate(77.9531 32.406)"/>
</clipPath>
</defs>
</svg>
