<svg width="57" height="57" viewBox="0 0 57 57" fill="none" xmlns="http://www.w3.org/2000/svg">
<g filter="url(#filter0_d_112_308)">
<path fill-rule="evenodd" clip-rule="evenodd" d="M33.0527 18.712C32.1197 19.2203 30.9559 18.7473 30.6373 17.735C30.4082 17.0069 30.7164 16.1877 31.3943 15.7987L35.612 13.2614C36.647 12.6429 37.9752 13.1423 38.3385 14.2967L44.335 33.3526C44.6424 34.3294 44.0947 35.3801 43.1179 35.6874C42.1411 35.9948 41.0905 35.4471 40.7831 34.4703L35.4181 17.4212L33.0527 18.712ZM20.3286 25.2924C20.0212 24.3156 20.5689 23.265 21.5457 22.9576C22.5225 22.6502 23.5731 23.1979 23.8805 24.1747L25.5571 29.5026L30.8849 27.826C31.8617 27.5186 32.9124 28.0663 33.2197 29.0431C33.5271 30.0199 32.9794 31.0705 32.0026 31.3779L26.6748 33.0545L28.3513 38.3823C28.6587 39.3591 28.111 40.4098 27.1342 40.7171C26.1575 41.0245 25.1068 40.4768 24.7994 39.5L23.1229 34.1722L17.795 35.8487C16.8182 36.1561 15.7676 35.6084 15.4602 34.6316C15.1528 33.6549 15.7005 32.6042 16.6773 32.2968L22.0052 30.6203L20.3286 25.2924Z" fill="#F2594B"/>
</g>
<defs>
<filter id="filter0_d_112_308" x="-4" y="9.15527e-05" width="64.0354" height="70.0354" filterUnits="userSpaceOnUse" color-interpolation-filters="sRGB">
<feFlood flood-opacity="0" result="BackgroundImageFix"/>
<feColorMatrix in="SourceAlpha" type="matrix" values="0 0 0 0 0 0 0 0 0 0 0 0 0 0 0 0 0 0 127 0" result="hardAlpha"/>
<feOffset dy="10"/>
<feGaussianBlur stdDeviation="2"/>
<feComposite in2="hardAlpha" operator="out"/>
<feColorMatrix type="matrix" values="0 0 0 0 0 0 0 0 0 0 0 0 0 0 0 0 0 0 0.1 0"/>
<feBlend mode="normal" in2="BackgroundImageFix" result="effect1_dropShadow_112_308"/>
<feBlend mode="normal" in="SourceGraphic" in2="effect1_dropShadow_112_308" result="shape"/>
</filter>
</defs>
</svg>
