<svg width="62" height="63" viewBox="0 0 62 63" fill="none" xmlns="http://www.w3.org/2000/svg">
<g filter="url(#filter0_d_122_492)">
<path fill-rule="evenodd" clip-rule="evenodd" d="M38.3958 28.7688L45.5679 34.2799C46.8783 35.2719 46.3247 37.3485 44.6921 37.5868L35.7464 38.8965L32.7302 47.4199C32.1818 48.9696 30.041 49.104 29.3099 47.6205L25.3155 39.5222L16.2985 39.2838C14.645 39.2436 13.8677 37.2444 15.0436 36.0957L21.5013 29.7935L18.9316 21.1254C18.462 19.5437 20.1295 18.1789 21.5803 18.9513L29.5689 23.1503L37.0052 18.048C38.3507 17.1181 40.1705 18.281 39.8919 19.8926L38.3958 28.7688ZM19.0156 36.3802L27.1902 36.5884L30.819 43.9449L33.541 36.2277L41.6368 35.0378L35.1462 30.0506L36.5137 21.9982L29.8065 26.6163L22.554 22.8215L24.8753 30.6681L19.0156 36.3802Z" fill="#F2CD5E"/>
</g>
<defs>
<filter id="filter0_d_122_492" x="-4" y="0" width="69.7129" height="75.7128" filterUnits="userSpaceOnUse" color-interpolation-filters="sRGB">
<feFlood flood-opacity="0" result="BackgroundImageFix"/>
<feColorMatrix in="SourceAlpha" type="matrix" values="0 0 0 0 0 0 0 0 0 0 0 0 0 0 0 0 0 0 127 0" result="hardAlpha"/>
<feOffset dy="10"/>
<feGaussianBlur stdDeviation="2"/>
<feComposite in2="hardAlpha" operator="out"/>
<feColorMatrix type="matrix" values="0 0 0 0 0 0 0 0 0 0 0 0 0 0 0 0 0 0 0.1 0"/>
<feBlend mode="normal" in2="BackgroundImageFix" result="effect1_dropShadow_122_492"/>
<feBlend mode="normal" in="SourceGraphic" in2="effect1_dropShadow_122_492" result="shape"/>
</filter>
</defs>
</svg>
