<svg width="125" height="98" viewBox="0 0 125 98" fill="none" xmlns="http://www.w3.org/2000/svg">
<g clip-path="url(#clip0_122_387)">
<rect width="125" height="98" rx="7.01961" fill="white"/>
<path d="M18.163 23.1008C17.785 23.1008 17.449 23.0285 17.155 22.8838C16.8657 22.7391 16.6417 22.5338 16.483 22.2678C16.3243 22.0018 16.245 21.6938 16.245 21.3438V18.2498C16.245 18.2171 16.2543 18.1915 16.273 18.1728C16.2917 18.1541 16.3173 18.1448 16.35 18.1448H17.456C17.4887 18.1448 17.5143 18.1541 17.533 18.1728C17.5517 18.1915 17.561 18.2171 17.561 18.2498V21.3438C17.561 21.5351 17.6147 21.6891 17.722 21.8058C17.834 21.9178 17.981 21.9738 18.163 21.9738C18.3403 21.9738 18.4827 21.9155 18.59 21.7988C18.702 21.6821 18.758 21.5305 18.758 21.3438V18.2498C18.758 18.2171 18.7673 18.1915 18.786 18.1728C18.8047 18.1541 18.8303 18.1448 18.863 18.1448H19.969C20.0017 18.1448 20.0273 18.1541 20.046 18.1728C20.0647 18.1915 20.074 18.2171 20.074 18.2498V21.3438C20.074 21.6938 19.9947 22.0018 19.836 22.2678C19.6773 22.5338 19.4533 22.7391 19.164 22.8838C18.8747 23.0285 18.541 23.1008 18.163 23.1008ZM23.8387 18.2498C23.8387 18.2171 23.848 18.1915 23.8667 18.1728C23.8854 18.1541 23.911 18.1448 23.9437 18.1448H25.0497C25.0824 18.1448 25.108 18.1541 25.1267 18.1728C25.1454 18.1915 25.1547 18.2171 25.1547 18.2498V22.9398C25.1547 22.9725 25.1454 22.9981 25.1267 23.0168C25.108 23.0355 25.0824 23.0448 25.0497 23.0448H23.9927C23.9367 23.0448 23.8947 23.0215 23.8667 22.9748L22.4387 20.5948C22.4294 20.5808 22.42 20.5761 22.4107 20.5808C22.4014 20.5808 22.3967 20.5901 22.3967 20.6088L22.4107 22.9398C22.4107 22.9725 22.4014 22.9981 22.3827 23.0168C22.364 23.0355 22.3384 23.0448 22.3057 23.0448H21.1997C21.167 23.0448 21.1414 23.0355 21.1227 23.0168C21.104 22.9981 21.0947 22.9725 21.0947 22.9398V18.2498C21.0947 18.2171 21.104 18.1915 21.1227 18.1728C21.1414 18.1541 21.167 18.1448 21.1997 18.1448H22.2567C22.3127 18.1448 22.3547 18.1681 22.3827 18.2148L23.8037 20.5948C23.813 20.6088 23.8224 20.6158 23.8317 20.6158C23.841 20.6111 23.8457 20.5995 23.8457 20.5808L23.8387 18.2498ZM28.7795 23.0448C28.7189 23.0448 28.6792 23.0191 28.6605 22.9678L27.8905 21.1898C27.8812 21.1711 27.8672 21.1618 27.8485 21.1618H27.5545C27.5312 21.1618 27.5195 21.1735 27.5195 21.1968V22.9398C27.5195 22.9725 27.5102 22.9981 27.4915 23.0168C27.4729 23.0355 27.4472 23.0448 27.4145 23.0448H26.3085C26.2759 23.0448 26.2502 23.0355 26.2315 23.0168C26.2129 22.9981 26.2035 22.9725 26.2035 22.9398V18.2498C26.2035 18.2171 26.2129 18.1915 26.2315 18.1728C26.2502 18.1541 26.2759 18.1448 26.3085 18.1448H28.4295C28.7469 18.1448 29.0245 18.2101 29.2625 18.3408C29.5052 18.4715 29.6919 18.6558 29.8225 18.8938C29.9579 19.1271 30.0255 19.3978 30.0255 19.7058C30.0255 20.0138 29.9485 20.2845 29.7945 20.5178C29.6452 20.7465 29.4375 20.9145 29.1715 21.0218C29.1482 21.0311 29.1412 21.0475 29.1505 21.0708L30.0395 22.9188C30.0489 22.9468 30.0535 22.9631 30.0535 22.9678C30.0535 22.9911 30.0442 23.0098 30.0255 23.0238C30.0069 23.0378 29.9835 23.0448 29.9555 23.0448H28.7795ZM27.5545 19.2718C27.5312 19.2718 27.5195 19.2835 27.5195 19.3068V20.1258C27.5195 20.1491 27.5312 20.1608 27.5545 20.1608H28.2125C28.3619 20.1608 28.4832 20.1211 28.5765 20.0418C28.6699 19.9578 28.7165 19.8505 28.7165 19.7198C28.7165 19.5845 28.6699 19.4771 28.5765 19.3978C28.4832 19.3138 28.3619 19.2718 28.2125 19.2718H27.5545ZM34.5606 19.1668C34.5606 19.1995 34.5512 19.2251 34.5326 19.2438C34.5139 19.2625 34.4882 19.2718 34.4556 19.2718H32.3626C32.3392 19.2718 32.3276 19.2835 32.3276 19.3068V19.9648C32.3276 19.9881 32.3392 19.9998 32.3626 19.9998H33.6576C33.6902 19.9998 33.7159 20.0091 33.7346 20.0278C33.7532 20.0465 33.7626 20.0721 33.7626 20.1048V21.0148C33.7626 21.0475 33.7532 21.0731 33.7346 21.0918C33.7159 21.1105 33.6902 21.1198 33.6576 21.1198H32.3626C32.3392 21.1198 32.3276 21.1315 32.3276 21.1548V21.8828C32.3276 21.9061 32.3392 21.9178 32.3626 21.9178H34.4556C34.4882 21.9178 34.5139 21.9271 34.5326 21.9458C34.5512 21.9645 34.5606 21.9901 34.5606 22.0228V22.9398C34.5606 22.9725 34.5512 22.9981 34.5326 23.0168C34.5139 23.0355 34.4882 23.0448 34.4556 23.0448H31.1166C31.0839 23.0448 31.0582 23.0355 31.0396 23.0168C31.0209 22.9981 31.0116 22.9725 31.0116 22.9398V18.2498C31.0116 18.2171 31.0209 18.1915 31.0396 18.1728C31.0582 18.1541 31.0839 18.1448 31.1166 18.1448H34.4556C34.4882 18.1448 34.5139 18.1541 34.5326 18.1728C34.5512 18.1915 34.5606 18.2171 34.5606 18.2498V19.1668ZM37.3602 23.1008C36.9682 23.1008 36.6252 23.0378 36.3312 22.9118C36.0372 22.7811 35.8085 22.5968 35.6452 22.3588C35.4865 22.1208 35.4072 21.8455 35.4072 21.5328V21.4348C35.4072 21.4021 35.4165 21.3765 35.4352 21.3578C35.4538 21.3391 35.4795 21.3298 35.5122 21.3298H36.5972C36.6298 21.3298 36.6555 21.3391 36.6742 21.3578C36.6928 21.3765 36.7022 21.4021 36.7022 21.4348V21.4768C36.7022 21.6075 36.7698 21.7241 36.9052 21.8268C37.0452 21.9248 37.2295 21.9738 37.4582 21.9738C37.6308 21.9738 37.7545 21.9388 37.8292 21.8688C37.9038 21.7941 37.9412 21.7125 37.9412 21.6238C37.9412 21.5211 37.8945 21.4441 37.8012 21.3928C37.7078 21.3415 37.5375 21.2785 37.2902 21.2038L37.0872 21.1478C36.6252 21.0078 36.2378 20.8211 35.9252 20.5878C35.6125 20.3545 35.4562 20.0161 35.4562 19.5728C35.4562 19.2788 35.5355 19.0198 35.6942 18.7958C35.8528 18.5671 36.0698 18.3921 36.3452 18.2708C36.6252 18.1495 36.9378 18.0888 37.2832 18.0888C37.6472 18.0888 37.9762 18.1565 38.2702 18.2918C38.5688 18.4271 38.8022 18.6185 38.9702 18.8658C39.1428 19.1131 39.2292 19.3955 39.2292 19.7128V19.7758C39.2292 19.8085 39.2198 19.8341 39.2012 19.8528C39.1825 19.8715 39.1568 19.8808 39.1242 19.8808H38.0392C38.0065 19.8808 37.9808 19.8715 37.9622 19.8528C37.9435 19.8341 37.9342 19.8085 37.9342 19.7758V19.7688C37.9342 19.6288 37.8712 19.5028 37.7452 19.3908C37.6192 19.2741 37.4488 19.2158 37.2342 19.2158C37.0848 19.2158 36.9658 19.2461 36.8772 19.3068C36.7932 19.3675 36.7512 19.4515 36.7512 19.5588C36.7512 19.6428 36.7815 19.7151 36.8422 19.7758C36.9075 19.8318 37.0055 19.8878 37.1362 19.9438C37.2668 19.9951 37.4675 20.0628 37.7382 20.1468C37.7755 20.1608 37.9388 20.2121 38.2282 20.3008C38.5222 20.3848 38.7672 20.5411 38.9632 20.7698C39.1592 20.9938 39.2572 21.2668 39.2572 21.5888C39.2572 21.9015 39.1778 22.1721 39.0192 22.4008C38.8605 22.6248 38.6388 22.7975 38.3542 22.9188C38.0695 23.0401 37.7382 23.1008 37.3602 23.1008ZM42.1145 23.1288C41.7272 23.1288 41.3842 23.0518 41.0855 22.8978C40.7915 22.7391 40.5628 22.5198 40.3995 22.2398C40.2362 21.9551 40.1545 21.6261 40.1545 21.2528V19.9368C40.1545 19.5728 40.2362 19.2508 40.3995 18.9708C40.5628 18.6908 40.7915 18.4738 41.0855 18.3198C41.3842 18.1658 41.7272 18.0888 42.1145 18.0888C42.5065 18.0888 42.8495 18.1658 43.1435 18.3198C43.4422 18.4738 43.6732 18.6908 43.8365 18.9708C43.9998 19.2508 44.0815 19.5728 44.0815 19.9368V21.2528C44.0815 21.6261 43.9998 21.9551 43.8365 22.2398C43.6732 22.5198 43.4422 22.7391 43.1435 22.8978C42.8495 23.0518 42.5065 23.1288 42.1145 23.1288ZM42.1145 22.0018C42.3105 22.0018 42.4668 21.9388 42.5835 21.8128C42.7048 21.6821 42.7655 21.5095 42.7655 21.2948V19.9228C42.7655 19.7081 42.7048 19.5378 42.5835 19.4118C42.4668 19.2811 42.3105 19.2158 42.1145 19.2158C41.9232 19.2158 41.7668 19.2811 41.6455 19.4118C41.5288 19.5378 41.4705 19.7081 41.4705 19.9228V21.2948C41.4705 21.5095 41.5288 21.6821 41.6455 21.8128C41.7668 21.9388 41.9232 22.0018 42.1145 22.0018ZM45.1716 23.0448C45.1389 23.0448 45.1132 23.0355 45.0946 23.0168C45.0759 22.9981 45.0666 22.9725 45.0666 22.9398V18.2498C45.0666 18.2171 45.0759 18.1915 45.0946 18.1728C45.1132 18.1541 45.1389 18.1448 45.1716 18.1448H46.2776C46.3102 18.1448 46.3359 18.1541 46.3546 18.1728C46.3732 18.1915 46.3826 18.2171 46.3826 18.2498V21.8828C46.3826 21.9061 46.3942 21.9178 46.4176 21.9178H48.5806C48.6132 21.9178 48.6389 21.9271 48.6576 21.9458C48.6762 21.9645 48.6856 21.9901 48.6856 22.0228V22.9398C48.6856 22.9725 48.6762 22.9981 48.6576 23.0168C48.6389 23.0355 48.6132 23.0448 48.5806 23.0448H45.1716ZM50.6249 23.0448C50.5969 23.0448 50.5712 23.0378 50.5479 23.0238C50.5245 23.0051 50.5105 22.9818 50.5059 22.9538L49.1269 18.2638C49.1222 18.2545 49.1199 18.2428 49.1199 18.2288C49.1199 18.1728 49.1525 18.1448 49.2179 18.1448H50.4149C50.4755 18.1448 50.5129 18.1751 50.5269 18.2358L51.2269 21.1898C51.2315 21.2085 51.2385 21.2178 51.2479 21.2178C51.2572 21.2178 51.2642 21.2085 51.2689 21.1898L51.9479 18.2358C51.9619 18.1751 51.9992 18.1448 52.0599 18.1448H53.2289C53.2662 18.1448 53.2919 18.1565 53.3059 18.1798C53.3245 18.1985 53.3292 18.2265 53.3199 18.2638L51.9269 22.9538C51.9222 22.9818 51.9082 23.0051 51.8849 23.0238C51.8615 23.0378 51.8359 23.0448 51.8079 23.0448H50.6249ZM57.801 19.1668C57.801 19.1995 57.7916 19.2251 57.773 19.2438C57.7543 19.2625 57.7286 19.2718 57.696 19.2718H55.603C55.5796 19.2718 55.568 19.2835 55.568 19.3068V19.9648C55.568 19.9881 55.5796 19.9998 55.603 19.9998H56.898C56.9306 19.9998 56.9563 20.0091 56.975 20.0278C56.9936 20.0465 57.003 20.0721 57.003 20.1048V21.0148C57.003 21.0475 56.9936 21.0731 56.975 21.0918C56.9563 21.1105 56.9306 21.1198 56.898 21.1198H55.603C55.5796 21.1198 55.568 21.1315 55.568 21.1548V21.8828C55.568 21.9061 55.5796 21.9178 55.603 21.9178H57.696C57.7286 21.9178 57.7543 21.9271 57.773 21.9458C57.7916 21.9645 57.801 21.9901 57.801 22.0228V22.9398C57.801 22.9725 57.7916 22.9981 57.773 23.0168C57.7543 23.0355 57.7286 23.0448 57.696 23.0448H54.357C54.3243 23.0448 54.2986 23.0355 54.28 23.0168C54.2613 22.9981 54.252 22.9725 54.252 22.9398V18.2498C54.252 18.2171 54.2613 18.1915 54.28 18.1728C54.2986 18.1541 54.3243 18.1448 54.357 18.1448H57.696C57.7286 18.1448 57.7543 18.1541 57.773 18.1728C57.7916 18.1915 57.801 18.2171 57.801 18.2498V19.1668ZM58.8506 23.0448C58.8179 23.0448 58.7922 23.0355 58.7736 23.0168C58.7549 22.9981 58.7456 22.9725 58.7456 22.9398V18.2498C58.7456 18.2171 58.7549 18.1915 58.7736 18.1728C58.7922 18.1541 58.8179 18.1448 58.8506 18.1448H60.6496C61.0276 18.1448 61.3612 18.2101 61.6506 18.3408C61.9446 18.4715 62.1709 18.6558 62.3296 18.8938C62.4882 19.1318 62.5676 19.4071 62.5676 19.7198V21.4698C62.5676 21.7825 62.4882 22.0578 62.3296 22.2958C62.1709 22.5338 61.9446 22.7181 61.6506 22.8488C61.3612 22.9795 61.0276 23.0448 60.6496 23.0448H58.8506ZM60.0616 21.8828C60.0616 21.9061 60.0732 21.9178 60.0966 21.9178H60.6986C60.8572 21.9178 60.9879 21.8571 61.0906 21.7358C61.1932 21.6098 61.2469 21.4465 61.2516 21.2458V19.9438C61.2516 19.7431 61.2002 19.5821 61.0976 19.4608C60.9949 19.3348 60.8596 19.2718 60.6916 19.2718H60.0966C60.0732 19.2718 60.0616 19.2835 60.0616 19.3068V21.8828ZM69.1379 18.1448C69.1705 18.1448 69.1962 18.1541 69.2149 18.1728C69.2335 18.1915 69.2429 18.2171 69.2429 18.2498V19.1738C69.2429 19.2065 69.2335 19.2321 69.2149 19.2508C69.1962 19.2695 69.1705 19.2788 69.1379 19.2788H67.9619C67.9385 19.2788 67.9269 19.2905 67.9269 19.3138V22.9398C67.9269 22.9725 67.9175 22.9981 67.8989 23.0168C67.8802 23.0355 67.8545 23.0448 67.8219 23.0448H66.7159C66.6832 23.0448 66.6575 23.0355 66.6389 23.0168C66.6202 22.9981 66.6109 22.9725 66.6109 22.9398V19.3138C66.6109 19.2905 66.5992 19.2788 66.5759 19.2788H65.4349C65.4022 19.2788 65.3765 19.2695 65.3579 19.2508C65.3392 19.2321 65.3299 19.2065 65.3299 19.1738V18.2498C65.3299 18.2171 65.3392 18.1915 65.3579 18.1728C65.3765 18.1541 65.4022 18.1448 65.4349 18.1448H69.1379ZM70.2464 23.0448C70.2137 23.0448 70.188 23.0355 70.1694 23.0168C70.1507 22.9981 70.1414 22.9725 70.1414 22.9398V18.2498C70.1414 18.2171 70.1507 18.1915 70.1694 18.1728C70.188 18.1541 70.2137 18.1448 70.2464 18.1448H71.3524C71.385 18.1448 71.4107 18.1541 71.4294 18.1728C71.448 18.1915 71.4574 18.2171 71.4574 18.2498V22.9398C71.4574 22.9725 71.448 22.9981 71.4294 23.0168C71.4107 23.0355 71.385 23.0448 71.3524 23.0448H70.2464ZM74.3711 23.1008C73.9885 23.1008 73.6501 23.0261 73.3561 22.8768C73.0668 22.7275 72.8405 22.5175 72.6771 22.2468C72.5185 21.9715 72.4391 21.6541 72.4391 21.2948V19.8808C72.4391 19.5261 72.5185 19.2135 72.6771 18.9428C72.8405 18.6721 73.0668 18.4621 73.3561 18.3128C73.6501 18.1635 73.9885 18.0888 74.3711 18.0888C74.7538 18.0888 75.0898 18.1588 75.3791 18.2988C75.6731 18.4388 75.8995 18.6371 76.0581 18.8938C76.2215 19.1458 76.3031 19.4398 76.3031 19.7758C76.3031 19.8178 76.2681 19.8435 76.1981 19.8528L75.0921 19.9228H75.0711C75.0151 19.9228 74.9871 19.8971 74.9871 19.8458C74.9871 19.6545 74.9311 19.5028 74.8191 19.3908C74.7071 19.2741 74.5578 19.2158 74.3711 19.2158C74.1845 19.2158 74.0351 19.2741 73.9231 19.3908C73.8111 19.5028 73.7551 19.6545 73.7551 19.8458V21.3508C73.7551 21.5375 73.8111 21.6891 73.9231 21.8058C74.0351 21.9178 74.1845 21.9738 74.3711 21.9738C74.5578 21.9738 74.7071 21.9178 74.8191 21.8058C74.9311 21.6891 74.9871 21.5375 74.9871 21.3508C74.9871 21.3228 74.9965 21.3018 75.0151 21.2878C75.0338 21.2738 75.0595 21.2691 75.0921 21.2738L76.1981 21.3298C76.2681 21.3345 76.3031 21.3578 76.3031 21.3998C76.3031 21.7358 76.2215 22.0321 76.0581 22.2888C75.8995 22.5455 75.6731 22.7461 75.3791 22.8908C75.0898 23.0308 74.7538 23.1008 74.3711 23.1008ZM77.3742 23.0448C77.3415 23.0448 77.3158 23.0355 77.2972 23.0168C77.2785 22.9981 77.2692 22.9725 77.2692 22.9398V18.2498C77.2692 18.2171 77.2785 18.1915 77.2972 18.1728C77.3158 18.1541 77.3415 18.1448 77.3742 18.1448H78.4802C78.5128 18.1448 78.5385 18.1541 78.5572 18.1728C78.5758 18.1915 78.5852 18.2171 78.5852 18.2498V19.9228C78.5852 19.9368 78.5898 19.9461 78.5992 19.9508C78.6085 19.9555 78.6178 19.9508 78.6272 19.9368L79.8452 18.2078C79.8732 18.1658 79.9175 18.1448 79.9782 18.1448H81.2312C81.2872 18.1448 81.3152 18.1658 81.3152 18.2078C81.3152 18.2265 81.3082 18.2475 81.2942 18.2708L79.8382 20.2938C79.8288 20.3078 79.8288 20.3241 79.8382 20.3428L81.3432 22.9188C81.3572 22.9375 81.3642 22.9585 81.3642 22.9818C81.3642 23.0238 81.3338 23.0448 81.2732 23.0448H80.0342C79.9735 23.0448 79.9315 23.0215 79.9082 22.9748L78.9422 21.2528C78.9375 21.2388 78.9305 21.2318 78.9212 21.2318C78.9118 21.2318 78.9025 21.2388 78.8932 21.2528L78.5992 21.7008C78.5898 21.7195 78.5852 21.7335 78.5852 21.7428V22.9398C78.5852 22.9725 78.5758 22.9981 78.5572 23.0168C78.5385 23.0355 78.5128 23.0448 78.4802 23.0448H77.3742ZM85.7698 19.1668C85.7698 19.1995 85.7604 19.2251 85.7418 19.2438C85.7231 19.2625 85.6974 19.2718 85.6648 19.2718H83.5718C83.5484 19.2718 83.5368 19.2835 83.5368 19.3068V19.9648C83.5368 19.9881 83.5484 19.9998 83.5718 19.9998H84.8668C84.8994 19.9998 84.9251 20.0091 84.9438 20.0278C84.9624 20.0465 84.9718 20.0721 84.9718 20.1048V21.0148C84.9718 21.0475 84.9624 21.0731 84.9438 21.0918C84.9251 21.1105 84.8994 21.1198 84.8668 21.1198H83.5718C83.5484 21.1198 83.5368 21.1315 83.5368 21.1548V21.8828C83.5368 21.9061 83.5484 21.9178 83.5718 21.9178H85.6648C85.6974 21.9178 85.7231 21.9271 85.7418 21.9458C85.7604 21.9645 85.7698 21.9901 85.7698 22.0228V22.9398C85.7698 22.9725 85.7604 22.9981 85.7418 23.0168C85.7231 23.0355 85.6974 23.0448 85.6648 23.0448H82.3258C82.2931 23.0448 82.2674 23.0355 82.2488 23.0168C82.2301 22.9981 82.2208 22.9725 82.2208 22.9398V18.2498C82.2208 18.2171 82.2301 18.1915 82.2488 18.1728C82.2674 18.1541 82.2931 18.1448 82.3258 18.1448H85.6648C85.6974 18.1448 85.7231 18.1541 85.7418 18.1728C85.7604 18.1915 85.7698 18.2171 85.7698 18.2498V19.1668ZM90.3754 18.1448C90.408 18.1448 90.4337 18.1541 90.4524 18.1728C90.471 18.1915 90.4804 18.2171 90.4804 18.2498V19.1738C90.4804 19.2065 90.471 19.2321 90.4524 19.2508C90.4337 19.2695 90.408 19.2788 90.3754 19.2788H89.1994C89.176 19.2788 89.1644 19.2905 89.1644 19.3138V22.9398C89.1644 22.9725 89.155 22.9981 89.1364 23.0168C89.1177 23.0355 89.092 23.0448 89.0594 23.0448H87.9534C87.9207 23.0448 87.895 23.0355 87.8764 23.0168C87.8577 22.9981 87.8484 22.9725 87.8484 22.9398V19.3138C87.8484 19.2905 87.8367 19.2788 87.8134 19.2788H86.6724C86.6397 19.2788 86.614 19.2695 86.5954 19.2508C86.5767 19.2321 86.5674 19.2065 86.5674 19.1738V18.2498C86.5674 18.2171 86.5767 18.1915 86.5954 18.1728C86.614 18.1541 86.6397 18.1448 86.6724 18.1448H90.3754ZM93.1791 23.1008C92.7871 23.1008 92.4441 23.0378 92.1501 22.9118C91.8561 22.7811 91.6275 22.5968 91.4641 22.3588C91.3055 22.1208 91.2261 21.8455 91.2261 21.5328V21.4348C91.2261 21.4021 91.2355 21.3765 91.2541 21.3578C91.2728 21.3391 91.2985 21.3298 91.3311 21.3298H92.4161C92.4488 21.3298 92.4745 21.3391 92.4931 21.3578C92.5118 21.3765 92.5211 21.4021 92.5211 21.4348V21.4768C92.5211 21.6075 92.5888 21.7241 92.7241 21.8268C92.8641 21.9248 93.0485 21.9738 93.2771 21.9738C93.4498 21.9738 93.5735 21.9388 93.6481 21.8688C93.7228 21.7941 93.7601 21.7125 93.7601 21.6238C93.7601 21.5211 93.7135 21.4441 93.6201 21.3928C93.5268 21.3415 93.3565 21.2785 93.1091 21.2038L92.9061 21.1478C92.4441 21.0078 92.0568 20.8211 91.7441 20.5878C91.4315 20.3545 91.2751 20.0161 91.2751 19.5728C91.2751 19.2788 91.3545 19.0198 91.5131 18.7958C91.6718 18.5671 91.8888 18.3921 92.1641 18.2708C92.4441 18.1495 92.7568 18.0888 93.1021 18.0888C93.4661 18.0888 93.7951 18.1565 94.0891 18.2918C94.3878 18.4271 94.6211 18.6185 94.7891 18.8658C94.9618 19.1131 95.0481 19.3955 95.0481 19.7128V19.7758C95.0481 19.8085 95.0388 19.8341 95.0201 19.8528C95.0015 19.8715 94.9758 19.8808 94.9431 19.8808H93.8581C93.8255 19.8808 93.7998 19.8715 93.7811 19.8528C93.7625 19.8341 93.7531 19.8085 93.7531 19.7758V19.7688C93.7531 19.6288 93.6901 19.5028 93.5641 19.3908C93.4381 19.2741 93.2678 19.2158 93.0531 19.2158C92.9038 19.2158 92.7848 19.2461 92.6961 19.3068C92.6121 19.3675 92.5701 19.4515 92.5701 19.5588C92.5701 19.6428 92.6005 19.7151 92.6611 19.7758C92.7265 19.8318 92.8245 19.8878 92.9551 19.9438C93.0858 19.9951 93.2865 20.0628 93.5571 20.1468C93.5945 20.1608 93.7578 20.2121 94.0471 20.3008C94.3411 20.3848 94.5861 20.5411 94.7821 20.7698C94.9781 20.9938 95.0761 21.2668 95.0761 21.5888C95.0761 21.9015 94.9968 22.1721 94.8381 22.4008C94.6795 22.6248 94.4578 22.7975 94.1731 22.9188C93.8885 23.0401 93.5571 23.1008 93.1791 23.1008Z" fill="#292B4D"/>
<g clip-path="url(#clip1_122_387)">
<path d="M42.372 48.4233C42.3613 48.4447 42.3613 48.466 42.372 48.4874C42.3827 48.4981 42.3988 48.5035 42.4202 48.5035H47.2496C47.3566 48.5035 47.4101 48.557 47.4101 48.6639V49.6748C47.4101 49.7817 47.3566 49.8352 47.2496 49.8352H40.5269C40.4199 49.8352 40.3664 49.7817 40.3664 49.6748V48.696C40.3664 48.6211 40.3932 48.557 40.4466 48.5035C40.8103 48.0863 41.6447 47.1076 42.9496 45.5673L44.0567 44.2356C45.0515 43.0482 45.5489 42.1283 45.5489 41.4759C45.5489 40.9731 45.3778 40.572 45.0355 40.2725C44.7039 39.9623 44.26 39.8072 43.7037 39.8072C43.1475 39.8072 42.7036 39.9623 42.372 40.2725C42.0404 40.5827 41.88 40.9892 41.8907 41.4919V41.9732C41.8907 42.0802 41.8372 42.1337 41.7302 42.1337H40.4948C40.3878 42.1337 40.3343 42.0802 40.3343 41.9732V41.2833C40.3557 40.7271 40.5108 40.2351 40.7996 39.8072C41.0991 39.3793 41.5003 39.0531 42.003 38.8285C42.5057 38.5931 43.0726 38.4755 43.7037 38.4755C44.3883 38.4755 44.9873 38.6038 45.5008 38.8606C46.0142 39.1173 46.41 39.4703 46.6881 39.9195C46.9662 40.3688 47.1052 40.8769 47.1052 41.4438C47.1052 42.3316 46.6239 43.3798 45.6612 44.5886C45.2333 45.1341 44.7253 45.7491 44.137 46.4337C43.5486 47.1076 42.9603 47.7708 42.372 48.4233Z" fill="#F2594B"/>
<rect x="16" y="35.361" width="16" height="16.1649" rx="3.0084" fill="#F2594B"/>
<path fill-rule="evenodd" clip-rule="evenodd" d="M26.9089 41.0692H21.0907C20.5693 41.0692 20.1453 41.511 20.1453 42.0543V45.8429C20.1453 46.3862 20.5696 46.828 21.0907 46.828H26.9089C27.4304 46.828 27.8544 46.3858 27.8544 45.8429V42.0543C27.8544 41.511 27.4304 41.0692 26.9089 41.0692ZM26.909 42.0018C26.941 42.0018 26.9656 42.0275 26.9656 42.0543V45.8429C26.9656 45.8695 26.9408 45.8954 26.909 45.8954H21.0909C21.0591 45.8954 21.0343 45.8695 21.0343 45.8429V42.0543C21.0343 42.0275 21.059 42.0018 21.0909 42.0018H26.909ZM26.5425 42.7092C26.5439 42.7112 26.5455 42.7115 26.5472 42.7102L26.3922 42.8262L26.3843 42.819L26.5438 42.6997C26.5412 42.7016 26.5404 42.7063 26.5425 42.7092ZM21.6155 42.8185L23.7975 44.4415C23.859 44.4871 23.9322 44.5112 24.007 44.5112C24.0825 44.5112 24.1555 44.487 24.2172 44.4405L26.3843 42.819C26.2338 42.6866 26.0112 42.6716 25.8443 42.7971L24.0064 44.0382L22.154 42.796C21.987 42.6717 21.7656 42.6865 21.6155 42.8185ZM21.6077 42.8255L23.7937 44.4515C23.9218 44.5465 24.0933 44.5465 24.2211 44.4504L26.3922 42.8262C26.4163 42.8484 26.4383 42.8737 26.4579 42.902C26.6007 43.1094 26.5552 43.3981 26.3569 43.5458L24.4757 44.8196C24.3383 44.9231 24.1745 44.9774 24.0068 44.9774C23.8408 44.9774 23.6778 44.9238 23.5405 44.8219L21.6438 43.5468C21.4449 43.3995 21.3988 43.111 21.5407 42.9031C21.5606 42.8741 21.5831 42.8482 21.6077 42.8255ZM21.6077 42.8255L21.6155 42.8185L21.4562 42.7C21.4586 42.7017 21.4593 42.7061 21.4575 42.7088C21.456 42.7109 21.454 42.7112 21.4525 42.7101L21.6077 42.8255Z" fill="white"/>
<path d="M18.384 69.4734C17.9733 69.4734 17.616 69.4094 17.312 69.2814C17.0133 69.1534 16.7813 68.9721 16.616 68.7374C16.456 68.5028 16.376 68.2281 16.376 67.9134V67.6814C16.376 67.6281 16.4027 67.6014 16.456 67.6014H17.04C17.0933 67.6014 17.12 67.6281 17.12 67.6814V67.8734C17.12 68.1454 17.2373 68.3694 17.472 68.5454C17.7067 68.7214 18.0293 68.8094 18.44 68.8094C18.808 68.8094 19.0853 68.7321 19.272 68.5774C19.4587 68.4228 19.552 68.2201 19.552 67.9694C19.552 67.8041 19.504 67.6628 19.408 67.5454C19.312 67.4281 19.1707 67.3214 18.984 67.2254C18.8027 67.1241 18.536 67.0041 18.184 66.8654C17.7947 66.7161 17.4853 66.5801 17.256 66.4574C17.032 66.3348 16.8453 66.1748 16.696 65.9774C16.5467 65.7748 16.472 65.5214 16.472 65.2174C16.472 64.7588 16.6347 64.3988 16.96 64.1374C17.2907 63.8761 17.736 63.7454 18.296 63.7454C18.6907 63.7454 19.0373 63.8121 19.336 63.9454C19.6347 64.0788 19.864 64.2654 20.024 64.5054C20.1893 64.7454 20.272 65.0228 20.272 65.3374V65.4974C20.272 65.5508 20.2453 65.5774 20.192 65.5774H19.592C19.5387 65.5774 19.512 65.5508 19.512 65.4974V65.3774C19.512 65.1001 19.4 64.8708 19.176 64.6894C18.9573 64.5028 18.6533 64.4094 18.264 64.4094C17.9333 64.4094 17.6773 64.4788 17.496 64.6174C17.3147 64.7508 17.224 64.9454 17.224 65.2014C17.224 65.3774 17.2693 65.5214 17.36 65.6334C17.4507 65.7454 17.584 65.8468 17.76 65.9374C17.9413 66.0228 18.216 66.1348 18.584 66.2734C18.9627 66.4228 19.2693 66.5614 19.504 66.6894C19.7387 66.8121 19.9333 66.9774 20.088 67.1854C20.2427 67.3881 20.32 67.6414 20.32 67.9454C20.32 68.4148 20.1467 68.7881 19.8 69.0654C19.4587 69.3374 18.9867 69.4734 18.384 69.4734ZM24.5591 66.8654C24.5805 67.0841 24.5885 67.3294 24.5831 67.6014C24.5831 67.6548 24.5565 67.6814 24.5031 67.6814H21.9511C21.9298 67.6814 21.9191 67.6921 21.9191 67.7134C21.9191 67.8948 21.9351 68.0334 21.9671 68.1294C22.0258 68.3428 22.1431 68.5108 22.3191 68.6334C22.5005 68.7508 22.7271 68.8094 22.9991 68.8094C23.3938 68.8094 23.6978 68.6468 23.9111 68.3214C23.9378 68.2681 23.9725 68.2601 24.0151 68.2974L24.4711 68.6014C24.5085 68.6334 24.5165 68.6681 24.4951 68.7054C24.3458 68.9454 24.1325 69.1348 23.8551 69.2734C23.5831 69.4121 23.2738 69.4814 22.9271 69.4814C22.5378 69.4814 22.2098 69.3961 21.9431 69.2254C21.6765 69.0548 21.4765 68.8121 21.3431 68.4974C21.2151 68.1828 21.1511 67.8014 21.1511 67.3534C21.1511 66.9641 21.1805 66.6681 21.2391 66.4654C21.3351 66.0974 21.5271 65.8068 21.8151 65.5934C22.1031 65.3801 22.4525 65.2734 22.8631 65.2734C23.4018 65.2734 23.8045 65.4094 24.0711 65.6814C24.3378 65.9481 24.5005 66.3428 24.5591 66.8654ZM22.8631 65.9374C22.6338 65.9374 22.4445 65.9961 22.2951 66.1134C22.1458 66.2254 22.0445 66.3774 21.9911 66.5694C21.9538 66.6868 21.9298 66.8361 21.9191 67.0174C21.9191 67.0388 21.9298 67.0494 21.9511 67.0494H23.7831C23.8045 67.0494 23.8151 67.0388 23.8151 67.0174C23.8045 66.8414 23.7885 66.7108 23.7671 66.6254C23.7138 66.4174 23.6071 66.2521 23.4471 66.1294C23.2925 66.0014 23.0978 65.9374 22.8631 65.9374ZM28.8482 66.8654C28.8695 67.0841 28.8775 67.3294 28.8722 67.6014C28.8722 67.6548 28.8455 67.6814 28.7922 67.6814H26.2402C26.2189 67.6814 26.2082 67.6921 26.2082 67.7134C26.2082 67.8948 26.2242 68.0334 26.2562 68.1294C26.3149 68.3428 26.4322 68.5108 26.6082 68.6334C26.7895 68.7508 27.0162 68.8094 27.2882 68.8094C27.6829 68.8094 27.9869 68.6468 28.2002 68.3214C28.2269 68.2681 28.2615 68.2601 28.3042 68.2974L28.7602 68.6014C28.7975 68.6334 28.8055 68.6681 28.7842 68.7054C28.6349 68.9454 28.4215 69.1348 28.1442 69.2734C27.8722 69.4121 27.5629 69.4814 27.2162 69.4814C26.8269 69.4814 26.4989 69.3961 26.2322 69.2254C25.9655 69.0548 25.7655 68.8121 25.6322 68.4974C25.5042 68.1828 25.4402 67.8014 25.4402 67.3534C25.4402 66.9641 25.4695 66.6681 25.5282 66.4654C25.6242 66.0974 25.8162 65.8068 26.1042 65.5934C26.3922 65.3801 26.7415 65.2734 27.1522 65.2734C27.6909 65.2734 28.0935 65.4094 28.3602 65.6814C28.6269 65.9481 28.7895 66.3428 28.8482 66.8654ZM27.1522 65.9374C26.9229 65.9374 26.7335 65.9961 26.5842 66.1134C26.4349 66.2254 26.3335 66.3774 26.2802 66.5694C26.2429 66.6868 26.2189 66.8361 26.2082 67.0174C26.2082 67.0388 26.2189 67.0494 26.2402 67.0494H28.0722C28.0935 67.0494 28.1042 67.0388 28.1042 67.0174C28.0935 66.8414 28.0775 66.7108 28.0562 66.6254C28.0029 66.4174 27.8962 66.2521 27.7362 66.1294C27.5815 66.0014 27.3869 65.9374 27.1522 65.9374ZM33.4508 65.8894C33.4508 65.9428 33.4241 65.9694 33.3708 65.9694H32.5068C32.4855 65.9694 32.4748 65.9801 32.4748 66.0014V68.1214C32.4748 68.3454 32.5255 68.5081 32.6268 68.6094C32.7281 68.7054 32.8855 68.7534 33.0988 68.7534H33.3308C33.3841 68.7534 33.4108 68.7801 33.4108 68.8334V69.3294C33.4108 69.3828 33.3841 69.4094 33.3308 69.4094C33.1601 69.4201 33.0375 69.4254 32.9628 69.4254C32.5575 69.4254 32.2508 69.3534 32.0428 69.2094C31.8401 69.0601 31.7388 68.7881 31.7388 68.3934V66.0014C31.7388 65.9801 31.7281 65.9694 31.7068 65.9694H31.2188C31.1655 65.9694 31.1388 65.9428 31.1388 65.8894V65.4174C31.1388 65.3641 31.1655 65.3374 31.2188 65.3374H31.7068C31.7281 65.3374 31.7388 65.3268 31.7388 65.3054V64.3614C31.7388 64.3081 31.7655 64.2814 31.8188 64.2814H32.3948C32.4481 64.2814 32.4748 64.3081 32.4748 64.3614V65.3054C32.4748 65.3268 32.4855 65.3374 32.5068 65.3374H33.3708C33.4241 65.3374 33.4508 65.3641 33.4508 65.4174V65.8894ZM34.8599 64.6974C34.7106 64.6974 34.5879 64.6494 34.4919 64.5534C34.3959 64.4574 34.3479 64.3348 34.3479 64.1854C34.3479 64.0361 34.3959 63.9134 34.4919 63.8174C34.5879 63.7214 34.7106 63.6734 34.8599 63.6734C35.0093 63.6734 35.1319 63.7214 35.2279 63.8174C35.3239 63.9134 35.3719 64.0361 35.3719 64.1854C35.3719 64.3348 35.3239 64.4574 35.2279 64.5534C35.1319 64.6494 35.0093 64.6974 34.8599 64.6974ZM34.5399 69.4014C34.4866 69.4014 34.4599 69.3748 34.4599 69.3214V65.4174C34.4599 65.3641 34.4866 65.3374 34.5399 65.3374H35.1479C35.2013 65.3374 35.2279 65.3641 35.2279 65.4174V69.3214C35.2279 69.3748 35.2013 69.4014 35.1479 69.4014H34.5399ZM38.067 69.4734C37.6617 69.4734 37.315 69.3721 37.027 69.1694C36.739 68.9614 36.5417 68.6814 36.435 68.3294C36.355 68.0841 36.315 67.7614 36.315 67.3614C36.315 66.9934 36.355 66.6708 36.435 66.3934C36.5417 66.0521 36.739 65.7801 37.027 65.5774C37.3203 65.3748 37.667 65.2734 38.067 65.2734C38.467 65.2734 38.8163 65.3748 39.115 65.5774C39.4137 65.7801 39.6083 66.0361 39.699 66.3454C39.731 66.4308 39.7523 66.5188 39.763 66.6094C39.763 66.6521 39.739 66.6788 39.691 66.6894L39.091 66.7774H39.075C39.0377 66.7774 39.011 66.7534 38.995 66.7054L38.971 66.5774C38.9283 66.3961 38.8243 66.2441 38.659 66.1214C38.4937 65.9988 38.2937 65.9374 38.059 65.9374C37.8297 65.9374 37.635 65.9988 37.475 66.1214C37.315 66.2441 37.211 66.4068 37.163 66.6094C37.115 66.8014 37.091 67.0548 37.091 67.3694C37.091 67.6788 37.115 67.9294 37.163 68.1214C37.2163 68.3348 37.3203 68.5028 37.475 68.6254C37.635 68.7481 37.8297 68.8094 38.059 68.8094C38.2937 68.8094 38.4937 68.7481 38.659 68.6254C38.8297 68.5028 38.9363 68.3428 38.979 68.1454C38.9843 68.1401 38.9843 68.1348 38.979 68.1294C38.979 68.1188 38.9817 68.1108 38.987 68.1054V68.0734C39.003 68.0308 39.0323 68.0148 39.075 68.0254L39.675 68.1214C39.7177 68.1321 39.739 68.1534 39.739 68.1854V68.2174C39.739 68.2654 39.7257 68.3241 39.699 68.3934C39.6083 68.7188 39.4137 68.9801 39.115 69.1774C38.8163 69.3748 38.467 69.4734 38.067 69.4734ZM40.7259 69.4094C40.6726 69.4094 40.6459 69.3828 40.6459 69.3294V63.8894C40.6459 63.8361 40.6726 63.8094 40.7259 63.8094H41.3339C41.3873 63.8094 41.4139 63.8361 41.4139 63.8894V66.9694C41.4139 66.9801 41.4193 66.9881 41.4299 66.9934C41.4406 66.9988 41.4486 66.9961 41.4539 66.9854L42.9339 65.3774C42.9553 65.3508 42.9873 65.3374 43.0299 65.3374H43.7419C43.7739 65.3374 43.7926 65.3481 43.7979 65.3694C43.8086 65.3854 43.8033 65.4068 43.7819 65.4334L42.7499 66.6254C42.7393 66.6468 42.7366 66.6628 42.7419 66.6734L43.9659 69.3134L43.9739 69.3454C43.9739 69.3881 43.9499 69.4094 43.9019 69.4094H43.2619C43.2193 69.4094 43.1899 69.3881 43.1739 69.3454L42.2219 67.1694C42.2113 67.1428 42.1979 67.1401 42.1819 67.1614L41.4299 67.9934C41.4193 68.0148 41.4139 68.0281 41.4139 68.0334V69.3294C41.4139 69.3828 41.3873 69.4094 41.3339 69.4094H40.7259ZM47.8013 66.8654C47.8226 67.0841 47.8306 67.3294 47.8253 67.6014C47.8253 67.6548 47.7986 67.6814 47.7453 67.6814H45.1933C45.172 67.6814 45.1613 67.6921 45.1613 67.7134C45.1613 67.8948 45.1773 68.0334 45.2093 68.1294C45.268 68.3428 45.3853 68.5108 45.5613 68.6334C45.7426 68.7508 45.9693 68.8094 46.2413 68.8094C46.636 68.8094 46.94 68.6468 47.1533 68.3214C47.18 68.2681 47.2146 68.2601 47.2573 68.2974L47.7133 68.6014C47.7506 68.6334 47.7586 68.6681 47.7373 68.7054C47.588 68.9454 47.3746 69.1348 47.0973 69.2734C46.8253 69.4121 46.516 69.4814 46.1693 69.4814C45.78 69.4814 45.452 69.3961 45.1853 69.2254C44.9186 69.0548 44.7186 68.8121 44.5853 68.4974C44.4573 68.1828 44.3933 67.8014 44.3933 67.3534C44.3933 66.9641 44.4226 66.6681 44.4813 66.4654C44.5773 66.0974 44.7693 65.8068 45.0573 65.5934C45.3453 65.3801 45.6946 65.2734 46.1053 65.2734C46.644 65.2734 47.0466 65.4094 47.3133 65.6814C47.58 65.9481 47.7426 66.3428 47.8013 66.8654ZM46.1053 65.9374C45.876 65.9374 45.6866 65.9961 45.5373 66.1134C45.388 66.2254 45.2866 66.3774 45.2333 66.5694C45.196 66.6868 45.172 66.8361 45.1613 67.0174C45.1613 67.0388 45.172 67.0494 45.1933 67.0494H47.0253C47.0466 67.0494 47.0573 67.0388 47.0573 67.0174C47.0466 66.8414 47.0306 66.7108 47.0093 66.6254C46.956 66.4174 46.8493 66.2521 46.6893 66.1294C46.5346 66.0014 46.34 65.9374 46.1053 65.9374ZM50.7399 65.8894C50.7399 65.9428 50.7132 65.9694 50.6599 65.9694H49.7959C49.7745 65.9694 49.7639 65.9801 49.7639 66.0014V68.1214C49.7639 68.3454 49.8145 68.5081 49.9159 68.6094C50.0172 68.7054 50.1745 68.7534 50.3879 68.7534H50.6199C50.6732 68.7534 50.6999 68.7801 50.6999 68.8334V69.3294C50.6999 69.3828 50.6732 69.4094 50.6199 69.4094C50.4492 69.4201 50.3265 69.4254 50.2519 69.4254C49.8465 69.4254 49.5399 69.3534 49.3319 69.2094C49.1292 69.0601 49.0279 68.7881 49.0279 68.3934V66.0014C49.0279 65.9801 49.0172 65.9694 48.9959 65.9694H48.5079C48.4545 65.9694 48.4279 65.9428 48.4279 65.8894V65.4174C48.4279 65.3641 48.4545 65.3374 48.5079 65.3374H48.9959C49.0172 65.3374 49.0279 65.3268 49.0279 65.3054V64.3614C49.0279 64.3081 49.0545 64.2814 49.1079 64.2814H49.6839C49.7372 64.2814 49.7639 64.3081 49.7639 64.3614V65.3054C49.7639 65.3268 49.7745 65.3374 49.7959 65.3374H50.6599C50.7132 65.3374 50.7399 65.3641 50.7399 65.4174V65.8894ZM53.117 69.4574C52.797 69.4574 52.5143 69.4094 52.269 69.3134C52.029 69.2174 51.8423 69.0868 51.709 68.9214C51.5757 68.7508 51.509 68.5641 51.509 68.3614V68.2734C51.509 68.2201 51.5357 68.1934 51.589 68.1934H52.165C52.2183 68.1934 52.245 68.2201 52.245 68.2734V68.3134C52.245 68.4628 52.325 68.5934 52.485 68.7054C52.6503 68.8174 52.8583 68.8734 53.109 68.8734C53.349 68.8734 53.5437 68.8228 53.693 68.7214C53.8423 68.6148 53.917 68.4814 53.917 68.3214C53.917 68.1668 53.8477 68.0521 53.709 67.9774C53.5703 67.8974 53.3463 67.8148 53.037 67.7294C52.733 67.6441 52.477 67.5588 52.269 67.4734C52.0663 67.3828 51.893 67.2574 51.749 67.0974C51.6103 66.9321 51.541 66.7214 51.541 66.4654C51.541 66.1081 51.6797 65.8254 51.957 65.6174C52.2397 65.4041 52.613 65.2974 53.077 65.2974C53.3863 65.2974 53.6583 65.3481 53.893 65.4494C54.133 65.5454 54.317 65.6814 54.445 65.8574C54.573 66.0334 54.637 66.2308 54.637 66.4494V66.4734C54.637 66.5268 54.6103 66.5534 54.557 66.5534H53.997C53.9437 66.5534 53.917 66.5268 53.917 66.4734V66.4494C53.917 66.2948 53.8397 66.1668 53.685 66.0654C53.5357 65.9588 53.3303 65.9054 53.069 65.9054C52.8343 65.9054 52.6423 65.9508 52.493 66.0414C52.349 66.1321 52.277 66.2548 52.277 66.4094C52.277 66.5641 52.3463 66.6814 52.485 66.7614C52.629 66.8414 52.8583 66.9268 53.173 67.0174C53.4823 67.1028 53.7383 67.1881 53.941 67.2734C54.149 67.3534 54.325 67.4761 54.469 67.6414C54.613 67.8014 54.685 68.0121 54.685 68.2734C54.685 68.6361 54.541 68.9241 54.253 69.1374C53.9703 69.3508 53.5917 69.4574 53.117 69.4574Z" fill="#F2CD5E"/>
<path d="M59.193 65.8894C59.193 65.9428 59.1663 65.9694 59.113 65.9694H58.249C58.2277 65.9694 58.217 65.9801 58.217 66.0014V68.1214C58.217 68.3454 58.2677 68.5081 58.369 68.6094C58.4703 68.7054 58.6277 68.7534 58.841 68.7534H59.073C59.1263 68.7534 59.153 68.7801 59.153 68.8334V69.3294C59.153 69.3828 59.1263 69.4094 59.073 69.4094C58.9023 69.4201 58.7797 69.4254 58.705 69.4254C58.2997 69.4254 57.993 69.3534 57.785 69.2094C57.5823 69.0601 57.481 68.7881 57.481 68.3934V66.0014C57.481 65.9801 57.4703 65.9694 57.449 65.9694H56.961C56.9077 65.9694 56.881 65.9428 56.881 65.8894V65.4174C56.881 65.3641 56.9077 65.3374 56.961 65.3374H57.449C57.4703 65.3374 57.481 65.3268 57.481 65.3054V64.3614C57.481 64.3081 57.5077 64.2814 57.561 64.2814H58.137C58.1903 64.2814 58.217 64.3081 58.217 64.3614V65.3054C58.217 65.3268 58.2277 65.3374 58.249 65.3374H59.113C59.1663 65.3374 59.193 65.3641 59.193 65.4174V65.8894ZM61.9541 65.2814C62.3915 65.2814 62.7381 65.4094 62.9941 65.6654C63.2501 65.9161 63.3781 66.2574 63.3781 66.6894V69.3294C63.3781 69.3828 63.3515 69.4094 63.2981 69.4094H62.6901C62.6368 69.4094 62.6101 69.3828 62.6101 69.3294V66.8414C62.6101 66.5748 62.5328 66.3588 62.3781 66.1934C62.2235 66.0281 62.0181 65.9454 61.7621 65.9454C61.5115 65.9454 61.3061 66.0281 61.1461 66.1934C60.9861 66.3588 60.9061 66.5721 60.9061 66.8334V69.3294C60.9061 69.3828 60.8795 69.4094 60.8261 69.4094H60.2181C60.1648 69.4094 60.1381 69.3828 60.1381 69.3294V63.8894C60.1381 63.8361 60.1648 63.8094 60.2181 63.8094H60.8261C60.8795 63.8094 60.9061 63.8361 60.9061 63.8894V65.7054C60.9061 65.7161 60.9088 65.7241 60.9141 65.7294C60.9248 65.7348 60.9328 65.7321 60.9381 65.7214C61.1675 65.4281 61.5061 65.2814 61.9541 65.2814ZM65.9621 65.2734C66.2874 65.2734 66.5701 65.3321 66.8101 65.4494C67.0554 65.5614 67.2421 65.7214 67.3701 65.9294C67.5034 66.1321 67.5701 66.3641 67.5701 66.6254V69.3294C67.5701 69.3828 67.5434 69.4094 67.4901 69.4094H66.8821C66.8287 69.4094 66.8021 69.3828 66.8021 69.3294V69.0414C66.8021 69.0148 66.7887 69.0094 66.7621 69.0254C66.6234 69.1694 66.4527 69.2814 66.2501 69.3614C66.0527 69.4361 65.8314 69.4734 65.5861 69.4734C65.1914 69.4734 64.8634 69.3748 64.6021 69.1774C64.3461 68.9748 64.2181 68.6708 64.2181 68.2654C64.2181 67.8494 64.3621 67.5241 64.6501 67.2894C64.9434 67.0494 65.3514 66.9294 65.8741 66.9294H66.7701C66.7914 66.9294 66.8021 66.9188 66.8021 66.8974V66.6814C66.8021 66.4468 66.7327 66.2654 66.5941 66.1374C66.4607 66.0041 66.2554 65.9374 65.9781 65.9374C65.7541 65.9374 65.5701 65.9828 65.4261 66.0734C65.2874 66.1588 65.2021 66.2761 65.1701 66.4254C65.1541 66.4788 65.1221 66.5028 65.0741 66.4974L64.4261 66.4094C64.3727 66.3988 64.3487 66.3774 64.3541 66.3454C64.3967 66.0308 64.5647 65.7748 64.8581 65.5774C65.1514 65.3748 65.5194 65.2734 65.9621 65.2734ZM65.7541 68.8254C66.0367 68.8254 66.2821 68.7508 66.4901 68.6014C66.6981 68.4521 66.8021 68.2628 66.8021 68.0334V67.5614C66.8021 67.5401 66.7914 67.5294 66.7701 67.5294H66.0181C65.7034 67.5294 65.4527 67.5908 65.2661 67.7134C65.0794 67.8361 64.9861 68.0068 64.9861 68.2254C64.9861 68.4228 65.0554 68.5721 65.1941 68.6734C65.3381 68.7748 65.5247 68.8254 65.7541 68.8254ZM70.5602 65.8894C70.5602 65.9428 70.5335 65.9694 70.4802 65.9694H69.6162C69.5949 65.9694 69.5842 65.9801 69.5842 66.0014V68.1214C69.5842 68.3454 69.6349 68.5081 69.7362 68.6094C69.8375 68.7054 69.9949 68.7534 70.2082 68.7534H70.4402C70.4935 68.7534 70.5202 68.7801 70.5202 68.8334V69.3294C70.5202 69.3828 70.4935 69.4094 70.4402 69.4094C70.2695 69.4201 70.1469 69.4254 70.0722 69.4254C69.6669 69.4254 69.3602 69.3534 69.1522 69.2094C68.9495 69.0601 68.8482 68.7881 68.8482 68.3934V66.0014C68.8482 65.9801 68.8375 65.9694 68.8162 65.9694H68.3282C68.2749 65.9694 68.2482 65.9428 68.2482 65.8894V65.4174C68.2482 65.3641 68.2749 65.3374 68.3282 65.3374H68.8162C68.8375 65.3374 68.8482 65.3268 68.8482 65.3054V64.3614C68.8482 64.3081 68.8749 64.2814 68.9282 64.2814H69.5042C69.5575 64.2814 69.5842 64.3081 69.5842 64.3614V65.3054C69.5842 65.3268 69.5949 65.3374 69.6162 65.3374H70.4802C70.5335 65.3374 70.5602 65.3641 70.5602 65.4174V65.8894ZM74.9229 65.2814C75.3602 65.2814 75.7069 65.4094 75.9629 65.6654C76.2189 65.9161 76.3469 66.2574 76.3469 66.6894V69.3294C76.3469 69.3828 76.3202 69.4094 76.2669 69.4094H75.6589C75.6055 69.4094 75.5789 69.3828 75.5789 69.3294V66.8414C75.5789 66.5748 75.5015 66.3588 75.3469 66.1934C75.1922 66.0281 74.9869 65.9454 74.7309 65.9454C74.4802 65.9454 74.2749 66.0281 74.1149 66.1934C73.9549 66.3588 73.8749 66.5721 73.8749 66.8334V69.3294C73.8749 69.3828 73.8482 69.4094 73.7949 69.4094H73.1869C73.1335 69.4094 73.1069 69.3828 73.1069 69.3294V63.8894C73.1069 63.8361 73.1335 63.8094 73.1869 63.8094H73.7949C73.8482 63.8094 73.8749 63.8361 73.8749 63.8894V65.7054C73.8749 65.7161 73.8775 65.7241 73.8829 65.7294C73.8935 65.7348 73.9015 65.7321 73.9069 65.7214C74.1362 65.4281 74.4749 65.2814 74.9229 65.2814ZM78.9308 65.2734C79.2561 65.2734 79.5388 65.3321 79.7788 65.4494C80.0241 65.5614 80.2108 65.7214 80.3388 65.9294C80.4721 66.1321 80.5388 66.3641 80.5388 66.6254V69.3294C80.5388 69.3828 80.5121 69.4094 80.4588 69.4094H79.8508C79.7975 69.4094 79.7708 69.3828 79.7708 69.3294V69.0414C79.7708 69.0148 79.7575 69.0094 79.7308 69.0254C79.5921 69.1694 79.4215 69.2814 79.2188 69.3614C79.0215 69.4361 78.8001 69.4734 78.5548 69.4734C78.1601 69.4734 77.8321 69.3748 77.5708 69.1774C77.3148 68.9748 77.1868 68.6708 77.1868 68.2654C77.1868 67.8494 77.3308 67.5241 77.6188 67.2894C77.9121 67.0494 78.3201 66.9294 78.8428 66.9294H79.7388C79.7601 66.9294 79.7708 66.9188 79.7708 66.8974V66.6814C79.7708 66.4468 79.7015 66.2654 79.5628 66.1374C79.4295 66.0041 79.2241 65.9374 78.9468 65.9374C78.7228 65.9374 78.5388 65.9828 78.3948 66.0734C78.2561 66.1588 78.1708 66.2761 78.1388 66.4254C78.1228 66.4788 78.0908 66.5028 78.0428 66.4974L77.3948 66.4094C77.3415 66.3988 77.3175 66.3774 77.3228 66.3454C77.3655 66.0308 77.5335 65.7748 77.8268 65.5774C78.1201 65.3748 78.4881 65.2734 78.9308 65.2734ZM78.7228 68.8254C79.0055 68.8254 79.2508 68.7508 79.4588 68.6014C79.6668 68.4521 79.7708 68.2628 79.7708 68.0334V67.5614C79.7708 67.5401 79.7601 67.5294 79.7388 67.5294H78.9868C78.6721 67.5294 78.4215 67.5908 78.2348 67.7134C78.0481 67.8361 77.9548 68.0068 77.9548 68.2254C77.9548 68.4228 78.0241 68.5721 78.1628 68.6734C78.3068 68.7748 78.4935 68.8254 78.7228 68.8254ZM82.5773 69.4094C82.5293 69.4094 82.4973 69.3881 82.4813 69.3454L81.1773 65.4254L81.1693 65.3934C81.1693 65.3561 81.1933 65.3374 81.2413 65.3374H81.9133C81.9613 65.3374 81.9933 65.3588 82.0093 65.4014L82.8893 68.2974C82.8946 68.3081 82.9026 68.3134 82.9133 68.3134C82.924 68.3134 82.932 68.3081 82.9373 68.2974L83.8093 65.4014C83.8253 65.3588 83.8573 65.3374 83.9053 65.3374L84.5773 65.3454C84.636 65.3454 84.6573 65.3748 84.6413 65.4334L83.3453 69.3454C83.3293 69.3881 83.2973 69.4094 83.2493 69.4094H82.5773ZM88.5513 66.8654C88.5726 67.0841 88.5806 67.3294 88.5753 67.6014C88.5753 67.6548 88.5486 67.6814 88.4953 67.6814H85.9433C85.922 67.6814 85.9113 67.6921 85.9113 67.7134C85.9113 67.8948 85.9273 68.0334 85.9593 68.1294C86.018 68.3428 86.1353 68.5108 86.3113 68.6334C86.4926 68.7508 86.7193 68.8094 86.9913 68.8094C87.386 68.8094 87.69 68.6468 87.9033 68.3214C87.93 68.2681 87.9646 68.2601 88.0073 68.2974L88.4633 68.6014C88.5006 68.6334 88.5086 68.6681 88.4873 68.7054C88.338 68.9454 88.1246 69.1348 87.8473 69.2734C87.5753 69.4121 87.266 69.4814 86.9193 69.4814C86.53 69.4814 86.202 69.3961 85.9353 69.2254C85.6686 69.0548 85.4686 68.8121 85.3353 68.4974C85.2073 68.1828 85.1433 67.8014 85.1433 67.3534C85.1433 66.9641 85.1726 66.6681 85.2313 66.4654C85.3273 66.0974 85.5193 65.8068 85.8073 65.5934C86.0953 65.3801 86.4446 65.2734 86.8553 65.2734C87.394 65.2734 87.7966 65.4094 88.0633 65.6814C88.33 65.9481 88.4926 66.3428 88.5513 66.8654ZM86.8553 65.9374C86.626 65.9374 86.4366 65.9961 86.2873 66.1134C86.138 66.2254 86.0366 66.3774 85.9833 66.5694C85.946 66.6868 85.922 66.8361 85.9113 67.0174C85.9113 67.0388 85.922 67.0494 85.9433 67.0494H87.7753C87.7966 67.0494 87.8073 67.0388 87.8073 67.0174C87.7966 66.8414 87.7806 66.7108 87.7593 66.6254C87.706 66.4174 87.5993 66.2521 87.4393 66.1294C87.2846 66.0014 87.09 65.9374 86.8553 65.9374ZM91.3604 65.2814C91.7977 65.2814 92.1444 65.4094 92.4004 65.6654C92.6564 65.9161 92.7844 66.2574 92.7844 66.6894V69.3294C92.7844 69.3828 92.7577 69.4094 92.7044 69.4094H92.0964C92.043 69.4094 92.0164 69.3828 92.0164 69.3294V66.8414C92.0164 66.5748 91.939 66.3588 91.7844 66.1934C91.6297 66.0281 91.4244 65.9454 91.1684 65.9454C90.9177 65.9454 90.7124 66.0281 90.5524 66.1934C90.3924 66.3588 90.3124 66.5721 90.3124 66.8334V69.3294C90.3124 69.3828 90.2857 69.4094 90.2324 69.4094H89.6244C89.571 69.4094 89.5444 69.3828 89.5444 69.3294V65.4174C89.5444 65.3641 89.571 65.3374 89.6244 65.3374H90.2324C90.2857 65.3374 90.3124 65.3641 90.3124 65.4174V65.7054C90.3124 65.7161 90.315 65.7241 90.3204 65.7294C90.331 65.7348 90.339 65.7321 90.3444 65.7214C90.5737 65.4281 90.9124 65.2814 91.3604 65.2814ZM93.4147 65.5214C93.356 65.5214 93.3267 65.4948 93.3267 65.4414L93.2547 63.9054C93.2547 63.8521 93.2787 63.8254 93.3267 63.8254H93.9587C94.0067 63.8254 94.0307 63.8521 94.0307 63.9054L93.9507 65.4414C93.9507 65.4948 93.924 65.5214 93.8707 65.5214H93.4147ZM96.7789 65.8894C96.7789 65.9428 96.7523 65.9694 96.6989 65.9694H95.8349C95.8136 65.9694 95.8029 65.9801 95.8029 66.0014V68.1214C95.8029 68.3454 95.8536 68.5081 95.9549 68.6094C96.0563 68.7054 96.2136 68.7534 96.4269 68.7534H96.6589C96.7123 68.7534 96.7389 68.7801 96.7389 68.8334V69.3294C96.7389 69.3828 96.7123 69.4094 96.6589 69.4094C96.4883 69.4201 96.3656 69.4254 96.2909 69.4254C95.8856 69.4254 95.5789 69.3534 95.3709 69.2094C95.1683 69.0601 95.0669 68.7881 95.0669 68.3934V66.0014C95.0669 65.9801 95.0563 65.9694 95.0349 65.9694H94.5469C94.4936 65.9694 94.4669 65.9428 94.4669 65.8894V65.4174C94.4669 65.3641 94.4936 65.3374 94.5469 65.3374H95.0349C95.0563 65.3374 95.0669 65.3268 95.0669 65.3054V64.3614C95.0669 64.3081 95.0936 64.2814 95.1469 64.2814H95.7229C95.7763 64.2814 95.8029 64.3081 95.8029 64.3614V65.3054C95.8029 65.3268 95.8136 65.3374 95.8349 65.3374H96.6989C96.7523 65.3374 96.7789 65.3641 96.7789 65.4174V65.8894ZM19.848 77.3934C19.9333 77.6654 19.976 77.9881 19.976 78.3614C19.976 78.7614 19.9253 79.1028 19.824 79.3854C19.7067 79.7321 19.52 80.0014 19.264 80.1934C19.0133 80.3801 18.696 80.4734 18.312 80.4734C18.1253 80.4734 17.952 80.4361 17.792 80.3614C17.632 80.2868 17.4933 80.1828 17.376 80.0494C17.3653 80.0388 17.3547 80.0361 17.344 80.0414C17.3387 80.0468 17.336 80.0548 17.336 80.0654V80.3294C17.336 80.3828 17.3093 80.4094 17.256 80.4094H16.648C16.5947 80.4094 16.568 80.3828 16.568 80.3294V74.8894C16.568 74.8361 16.5947 74.8094 16.648 74.8094H17.256C17.3093 74.8094 17.336 74.8361 17.336 74.8894V76.6734C17.336 76.6841 17.3387 76.6921 17.344 76.6974C17.3547 76.7028 17.3653 76.7001 17.376 76.6894C17.4933 76.5561 17.632 76.4548 17.792 76.3854C17.9573 76.3108 18.1307 76.2734 18.312 76.2734C18.712 76.2734 19.04 76.3721 19.296 76.5694C19.552 76.7668 19.736 77.0414 19.848 77.3934ZM19 79.3694C19.1333 79.1188 19.2 78.7881 19.2 78.3774C19.2 77.9401 19.1147 77.5881 18.944 77.3214C18.7893 77.0654 18.552 76.9374 18.232 76.9374C17.9333 76.9374 17.7067 77.0734 17.552 77.3454C17.4133 77.5908 17.344 77.9321 17.344 78.3694C17.344 78.8068 17.408 79.1428 17.536 79.3774C17.696 79.6654 17.9307 79.8094 18.24 79.8094C18.592 79.8094 18.8453 79.6628 19 79.3694ZM24.231 77.8654C24.2523 78.0841 24.2603 78.3294 24.255 78.6014C24.255 78.6548 24.2283 78.6814 24.175 78.6814H21.623C21.6017 78.6814 21.591 78.6921 21.591 78.7134C21.591 78.8948 21.607 79.0334 21.639 79.1294C21.6977 79.3428 21.815 79.5108 21.991 79.6334C22.1723 79.7508 22.399 79.8094 22.671 79.8094C23.0657 79.8094 23.3697 79.6468 23.583 79.3214C23.6097 79.2681 23.6443 79.2601 23.687 79.2974L24.143 79.6014C24.1803 79.6334 24.1883 79.6681 24.167 79.7054C24.0177 79.9454 23.8043 80.1348 23.527 80.2734C23.255 80.4121 22.9457 80.4814 22.599 80.4814C22.2097 80.4814 21.8817 80.3961 21.615 80.2254C21.3483 80.0548 21.1483 79.8121 21.015 79.4974C20.887 79.1828 20.823 78.8014 20.823 78.3534C20.823 77.9641 20.8523 77.6681 20.911 77.4654C21.007 77.0974 21.199 76.8068 21.487 76.5934C21.775 76.3801 22.1243 76.2734 22.535 76.2734C23.0737 76.2734 23.4763 76.4094 23.743 76.6814C24.0097 76.9481 24.1723 77.3428 24.231 77.8654ZM22.535 76.9374C22.3057 76.9374 22.1163 76.9961 21.967 77.1134C21.8177 77.2254 21.7163 77.3774 21.663 77.5694C21.6257 77.6868 21.6017 77.8361 21.591 78.0174C21.591 78.0388 21.6017 78.0494 21.623 78.0494H23.455C23.4763 78.0494 23.487 78.0388 23.487 78.0174C23.4763 77.8414 23.4603 77.7108 23.439 77.6254C23.3857 77.4174 23.279 77.2521 23.119 77.1294C22.9643 77.0014 22.7697 76.9374 22.535 76.9374ZM28.5201 77.8654C28.5414 78.0841 28.5494 78.3294 28.5441 78.6014C28.5441 78.6548 28.5174 78.6814 28.4641 78.6814H25.9121C25.8907 78.6814 25.8801 78.6921 25.8801 78.7134C25.8801 78.8948 25.8961 79.0334 25.9281 79.1294C25.9867 79.3428 26.1041 79.5108 26.2801 79.6334C26.4614 79.7508 26.6881 79.8094 26.9601 79.8094C27.3547 79.8094 27.6587 79.6468 27.8721 79.3214C27.8987 79.2681 27.9334 79.2601 27.9761 79.2974L28.4321 79.6014C28.4694 79.6334 28.4774 79.6681 28.4561 79.7054C28.3067 79.9454 28.0934 80.1348 27.8161 80.2734C27.5441 80.4121 27.2347 80.4814 26.8881 80.4814C26.4987 80.4814 26.1707 80.3961 25.9041 80.2254C25.6374 80.0548 25.4374 79.8121 25.3041 79.4974C25.1761 79.1828 25.1121 78.8014 25.1121 78.3534C25.1121 77.9641 25.1414 77.6681 25.2001 77.4654C25.2961 77.0974 25.4881 76.8068 25.7761 76.5934C26.0641 76.3801 26.4134 76.2734 26.8241 76.2734C27.3627 76.2734 27.7654 76.4094 28.0321 76.6814C28.2987 76.9481 28.4614 77.3428 28.5201 77.8654ZM26.8241 76.9374C26.5947 76.9374 26.4054 76.9961 26.2561 77.1134C26.1067 77.2254 26.0054 77.3774 25.9521 77.5694C25.9147 77.6868 25.8907 77.8361 25.8801 78.0174C25.8801 78.0388 25.8907 78.0494 25.9121 78.0494H27.7441C27.7654 78.0494 27.7761 78.0388 27.7761 78.0174C27.7654 77.8414 27.7494 77.7108 27.7281 77.6254C27.6747 77.4174 27.5681 77.2521 27.4081 77.1294C27.2534 77.0014 27.0587 76.9374 26.8241 76.9374ZM31.3291 76.2814C31.7665 76.2814 32.1131 76.4094 32.3691 76.6654C32.6251 76.9161 32.7531 77.2574 32.7531 77.6894V80.3294C32.7531 80.3828 32.7265 80.4094 32.6731 80.4094H32.0651C32.0118 80.4094 31.9851 80.3828 31.9851 80.3294V77.8414C31.9851 77.5748 31.9078 77.3588 31.7531 77.1934C31.5985 77.0281 31.3931 76.9454 31.1371 76.9454C30.8865 76.9454 30.6811 77.0281 30.5211 77.1934C30.3611 77.3588 30.2811 77.5721 30.2811 77.8334V80.3294C30.2811 80.3828 30.2545 80.4094 30.2011 80.4094H29.5931C29.5398 80.4094 29.5131 80.3828 29.5131 80.3294V76.4174C29.5131 76.3641 29.5398 76.3374 29.5931 76.3374H30.2011C30.2545 76.3374 30.2811 76.3641 30.2811 76.4174V76.7054C30.2811 76.7161 30.2838 76.7241 30.2891 76.7294C30.2998 76.7348 30.3078 76.7321 30.3131 76.7214C30.5425 76.4281 30.8811 76.2814 31.3291 76.2814ZM37.2346 76.2974C37.4053 76.2974 37.56 76.3321 37.6986 76.4014C37.736 76.4174 37.7493 76.4494 37.7386 76.4974L37.6106 77.0974C37.6053 77.1454 37.5733 77.1614 37.5146 77.1454C37.424 77.1081 37.3173 77.0894 37.1946 77.0894L37.0826 77.0974C36.832 77.1081 36.624 77.1961 36.4586 77.3614C36.2986 77.5214 36.2186 77.7321 36.2186 77.9934V80.3294C36.2186 80.3828 36.192 80.4094 36.1386 80.4094H35.5306C35.4773 80.4094 35.4506 80.3828 35.4506 80.3294V76.4174C35.4506 76.3641 35.4773 76.3374 35.5306 76.3374H36.1386C36.192 76.3374 36.2186 76.3641 36.2186 76.4174V76.8414C36.2186 76.8574 36.2213 76.8681 36.2266 76.8734C36.2373 76.8734 36.2453 76.8681 36.2506 76.8574C36.4906 76.4841 36.8186 76.2974 37.2346 76.2974ZM41.6529 77.8654C41.6742 78.0841 41.6822 78.3294 41.6769 78.6014C41.6769 78.6548 41.6502 78.6814 41.5969 78.6814H39.0449C39.0235 78.6814 39.0129 78.6921 39.0129 78.7134C39.0129 78.8948 39.0289 79.0334 39.0609 79.1294C39.1195 79.3428 39.2369 79.5108 39.4129 79.6334C39.5942 79.7508 39.8209 79.8094 40.0929 79.8094C40.4875 79.8094 40.7915 79.6468 41.0049 79.3214C41.0315 79.2681 41.0662 79.2601 41.1089 79.2974L41.5649 79.6014C41.6022 79.6334 41.6102 79.6681 41.5889 79.7054C41.4395 79.9454 41.2262 80.1348 40.9489 80.2734C40.6769 80.4121 40.3675 80.4814 40.0209 80.4814C39.6315 80.4814 39.3035 80.3961 39.0369 80.2254C38.7702 80.0548 38.5702 79.8121 38.4369 79.4974C38.3089 79.1828 38.2449 78.8014 38.2449 78.3534C38.2449 77.9641 38.2742 77.6681 38.3329 77.4654C38.4289 77.0974 38.6209 76.8068 38.9089 76.5934C39.1969 76.3801 39.5462 76.2734 39.9569 76.2734C40.4955 76.2734 40.8982 76.4094 41.1649 76.6814C41.4315 76.9481 41.5942 77.3428 41.6529 77.8654ZM39.9569 76.9374C39.7275 76.9374 39.5382 76.9961 39.3889 77.1134C39.2395 77.2254 39.1382 77.3774 39.0849 77.5694C39.0475 77.6868 39.0235 77.8361 39.0129 78.0174C39.0129 78.0388 39.0235 78.0494 39.0449 78.0494H40.8769C40.8982 78.0494 40.9089 78.0388 40.9089 78.0174C40.8982 77.8414 40.8822 77.7108 40.8609 77.6254C40.8075 77.4174 40.7009 77.2521 40.5409 77.1294C40.3862 77.0014 40.1915 76.9374 39.9569 76.9374ZM44.0154 80.4574C43.6954 80.4574 43.4128 80.4094 43.1674 80.3134C42.9274 80.2174 42.7408 80.0868 42.6074 79.9214C42.4741 79.7508 42.4074 79.5641 42.4074 79.3614V79.2734C42.4074 79.2201 42.4341 79.1934 42.4874 79.1934H43.0634C43.1168 79.1934 43.1434 79.2201 43.1434 79.2734V79.3134C43.1434 79.4628 43.2234 79.5934 43.3834 79.7054C43.5488 79.8174 43.7568 79.8734 44.0074 79.8734C44.2474 79.8734 44.4421 79.8228 44.5914 79.7214C44.7408 79.6148 44.8154 79.4814 44.8154 79.3214C44.8154 79.1668 44.7461 79.0521 44.6074 78.9774C44.4688 78.8974 44.2448 78.8148 43.9354 78.7294C43.6314 78.6441 43.3754 78.5588 43.1674 78.4734C42.9648 78.3828 42.7914 78.2574 42.6474 78.0974C42.5088 77.9321 42.4394 77.7214 42.4394 77.4654C42.4394 77.1081 42.5781 76.8254 42.8554 76.6174C43.1381 76.4041 43.5114 76.2974 43.9754 76.2974C44.2848 76.2974 44.5568 76.3481 44.7914 76.4494C45.0314 76.5454 45.2154 76.6814 45.3434 76.8574C45.4714 77.0334 45.5354 77.2308 45.5354 77.4494V77.4734C45.5354 77.5268 45.5088 77.5534 45.4554 77.5534H44.8954C44.8421 77.5534 44.8154 77.5268 44.8154 77.4734V77.4494C44.8154 77.2948 44.7381 77.1668 44.5834 77.0654C44.4341 76.9588 44.2288 76.9054 43.9674 76.9054C43.7328 76.9054 43.5408 76.9508 43.3914 77.0414C43.2474 77.1321 43.1754 77.2548 43.1754 77.4094C43.1754 77.5641 43.2448 77.6814 43.3834 77.7614C43.5274 77.8414 43.7568 77.9268 44.0714 78.0174C44.3808 78.1028 44.6368 78.1881 44.8394 78.2734C45.0474 78.3534 45.2234 78.4761 45.3674 78.6414C45.5114 78.8014 45.5834 79.0121 45.5834 79.2734C45.5834 79.6361 45.4394 79.9241 45.1514 80.1374C44.8688 80.3508 44.4901 80.4574 44.0154 80.4574ZM48.1459 80.4734C47.7512 80.4734 47.4072 80.3748 47.1139 80.1774C46.8205 79.9748 46.6152 79.6948 46.4979 79.3374C46.4019 79.0494 46.3539 78.7241 46.3539 78.3614C46.3539 77.9828 46.3992 77.6628 46.4899 77.4014C46.6072 77.0494 46.8125 76.7748 47.1059 76.5774C47.3992 76.3748 47.7485 76.2734 48.1539 76.2734C48.5379 76.2734 48.8712 76.3748 49.1539 76.5774C49.4419 76.7748 49.6472 77.0468 49.7699 77.3934C49.8659 77.6654 49.9139 77.9854 49.9139 78.3534C49.9139 78.7268 49.8659 79.0548 49.7699 79.3374C49.6525 79.6948 49.4499 79.9748 49.1619 80.1774C48.8739 80.3748 48.5352 80.4734 48.1459 80.4734ZM48.1459 79.8094C48.3592 79.8094 48.5459 79.7508 48.7059 79.6334C48.8659 79.5108 48.9805 79.3401 49.0499 79.1214C49.1085 78.9188 49.1379 78.6681 49.1379 78.3694C49.1379 78.0708 49.1112 77.8228 49.0579 77.6254C48.9885 77.4068 48.8739 77.2388 48.7139 77.1214C48.5539 76.9988 48.3592 76.9374 48.1299 76.9374C47.9112 76.9374 47.7219 76.9988 47.5619 77.1214C47.4019 77.2388 47.2872 77.4068 47.2179 77.6254C47.1592 77.8121 47.1299 78.0601 47.1299 78.3694C47.1299 78.6788 47.1592 78.9294 47.2179 79.1214C47.2819 79.3401 47.3939 79.5108 47.5539 79.6334C47.7192 79.7508 47.9165 79.8094 48.1459 79.8094ZM50.9994 80.4094C50.946 80.4094 50.9194 80.3828 50.9194 80.3294V74.8894C50.9194 74.8361 50.946 74.8094 50.9994 74.8094H51.6074C51.6607 74.8094 51.6874 74.8361 51.6874 74.8894V80.3294C51.6874 80.3828 51.6607 80.4094 51.6074 80.4094H50.9994ZM53.8742 80.4094C53.8262 80.4094 53.7942 80.3881 53.7782 80.3454L52.4742 76.4254L52.4662 76.3934C52.4662 76.3561 52.4902 76.3374 52.5382 76.3374H53.2102C53.2582 76.3374 53.2902 76.3588 53.3062 76.4014L54.1862 79.2974C54.1915 79.3081 54.1995 79.3134 54.2102 79.3134C54.2209 79.3134 54.2289 79.3081 54.2342 79.2974L55.1062 76.4014C55.1222 76.3588 55.1542 76.3374 55.2022 76.3374L55.8742 76.3454C55.9329 76.3454 55.9542 76.3748 55.9382 76.4334L54.6422 80.3454C54.6262 80.3881 54.5942 80.4094 54.5462 80.4094H53.8742ZM59.8482 77.8654C59.8695 78.0841 59.8775 78.3294 59.8722 78.6014C59.8722 78.6548 59.8455 78.6814 59.7922 78.6814H57.2402C57.2189 78.6814 57.2082 78.6921 57.2082 78.7134C57.2082 78.8948 57.2242 79.0334 57.2562 79.1294C57.3149 79.3428 57.4322 79.5108 57.6082 79.6334C57.7895 79.7508 58.0162 79.8094 58.2882 79.8094C58.6829 79.8094 58.9869 79.6468 59.2002 79.3214C59.2269 79.2681 59.2615 79.2601 59.3042 79.2974L59.7602 79.6014C59.7975 79.6334 59.8055 79.6681 59.7842 79.7054C59.6349 79.9454 59.4215 80.1348 59.1442 80.2734C58.8722 80.4121 58.5629 80.4814 58.2162 80.4814C57.8269 80.4814 57.4989 80.3961 57.2322 80.2254C56.9655 80.0548 56.7655 79.8121 56.6322 79.4974C56.5042 79.1828 56.4402 78.8014 56.4402 78.3534C56.4402 77.9641 56.4695 77.6681 56.5282 77.4654C56.6242 77.0974 56.8162 76.8068 57.1042 76.5934C57.3922 76.3801 57.7415 76.2734 58.1522 76.2734C58.6909 76.2734 59.0935 76.4094 59.3602 76.6814C59.6269 76.9481 59.7895 77.3428 59.8482 77.8654ZM58.1522 76.9374C57.9229 76.9374 57.7335 76.9961 57.5842 77.1134C57.4349 77.2254 57.3335 77.3774 57.2802 77.5694C57.2429 77.6868 57.2189 77.8361 57.2082 78.0174C57.2082 78.0388 57.2189 78.0494 57.2402 78.0494H59.0722C59.0935 78.0494 59.1042 78.0388 59.1042 78.0174C59.0935 77.8414 59.0775 77.7108 59.0562 77.6254C59.0029 77.4174 58.8962 77.2521 58.7362 77.1294C58.5815 77.0014 58.3869 76.9374 58.1522 76.9374ZM63.3693 74.8894C63.3693 74.8361 63.3959 74.8094 63.4493 74.8094H64.0573C64.1106 74.8094 64.1373 74.8361 64.1373 74.8894V80.3294C64.1373 80.3828 64.1106 80.4094 64.0573 80.4094H63.4493C63.3959 80.4094 63.3693 80.3828 63.3693 80.3294V80.0654C63.3693 80.0548 63.3639 80.0468 63.3533 80.0414C63.3479 80.0361 63.3399 80.0388 63.3293 80.0494C63.2119 80.1828 63.0733 80.2868 62.9133 80.3614C62.7533 80.4361 62.5799 80.4734 62.3932 80.4734C62.0093 80.4734 61.6893 80.3801 61.4333 80.1934C61.1826 80.0014 60.9986 79.7321 60.8813 79.3854C60.7799 79.1028 60.7293 78.7614 60.7293 78.3614C60.7293 77.9881 60.7719 77.6654 60.8573 77.3934C60.9693 77.0414 61.1533 76.7668 61.4093 76.5694C61.6653 76.3721 61.9933 76.2734 62.3932 76.2734C62.5746 76.2734 62.7453 76.3108 62.9053 76.3854C63.0706 76.4548 63.2119 76.5561 63.3293 76.6894C63.3399 76.7001 63.3479 76.7028 63.3533 76.6974C63.3639 76.6921 63.3693 76.6841 63.3693 76.6734V74.8894ZM63.1693 79.3774C63.2919 79.1534 63.3533 78.8174 63.3533 78.3694C63.3533 77.9214 63.2866 77.5801 63.1533 77.3454C62.9986 77.0734 62.7719 76.9374 62.4733 76.9374C62.1533 76.9374 61.9159 77.0654 61.7613 77.3214C61.5906 77.5881 61.5053 77.9401 61.5053 78.3774C61.5053 78.7881 61.5719 79.1188 61.7053 79.3694C61.8599 79.6628 62.1133 79.8094 62.4653 79.8094C62.7746 79.8094 63.0093 79.6654 63.1693 79.3774ZM66.7447 82.0014C66.7074 82.0014 66.6887 81.9748 66.6887 81.9214V81.4494C66.6887 81.3961 66.7154 81.3694 66.7687 81.3694H66.7847C66.998 81.3641 67.166 81.3374 67.2887 81.2894C67.4114 81.2414 67.5127 81.1508 67.5927 81.0174C67.6727 80.8894 67.75 80.6948 67.8247 80.4334C67.83 80.4281 67.83 80.4201 67.8247 80.4094C67.8247 80.3934 67.8247 80.3854 67.8247 80.3854L66.4887 76.4254L66.4807 76.3934C66.4807 76.3561 66.5047 76.3374 66.5527 76.3374H67.2007C67.2487 76.3374 67.2807 76.3588 67.2967 76.4014L68.2007 79.4174C68.206 79.4281 68.214 79.4334 68.2247 79.4334C68.2354 79.4334 68.2434 79.4281 68.2487 79.4174L69.1447 76.4014C69.1607 76.3588 69.1927 76.3374 69.2407 76.3374H69.8727C69.9314 76.3374 69.9527 76.3668 69.9367 76.4254L68.4807 80.6894C68.358 81.0574 68.2354 81.3294 68.1127 81.5054C67.99 81.6868 67.83 81.8148 67.6327 81.8894C67.4354 81.9641 67.158 82.0014 66.8007 82.0014H66.7447ZM73.7857 77.8654C73.807 78.0841 73.815 78.3294 73.8097 78.6014C73.8097 78.6548 73.783 78.6814 73.7297 78.6814H71.1777C71.1564 78.6814 71.1457 78.6921 71.1457 78.7134C71.1457 78.8948 71.1617 79.0334 71.1937 79.1294C71.2524 79.3428 71.3697 79.5108 71.5457 79.6334C71.727 79.7508 71.9537 79.8094 72.2257 79.8094C72.6204 79.8094 72.9244 79.6468 73.1377 79.3214C73.1644 79.2681 73.199 79.2601 73.2417 79.2974L73.6977 79.6014C73.735 79.6334 73.743 79.6681 73.7217 79.7054C73.5724 79.9454 73.359 80.1348 73.0817 80.2734C72.8097 80.4121 72.5004 80.4814 72.1537 80.4814C71.7644 80.4814 71.4364 80.3961 71.1697 80.2254C70.903 80.0548 70.703 79.8121 70.5697 79.4974C70.4417 79.1828 70.3777 78.8014 70.3777 78.3534C70.3777 77.9641 70.407 77.6681 70.4657 77.4654C70.5617 77.0974 70.7537 76.8068 71.0417 76.5934C71.3297 76.3801 71.679 76.2734 72.0897 76.2734C72.6284 76.2734 73.031 76.4094 73.2977 76.6814C73.5644 76.9481 73.727 77.3428 73.7857 77.8654ZM72.0897 76.9374C71.8604 76.9374 71.671 76.9961 71.5217 77.1134C71.3724 77.2254 71.271 77.3774 71.2177 77.5694C71.1804 77.6868 71.1564 77.8361 71.1457 78.0174C71.1457 78.0388 71.1564 78.0494 71.1777 78.0494H73.0097C73.031 78.0494 73.0417 78.0388 73.0417 78.0174C73.031 77.8414 73.015 77.7108 72.9937 77.6254C72.9404 77.4174 72.8337 77.2521 72.6737 77.1294C72.519 77.0014 72.3244 76.9374 72.0897 76.9374ZM76.7243 76.8894C76.7243 76.9428 76.6976 76.9694 76.6443 76.9694H75.7803C75.7589 76.9694 75.7483 76.9801 75.7483 77.0014V79.1214C75.7483 79.3454 75.7989 79.5081 75.9003 79.6094C76.0016 79.7054 76.1589 79.7534 76.3723 79.7534H76.6043C76.6576 79.7534 76.6843 79.7801 76.6843 79.8334V80.3294C76.6843 80.3828 76.6576 80.4094 76.6043 80.4094C76.4336 80.4201 76.3109 80.4254 76.2363 80.4254C75.8309 80.4254 75.5243 80.3534 75.3163 80.2094C75.1136 80.0601 75.0123 79.7881 75.0123 79.3934V77.0014C75.0123 76.9801 75.0016 76.9694 74.9803 76.9694H74.4923C74.4389 76.9694 74.4123 76.9428 74.4123 76.8894V76.4174C74.4123 76.3641 74.4389 76.3374 74.4923 76.3374H74.9803C75.0016 76.3374 75.0123 76.3268 75.0123 76.3054V75.3614C75.0123 75.3081 75.0389 75.2814 75.0923 75.2814H75.6683C75.7216 75.2814 75.7483 75.3081 75.7483 75.3614V76.3054C75.7483 76.3268 75.7589 76.3374 75.7803 76.3374H76.6443C76.6976 76.3374 76.7243 76.3641 76.7243 76.4174V76.8894Z" fill="#292B4D" fill-opacity="0.8"/>
</g>
</g>
<defs>
<clipPath id="clip0_122_387">
<rect width="125" height="98" rx="7.01961" fill="white"/>
</clipPath>
<clipPath id="clip1_122_387">
<rect width="93" height="49" fill="white" transform="translate(16 32.8352)"/>
</clipPath>
</defs>
</svg>
