<svg width="258" height="208" viewBox="0 0 258 208" fill="none" xmlns="http://www.w3.org/2000/svg">
<g filter="url(#filter0_d_69_261)">
<rect x="4" width="250" height="194" rx="14" fill="white"/>
<path d="M39.708 44.096C39.06 44.096 38.484 43.972 37.98 43.724C37.484 43.476 37.1 43.124 36.828 42.668C36.556 42.212 36.42 41.684 36.42 41.084V35.78C36.42 35.724 36.436 35.68 36.468 35.648C36.5 35.616 36.544 35.6 36.6 35.6H38.496C38.552 35.6 38.596 35.616 38.628 35.648C38.66 35.68 38.676 35.724 38.676 35.78V41.084C38.676 41.412 38.768 41.676 38.952 41.876C39.144 42.068 39.396 42.164 39.708 42.164C40.012 42.164 40.256 42.064 40.44 41.864C40.632 41.664 40.728 41.404 40.728 41.084V35.78C40.728 35.724 40.744 35.68 40.776 35.648C40.808 35.616 40.852 35.6 40.908 35.6H42.804C42.86 35.6 42.904 35.616 42.936 35.648C42.968 35.68 42.984 35.724 42.984 35.78V41.084C42.984 41.684 42.848 42.212 42.576 42.668C42.304 43.124 41.92 43.476 41.424 43.724C40.928 43.972 40.356 44.096 39.708 44.096ZM49.5783 35.78C49.5783 35.724 49.5943 35.68 49.6263 35.648C49.6583 35.616 49.7023 35.6 49.7583 35.6H51.6543C51.7103 35.6 51.7543 35.616 51.7863 35.648C51.8183 35.68 51.8343 35.724 51.8343 35.78V43.82C51.8343 43.876 51.8183 43.92 51.7863 43.952C51.7543 43.984 51.7103 44 51.6543 44H49.8423C49.7463 44 49.6743 43.96 49.6263 43.88L47.1783 39.8C47.1623 39.776 47.1463 39.768 47.1303 39.776C47.1143 39.776 47.1063 39.792 47.1063 39.824L47.1303 43.82C47.1303 43.876 47.1143 43.92 47.0823 43.952C47.0503 43.984 47.0063 44 46.9503 44H45.0543C44.9983 44 44.9543 43.984 44.9223 43.952C44.8903 43.92 44.8743 43.876 44.8743 43.82V35.78C44.8743 35.724 44.8903 35.68 44.9223 35.648C44.9543 35.616 44.9983 35.6 45.0543 35.6H46.8663C46.9623 35.6 47.0343 35.64 47.0823 35.72L49.5183 39.8C49.5343 39.824 49.5503 39.836 49.5663 39.836C49.5823 39.828 49.5903 39.808 49.5903 39.776L49.5783 35.78ZM58.1887 44C58.0847 44 58.0167 43.956 57.9847 43.868L56.6647 40.82C56.6487 40.788 56.6247 40.772 56.5927 40.772H56.0887C56.0487 40.772 56.0287 40.792 56.0287 40.832V43.82C56.0287 43.876 56.0127 43.92 55.9807 43.952C55.9487 43.984 55.9047 44 55.8487 44H53.9527C53.8967 44 53.8527 43.984 53.8207 43.952C53.7887 43.92 53.7727 43.876 53.7727 43.82V35.78C53.7727 35.724 53.7887 35.68 53.8207 35.648C53.8527 35.616 53.8967 35.6 53.9527 35.6H57.5887C58.1327 35.6 58.6087 35.712 59.0167 35.936C59.4327 36.16 59.7527 36.476 59.9767 36.884C60.2087 37.284 60.3247 37.748 60.3247 38.276C60.3247 38.804 60.1927 39.268 59.9287 39.668C59.6727 40.06 59.3167 40.348 58.8607 40.532C58.8207 40.548 58.8087 40.576 58.8247 40.616L60.3487 43.784C60.3647 43.832 60.3727 43.86 60.3727 43.868C60.3727 43.908 60.3567 43.94 60.3247 43.964C60.2927 43.988 60.2527 44 60.2047 44H58.1887ZM56.0887 37.532C56.0487 37.532 56.0287 37.552 56.0287 37.592V38.996C56.0287 39.036 56.0487 39.056 56.0887 39.056H57.2167C57.4727 39.056 57.6807 38.988 57.8407 38.852C58.0007 38.708 58.0807 38.524 58.0807 38.3C58.0807 38.068 58.0007 37.884 57.8407 37.748C57.6807 37.604 57.4727 37.532 57.2167 37.532H56.0887ZM68.2395 37.352C68.2395 37.408 68.2235 37.452 68.1915 37.484C68.1595 37.516 68.1155 37.532 68.0595 37.532H64.4715C64.4315 37.532 64.4115 37.552 64.4115 37.592V38.72C64.4115 38.76 64.4315 38.78 64.4715 38.78H66.6915C66.7475 38.78 66.7915 38.796 66.8235 38.828C66.8555 38.86 66.8715 38.904 66.8715 38.96V40.52C66.8715 40.576 66.8555 40.62 66.8235 40.652C66.7915 40.684 66.7475 40.7 66.6915 40.7H64.4715C64.4315 40.7 64.4115 40.72 64.4115 40.76V42.008C64.4115 42.048 64.4315 42.068 64.4715 42.068H68.0595C68.1155 42.068 68.1595 42.084 68.1915 42.116C68.2235 42.148 68.2395 42.192 68.2395 42.248V43.82C68.2395 43.876 68.2235 43.92 68.1915 43.952C68.1595 43.984 68.1155 44 68.0595 44H62.3355C62.2795 44 62.2355 43.984 62.2035 43.952C62.1715 43.92 62.1555 43.876 62.1555 43.82V35.78C62.1555 35.724 62.1715 35.68 62.2035 35.648C62.2355 35.616 62.2795 35.6 62.3355 35.6H68.0595C68.1155 35.6 68.1595 35.616 68.1915 35.648C68.2235 35.68 68.2395 35.724 68.2395 35.78V37.352ZM73.1793 44.096C72.5073 44.096 71.9193 43.988 71.4153 43.772C70.9113 43.548 70.5193 43.232 70.2393 42.824C69.9673 42.416 69.8313 41.944 69.8313 41.408V41.24C69.8313 41.184 69.8473 41.14 69.8793 41.108C69.9113 41.076 69.9553 41.06 70.0113 41.06H71.8713C71.9273 41.06 71.9713 41.076 72.0033 41.108C72.0353 41.14 72.0513 41.184 72.0513 41.24V41.312C72.0513 41.536 72.1673 41.736 72.3993 41.912C72.6393 42.08 72.9553 42.164 73.3473 42.164C73.6433 42.164 73.8553 42.104 73.9833 41.984C74.1113 41.856 74.1753 41.716 74.1753 41.564C74.1753 41.388 74.0953 41.256 73.9353 41.168C73.7753 41.08 73.4833 40.972 73.0592 40.844L72.7113 40.748C71.9193 40.508 71.2553 40.188 70.7193 39.788C70.1833 39.388 69.9153 38.808 69.9153 38.048C69.9153 37.544 70.0513 37.1 70.3232 36.716C70.5953 36.324 70.9673 36.024 71.4393 35.816C71.9193 35.608 72.4553 35.504 73.0473 35.504C73.6713 35.504 74.2353 35.62 74.7393 35.852C75.2513 36.084 75.6513 36.412 75.9393 36.836C76.2353 37.26 76.3833 37.744 76.3833 38.288V38.396C76.3833 38.452 76.3673 38.496 76.3353 38.528C76.3033 38.56 76.2593 38.576 76.2033 38.576H74.3433C74.2873 38.576 74.2433 38.56 74.2113 38.528C74.1793 38.496 74.1633 38.452 74.1633 38.396V38.384C74.1633 38.144 74.0553 37.928 73.8393 37.736C73.6233 37.536 73.3313 37.436 72.9633 37.436C72.7073 37.436 72.5033 37.488 72.3513 37.592C72.2073 37.696 72.1353 37.84 72.1353 38.024C72.1353 38.168 72.1873 38.292 72.2913 38.396C72.4033 38.492 72.5713 38.588 72.7953 38.684C73.0193 38.772 73.3633 38.888 73.8273 39.032C73.8913 39.056 74.1713 39.144 74.6673 39.296C75.1713 39.44 75.5913 39.708 75.9273 40.1C76.2633 40.484 76.4313 40.952 76.4313 41.504C76.4313 42.04 76.2953 42.504 76.0233 42.896C75.7513 43.28 75.3713 43.576 74.8833 43.784C74.3953 43.992 73.8273 44.096 73.1793 44.096ZM81.47 44.144C80.806 44.144 80.218 44.012 79.706 43.748C79.202 43.476 78.81 43.1 78.53 42.62C78.25 42.132 78.11 41.568 78.11 40.928V38.672C78.11 38.048 78.25 37.496 78.53 37.016C78.81 36.536 79.202 36.164 79.706 35.9C80.218 35.636 80.806 35.504 81.47 35.504C82.142 35.504 82.73 35.636 83.234 35.9C83.746 36.164 84.142 36.536 84.422 37.016C84.702 37.496 84.842 38.048 84.842 38.672V40.928C84.842 41.568 84.702 42.132 84.422 42.62C84.142 43.1 83.746 43.476 83.234 43.748C82.73 44.012 82.142 44.144 81.47 44.144ZM81.47 42.212C81.806 42.212 82.074 42.104 82.274 41.888C82.482 41.664 82.586 41.368 82.586 41V38.648C82.586 38.28 82.482 37.988 82.274 37.772C82.074 37.548 81.806 37.436 81.47 37.436C81.142 37.436 80.874 37.548 80.666 37.772C80.466 37.988 80.366 38.28 80.366 38.648V41C80.366 41.368 80.466 41.664 80.666 41.888C80.874 42.104 81.142 42.212 81.47 42.212ZM86.8511 44C86.7951 44 86.7511 43.984 86.7191 43.952C86.6871 43.92 86.6711 43.876 86.6711 43.82V35.78C86.6711 35.724 86.6871 35.68 86.7191 35.648C86.7511 35.616 86.7951 35.6 86.8511 35.6H88.7471C88.8031 35.6 88.8471 35.616 88.8791 35.648C88.9111 35.68 88.9271 35.724 88.9271 35.78V42.008C88.9271 42.048 88.9471 42.068 88.9871 42.068H92.6951C92.7511 42.068 92.7951 42.084 92.8271 42.116C92.8591 42.148 92.8751 42.192 92.8751 42.248V43.82C92.8751 43.876 92.8591 43.92 92.8271 43.952C92.7951 43.984 92.7511 44 92.6951 44H86.8511ZM96.3401 44C96.2921 44 96.2481 43.988 96.2081 43.964C96.1681 43.932 96.1441 43.892 96.1361 43.844L93.7721 35.804C93.7641 35.788 93.7601 35.768 93.7601 35.744C93.7601 35.648 93.8161 35.6 93.9281 35.6H95.9801C96.0841 35.6 96.1481 35.652 96.1721 35.756L97.3721 40.82C97.3801 40.852 97.3921 40.868 97.4081 40.868C97.4241 40.868 97.4361 40.852 97.4441 40.82L98.6081 35.756C98.6321 35.652 98.6961 35.6 98.8001 35.6H100.804C100.868 35.6 100.912 35.62 100.936 35.66C100.968 35.692 100.976 35.74 100.96 35.804L98.5721 43.844C98.5641 43.892 98.5401 43.932 98.5001 43.964C98.4601 43.988 98.4161 44 98.3681 44H96.3401ZM108.782 37.352C108.782 37.408 108.766 37.452 108.734 37.484C108.702 37.516 108.658 37.532 108.602 37.532H105.014C104.974 37.532 104.954 37.552 104.954 37.592V38.72C104.954 38.76 104.974 38.78 105.014 38.78H107.234C107.29 38.78 107.334 38.796 107.366 38.828C107.398 38.86 107.414 38.904 107.414 38.96V40.52C107.414 40.576 107.398 40.62 107.366 40.652C107.334 40.684 107.29 40.7 107.234 40.7H105.014C104.974 40.7 104.954 40.72 104.954 40.76V42.008C104.954 42.048 104.974 42.068 105.014 42.068H108.602C108.658 42.068 108.702 42.084 108.734 42.116C108.766 42.148 108.782 42.192 108.782 42.248V43.82C108.782 43.876 108.766 43.92 108.734 43.952C108.702 43.984 108.658 44 108.602 44H102.878C102.822 44 102.778 43.984 102.746 43.952C102.714 43.92 102.698 43.876 102.698 43.82V35.78C102.698 35.724 102.714 35.68 102.746 35.648C102.778 35.616 102.822 35.6 102.878 35.6H108.602C108.658 35.6 108.702 35.616 108.734 35.648C108.766 35.68 108.782 35.724 108.782 35.78V37.352ZM110.722 44C110.666 44 110.622 43.984 110.59 43.952C110.558 43.92 110.542 43.876 110.542 43.82V35.78C110.542 35.724 110.558 35.68 110.59 35.648C110.622 35.616 110.666 35.6 110.722 35.6H113.806C114.454 35.6 115.026 35.712 115.522 35.936C116.026 36.16 116.414 36.476 116.686 36.884C116.958 37.292 117.094 37.764 117.094 38.3V41.3C117.094 41.836 116.958 42.308 116.686 42.716C116.414 43.124 116.026 43.44 115.522 43.664C115.026 43.888 114.454 44 113.806 44H110.722ZM112.798 42.008C112.798 42.048 112.818 42.068 112.858 42.068H113.89C114.162 42.068 114.386 41.964 114.562 41.756C114.738 41.54 114.83 41.26 114.838 40.916V38.684C114.838 38.34 114.75 38.064 114.574 37.856C114.398 37.64 114.166 37.532 113.878 37.532H112.858C112.818 37.532 112.798 37.552 112.798 37.592V42.008ZM128.639 35.6C128.695 35.6 128.739 35.616 128.771 35.648C128.803 35.68 128.819 35.724 128.819 35.78V37.364C128.819 37.42 128.803 37.464 128.771 37.496C128.739 37.528 128.695 37.544 128.639 37.544H126.623C126.583 37.544 126.563 37.564 126.563 37.604V43.82C126.563 43.876 126.547 43.92 126.515 43.952C126.483 43.984 126.439 44 126.383 44H124.487C124.431 44 124.387 43.984 124.355 43.952C124.323 43.92 124.307 43.876 124.307 43.82V37.604C124.307 37.564 124.287 37.544 124.247 37.544H122.291C122.235 37.544 122.191 37.528 122.159 37.496C122.127 37.464 122.111 37.42 122.111 37.364V35.78C122.111 35.724 122.127 35.68 122.159 35.648C122.191 35.616 122.235 35.6 122.291 35.6H128.639ZM130.679 44C130.623 44 130.579 43.984 130.547 43.952C130.515 43.92 130.499 43.876 130.499 43.82V35.78C130.499 35.724 130.515 35.68 130.547 35.648C130.579 35.616 130.623 35.6 130.679 35.6H132.575C132.631 35.6 132.675 35.616 132.707 35.648C132.739 35.68 132.755 35.724 132.755 35.78V43.82C132.755 43.876 132.739 43.92 132.707 43.952C132.675 43.984 132.631 44 132.575 44H130.679ZM137.891 44.096C137.235 44.096 136.655 43.968 136.151 43.712C135.655 43.456 135.267 43.096 134.987 42.632C134.715 42.16 134.579 41.616 134.579 41V38.576C134.579 37.968 134.715 37.432 134.987 36.968C135.267 36.504 135.655 36.144 136.151 35.888C136.655 35.632 137.235 35.504 137.891 35.504C138.547 35.504 139.123 35.624 139.619 35.864C140.123 36.104 140.511 36.444 140.783 36.884C141.063 37.316 141.203 37.82 141.203 38.396C141.203 38.468 141.143 38.512 141.023 38.528L139.127 38.648H139.091C138.995 38.648 138.947 38.604 138.947 38.516C138.947 38.188 138.851 37.928 138.659 37.736C138.467 37.536 138.211 37.436 137.891 37.436C137.571 37.436 137.315 37.536 137.123 37.736C136.931 37.928 136.835 38.188 136.835 38.516V41.096C136.835 41.416 136.931 41.676 137.123 41.876C137.315 42.068 137.571 42.164 137.891 42.164C138.211 42.164 138.467 42.068 138.659 41.876C138.851 41.676 138.947 41.416 138.947 41.096C138.947 41.048 138.963 41.012 138.995 40.988C139.027 40.964 139.071 40.956 139.127 40.964L141.023 41.06C141.143 41.068 141.203 41.108 141.203 41.18C141.203 41.756 141.063 42.264 140.783 42.704C140.511 43.144 140.123 43.488 139.619 43.736C139.123 43.976 138.547 44.096 137.891 44.096ZM143.179 44C143.123 44 143.079 43.984 143.047 43.952C143.015 43.92 142.999 43.876 142.999 43.82V35.78C142.999 35.724 143.015 35.68 143.047 35.648C143.079 35.616 143.123 35.6 143.179 35.6H145.075C145.131 35.6 145.175 35.616 145.207 35.648C145.239 35.68 145.255 35.724 145.255 35.78V38.648C145.255 38.672 145.263 38.688 145.279 38.696C145.295 38.704 145.311 38.696 145.327 38.672L147.415 35.708C147.463 35.636 147.539 35.6 147.643 35.6H149.791C149.887 35.6 149.935 35.636 149.935 35.708C149.935 35.74 149.923 35.776 149.899 35.816L147.403 39.284C147.387 39.308 147.387 39.336 147.403 39.368L149.983 43.784C150.007 43.816 150.019 43.852 150.019 43.892C150.019 43.964 149.967 44 149.863 44H147.739C147.635 44 147.563 43.96 147.523 43.88L145.867 40.928C145.859 40.904 145.847 40.892 145.831 40.892C145.815 40.892 145.799 40.904 145.783 40.928L145.279 41.696C145.263 41.728 145.255 41.752 145.255 41.768V43.82C145.255 43.876 145.239 43.92 145.207 43.952C145.175 43.984 145.131 44 145.075 44H143.179ZM157.712 37.352C157.712 37.408 157.696 37.452 157.664 37.484C157.632 37.516 157.588 37.532 157.532 37.532H153.944C153.904 37.532 153.884 37.552 153.884 37.592V38.72C153.884 38.76 153.904 38.78 153.944 38.78H156.164C156.22 38.78 156.264 38.796 156.296 38.828C156.328 38.86 156.344 38.904 156.344 38.96V40.52C156.344 40.576 156.328 40.62 156.296 40.652C156.264 40.684 156.22 40.7 156.164 40.7H153.944C153.904 40.7 153.884 40.72 153.884 40.76V42.008C153.884 42.048 153.904 42.068 153.944 42.068H157.532C157.588 42.068 157.632 42.084 157.664 42.116C157.696 42.148 157.712 42.192 157.712 42.248V43.82C157.712 43.876 157.696 43.92 157.664 43.952C157.632 43.984 157.588 44 157.532 44H151.808C151.752 44 151.708 43.984 151.676 43.952C151.644 43.92 151.628 43.876 151.628 43.82V35.78C151.628 35.724 151.644 35.68 151.676 35.648C151.708 35.616 151.752 35.6 151.808 35.6H157.532C157.588 35.6 157.632 35.616 157.664 35.648C157.696 35.68 157.712 35.724 157.712 35.78V37.352ZM165.748 35.6C165.804 35.6 165.848 35.616 165.88 35.648C165.912 35.68 165.928 35.724 165.928 35.78V37.364C165.928 37.42 165.912 37.464 165.88 37.496C165.848 37.528 165.804 37.544 165.748 37.544H163.732C163.692 37.544 163.672 37.564 163.672 37.604V43.82C163.672 43.876 163.656 43.92 163.624 43.952C163.592 43.984 163.548 44 163.492 44H161.596C161.54 44 161.496 43.984 161.464 43.952C161.432 43.92 161.416 43.876 161.416 43.82V37.604C161.416 37.564 161.396 37.544 161.356 37.544H159.4C159.344 37.544 159.3 37.528 159.268 37.496C159.236 37.464 159.22 37.42 159.22 37.364V35.78C159.22 35.724 159.236 35.68 159.268 35.648C159.3 35.616 159.344 35.6 159.4 35.6H165.748ZM170.695 44.096C170.023 44.096 169.435 43.988 168.931 43.772C168.427 43.548 168.035 43.232 167.755 42.824C167.483 42.416 167.347 41.944 167.347 41.408V41.24C167.347 41.184 167.363 41.14 167.395 41.108C167.427 41.076 167.471 41.06 167.527 41.06H169.387C169.443 41.06 169.487 41.076 169.519 41.108C169.551 41.14 169.567 41.184 169.567 41.24V41.312C169.567 41.536 169.683 41.736 169.915 41.912C170.155 42.08 170.471 42.164 170.863 42.164C171.159 42.164 171.371 42.104 171.499 41.984C171.627 41.856 171.691 41.716 171.691 41.564C171.691 41.388 171.611 41.256 171.451 41.168C171.291 41.08 170.999 40.972 170.575 40.844L170.227 40.748C169.435 40.508 168.771 40.188 168.235 39.788C167.699 39.388 167.431 38.808 167.431 38.048C167.431 37.544 167.567 37.1 167.839 36.716C168.111 36.324 168.483 36.024 168.955 35.816C169.435 35.608 169.971 35.504 170.563 35.504C171.187 35.504 171.751 35.62 172.255 35.852C172.767 36.084 173.167 36.412 173.455 36.836C173.751 37.26 173.899 37.744 173.899 38.288V38.396C173.899 38.452 173.883 38.496 173.851 38.528C173.819 38.56 173.775 38.576 173.719 38.576H171.859C171.803 38.576 171.759 38.56 171.727 38.528C171.695 38.496 171.679 38.452 171.679 38.396V38.384C171.679 38.144 171.571 37.928 171.355 37.736C171.139 37.536 170.847 37.436 170.479 37.436C170.223 37.436 170.019 37.488 169.867 37.592C169.723 37.696 169.651 37.84 169.651 38.024C169.651 38.168 169.703 38.292 169.807 38.396C169.919 38.492 170.087 38.588 170.311 38.684C170.535 38.772 170.879 38.888 171.343 39.032C171.407 39.056 171.687 39.144 172.183 39.296C172.687 39.44 173.107 39.708 173.443 40.1C173.779 40.484 173.947 40.952 173.947 41.504C173.947 42.04 173.811 42.504 173.539 42.896C173.267 43.28 172.887 43.576 172.399 43.784C171.911 43.992 171.343 44.096 170.695 44.096Z" fill="#292B4D"/>
<path d="M88.728 94.184C88.7067 94.2267 88.7067 94.2693 88.728 94.312C88.7493 94.3333 88.7813 94.344 88.824 94.344H98.456C98.6693 94.344 98.776 94.4507 98.776 94.664V96.68C98.776 96.8933 98.6693 97 98.456 97H85.048C84.8347 97 84.728 96.8933 84.728 96.68V94.728C84.728 94.5787 84.7813 94.4507 84.888 94.344C85.6133 93.512 87.2773 91.56 89.88 88.488L92.088 85.832C94.072 83.464 95.064 81.6293 95.064 80.328C95.064 79.3253 94.7227 78.5253 94.04 77.928C93.3787 77.3093 92.4933 77 91.384 77C90.2747 77 89.3893 77.3093 88.728 77.928C88.0667 78.5467 87.7467 79.3573 87.768 80.36V81.32C87.768 81.5333 87.6613 81.64 87.448 81.64H84.984C84.7707 81.64 84.664 81.5333 84.664 81.32V79.944C84.7067 78.8347 85.016 77.8533 85.592 77C86.1893 76.1467 86.9893 75.496 87.992 75.048C88.9947 74.5787 90.1253 74.344 91.384 74.344C92.7493 74.344 93.944 74.6 94.968 75.112C95.992 75.624 96.7813 76.328 97.336 77.224C97.8907 78.12 98.168 79.1333 98.168 80.264C98.168 82.0347 97.208 84.1253 95.288 86.536C94.4347 87.624 93.4213 88.8507 92.248 90.216C91.0747 91.56 89.9013 92.8827 88.728 94.184Z" fill="#F2594B"/>
<rect x="36" y="70" width="32" height="32" rx="6" fill="#F2594B"/>
<path fill-rule="evenodd" clip-rule="evenodd" d="M57.8182 81.3H46.1818C45.1389 81.3 44.2909 82.1745 44.2909 83.25V90.75C44.2909 91.8255 45.1396 92.7 46.1818 92.7H57.8182C58.8611 92.7 59.7091 91.8248 59.7091 90.75V83.25C59.7091 82.1745 58.8611 81.3 57.8182 81.3ZM57.8182 83.1462C57.882 83.1462 57.9313 83.197 57.9313 83.25V90.75C57.9313 90.8027 57.8816 90.8539 57.8182 90.8539H46.1818C46.1183 90.8539 46.0687 90.8027 46.0687 90.75V83.25C46.0687 83.197 46.118 83.1462 46.1818 83.1462H57.8182ZM57.0848 84.5463C57.0876 84.5503 57.0909 84.5509 57.0943 84.5483L56.7844 84.7779L56.7685 84.7637L57.0874 84.5274C57.0822 84.5313 57.0808 84.5405 57.0848 84.5463ZM47.2312 84.7628L51.5948 87.9755C51.7179 88.0658 51.8643 88.1135 52.0138 88.1135C52.1648 88.1135 52.3108 88.0656 52.4343 87.9735L56.7685 84.7637C56.4676 84.5017 56.0226 84.472 55.6887 84.7204L52.013 87.1772L48.3081 84.7183C47.9742 84.4722 47.5314 84.5016 47.2312 84.7628ZM47.2155 84.7768L51.5873 87.9953C51.8435 88.1834 52.1864 88.1834 52.4421 87.9932L56.7844 84.7779C56.8326 84.8219 56.8768 84.872 56.916 84.9281C57.2016 85.3386 57.1106 85.9102 56.7139 86.2026L52.9516 88.7242C52.6768 88.929 52.3492 89.0366 52.0138 89.0366C51.6817 89.0366 51.3557 88.9305 51.0811 88.7288L47.2878 86.2046C46.89 85.9129 46.7977 85.3419 47.0816 84.9302C47.1214 84.8728 47.1664 84.8216 47.2155 84.7768ZM47.2155 84.7768L47.2312 84.7628L46.9123 84.528C46.9171 84.5315 46.9185 84.5402 46.9148 84.5455C46.9119 84.5497 46.9079 84.5504 46.9049 84.5481L47.2155 84.7768Z" fill="white"/>
<path d="M40.172 135.112C39.4533 135.112 38.828 135 38.296 134.776C37.7733 134.552 37.3673 134.235 37.078 133.824C36.798 133.413 36.658 132.933 36.658 132.382V131.976C36.658 131.883 36.7047 131.836 36.798 131.836H37.82C37.9133 131.836 37.96 131.883 37.96 131.976V132.312C37.96 132.788 38.1653 133.18 38.576 133.488C38.9867 133.796 39.5513 133.95 40.27 133.95C40.914 133.95 41.3993 133.815 41.726 133.544C42.0527 133.273 42.216 132.919 42.216 132.48C42.216 132.191 42.132 131.943 41.964 131.738C41.796 131.533 41.5487 131.346 41.222 131.178C40.9047 131.001 40.438 130.791 39.822 130.548C39.1407 130.287 38.5993 130.049 38.198 129.834C37.806 129.619 37.4793 129.339 37.218 128.994C36.9567 128.639 36.826 128.196 36.826 127.664C36.826 126.861 37.1107 126.231 37.68 125.774C38.2587 125.317 39.038 125.088 40.018 125.088C40.7087 125.088 41.3153 125.205 41.838 125.438C42.3607 125.671 42.762 125.998 43.042 126.418C43.3313 126.838 43.476 127.323 43.476 127.874V128.154C43.476 128.247 43.4293 128.294 43.336 128.294H42.286C42.1927 128.294 42.146 128.247 42.146 128.154V127.944C42.146 127.459 41.95 127.057 41.558 126.74C41.1753 126.413 40.6433 126.25 39.962 126.25C39.3833 126.25 38.9353 126.371 38.618 126.614C38.3007 126.847 38.142 127.188 38.142 127.636C38.142 127.944 38.2213 128.196 38.38 128.392C38.5387 128.588 38.772 128.765 39.08 128.924C39.3973 129.073 39.878 129.269 40.522 129.512C41.1847 129.773 41.7213 130.016 42.132 130.24C42.5427 130.455 42.8833 130.744 43.154 131.108C43.4247 131.463 43.56 131.906 43.56 132.438C43.56 133.259 43.2567 133.913 42.65 134.398C42.0527 134.874 41.2267 135.112 40.172 135.112ZM50.9785 130.548C51.0158 130.931 51.0298 131.36 51.0205 131.836C51.0205 131.929 50.9738 131.976 50.8805 131.976H46.4145C46.3771 131.976 46.3585 131.995 46.3585 132.032C46.3585 132.349 46.3865 132.592 46.4425 132.76C46.5451 133.133 46.7505 133.427 47.0585 133.642C47.3758 133.847 47.7725 133.95 48.2485 133.95C48.9391 133.95 49.4711 133.665 49.8445 133.096C49.8911 133.003 49.9518 132.989 50.0265 133.054L50.8245 133.586C50.8898 133.642 50.9038 133.703 50.8665 133.768C50.6051 134.188 50.2318 134.519 49.7465 134.762C49.2705 135.005 48.7291 135.126 48.1225 135.126C47.4411 135.126 46.8671 134.977 46.4005 134.678C45.9338 134.379 45.5838 133.955 45.3505 133.404C45.1265 132.853 45.0145 132.186 45.0145 131.402C45.0145 130.721 45.0658 130.203 45.1685 129.848C45.3365 129.204 45.6725 128.695 46.1765 128.322C46.6805 127.949 47.2918 127.762 48.0105 127.762C48.9531 127.762 49.6578 128 50.1245 128.476C50.5911 128.943 50.8758 129.633 50.9785 130.548ZM48.0105 128.924C47.6091 128.924 47.2778 129.027 47.0165 129.232C46.7551 129.428 46.5778 129.694 46.4845 130.03C46.4191 130.235 46.3771 130.497 46.3585 130.814C46.3585 130.851 46.3771 130.87 46.4145 130.87H49.6205C49.6578 130.87 49.6765 130.851 49.6765 130.814C49.6578 130.506 49.6298 130.277 49.5925 130.128C49.4991 129.764 49.3125 129.475 49.0325 129.26C48.7618 129.036 48.4211 128.924 48.0105 128.924ZM58.4843 130.548C58.5217 130.931 58.5357 131.36 58.5263 131.836C58.5263 131.929 58.4797 131.976 58.3863 131.976H53.9203C53.883 131.976 53.8643 131.995 53.8643 132.032C53.8643 132.349 53.8923 132.592 53.9483 132.76C54.051 133.133 54.2563 133.427 54.5643 133.642C54.8817 133.847 55.2783 133.95 55.7543 133.95C56.445 133.95 56.977 133.665 57.3503 133.096C57.397 133.003 57.4577 132.989 57.5323 133.054L58.3303 133.586C58.3957 133.642 58.4097 133.703 58.3723 133.768C58.111 134.188 57.7377 134.519 57.2523 134.762C56.7763 135.005 56.235 135.126 55.6283 135.126C54.947 135.126 54.373 134.977 53.9063 134.678C53.4397 134.379 53.0897 133.955 52.8563 133.404C52.6323 132.853 52.5203 132.186 52.5203 131.402C52.5203 130.721 52.5717 130.203 52.6743 129.848C52.8423 129.204 53.1783 128.695 53.6823 128.322C54.1863 127.949 54.7977 127.762 55.5163 127.762C56.459 127.762 57.1637 128 57.6303 128.476C58.097 128.943 58.3817 129.633 58.4843 130.548ZM55.5163 128.924C55.115 128.924 54.7837 129.027 54.5223 129.232C54.261 129.428 54.0837 129.694 53.9903 130.03C53.925 130.235 53.883 130.497 53.8643 130.814C53.8643 130.851 53.883 130.87 53.9203 130.87H57.1263C57.1637 130.87 57.1823 130.851 57.1823 130.814C57.1637 130.506 57.1357 130.277 57.0983 130.128C57.005 129.764 56.8183 129.475 56.5383 129.26C56.2677 129.036 55.927 128.924 55.5163 128.924ZM66.5389 128.84C66.5389 128.933 66.4923 128.98 66.3989 128.98H64.8869C64.8496 128.98 64.8309 128.999 64.8309 129.036V132.746C64.8309 133.138 64.9196 133.423 65.0969 133.6C65.2743 133.768 65.5496 133.852 65.9229 133.852H66.3289C66.4223 133.852 66.4689 133.899 66.4689 133.992V134.86C66.4689 134.953 66.4223 135 66.3289 135C66.0303 135.019 65.8156 135.028 65.6849 135.028C64.9756 135.028 64.4389 134.902 64.0749 134.65C63.7203 134.389 63.5429 133.913 63.5429 133.222V129.036C63.5429 128.999 63.5243 128.98 63.4869 128.98H62.6329C62.5396 128.98 62.4929 128.933 62.4929 128.84V128.014C62.4929 127.921 62.5396 127.874 62.6329 127.874H63.4869C63.5243 127.874 63.5429 127.855 63.5429 127.818V126.166C63.5429 126.073 63.5896 126.026 63.6829 126.026H64.6909C64.7843 126.026 64.8309 126.073 64.8309 126.166V127.818C64.8309 127.855 64.8496 127.874 64.8869 127.874H66.3989C66.4923 127.874 66.5389 127.921 66.5389 128.014V128.84ZM69.0049 126.754C68.7436 126.754 68.5289 126.67 68.3609 126.502C68.1929 126.334 68.1089 126.119 68.1089 125.858C68.1089 125.597 68.1929 125.382 68.3609 125.214C68.5289 125.046 68.7436 124.962 69.0049 124.962C69.2662 124.962 69.4809 125.046 69.6489 125.214C69.8169 125.382 69.9009 125.597 69.9009 125.858C69.9009 126.119 69.8169 126.334 69.6489 126.502C69.4809 126.67 69.2662 126.754 69.0049 126.754ZM68.4449 134.986C68.3516 134.986 68.3049 134.939 68.3049 134.846V128.014C68.3049 127.921 68.3516 127.874 68.4449 127.874H69.5089C69.6022 127.874 69.6489 127.921 69.6489 128.014V134.846C69.6489 134.939 69.6022 134.986 69.5089 134.986H68.4449ZM74.6173 135.112C73.9079 135.112 73.3013 134.935 72.7973 134.58C72.2933 134.216 71.9479 133.726 71.7613 133.11C71.6213 132.681 71.5513 132.116 71.5513 131.416C71.5513 130.772 71.6213 130.207 71.7613 129.722C71.9479 129.125 72.2933 128.649 72.7973 128.294C73.3106 127.939 73.9173 127.762 74.6173 127.762C75.3173 127.762 75.9286 127.939 76.4513 128.294C76.9739 128.649 77.3146 129.097 77.4733 129.638C77.5293 129.787 77.5666 129.941 77.5853 130.1C77.5853 130.175 77.5433 130.221 77.4593 130.24L76.4093 130.394H76.3813C76.3159 130.394 76.2693 130.352 76.2413 130.268L76.1993 130.044C76.1246 129.727 75.9426 129.461 75.6533 129.246C75.3639 129.031 75.0139 128.924 74.6033 128.924C74.2019 128.924 73.8613 129.031 73.5813 129.246C73.3013 129.461 73.1193 129.745 73.0353 130.1C72.9513 130.436 72.9093 130.879 72.9093 131.43C72.9093 131.971 72.9513 132.41 73.0353 132.746C73.1286 133.119 73.3106 133.413 73.5813 133.628C73.8613 133.843 74.2019 133.95 74.6033 133.95C75.0139 133.95 75.3639 133.843 75.6533 133.628C75.9519 133.413 76.1386 133.133 76.2133 132.788C76.2226 132.779 76.2226 132.769 76.2133 132.76C76.2133 132.741 76.2179 132.727 76.2273 132.718V132.662C76.2553 132.587 76.3066 132.559 76.3813 132.578L77.4313 132.746C77.5059 132.765 77.5433 132.802 77.5433 132.858V132.914C77.5433 132.998 77.5199 133.101 77.4733 133.222C77.3146 133.791 76.9739 134.249 76.4513 134.594C75.9286 134.939 75.3173 135.112 74.6173 135.112ZM79.2704 135C79.1771 135 79.1304 134.953 79.1304 134.86V125.34C79.1304 125.247 79.1771 125.2 79.2704 125.2H80.3344C80.4277 125.2 80.4744 125.247 80.4744 125.34V130.73C80.4744 130.749 80.4837 130.763 80.5024 130.772C80.5211 130.781 80.5351 130.777 80.5444 130.758L83.1344 127.944C83.1717 127.897 83.2277 127.874 83.3024 127.874H84.5484C84.6044 127.874 84.6371 127.893 84.6464 127.93C84.6651 127.958 84.6557 127.995 84.6184 128.042L82.8124 130.128C82.7937 130.165 82.7891 130.193 82.7984 130.212L84.9404 134.832L84.9544 134.888C84.9544 134.963 84.9124 135 84.8284 135H83.7084C83.6337 135 83.5824 134.963 83.5544 134.888L81.8884 131.08C81.8697 131.033 81.8464 131.029 81.8184 131.066L80.5024 132.522C80.4837 132.559 80.4744 132.583 80.4744 132.592V134.86C80.4744 134.953 80.4277 135 80.3344 135H79.2704ZM91.6523 130.548C91.6896 130.931 91.7036 131.36 91.6943 131.836C91.6943 131.929 91.6476 131.976 91.5543 131.976H87.0883C87.051 131.976 87.0323 131.995 87.0323 132.032C87.0323 132.349 87.0603 132.592 87.1163 132.76C87.219 133.133 87.4243 133.427 87.7323 133.642C88.0496 133.847 88.4463 133.95 88.9223 133.95C89.613 133.95 90.145 133.665 90.5183 133.096C90.565 133.003 90.6256 132.989 90.7003 133.054L91.4983 133.586C91.5636 133.642 91.5776 133.703 91.5403 133.768C91.279 134.188 90.9056 134.519 90.4203 134.762C89.9443 135.005 89.403 135.126 88.7963 135.126C88.115 135.126 87.541 134.977 87.0743 134.678C86.6076 134.379 86.2576 133.955 86.0243 133.404C85.8003 132.853 85.6883 132.186 85.6883 131.402C85.6883 130.721 85.7396 130.203 85.8423 129.848C86.0103 129.204 86.3463 128.695 86.8503 128.322C87.3543 127.949 87.9656 127.762 88.6843 127.762C89.627 127.762 90.3316 128 90.7983 128.476C91.265 128.943 91.5496 129.633 91.6523 130.548ZM88.6843 128.924C88.283 128.924 87.9516 129.027 87.6903 129.232C87.429 129.428 87.2516 129.694 87.1583 130.03C87.093 130.235 87.051 130.497 87.0323 130.814C87.0323 130.851 87.051 130.87 87.0883 130.87H90.2943C90.3316 130.87 90.3503 130.851 90.3503 130.814C90.3316 130.506 90.3036 130.277 90.2663 130.128C90.173 129.764 89.9863 129.475 89.7063 129.26C89.4356 129.036 89.095 128.924 88.6843 128.924ZM96.7948 128.84C96.7948 128.933 96.7481 128.98 96.6548 128.98H95.1428C95.1054 128.98 95.0868 128.999 95.0868 129.036V132.746C95.0868 133.138 95.1754 133.423 95.3528 133.6C95.5301 133.768 95.8054 133.852 96.1788 133.852H96.5848C96.6781 133.852 96.7248 133.899 96.7248 133.992V134.86C96.7248 134.953 96.6781 135 96.5848 135C96.2861 135.019 96.0714 135.028 95.9408 135.028C95.2314 135.028 94.6948 134.902 94.3308 134.65C93.9761 134.389 93.7988 133.913 93.7988 133.222V129.036C93.7988 128.999 93.7801 128.98 93.7428 128.98H92.8888C92.7954 128.98 92.7488 128.933 92.7488 128.84V128.014C92.7488 127.921 92.7954 127.874 92.8888 127.874H93.7428C93.7801 127.874 93.7988 127.855 93.7988 127.818V126.166C93.7988 126.073 93.8454 126.026 93.9388 126.026H94.9468C95.0401 126.026 95.0868 126.073 95.0868 126.166V127.818C95.0868 127.855 95.1054 127.874 95.1428 127.874H96.6548C96.7481 127.874 96.7948 127.921 96.7948 128.014V128.84ZM100.955 135.084C100.395 135.084 99.9001 135 99.4708 134.832C99.0508 134.664 98.7241 134.435 98.4908 134.146C98.2574 133.847 98.1408 133.521 98.1408 133.166V133.012C98.1408 132.919 98.1874 132.872 98.2808 132.872H99.2888C99.3821 132.872 99.4288 132.919 99.4288 133.012V133.082C99.4288 133.343 99.5688 133.572 99.8488 133.768C100.138 133.964 100.502 134.062 100.941 134.062C101.361 134.062 101.701 133.973 101.963 133.796C102.224 133.609 102.355 133.376 102.355 133.096C102.355 132.825 102.233 132.625 101.991 132.494C101.748 132.354 101.356 132.209 100.815 132.06C100.283 131.911 99.8348 131.761 99.4708 131.612C99.1161 131.453 98.8128 131.234 98.5608 130.954C98.3181 130.665 98.1968 130.296 98.1968 129.848C98.1968 129.223 98.4394 128.728 98.9248 128.364C99.4194 127.991 100.073 127.804 100.885 127.804C101.426 127.804 101.902 127.893 102.313 128.07C102.733 128.238 103.055 128.476 103.279 128.784C103.503 129.092 103.615 129.437 103.615 129.82V129.862C103.615 129.955 103.568 130.002 103.475 130.002H102.495C102.401 130.002 102.355 129.955 102.355 129.862V129.82C102.355 129.549 102.219 129.325 101.949 129.148C101.687 128.961 101.328 128.868 100.871 128.868C100.46 128.868 100.124 128.947 99.8628 129.106C99.6108 129.265 99.4848 129.479 99.4848 129.75C99.4848 130.021 99.6061 130.226 99.8488 130.366C100.101 130.506 100.502 130.655 101.053 130.814C101.594 130.963 102.042 131.113 102.397 131.262C102.761 131.402 103.069 131.617 103.321 131.906C103.573 132.186 103.699 132.555 103.699 133.012C103.699 133.647 103.447 134.151 102.943 134.524C102.448 134.897 101.785 135.084 100.955 135.084Z" fill="#F2CD5E"/>
<path d="M111.588 128.84C111.588 128.933 111.541 128.98 111.448 128.98H109.936C109.898 128.98 109.88 128.999 109.88 129.036V132.746C109.88 133.138 109.968 133.423 110.146 133.6C110.323 133.768 110.598 133.852 110.972 133.852H111.378C111.471 133.852 111.518 133.899 111.518 133.992V134.86C111.518 134.953 111.471 135 111.378 135C111.079 135.019 110.864 135.028 110.734 135.028C110.024 135.028 109.488 134.902 109.124 134.65C108.769 134.389 108.592 133.913 108.592 133.222V129.036C108.592 128.999 108.573 128.98 108.536 128.98H107.682C107.588 128.98 107.542 128.933 107.542 128.84V128.014C107.542 127.921 107.588 127.874 107.682 127.874H108.536C108.573 127.874 108.592 127.855 108.592 127.818V126.166C108.592 126.073 108.638 126.026 108.732 126.026H109.74C109.833 126.026 109.88 126.073 109.88 126.166V127.818C109.88 127.855 109.898 127.874 109.936 127.874H111.448C111.541 127.874 111.588 127.921 111.588 128.014V128.84ZM116.42 127.776C117.185 127.776 117.792 128 118.24 128.448C118.688 128.887 118.912 129.484 118.912 130.24V134.86C118.912 134.953 118.865 135 118.772 135H117.708C117.614 135 117.568 134.953 117.568 134.86V130.506C117.568 130.039 117.432 129.661 117.162 129.372C116.891 129.083 116.532 128.938 116.084 128.938C115.645 128.938 115.286 129.083 115.006 129.372C114.726 129.661 114.586 130.035 114.586 130.492V134.86C114.586 134.953 114.539 135 114.446 135H113.382C113.288 135 113.242 134.953 113.242 134.86V125.34C113.242 125.247 113.288 125.2 113.382 125.2H114.446C114.539 125.2 114.586 125.247 114.586 125.34V128.518C114.586 128.537 114.59 128.551 114.6 128.56C114.618 128.569 114.632 128.565 114.642 128.546C115.043 128.033 115.636 127.776 116.42 127.776ZM123.434 127.762C124.003 127.762 124.498 127.865 124.918 128.07C125.347 128.266 125.674 128.546 125.898 128.91C126.131 129.265 126.248 129.671 126.248 130.128V134.86C126.248 134.953 126.201 135 126.108 135H125.044C124.95 135 124.904 134.953 124.904 134.86V134.356C124.904 134.309 124.88 134.3 124.834 134.328C124.591 134.58 124.292 134.776 123.938 134.916C123.592 135.047 123.205 135.112 122.776 135.112C122.085 135.112 121.511 134.939 121.054 134.594C120.606 134.239 120.382 133.707 120.382 132.998C120.382 132.27 120.634 131.701 121.138 131.29C121.651 130.87 122.365 130.66 123.28 130.66H124.848C124.885 130.66 124.904 130.641 124.904 130.604V130.226C124.904 129.815 124.782 129.498 124.54 129.274C124.306 129.041 123.947 128.924 123.462 128.924C123.07 128.924 122.748 129.003 122.496 129.162C122.253 129.311 122.104 129.517 122.048 129.778C122.02 129.871 121.964 129.913 121.88 129.904L120.746 129.75C120.652 129.731 120.61 129.694 120.62 129.638C120.694 129.087 120.988 128.639 121.502 128.294C122.015 127.939 122.659 127.762 123.434 127.762ZM123.07 133.978C123.564 133.978 123.994 133.847 124.358 133.586C124.722 133.325 124.904 132.993 124.904 132.592V131.766C124.904 131.729 124.885 131.71 124.848 131.71H123.532C122.981 131.71 122.542 131.817 122.216 132.032C121.889 132.247 121.726 132.545 121.726 132.928C121.726 133.273 121.847 133.535 122.09 133.712C122.342 133.889 122.668 133.978 123.07 133.978ZM131.48 128.84C131.48 128.933 131.434 128.98 131.34 128.98H129.828C129.791 128.98 129.772 128.999 129.772 129.036V132.746C129.772 133.138 129.861 133.423 130.038 133.6C130.216 133.768 130.491 133.852 130.864 133.852H131.27C131.364 133.852 131.41 133.899 131.41 133.992V134.86C131.41 134.953 131.364 135 131.27 135C130.972 135.019 130.757 135.028 130.626 135.028C129.917 135.028 129.38 134.902 129.016 134.65C128.662 134.389 128.484 133.913 128.484 133.222V129.036C128.484 128.999 128.466 128.98 128.428 128.98H127.574C127.481 128.98 127.434 128.933 127.434 128.84V128.014C127.434 127.921 127.481 127.874 127.574 127.874H128.428C128.466 127.874 128.484 127.855 128.484 127.818V126.166C128.484 126.073 128.531 126.026 128.624 126.026H129.632C129.726 126.026 129.772 126.073 129.772 126.166V127.818C129.772 127.855 129.791 127.874 129.828 127.874H131.34C131.434 127.874 131.48 127.921 131.48 128.014V128.84ZM139.115 127.776C139.88 127.776 140.487 128 140.935 128.448C141.383 128.887 141.607 129.484 141.607 130.24V134.86C141.607 134.953 141.56 135 141.467 135H140.403C140.31 135 140.263 134.953 140.263 134.86V130.506C140.263 130.039 140.128 129.661 139.857 129.372C139.586 129.083 139.227 128.938 138.779 128.938C138.34 128.938 137.981 129.083 137.701 129.372C137.421 129.661 137.281 130.035 137.281 130.492V134.86C137.281 134.953 137.234 135 137.141 135H136.077C135.984 135 135.937 134.953 135.937 134.86V125.34C135.937 125.247 135.984 125.2 136.077 125.2H137.141C137.234 125.2 137.281 125.247 137.281 125.34V128.518C137.281 128.537 137.286 128.551 137.295 128.56C137.314 128.569 137.328 128.565 137.337 128.546C137.738 128.033 138.331 127.776 139.115 127.776ZM146.129 127.762C146.698 127.762 147.193 127.865 147.613 128.07C148.042 128.266 148.369 128.546 148.593 128.91C148.826 129.265 148.943 129.671 148.943 130.128V134.86C148.943 134.953 148.896 135 148.803 135H147.739C147.646 135 147.599 134.953 147.599 134.86V134.356C147.599 134.309 147.576 134.3 147.529 134.328C147.286 134.58 146.988 134.776 146.633 134.916C146.288 135.047 145.9 135.112 145.471 135.112C144.78 135.112 144.206 134.939 143.749 134.594C143.301 134.239 143.077 133.707 143.077 132.998C143.077 132.27 143.329 131.701 143.833 131.29C144.346 130.87 145.06 130.66 145.975 130.66H147.543C147.58 130.66 147.599 130.641 147.599 130.604V130.226C147.599 129.815 147.478 129.498 147.235 129.274C147.002 129.041 146.642 128.924 146.157 128.924C145.765 128.924 145.443 129.003 145.191 129.162C144.948 129.311 144.799 129.517 144.743 129.778C144.715 129.871 144.659 129.913 144.575 129.904L143.441 129.75C143.348 129.731 143.306 129.694 143.315 129.638C143.39 129.087 143.684 128.639 144.197 128.294C144.71 127.939 145.354 127.762 146.129 127.762ZM145.765 133.978C146.26 133.978 146.689 133.847 147.053 133.586C147.417 133.325 147.599 132.993 147.599 132.592V131.766C147.599 131.729 147.58 131.71 147.543 131.71H146.227C145.676 131.71 145.238 131.817 144.911 132.032C144.584 132.247 144.421 132.545 144.421 132.928C144.421 133.273 144.542 133.535 144.785 133.712C145.037 133.889 145.364 133.978 145.765 133.978ZM152.51 135C152.426 135 152.37 134.963 152.342 134.888L150.06 128.028L150.046 127.972C150.046 127.907 150.088 127.874 150.172 127.874H151.348C151.432 127.874 151.488 127.911 151.516 127.986L153.056 133.054C153.066 133.073 153.08 133.082 153.098 133.082C153.117 133.082 153.131 133.073 153.14 133.054L154.666 127.986C154.694 127.911 154.75 127.874 154.834 127.874L156.01 127.888C156.113 127.888 156.15 127.939 156.122 128.042L153.854 134.888C153.826 134.963 153.77 135 153.686 135H152.51ZM162.965 130.548C163.002 130.931 163.016 131.36 163.007 131.836C163.007 131.929 162.96 131.976 162.867 131.976H158.401C158.363 131.976 158.345 131.995 158.345 132.032C158.345 132.349 158.373 132.592 158.429 132.76C158.531 133.133 158.737 133.427 159.045 133.642C159.362 133.847 159.759 133.95 160.235 133.95C160.925 133.95 161.457 133.665 161.831 133.096C161.877 133.003 161.938 132.989 162.013 133.054L162.811 133.586C162.876 133.642 162.89 133.703 162.853 133.768C162.591 134.188 162.218 134.519 161.733 134.762C161.257 135.005 160.715 135.126 160.109 135.126C159.427 135.126 158.853 134.977 158.387 134.678C157.92 134.379 157.57 133.955 157.337 133.404C157.113 132.853 157.001 132.186 157.001 131.402C157.001 130.721 157.052 130.203 157.155 129.848C157.323 129.204 157.659 128.695 158.163 128.322C158.667 127.949 159.278 127.762 159.997 127.762C160.939 127.762 161.644 128 162.111 128.476C162.577 128.943 162.862 129.633 162.965 130.548ZM159.997 128.924C159.595 128.924 159.264 129.027 159.003 129.232C158.741 129.428 158.564 129.694 158.471 130.03C158.405 130.235 158.363 130.497 158.345 130.814C158.345 130.851 158.363 130.87 158.401 130.87H161.607C161.644 130.87 161.663 130.851 161.663 130.814C161.644 130.506 161.616 130.277 161.579 130.128C161.485 129.764 161.299 129.475 161.019 129.26C160.748 129.036 160.407 128.924 159.997 128.924ZM167.881 127.776C168.646 127.776 169.253 128 169.701 128.448C170.149 128.887 170.373 129.484 170.373 130.24V134.86C170.373 134.953 170.326 135 170.233 135H169.169C169.075 135 169.029 134.953 169.029 134.86V130.506C169.029 130.039 168.893 129.661 168.623 129.372C168.352 129.083 167.993 128.938 167.545 128.938C167.106 128.938 166.747 129.083 166.467 129.372C166.187 129.661 166.047 130.035 166.047 130.492V134.86C166.047 134.953 166 135 165.907 135H164.843C164.749 135 164.703 134.953 164.703 134.86V128.014C164.703 127.921 164.749 127.874 164.843 127.874H165.907C166 127.874 166.047 127.921 166.047 128.014V128.518C166.047 128.537 166.051 128.551 166.061 128.56C166.079 128.569 166.093 128.565 166.103 128.546C166.504 128.033 167.097 127.776 167.881 127.776ZM171.476 128.196C171.373 128.196 171.322 128.149 171.322 128.056L171.196 125.368C171.196 125.275 171.238 125.228 171.322 125.228H172.428C172.512 125.228 172.554 125.275 172.554 125.368L172.414 128.056C172.414 128.149 172.367 128.196 172.274 128.196H171.476ZM177.363 128.84C177.363 128.933 177.316 128.98 177.223 128.98H175.711C175.674 128.98 175.655 128.999 175.655 129.036V132.746C175.655 133.138 175.744 133.423 175.921 133.6C176.098 133.768 176.374 133.852 176.747 133.852H177.153C177.246 133.852 177.293 133.899 177.293 133.992V134.86C177.293 134.953 177.246 135 177.153 135C176.854 135.019 176.64 135.028 176.509 135.028C175.8 135.028 175.263 134.902 174.899 134.65C174.544 134.389 174.367 133.913 174.367 133.222V129.036C174.367 128.999 174.348 128.98 174.311 128.98H173.457C173.364 128.98 173.317 128.933 173.317 128.84V128.014C173.317 127.921 173.364 127.874 173.457 127.874H174.311C174.348 127.874 174.367 127.855 174.367 127.818V126.166C174.367 126.073 174.414 126.026 174.507 126.026H175.515C175.608 126.026 175.655 126.073 175.655 126.166V127.818C175.655 127.855 175.674 127.874 175.711 127.874H177.223C177.316 127.874 177.363 127.921 177.363 128.014V128.84ZM187.574 129.722C187.723 130.198 187.798 130.763 187.798 131.416C187.798 132.116 187.709 132.713 187.532 133.208C187.327 133.815 187 134.286 186.552 134.622C186.113 134.949 185.558 135.112 184.886 135.112C184.559 135.112 184.256 135.047 183.976 134.916C183.696 134.785 183.453 134.603 183.248 134.37C183.229 134.351 183.211 134.347 183.192 134.356C183.183 134.365 183.178 134.379 183.178 134.398V134.86C183.178 134.953 183.131 135 183.038 135H181.974C181.881 135 181.834 134.953 181.834 134.86V125.34C181.834 125.247 181.881 125.2 181.974 125.2H183.038C183.131 125.2 183.178 125.247 183.178 125.34V128.462C183.178 128.481 183.183 128.495 183.192 128.504C183.211 128.513 183.229 128.509 183.248 128.49C183.453 128.257 183.696 128.079 183.976 127.958C184.265 127.827 184.569 127.762 184.886 127.762C185.586 127.762 186.16 127.935 186.608 128.28C187.056 128.625 187.378 129.106 187.574 129.722ZM186.09 133.18C186.323 132.741 186.44 132.163 186.44 131.444C186.44 130.679 186.291 130.063 185.992 129.596C185.721 129.148 185.306 128.924 184.746 128.924C184.223 128.924 183.827 129.162 183.556 129.638C183.313 130.067 183.192 130.665 183.192 131.43C183.192 132.195 183.304 132.783 183.528 133.194C183.808 133.698 184.219 133.95 184.76 133.95C185.376 133.95 185.819 133.693 186.09 133.18ZM195.244 130.548C195.281 130.931 195.295 131.36 195.286 131.836C195.286 131.929 195.239 131.976 195.146 131.976H190.68C190.643 131.976 190.624 131.995 190.624 132.032C190.624 132.349 190.652 132.592 190.708 132.76C190.811 133.133 191.016 133.427 191.324 133.642C191.641 133.847 192.038 133.95 192.514 133.95C193.205 133.95 193.737 133.665 194.11 133.096C194.157 133.003 194.217 132.989 194.292 133.054L195.09 133.586C195.155 133.642 195.169 133.703 195.132 133.768C194.871 134.188 194.497 134.519 194.012 134.762C193.536 135.005 192.995 135.126 192.388 135.126C191.707 135.126 191.133 134.977 190.666 134.678C190.199 134.379 189.849 133.955 189.616 133.404C189.392 132.853 189.28 132.186 189.28 131.402C189.28 130.721 189.331 130.203 189.434 129.848C189.602 129.204 189.938 128.695 190.442 128.322C190.946 127.949 191.557 127.762 192.276 127.762C193.219 127.762 193.923 128 194.39 128.476C194.857 128.943 195.141 129.633 195.244 130.548ZM192.276 128.924C191.875 128.924 191.543 129.027 191.282 129.232C191.021 129.428 190.843 129.694 190.75 130.03C190.685 130.235 190.643 130.497 190.624 130.814C190.624 130.851 190.643 130.87 190.68 130.87H193.886C193.923 130.87 193.942 130.851 193.942 130.814C193.923 130.506 193.895 130.277 193.858 130.128C193.765 129.764 193.578 129.475 193.298 129.26C193.027 129.036 192.687 128.924 192.276 128.924ZM202.75 130.548C202.787 130.931 202.801 131.36 202.792 131.836C202.792 131.929 202.745 131.976 202.652 131.976H198.186C198.149 131.976 198.13 131.995 198.13 132.032C198.13 132.349 198.158 132.592 198.214 132.76C198.317 133.133 198.522 133.427 198.83 133.642C199.147 133.847 199.544 133.95 200.02 133.95C200.711 133.95 201.243 133.665 201.616 133.096C201.663 133.003 201.723 132.989 201.798 133.054L202.596 133.586C202.661 133.642 202.675 133.703 202.638 133.768C202.377 134.188 202.003 134.519 201.518 134.762C201.042 135.005 200.501 135.126 199.894 135.126C199.213 135.126 198.639 134.977 198.172 134.678C197.705 134.379 197.355 133.955 197.122 133.404C196.898 132.853 196.786 132.186 196.786 131.402C196.786 130.721 196.837 130.203 196.94 129.848C197.108 129.204 197.444 128.695 197.948 128.322C198.452 127.949 199.063 127.762 199.782 127.762C200.725 127.762 201.429 128 201.896 128.476C202.363 128.943 202.647 129.633 202.75 130.548ZM199.782 128.924C199.381 128.924 199.049 129.027 198.788 129.232C198.527 129.428 198.349 129.694 198.256 130.03C198.191 130.235 198.149 130.497 198.13 130.814C198.13 130.851 198.149 130.87 198.186 130.87H201.392C201.429 130.87 201.448 130.851 201.448 130.814C201.429 130.506 201.401 130.277 201.364 130.128C201.271 129.764 201.084 129.475 200.804 129.26C200.533 129.036 200.193 128.924 199.782 128.924ZM207.666 127.776C208.431 127.776 209.038 128 209.486 128.448C209.934 128.887 210.158 129.484 210.158 130.24V134.86C210.158 134.953 210.111 135 210.018 135H208.954C208.86 135 208.814 134.953 208.814 134.86V130.506C208.814 130.039 208.678 129.661 208.408 129.372C208.137 129.083 207.778 128.938 207.33 128.938C206.891 128.938 206.532 129.083 206.252 129.372C205.972 129.661 205.832 130.035 205.832 130.492V134.86C205.832 134.953 205.785 135 205.692 135H204.628C204.534 135 204.488 134.953 204.488 134.86V128.014C204.488 127.921 204.534 127.874 204.628 127.874H205.692C205.785 127.874 205.832 127.921 205.832 128.014V128.518C205.832 128.537 205.836 128.551 205.846 128.56C205.864 128.569 205.878 128.565 205.888 128.546C206.289 128.033 206.882 127.776 207.666 127.776ZM40.102 149.804C40.4007 149.804 40.6713 149.865 40.914 149.986C40.9793 150.014 41.0027 150.07 40.984 150.154L40.76 151.204C40.7507 151.288 40.6947 151.316 40.592 151.288C40.4333 151.223 40.2467 151.19 40.032 151.19L39.836 151.204C39.3973 151.223 39.0333 151.377 38.744 151.666C38.464 151.946 38.324 152.315 38.324 152.772V156.86C38.324 156.953 38.2773 157 38.184 157H37.12C37.0267 157 36.98 156.953 36.98 156.86V150.014C36.98 149.921 37.0267 149.874 37.12 149.874H38.184C38.2773 149.874 38.324 149.921 38.324 150.014V150.756C38.324 150.784 38.3287 150.803 38.338 150.812C38.3567 150.812 38.3707 150.803 38.38 150.784C38.8 150.131 39.374 149.804 40.102 149.804ZM47.8339 152.548C47.8713 152.931 47.8853 153.36 47.8759 153.836C47.8759 153.929 47.8293 153.976 47.7359 153.976H43.2699C43.2326 153.976 43.2139 153.995 43.2139 154.032C43.2139 154.349 43.2419 154.592 43.2979 154.76C43.4006 155.133 43.6059 155.427 43.9139 155.642C44.2313 155.847 44.6279 155.95 45.1039 155.95C45.7946 155.95 46.3266 155.665 46.6999 155.096C46.7466 155.003 46.8073 154.989 46.8819 155.054L47.6799 155.586C47.7453 155.642 47.7593 155.703 47.7219 155.768C47.4606 156.188 47.0873 156.519 46.6019 156.762C46.1259 157.005 45.5846 157.126 44.9779 157.126C44.2966 157.126 43.7226 156.977 43.2559 156.678C42.7893 156.379 42.4393 155.955 42.2059 155.404C41.9819 154.853 41.8699 154.186 41.8699 153.402C41.8699 152.721 41.9213 152.203 42.0239 151.848C42.1919 151.204 42.5279 150.695 43.0319 150.322C43.5359 149.949 44.1473 149.762 44.8659 149.762C45.8086 149.762 46.5133 150 46.9799 150.476C47.4466 150.943 47.7313 151.633 47.8339 152.548ZM44.8659 150.924C44.4646 150.924 44.1333 151.027 43.8719 151.232C43.6106 151.428 43.4333 151.694 43.3399 152.03C43.2746 152.235 43.2326 152.497 43.2139 152.814C43.2139 152.851 43.2326 152.87 43.2699 152.87H46.4759C46.5133 152.87 46.5319 152.851 46.5319 152.814C46.5133 152.506 46.4853 152.277 46.4479 152.128C46.3546 151.764 46.1679 151.475 45.8879 151.26C45.6173 151.036 45.2766 150.924 44.8659 150.924ZM51.9684 157.084C51.4084 157.084 50.9138 157 50.4844 156.832C50.0644 156.664 49.7378 156.435 49.5044 156.146C49.2711 155.847 49.1544 155.521 49.1544 155.166V155.012C49.1544 154.919 49.2011 154.872 49.2944 154.872H50.3024C50.3958 154.872 50.4424 154.919 50.4424 155.012V155.082C50.4424 155.343 50.5824 155.572 50.8624 155.768C51.1518 155.964 51.5158 156.062 51.9544 156.062C52.3744 156.062 52.7151 155.973 52.9764 155.796C53.2378 155.609 53.3684 155.376 53.3684 155.096C53.3684 154.825 53.2471 154.625 53.0044 154.494C52.7618 154.354 52.3698 154.209 51.8284 154.06C51.2964 153.911 50.8484 153.761 50.4844 153.612C50.1298 153.453 49.8264 153.234 49.5744 152.954C49.3318 152.665 49.2104 152.296 49.2104 151.848C49.2104 151.223 49.4531 150.728 49.9384 150.364C50.4331 149.991 51.0864 149.804 51.8984 149.804C52.4398 149.804 52.9158 149.893 53.3264 150.07C53.7464 150.238 54.0684 150.476 54.2924 150.784C54.5164 151.092 54.6284 151.437 54.6284 151.82V151.862C54.6284 151.955 54.5818 152.002 54.4884 152.002H53.5084C53.4151 152.002 53.3684 151.955 53.3684 151.862V151.82C53.3684 151.549 53.2331 151.325 52.9624 151.148C52.7011 150.961 52.3418 150.868 51.8844 150.868C51.4738 150.868 51.1378 150.947 50.8764 151.106C50.6244 151.265 50.4984 151.479 50.4984 151.75C50.4984 152.021 50.6198 152.226 50.8624 152.366C51.1144 152.506 51.5158 152.655 52.0664 152.814C52.6078 152.963 53.0558 153.113 53.4104 153.262C53.7744 153.402 54.0824 153.617 54.3344 153.906C54.5864 154.186 54.7124 154.555 54.7124 155.012C54.7124 155.647 54.4604 156.151 53.9564 156.524C53.4618 156.897 52.7991 157.084 51.9684 157.084ZM59.1967 157.112C58.506 157.112 57.904 156.939 57.3907 156.594C56.8774 156.239 56.518 155.749 56.3127 155.124C56.1447 154.62 56.0607 154.051 56.0607 153.416C56.0607 152.753 56.14 152.193 56.2987 151.736C56.504 151.12 56.8634 150.639 57.3767 150.294C57.89 149.939 58.5014 149.762 59.2107 149.762C59.8827 149.762 60.466 149.939 60.9607 150.294C61.4647 150.639 61.824 151.115 62.0387 151.722C62.2067 152.198 62.2907 152.758 62.2907 153.402C62.2907 154.055 62.2067 154.629 62.0387 155.124C61.8334 155.749 61.4787 156.239 60.9747 156.594C60.4707 156.939 59.878 157.112 59.1967 157.112ZM59.1967 155.95C59.57 155.95 59.8967 155.847 60.1767 155.642C60.4567 155.427 60.6574 155.129 60.7787 154.746C60.8814 154.391 60.9327 153.953 60.9327 153.43C60.9327 152.907 60.886 152.473 60.7927 152.128C60.6714 151.745 60.4707 151.451 60.1907 151.246C59.9107 151.031 59.57 150.924 59.1687 150.924C58.786 150.924 58.4547 151.031 58.1747 151.246C57.8947 151.451 57.694 151.745 57.5727 152.128C57.47 152.455 57.4187 152.889 57.4187 153.43C57.4187 153.971 57.47 154.41 57.5727 154.746C57.6847 155.129 57.8807 155.427 58.1607 155.642C58.45 155.847 58.7954 155.95 59.1967 155.95ZM64.1903 157C64.097 157 64.0503 156.953 64.0503 156.86V147.34C64.0503 147.247 64.097 147.2 64.1903 147.2H65.2543C65.3476 147.2 65.3943 147.247 65.3943 147.34V156.86C65.3943 156.953 65.3476 157 65.2543 157H64.1903ZM69.2212 157C69.1372 157 69.0812 156.963 69.0532 156.888L66.7712 150.028L66.7572 149.972C66.7572 149.907 66.7992 149.874 66.8832 149.874H68.0592C68.1432 149.874 68.1992 149.911 68.2272 149.986L69.7672 155.054C69.7766 155.073 69.7906 155.082 69.8092 155.082C69.8279 155.082 69.8419 155.073 69.8512 155.054L71.3772 149.986C71.4052 149.911 71.4612 149.874 71.5452 149.874L72.7212 149.888C72.8239 149.888 72.8612 149.939 72.8332 150.042L70.5652 156.888C70.5372 156.963 70.4812 157 70.3972 157H69.2212ZM79.6757 152.548C79.7131 152.931 79.7271 153.36 79.7177 153.836C79.7177 153.929 79.6711 153.976 79.5777 153.976H75.1117C75.0744 153.976 75.0557 153.995 75.0557 154.032C75.0557 154.349 75.0837 154.592 75.1397 154.76C75.2424 155.133 75.4477 155.427 75.7557 155.642C76.0731 155.847 76.4697 155.95 76.9457 155.95C77.6364 155.95 78.1684 155.665 78.5417 155.096C78.5884 155.003 78.6491 154.989 78.7237 155.054L79.5217 155.586C79.5871 155.642 79.6011 155.703 79.5637 155.768C79.3024 156.188 78.9291 156.519 78.4437 156.762C77.9677 157.005 77.4264 157.126 76.8197 157.126C76.1384 157.126 75.5644 156.977 75.0977 156.678C74.6311 156.379 74.2811 155.955 74.0477 155.404C73.8237 154.853 73.7117 154.186 73.7117 153.402C73.7117 152.721 73.7631 152.203 73.8657 151.848C74.0337 151.204 74.3697 150.695 74.8737 150.322C75.3777 149.949 75.9891 149.762 76.7077 149.762C77.6504 149.762 78.3551 150 78.8217 150.476C79.2884 150.943 79.5731 151.633 79.6757 152.548ZM76.7077 150.924C76.3064 150.924 75.9751 151.027 75.7137 151.232C75.4524 151.428 75.2751 151.694 75.1817 152.03C75.1164 152.235 75.0744 152.497 75.0557 152.814C75.0557 152.851 75.0744 152.87 75.1117 152.87H78.3177C78.3551 152.87 78.3737 152.851 78.3737 152.814C78.3551 152.506 78.3271 152.277 78.2897 152.128C78.1964 151.764 78.0097 151.475 77.7297 151.26C77.4591 151.036 77.1184 150.924 76.7077 150.924ZM85.8376 147.34C85.8376 147.247 85.8843 147.2 85.9776 147.2H87.0416C87.1349 147.2 87.1816 147.247 87.1816 147.34V156.86C87.1816 156.953 87.1349 157 87.0416 157H85.9776C85.8843 157 85.8376 156.953 85.8376 156.86V156.398C85.8376 156.379 85.8283 156.365 85.8096 156.356C85.8003 156.347 85.7863 156.351 85.7676 156.37C85.5623 156.603 85.3196 156.785 85.0396 156.916C84.7596 157.047 84.4563 157.112 84.1296 157.112C83.4576 157.112 82.8976 156.949 82.4496 156.622C82.0109 156.286 81.6889 155.815 81.4836 155.208C81.3063 154.713 81.2176 154.116 81.2176 153.416C81.2176 152.763 81.2923 152.198 81.4416 151.722C81.6376 151.106 81.9596 150.625 82.4076 150.28C82.8556 149.935 83.4296 149.762 84.1296 149.762C84.4469 149.762 84.7456 149.827 85.0256 149.958C85.3149 150.079 85.5623 150.257 85.7676 150.49C85.7863 150.509 85.8003 150.513 85.8096 150.504C85.8283 150.495 85.8376 150.481 85.8376 150.462V147.34ZM85.4876 155.194C85.7023 154.802 85.8096 154.214 85.8096 153.43C85.8096 152.646 85.6929 152.049 85.4596 151.638C85.1889 151.162 84.7923 150.924 84.2696 150.924C83.7096 150.924 83.2943 151.148 83.0236 151.596C82.7249 152.063 82.5756 152.679 82.5756 153.444C82.5756 154.163 82.6923 154.741 82.9256 155.18C83.1963 155.693 83.6396 155.95 84.2556 155.95C84.7969 155.95 85.2076 155.698 85.4876 155.194ZM91.7446 159.786C91.6793 159.786 91.6466 159.739 91.6466 159.646V158.82C91.6466 158.727 91.6933 158.68 91.7866 158.68H91.8146C92.1879 158.671 92.4819 158.624 92.6966 158.54C92.9113 158.456 93.0886 158.297 93.2286 158.064C93.3686 157.84 93.5039 157.499 93.6346 157.042C93.6439 157.033 93.6439 157.019 93.6346 157C93.6346 156.972 93.6346 156.958 93.6346 156.958L91.2966 150.028L91.2826 149.972C91.2826 149.907 91.3246 149.874 91.4086 149.874H92.5426C92.6266 149.874 92.6826 149.911 92.7106 149.986L94.2926 155.264C94.3019 155.283 94.3159 155.292 94.3346 155.292C94.3533 155.292 94.3673 155.283 94.3766 155.264L95.9446 149.986C95.9726 149.911 96.0286 149.874 96.1126 149.874H97.2186C97.3213 149.874 97.3586 149.925 97.3306 150.028L94.7826 157.49C94.5679 158.134 94.3533 158.61 94.1386 158.918C93.9239 159.235 93.6439 159.459 93.2986 159.59C92.9533 159.721 92.4679 159.786 91.8426 159.786H91.7446ZM104.066 152.548C104.104 152.931 104.118 153.36 104.108 153.836C104.108 153.929 104.062 153.976 103.968 153.976H99.5024C99.465 153.976 99.4464 153.995 99.4464 154.032C99.4464 154.349 99.4744 154.592 99.5304 154.76C99.633 155.133 99.8384 155.427 100.146 155.642C100.464 155.847 100.86 155.95 101.336 155.95C102.027 155.95 102.559 155.665 102.932 155.096C102.979 155.003 103.04 154.989 103.114 155.054L103.912 155.586C103.978 155.642 103.992 155.703 103.954 155.768C103.693 156.188 103.32 156.519 102.834 156.762C102.358 157.005 101.817 157.126 101.21 157.126C100.529 157.126 99.955 156.977 99.4884 156.678C99.0217 156.379 98.6717 155.955 98.4384 155.404C98.2144 154.853 98.1024 154.186 98.1024 153.402C98.1024 152.721 98.1537 152.203 98.2564 151.848C98.4244 151.204 98.7604 150.695 99.2644 150.322C99.7684 149.949 100.38 149.762 101.098 149.762C102.041 149.762 102.746 150 103.212 150.476C103.679 150.943 103.964 151.633 104.066 152.548ZM101.098 150.924C100.697 150.924 100.366 151.027 100.104 151.232C99.843 151.428 99.6657 151.694 99.5724 152.03C99.507 152.235 99.465 152.497 99.4464 152.814C99.4464 152.851 99.465 152.87 99.5024 152.87H102.708C102.746 152.87 102.764 152.851 102.764 152.814C102.746 152.506 102.718 152.277 102.68 152.128C102.587 151.764 102.4 151.475 102.12 151.26C101.85 151.036 101.509 150.924 101.098 150.924ZM109.209 150.84C109.209 150.933 109.162 150.98 109.069 150.98H107.557C107.52 150.98 107.501 150.999 107.501 151.036V154.746C107.501 155.138 107.59 155.423 107.767 155.6C107.944 155.768 108.22 155.852 108.593 155.852H108.999C109.092 155.852 109.139 155.899 109.139 155.992V156.86C109.139 156.953 109.092 157 108.999 157C108.7 157.019 108.486 157.028 108.355 157.028C107.646 157.028 107.109 156.902 106.745 156.65C106.39 156.389 106.213 155.913 106.213 155.222V151.036C106.213 150.999 106.194 150.98 106.157 150.98H105.303C105.21 150.98 105.163 150.933 105.163 150.84V150.014C105.163 149.921 105.21 149.874 105.303 149.874H106.157C106.194 149.874 106.213 149.855 106.213 149.818V148.166C106.213 148.073 106.26 148.026 106.353 148.026H107.361C107.454 148.026 107.501 148.073 107.501 148.166V149.818C107.501 149.855 107.52 149.874 107.557 149.874H109.069C109.162 149.874 109.209 149.921 109.209 150.014V150.84Z" fill="#292B4D" fill-opacity="0.8"/>
</g>
<defs>
<filter id="filter0_d_69_261" x="0" y="0" width="258" height="208" filterUnits="userSpaceOnUse" color-interpolation-filters="sRGB">
<feFlood flood-opacity="0" result="BackgroundImageFix"/>
<feColorMatrix in="SourceAlpha" type="matrix" values="0 0 0 0 0 0 0 0 0 0 0 0 0 0 0 0 0 0 127 0" result="hardAlpha"/>
<feOffset dy="10"/>
<feGaussianBlur stdDeviation="2"/>
<feComposite in2="hardAlpha" operator="out"/>
<feColorMatrix type="matrix" values="0 0 0 0 0 0 0 0 0 0 0 0 0 0 0 0 0 0 0.1 0"/>
<feBlend mode="normal" in2="BackgroundImageFix" result="effect1_dropShadow_69_261"/>
<feBlend mode="normal" in="SourceGraphic" in2="effect1_dropShadow_69_261" result="shape"/>
</filter>
</defs>
</svg>
